<?xml version="1.0" encoding="UTF-8"?>
<svg width="57px" height="23px" viewBox="0 0 57 23" version="1.1" xmlns="http://www.w3.org/2000/svg" xmlns:xlink="http://www.w3.org/1999/xlink">
    <!-- Generator: Sketch 50.2 (55047) - http://www.bohemiancoding.com/sketch -->
    <title>designlink copy</title>
    <desc>Created with Sketch.</desc>
    <defs></defs>
    <g id="designlink-copy" stroke="none" stroke-width="1" fill="none" fill-rule="evenodd">
        <g id="Group" transform="translate(18.500000, -0.500000)" fill="#333333">
            <path d="M3.34195312,4 C5.24195313,4 6.19195313,5.12 6.19195313,6.8 L6.19195313,8.04 C6.19195313,9.86 5.11195313,11 3.09195312,11 L1.05195313,11 L1.05195313,4 L3.34195312,4 Z M4.93195313,8.06 L4.93195313,6.77 C4.93195313,5.63 4.39195313,4.97 3.28195313,4.97 L2.31195313,4.97 L2.31195313,10.03 L3.10195312,10.03 C4.32195313,10.03 4.93195313,9.39 4.93195313,8.06 Z M11.901044,4.97 L9.07104403,4.97 L9.07104403,6.96 L11.681044,6.96 L11.681044,7.93 L9.07104403,7.93 L9.07104403,10.02 L11.901044,10.02 L11.901044,11 L7.81104404,11 L7.81104404,4 L11.901044,4 L11.901044,4.97 Z M15.3901349,11.13 C14.1201349,11.13 13.3201349,10.73 12.7701349,10.22 L13.4001349,9.47 C13.9901349,9.86 14.3801349,10.13 15.3301349,10.13 C16.3601349,10.13 16.8101349,9.62 16.8101349,9.15 L16.8101349,9.02 C16.8101349,8.52 16.5701349,8.27 15.7401349,8 L14.7101349,7.66 C13.5301349,7.28 13.0601349,6.66 13.0601349,5.89 L13.0601349,5.66 C13.0601349,4.71 13.9601349,3.87 15.5601349,3.87 C16.6201349,3.87 17.3901349,4.2 18.0201349,4.78 L17.4001349,5.47 C16.7601349,4.99 16.3101349,4.83 15.6101349,4.83 C14.7001349,4.83 14.3201349,5.26 14.3201349,5.65 L14.3201349,5.82 C14.3201349,6.17 14.6401349,6.46 15.4401349,6.71 L16.3701349,7.01 C17.3301349,7.31 18.0601349,7.82 18.0601349,8.89 L18.0601349,9.16 C18.0601349,10.34 16.9601349,11.13 15.3901349,11.13 Z M22.2792259,4.97 L21.3792259,4.97 L21.3792259,10.03 L22.2792259,10.03 L22.2792259,11 L19.2192259,11 L19.2192259,10.03 L20.1192259,10.03 L20.1192259,4.97 L19.2192259,4.97 L19.2192259,4 L22.2792259,4 L22.2792259,4.97 Z M26.1883168,7.13 L28.8883168,7.13 L28.8883168,11 L27.8983168,11 L27.7883168,10.4 C27.3583168,10.82 26.7483168,11.13 25.9483168,11.13 C24.5983168,11.13 23.5383168,10.23 23.5383168,8.66 L23.5383168,6.71 C23.5383168,4.99 24.5983168,3.87 26.3983168,3.87 C27.5583168,3.87 28.2983168,4.29 28.8183168,4.97 L27.9983168,5.55 C27.6083168,5.07 27.1683168,4.84 26.4283168,4.84 C25.3283168,4.84 24.7983168,5.5 24.7983168,6.65 L24.7983168,8.63 C24.7983168,9.58 25.2783168,10.16 26.2183168,10.16 C26.8783168,10.16 27.3583168,9.87 27.6683168,9.43 L27.6683168,8.07 L26.1883168,8.07 L26.1883168,7.13 Z M34.7474077,4 L35.8674077,4 L35.8674077,11 L34.4074077,11 L31.6574077,5.58 L31.6574077,11 L30.5474077,11 L30.5474077,4 L32.0574077,4 L34.7474077,9.25 L34.7474077,4 Z" id="DESIGN"></path>
            <path d="M2.31195313,18.48 L5.15195313,18.48 L5.15195313,19.5 L1.05195313,19.5 L1.05195313,12.5 L2.31195313,12.5 L2.31195313,18.48 Z M8.91104403,13.47 L8.01104403,13.47 L8.01104403,18.53 L8.91104403,18.53 L8.91104403,19.5 L5.85104404,19.5 L5.85104404,18.53 L6.75104403,18.53 L6.75104403,13.47 L5.85104404,13.47 L5.85104404,12.5 L8.91104403,12.5 L8.91104403,13.47 Z M14.7601349,12.5 L15.8801349,12.5 L15.8801349,19.5 L14.4201349,19.5 L11.6701349,14.08 L11.6701349,19.5 L10.5601349,19.5 L10.5601349,12.5 L12.0701349,12.5 L14.7601349,17.75 L14.7601349,12.5 Z M21.8992259,19.5 L19.7292259,16.5 L19.0792259,17.31 L19.0792259,19.5 L17.8792259,19.5 L17.8792259,12.5 L19.0792259,12.5 L19.0792259,15.73 L21.6292259,12.5 L22.9592259,12.5 L20.5092259,15.63 L23.3292259,19.5 L21.8992259,19.5 Z" id="LINK"></path>
        </g>
        <g id="Group" transform="translate(2.686890, 5.309937)" fill="#333333">
            <path d="M7.19677004,4.87611528 C6.96841202,4.64775727 6.9012479,4.47904099 6.36393492,4.34471275 L6.36393492,5.28608509 C6.36393492,5.33766713 6.5659646,5.38548799 6.62668097,5.44674167 C7.41276986,6.23175593 7.44608326,7.51056082 6.66053169,8.29611239 L4.27969788,10.6936029 C3.4941463,11.4791545 2.22393842,11.4791545 1.43838684,10.6936029 C0.652835269,9.90805133 0.589969651,8.62978375 1.37552123,7.84423218 L3.14005705,6.01629342 L3.14005705,4.8766526 L0.809730659,7.27414311 C-0.291760948,8.37617203 -0.258447543,10.1622004 0.843581377,11.263692 C1.94507298,12.3657209 3.74775803,12.3657209 4.84924963,11.263692 L7.22202375,8.86620147 C8.32297804,7.76363523 8.29772433,5.97760689 7.19677004,4.87611528" id="Shape"></path>
            <path d="M11.3136621,0.825850049 C10.2121705,-0.275104245 8.42614214,-0.275104245 7.32411322,0.825850049 L4.9266227,3.22387787 C3.8251311,4.32536948 3.89229522,6.11193514 4.99378683,7.21342674 C5.22214484,7.44178476 5.28930896,7.61103835 5.82662194,7.74482928 L5.82662194,6.80291963 C5.82662194,6.75133758 5.62459226,6.70351672 5.5638759,6.64280036 C4.77832432,5.8577861 4.7444736,4.57898121 5.53002518,3.79342963 L7.91085899,1.39593912 C8.69641056,0.610387544 9.96661845,0.610387544 10.75217,1.39593912 C11.5377216,2.18149069 11.6005872,3.45975827 10.8150356,4.24584716 L9.05049982,6.0732486 L9.05049982,7.21288943 L11.3808262,4.81539892 C12.4823178,3.71390731 12.4151537,1.92787897 11.3136621,0.825850049" id="Shape"></path>
        </g>
    </g>
</svg>