<?xml version="1.0" encoding="UTF-8"?>
<svg width="46px" height="16px" viewBox="0 0 46 16" version="1.1" xmlns="http://www.w3.org/2000/svg" xmlns:xlink="http://www.w3.org/1999/xlink">
    <!-- Generator: Sketch 50.2 (55047) - http://www.bohemiancoding.com/sketch -->
    <title>pads-pcb</title>
    <desc>Created with Sketch.</desc>
    <defs>
        <path d="M3.67298828,4.5 C5.18298828,4.5 6.16298828,5.21 6.16298828,6.5 L6.16298828,7.08 C6.16298828,8.36 5.10298828,9.1 3.50298828,9.1 L2.62298828,9.1 L2.62298828,11.5 L1.36298828,11.5 L1.36298828,4.5 L3.67298828,4.5 Z M4.90298828,7.01 L4.90298828,6.56 C4.90298828,5.8 4.40298828,5.46 3.61298828,5.46 L2.62298828,5.46 L2.62298828,8.14 L3.46298828,8.14 C4.36298828,8.14 4.90298828,7.81 4.90298828,7.01 Z M11.1629883,11.5 L10.5829883,9.66 L8.16298828,9.66 L7.63298828,11.5 L6.36298828,11.5 L8.50298828,4.5 L10.2129883,4.5 L12.4629883,11.5 L11.1629883,11.5 Z M9.35298828,5.38 L8.44298828,8.65 L10.2829883,8.65 L9.35298828,5.38 Z M15.9529883,4.5 C17.8529883,4.5 18.8029883,5.62 18.8029883,7.3 L18.8029883,8.54 C18.8029883,10.36 17.7229883,11.5 15.7029883,11.5 L13.6629883,11.5 L13.6629883,4.5 L15.9529883,4.5 Z M17.5429883,8.56 L17.5429883,7.27 C17.5429883,6.13 17.0029883,5.47 15.8929883,5.47 L14.9229883,5.47 L14.9229883,10.53 L15.7129883,10.53 C16.9329883,10.53 17.5429883,9.89 17.5429883,8.56 Z M22.2629883,11.63 C20.9929883,11.63 20.1929883,11.23 19.6429883,10.72 L20.2729883,9.97 C20.8629883,10.36 21.2529883,10.63 22.2029883,10.63 C23.2329883,10.63 23.6829883,10.12 23.6829883,9.65 L23.6829883,9.52 C23.6829883,9.02 23.4429883,8.77 22.6129883,8.5 L21.5829883,8.16 C20.4029883,7.78 19.9329883,7.16 19.9329883,6.39 L19.9329883,6.16 C19.9329883,5.21 20.8329883,4.37 22.4329883,4.37 C23.4929883,4.37 24.2629883,4.7 24.8929883,5.28 L24.2729883,5.97 C23.6329883,5.49 23.1829883,5.33 22.4829883,5.33 C21.5729883,5.33 21.1929883,5.76 21.1929883,6.15 L21.1929883,6.32 C21.1929883,6.67 21.5129883,6.96 22.3129883,7.21 L23.2429883,7.51 C24.2029883,7.81 24.9329883,8.32 24.9329883,9.39 L24.9329883,9.66 C24.9329883,10.84 23.8329883,11.63 22.2629883,11.63 Z" id="path-1"></path>
    </defs>
    <g id="Page-1" stroke="none" stroke-width="1" fill="none" fill-rule="evenodd">
        <g id="pads-pcb">
            <g id="Group" transform="translate(21.000000, 1.000000)">
                <g id="PADS">
                    <g>
                        <use fill="#000000" xlink:href="#path-1"></use>
                        <use fill="#333333" xlink:href="#path-1"></use>
                    </g>
                </g>
            </g>
            <g id="Group" transform="translate(7.500000, 8.000000) rotate(90.000000) translate(-7.500000, -8.000000) translate(-0.500000, 0.500000)" fill="#585858" fill-rule="nonzero">
                <rect id="Rectangle-path" x="3" y="0" width="2" height="5"></rect>
                <rect id="Rectangle-path" x="7" y="0" width="2" height="5"></rect>
                <rect id="Rectangle-path" x="11" y="0" width="2" height="5"></rect>
                <rect id="Rectangle-path" x="3" y="10" width="2" height="5"></rect>
                <rect id="Rectangle-path" x="7" y="10" width="2" height="5"></rect>
                <rect id="Rectangle-path" x="11" y="10" width="2" height="5"></rect>
                <path d="M16,3 L16,12 L16,13 L1,13 L0,13 L0,2 L1,2 L16,2 L16,3 Z M15,3 L1,3 L1,12 L15,12 L15,3 Z" id="Shape"></path>
            </g>
        </g>
    </g>
</svg>