<?xml version="1.0" encoding="UTF-8"?>
<svg width="57px" height="23px" viewBox="0 0 57 23" version="1.1" xmlns="http://www.w3.org/2000/svg" xmlns:xlink="http://www.w3.org/1999/xlink">
    <!-- Generator: Sketch 50.2 (55047) - http://www.bohemiancoding.com/sketch -->
    <title>pcb-service copy</title>
    <desc>Created with Sketch.</desc>
    <defs></defs>
    <g id="pcb-service-copy" stroke="none" stroke-width="1" fill="none" fill-rule="evenodd">
        <g id="Group" transform="translate(22.500000, -0.500000)" fill="#333333">
            <path d="M3.67298828,4 C5.18298828,4 6.16298828,4.71 6.16298828,6 L6.16298828,6.58 C6.16298828,7.86 5.10298828,8.6 3.50298828,8.6 L2.62298828,8.6 L2.62298828,11 L1.36298828,11 L1.36298828,4 L3.67298828,4 Z M4.90298828,6.51 L4.90298828,6.06 C4.90298828,5.3 4.40298828,4.96 3.61298828,4.96 L2.62298828,4.96 L2.62298828,7.64 L3.46298828,7.64 C4.36298828,7.64 4.90298828,7.31 4.90298828,6.51 Z M9.85207919,11.13 C8.09207919,11.13 7.09207919,10.08 7.09207919,8.5 L7.09207919,6.66 C7.09207919,4.95 8.15207919,3.87 9.90207919,3.87 C10.8920792,3.87 11.5120792,4.2 12.0520792,4.63 L11.4120792,5.35 C11.0120792,5.06 10.5820792,4.84 9.94207919,4.84 C8.92207919,4.84 8.35207919,5.47 8.35207919,6.59 L8.35207919,8.48 C8.35207919,9.58 8.86207919,10.16 9.88207919,10.16 C10.5720792,10.16 11.0620792,9.92 11.4620792,9.65 L11.9920792,10.4 C11.5220792,10.77 10.7720792,11.13 9.85207919,11.13 Z M16.8311701,7.37 C17.3411701,7.47 18.0811701,7.84 18.0811701,8.79 L18.0811701,9.19 C18.0811701,10.25 17.0311701,11 15.3711701,11 L13.2211701,11 L13.2211701,4 L15.3811701,4 C16.8811701,4 17.8611701,4.63 17.8611701,5.74 L17.8611701,6.18 C17.8611701,6.92 17.3111701,7.25 16.8311701,7.37 Z M15.3911701,4.92 L14.4811701,4.92 L14.4811701,7.03 L15.5811701,7.03 C16.1911701,7.03 16.5911701,6.75 16.5911701,6.18 L16.5911701,5.81 C16.5911701,5.2 16.1311701,4.92 15.3911701,4.92 Z M16.8211701,9.13 L16.8211701,8.77 C16.8211701,8.24 16.4111701,7.92 15.6411701,7.92 L14.4811701,7.92 L14.4811701,10.08 L15.3911701,10.08 C16.2811701,10.08 16.8211701,9.76 16.8211701,9.13 Z" id="PCB"></path>
            <path d="M6.86298828,20.13 L6.07298828,20.73 L5.07298828,19.43 C4.71298828,19.57 4.30298828,19.63 3.86298828,19.63 C1.95298828,19.63 0.972988281,18.51 0.972988281,16.81 L0.972988281,15.21 C0.972988281,13.49 1.94298828,12.37 3.86298828,12.37 C5.79298828,12.37 6.75298828,13.49 6.75298828,15.21 L6.75298828,16.89 C6.75298828,17.73 6.47298828,18.44 5.91298828,18.92 L6.86298828,20.13 Z M3.86298828,18.69 C4.08298828,18.69 4.28298828,18.68 4.46298828,18.64 L3.86298828,17.86 L4.62298828,17.29 L5.28298828,18.12 C5.43298828,17.88 5.50298828,17.55 5.50298828,17.12 L5.50298828,15.18 C5.50298828,14.01 4.97298828,13.34 3.86298828,13.34 C2.76298828,13.34 2.22298828,14.01 2.22298828,15.18 L2.22298828,16.89 C2.22298828,18.03 2.74298828,18.69 3.86298828,18.69 Z M13.5620792,12.5 L13.5620792,17.24 C13.5620792,18.6 12.7020792,19.63 10.8620792,19.63 C9.05207919,19.63 8.16207919,18.6 8.16207919,17.24 L8.16207919,12.5 L9.43207919,12.5 L9.43207919,17.24 C9.43207919,18.09 9.84207919,18.66 10.8620792,18.66 C11.8820792,18.66 12.3020792,18.09 12.3020792,17.24 L12.3020792,12.5 L13.5620792,12.5 Z M17.8411701,12.37 C19.7711701,12.37 20.7211701,13.57 20.7211701,15.22 L20.7211701,16.79 C20.7211701,18.42 19.7711701,19.63 17.8411701,19.63 C15.9311701,19.63 14.9711701,18.42 14.9711701,16.79 L14.9711701,15.22 C14.9711701,13.57 15.9211701,12.37 17.8411701,12.37 Z M17.8411701,13.34 C16.7511701,13.34 16.2311701,14.08 16.2311701,15.21 L16.2311701,16.81 C16.2311701,17.91 16.7411701,18.66 17.8411701,18.66 C18.9411701,18.66 19.4511701,17.91 19.4511701,16.81 L19.4511701,15.21 C19.4511701,14.08 18.9311701,13.34 17.8411701,13.34 Z M26.510261,12.5 L26.510261,13.47 L24.550261,13.47 L24.550261,19.5 L23.290261,19.5 L23.290261,13.47 L21.320261,13.47 L21.320261,12.5 L26.510261,12.5 Z M31.7093519,13.47 L28.8793519,13.47 L28.8793519,15.46 L31.4893519,15.46 L31.4893519,16.43 L28.8793519,16.43 L28.8793519,18.52 L31.7093519,18.52 L31.7093519,19.5 L27.6193519,19.5 L27.6193519,12.5 L31.7093519,12.5 L31.7093519,13.47 Z" id="QUOTE"></path>
        </g>
        <g id="Asset-5" transform="translate(1.975418, 3.861938)" fill="#585858">
            <path d="M13.4595893,0.720691789 L13.4595893,13.9127421 L0.738683591,13.9127421 L0.738683591,0.720691789 L13.4595893,0.720691789 Z M13.9307339,0.249547133 L0.267538936,0.249547133 L0.267538936,14.3838868 L13.9307339,14.3838868 L13.9307339,0.249547133 Z" id="Shape" fill-rule="nonzero"></path>
            <rect id="Rectangle" x="0.738683591" y="0.720691789" width="12.7209057" height="2.35572328"></rect>
            <rect id="Rectangle-path" fill-rule="nonzero" x="2.01209005" y="4.97886991" width="10.1740928" height="1"></rect>
            <rect id="Rectangle-path-Copy" fill-rule="nonzero" x="2.01209005" y="7.69453367" width="10.1740928" height="1"></rect>
            <rect id="Rectangle-path-Copy-2" fill-rule="nonzero" x="2.01209005" y="10.4101974" width="10.1740928" height="1"></rect>
        </g>
    </g>
</svg>