<?xml version="1.0" encoding="UTF-8" standalone="no"?>
<svg width="32px" height="32px" viewBox="0 0 32 32" version="1.1" xmlns="http://www.w3.org/2000/svg" xmlns:xlink="http://www.w3.org/1999/xlink">
    <!-- Generator: Sketch 49.3 (51167) - http://www.bohemiancoding.com/sketch -->
    <title>Add</title>
    <desc>Created with Sketch.</desc>
    <defs></defs>
    <g stroke="none" stroke-width="1" fill="none" fill-rule="evenodd">
        <path d="M18,1.055 C22.494,1.555 26,5.375 26,10 C26,14.625 22.494,18.445 18,18.945 L18,1.055" fill="#F3F3F3" fill-rule="nonzero"></path>
        <g transform="translate(0.000000, 16.000000)" fill-rule="nonzero">
            <polygon fill="#21A04A" points="16 6 10 6 10 0 6 0 6 6 0 6 0 10 6 10 6 16 10 16 10 10 16 10"></polygon>
            <polygon fill="#24B252" points="15 7 9 7 9 1 7 1 7 7 1 7 1 9 7 9 7 15 9 15 9 9 15 9"></polygon>
        </g>
        <path d="M32,9 L26.95,9 C26.448,3.947 22.186,0 17,0 L17,5 L12,5 L12,7 L17,7 L17,13 L12,13 L12,15 L17,15 L17,20 C22.186,20 26.448,16.053 26.95,11 L32,11 L32,9 Z M18,18.945 L18,1.054 C22.494,1.554 26,5.374 26,9.999 C26,14.624 22.494,18.445 18,18.945 Z" fill="#333333" fill-rule="nonzero"></path>
    </g>
</svg>