<?xml version="1.0" encoding="UTF-8" standalone="no"?>
<svg width="32px" height="33px" viewBox="0 0 32 33" version="1.1" xmlns="http://www.w3.org/2000/svg" xmlns:xlink="http://www.w3.org/1999/xlink">
    <!-- Generator: Sketch 49.3 (51167) - http://www.bohemiancoding.com/sketch -->
    <title>AttrOverwriteLbr</title>
    <desc>Created with Sketch.</desc>
    <defs></defs>
    <g stroke="none" stroke-width="1" fill="none" fill-rule="evenodd">
        <g transform="translate(-167.000000, -76.000000)">
            <g transform="translate(163.000000, 73.000000)">
                <g transform="translate(4.003524, 3.781967)">
                    <path d="M25.5,16.218033 C25.5,10.971658 21.2469688,6.71803299 16,6.71803299 C10.753625,6.71803299 6.5,10.971658 6.5,16.218033 C6.5,21.464408 10.753625,25.718033 16,25.718033 C21.2469688,25.718033 25.5,21.464408 25.5,16.218033" fill="#E87271"></path>
                    <path d="M25.5,16.218033 C25.5,10.971658 21.2469688,6.71803299 16,6.71803299 C10.753625,6.71803299 6.5,10.971658 6.5,16.218033 C6.5,21.464408 10.753625,25.718033 16,25.718033 C21.2469688,25.718033 25.5,21.464408 25.5,16.218033 M24.5,16.218033 C24.5,11.523908 20.6946563,7.71803299 16,7.71803299 C11.305875,7.71803299 7.5,11.523908 7.5,16.218033 C7.5,20.912158 11.305875,24.718033 16,24.718033 C20.6946563,24.718033 24.5,20.912158 24.5,16.218033" fill="#000000" opacity="0.1"></path>
                </g>
            </g>
        </g>
    </g>
</svg>