<?xml version="1.0" encoding="UTF-8" standalone="no"?>
<svg width="32px" height="32px" viewBox="0 0 32 32" version="1.1" xmlns="http://www.w3.org/2000/svg" xmlns:xlink="http://www.w3.org/1999/xlink">
    <!-- Generator: Sketch 49.3 (51167) - http://www.bohemiancoding.com/sketch -->
    <title>BGA</title>
    <desc>Created with Sketch.</desc>
    <defs></defs>
    <g stroke="none" stroke-width="1" fill="none" fill-rule="evenodd">
        <polygon fill="#14B44E" points="0 32 32 32 32 0 0 0"></polygon>
        <path d="M0,32 L32,32 L32,0 L0,0 L0,32 Z M1,31 L31,31 L31,1 L1,1 L1,31 Z" fill="#000000" opacity="0.1"></path>
        <g transform="translate(10.500000, 10.000000)" fill="#FEFEFE">
            <path d="M1.74147514,3.34803788 C0.977586255,3.34803788 0.366475144,2.73692676 0.366475144,1.97303788 C0.366475144,1.20914899 0.977586255,0.598037876 1.74147514,0.598037876 C2.50536403,0.598037876 3.11647514,1.20914899 3.11647514,1.97303788 C3.11647514,2.73692676 2.42897514,3.34803788 1.74147514,3.34803788"></path>
            <path d="M5.49147514,3.34803788 C4.72758625,3.34803788 4.11647514,2.73692676 4.11647514,1.97303788 C4.11647514,1.20914899 4.72758625,0.598037876 5.49147514,0.598037876 C6.25536403,0.598037876 6.86647514,1.20914899 6.86647514,1.97303788 C6.86647514,2.73692676 6.17897514,3.34803788 5.49147514,3.34803788"></path>
            <path d="M9.24147514,3.34803788 C8.47758625,3.34803788 7.86647514,2.73692676 7.86647514,1.97303788 C7.86647514,1.20914899 8.47758625,0.598037876 9.24147514,0.598037876 C10.005364,0.598037876 10.6164751,1.20914899 10.6164751,1.97303788 C10.6164751,2.73692676 9.92897514,3.34803788 9.24147514,3.34803788"></path>
            <path d="M1.74147514,7.25807206 C0.977586255,7.25807206 0.366475144,6.64696094 0.366475144,5.88307206 C0.366475144,5.11918317 0.977586255,4.50807206 1.74147514,4.50807206 C2.50536403,4.50807206 3.11647514,5.11918317 3.11647514,5.88307206 C3.11647514,6.64696094 2.42897514,7.25807206 1.74147514,7.25807206"></path>
            <path d="M5.49147514,7.09303299 C4.72758625,7.09303299 4.11647514,6.48192188 4.11647514,5.71803299 C4.11647514,4.9541441 4.72758625,4.34303299 5.49147514,4.34303299 C6.25536403,4.34303299 6.86647514,4.9541441 6.86647514,5.71803299 C6.86647514,6.48192188 6.17897514,7.09303299 5.49147514,7.09303299"></path>
            <path d="M9.24147514,7.25807206 C8.47758625,7.25807206 7.86647514,6.64696094 7.86647514,5.88307206 C7.86647514,5.11918317 8.47758625,4.50807206 9.24147514,4.50807206 C10.005364,4.50807206 10.6164751,5.11918317 10.6164751,5.88307206 C10.6164751,6.64696094 9.92897514,7.25807206 9.24147514,7.25807206"></path>
            <path d="M1.74147514,11.0080721 C0.977586255,11.0080721 0.366475144,10.3969609 0.366475144,9.63307206 C0.366475144,8.86918317 0.977586255,8.25807206 1.74147514,8.25807206 C2.50536403,8.25807206 3.11647514,8.86918317 3.11647514,9.63307206 C3.11647514,10.3969609 2.42897514,11.0080721 1.74147514,11.0080721"></path>
            <path d="M5.49147514,11.0080721 C4.72758625,11.0080721 4.11647514,10.3969609 4.11647514,9.63307206 C4.11647514,8.86918317 4.72758625,8.25807206 5.49147514,8.25807206 C6.25536403,8.25807206 6.86647514,8.86918317 6.86647514,9.63307206 C6.86647514,10.3969609 6.17897514,11.0080721 5.49147514,11.0080721"></path>
            <path d="M9.24147514,11.0080721 C8.47758625,11.0080721 7.86647514,10.3969609 7.86647514,9.63307206 C7.86647514,8.86918317 8.47758625,8.25807206 9.24147514,8.25807206 C10.005364,8.25807206 10.6164751,8.86918317 10.6164751,9.63307206 C10.6164751,10.3969609 9.92897514,11.0080721 9.24147514,11.0080721"></path>
        </g>
        <g transform="translate(3.000000, 3.000000)" fill="#FEFEFE">
            <path d="M1.67619048,2.8952381 C0.914285714,2.8952381 0.304761905,2.28571429 0.304761905,1.52380952 C0.304761905,0.761904762 0.914285714,0.152380952 1.67619048,0.152380952 C2.43809524,0.152380952 2.97142857,0.838095238 2.97142857,1.52380952 C2.97142857,2.20952381 2.36190476,2.8952381 1.67619048,2.8952381"></path>
            <path d="M5.48571429,2.8952381 C4.72380952,2.8952381 4.11428571,2.28571429 4.11428571,1.52380952 C4.11428571,0.761904762 4.72380952,0.152380952 5.48571429,0.152380952 C6.24761905,0.152380952 6.78095238,0.838095238 6.78095238,1.52380952 C6.78095238,2.20952381 6.17142857,2.8952381 5.48571429,2.8952381"></path>
            <path d="M9.2952381,2.8952381 C8.53333333,2.8952381 7.92380952,2.28571429 7.92380952,1.52380952 C7.92380952,0.761904762 8.53333333,0.152380952 9.2952381,0.152380952 C10.0571429,0.152380952 10.6666667,0.761904762 10.6666667,1.52380952 C10.6666667,2.28571429 9.98095238,2.8952381 9.2952381,2.8952381"></path>
            <path d="M13.1047619,2.8952381 C12.3428571,2.8952381 11.7333333,2.28571429 11.7333333,1.52380952 C11.7333333,0.761904762 12.3428571,0.152380952 13.1047619,0.152380952 C13.8666667,0.152380952 14.4761905,0.761904762 14.4761905,1.52380952 C14.4761905,2.28571429 13.7904762,2.8952381 13.1047619,2.8952381"></path>
            <path d="M16.9142857,2.8952381 C16.152381,2.8952381 15.5428571,2.28571429 15.5428571,1.52380952 C15.5428571,0.761904762 16.152381,0.152380952 16.9142857,0.152380952 C17.6761905,0.152380952 18.2857143,0.761904762 18.2857143,1.52380952 C18.2857143,2.28571429 17.6,2.8952381 16.9142857,2.8952381"></path>
            <path d="M20.7238095,2.8952381 C19.9619048,2.8952381 19.352381,2.28571429 19.352381,1.52380952 C19.352381,0.761904762 19.9619048,0.152380952 20.7238095,0.152380952 C21.4857143,0.152380952 22.0952381,0.761904762 22.0952381,1.52380952 C22.0952381,2.28571429 21.4095238,2.8952381 20.7238095,2.8952381"></path>
            <path d="M24.5333333,2.8952381 C23.7714286,2.8952381 23.1619048,2.28571429 23.1619048,1.52380952 C23.1619048,0.761904762 23.7714286,0.152380952 24.5333333,0.152380952 C25.2952381,0.152380952 25.9047619,0.761904762 25.9047619,1.52380952 C25.9047619,2.28571429 25.2190476,2.8952381 24.5333333,2.8952381"></path>
            <path d="M1.67619048,6.7047619 C0.914285714,6.7047619 0.304761905,6.0952381 0.304761905,5.33333333 C0.304761905,4.57142857 0.914285714,3.96190476 1.67619048,3.96190476 C2.43809524,3.96190476 2.97142857,4.64761905 2.97142857,5.33333333 C2.97142857,6.01904762 2.36190476,6.7047619 1.67619048,6.7047619"></path>
            <path d="M24.5333333,6.7047619 C23.7714286,6.7047619 23.1619048,6.0952381 23.1619048,5.33333333 C23.1619048,4.57142857 23.7714286,3.96190476 24.5333333,3.96190476 C25.2952381,3.96190476 25.9047619,4.57142857 25.9047619,5.33333333 C25.9047619,6.0952381 25.2190476,6.7047619 24.5333333,6.7047619"></path>
            <path d="M1.67619048,10.5142857 C0.914285714,10.5142857 0.304761905,9.9047619 0.304761905,9.14285714 C0.304761905,8.38095238 0.914285714,7.77142857 1.67619048,7.77142857 C2.43809524,7.77142857 3.04761905,8.38095238 3.04761905,9.14285714 C3.04761905,9.9047619 2.36190476,10.5142857 1.67619048,10.5142857"></path>
            <path d="M24.5333333,10.5142857 C23.7714286,10.5142857 23.1619048,9.9047619 23.1619048,9.14285714 C23.1619048,8.38095238 23.7714286,7.77142857 24.5333333,7.77142857 C25.2952381,7.77142857 25.9047619,8.38095238 25.9047619,9.14285714 C25.9047619,9.9047619 25.2190476,10.5142857 24.5333333,10.5142857"></path>
            <path d="M1.67619048,14.3238095 C0.914285714,14.3238095 0.304761905,13.7142857 0.304761905,12.952381 C0.304761905,12.1904762 0.914285714,11.5809524 1.67619048,11.5809524 C2.43809524,11.5809524 3.04761905,12.1904762 3.04761905,12.952381 C3.04761905,13.7142857 2.36190476,14.3238095 1.67619048,14.3238095"></path>
            <path d="M24.5333333,14.3238095 C23.7714286,14.3238095 23.1619048,13.7142857 23.1619048,12.952381 C23.1619048,12.1904762 23.7714286,11.5809524 24.5333333,11.5809524 C25.2952381,11.5809524 25.9047619,12.1904762 25.9047619,12.952381 C25.9047619,13.7142857 25.2190476,14.3238095 24.5333333,14.3238095"></path>
            <path d="M1.67619048,18.1333333 C0.914285714,18.1333333 0.304761905,17.5238095 0.304761905,16.7619048 C0.304761905,16 0.914285714,15.3904762 1.67619048,15.3904762 C2.43809524,15.3904762 3.04761905,16 3.04761905,16.7619048 C3.04761905,17.5238095 2.36190476,18.1333333 1.67619048,18.1333333"></path>
            <path d="M24.5333333,18.1333333 C23.7714286,18.1333333 23.1619048,17.5238095 23.1619048,16.7619048 C23.1619048,16 23.7714286,15.3904762 24.5333333,15.3904762 C25.2952381,15.3904762 25.9047619,16 25.9047619,16.7619048 C25.9047619,17.5238095 25.2190476,18.1333333 24.5333333,18.1333333"></path>
            <path d="M1.67619048,21.9428571 C0.914285714,21.9428571 0.304761905,21.3333333 0.304761905,20.5714286 C0.304761905,19.8095238 0.914285714,19.2 1.67619048,19.2 C2.43809524,19.2 3.04761905,19.8095238 3.04761905,20.5714286 C3.04761905,21.3333333 2.36190476,21.9428571 1.67619048,21.9428571"></path>
            <path d="M24.5333333,21.9428571 C23.7714286,21.9428571 23.1619048,21.3333333 23.1619048,20.5714286 C23.1619048,19.8095238 23.7714286,19.2 24.5333333,19.2 C25.2952381,19.2 25.9047619,19.8095238 25.9047619,20.5714286 C25.9047619,21.3333333 25.2190476,21.9428571 24.5333333,21.9428571"></path>
            <path d="M1.67619048,25.752381 C0.914285714,25.752381 0.304761905,25.1428571 0.304761905,24.3809524 C0.304761905,23.6190476 0.914285714,23.0095238 1.67619048,23.0095238 C2.43809524,23.0095238 3.04761905,23.6190476 3.04761905,24.3809524 C3.04761905,25.1428571 2.36190476,25.752381 1.67619048,25.752381"></path>
            <path d="M5.48571429,25.752381 C4.72380952,25.752381 4.11428571,25.1428571 4.11428571,24.3809524 C4.11428571,23.6190476 4.72380952,23.0095238 5.48571429,23.0095238 C6.24761905,23.0095238 6.85714286,23.6190476 6.85714286,24.3809524 C6.85714286,25.1428571 6.17142857,25.752381 5.48571429,25.752381"></path>
            <path d="M9.2952381,25.752381 C8.53333333,25.752381 7.92380952,25.1428571 7.92380952,24.3809524 C7.92380952,23.6190476 8.53333333,23.0095238 9.2952381,23.0095238 C10.0571429,23.0095238 10.6666667,23.6190476 10.6666667,24.3809524 C10.6666667,25.1428571 9.98095238,25.752381 9.2952381,25.752381"></path>
            <path d="M13.1047619,25.752381 C12.3428571,25.752381 11.7333333,25.1428571 11.7333333,24.3809524 C11.7333333,23.6190476 12.3428571,23.0095238 13.1047619,23.0095238 C13.8666667,23.0095238 14.4761905,23.6190476 14.4761905,24.3809524 C14.4761905,25.1428571 13.7904762,25.752381 13.1047619,25.752381"></path>
            <path d="M16.9142857,25.752381 C16.152381,25.752381 15.5428571,25.1428571 15.5428571,24.3809524 C15.5428571,23.6190476 16.152381,23.0095238 16.9142857,23.0095238 C17.6761905,23.0095238 18.2857143,23.6190476 18.2857143,24.3809524 C18.2857143,25.1428571 17.6,25.752381 16.9142857,25.752381"></path>
            <path d="M20.7238095,25.752381 C19.9619048,25.752381 19.352381,25.1428571 19.352381,24.3809524 C19.352381,23.6190476 19.9619048,23.0095238 20.7238095,23.0095238 C21.4857143,23.0095238 22.0952381,23.6190476 22.0952381,24.3809524 C22.0952381,25.1428571 21.4095238,25.752381 20.7238095,25.752381"></path>
            <path d="M24.5333333,25.752381 C23.7714286,25.752381 23.1619048,25.1428571 23.1619048,24.3809524 C23.1619048,23.6190476 23.7714286,23.0095238 24.5333333,23.0095238 C25.2952381,23.0095238 25.9047619,23.6190476 25.9047619,24.3809524 C25.9047619,25.1428571 25.2190476,25.752381 24.5333333,25.752381"></path>
        </g>
    </g>
</svg>