<?xml version="1.0" encoding="UTF-8" standalone="no"?>
<svg width="32px" height="32px" viewBox="0 0 32 32" version="1.1" xmlns="http://www.w3.org/2000/svg" xmlns:xlink="http://www.w3.org/1999/xlink">
    <!-- Generator: Sketch 49.3 (51167) - http://www.bohemiancoding.com/sketch -->
    <title>Brd</title>
    <desc>Created with Sketch.</desc>
    <defs></defs>
    <g stroke="none" stroke-width="1" fill="none" fill-rule="evenodd">
        <g transform="translate(18.000000, 16.000000) rotate(90.000000) translate(-18.000000, -16.000000) translate(2.000000, 4.000000)" fill-rule="nonzero">
            <polygon fill="#666666" points="32 9 23 9 23 0"></polygon>
            <polygon fill="#F3F3F3" points="23 9 23 0 0 0 0 24 32 24 32 9"></polygon>
            <polygon fill="#666666" points="31 9 31 10 31 13 31 23 1 23 1 1 20 1 22 1 23 1 23 0 0 0 0 24 32 24 32 9"></polygon>
        </g>
        <rect fill="#1B8D43" x="2" y="4" width="28" height="16"></rect>
        <path d="M8.77142857,11.8285714 C9.57142857,11.9714286 10.6571429,12.5 10.6571429,13.8857143 L10.6571429,14.4571429 C10.6571429,15.9571429 9.21428571,17 6.87142857,17 L4,17 L4,7 L6.91428571,7 C8.97142857,7 10.3428571,7.87142857 10.3428571,9.47142857 L10.3428571,10.1 C10.3428571,11.1714286 9.54285714,11.6714286 8.77142857,11.8285714 Z M6.94285714,8.11428571 L5.45714286,8.11428571 L5.45714286,11.4142857 L7.28571429,11.4142857 C8.24285714,11.4142857 8.88571429,10.9571429 8.88571429,10.0714286 L8.88571429,9.52857143 C8.88571429,8.57142857 8.12857143,8.11428571 6.94285714,8.11428571 Z M9.21428571,14.4142857 L9.21428571,13.8857143 C9.21428571,13.0285714 8.51428571,12.5285714 7.35714286,12.5285714 L5.45714286,12.5285714 L5.45714286,15.8714286 L6.91428571,15.8714286 C8.35714286,15.8714286 9.21428571,15.3714286 9.21428571,14.4142857 Z M19.45546,17 L17.8548122,17 L15.6539215,12.9142857 L13.8531928,12.9142857 L13.8531928,17 L12.39546,17 L12.39546,7 L15.5681725,7 C17.6404397,7 19.0124235,7.98571429 19.0124235,9.61428571 L19.0124235,10.3285714 C19.0124235,11.4571429 18.2692656,12.2857143 17.0973628,12.6714286 L19.45546,17 Z M13.8866452,8.18876003 L13.8866452,11.78876 L15.5866452,11.78876 C16.8009309,11.78876 17.5723595,11.2744743 17.5723595,10.3030457 L17.5723595,9.70304574 C17.5723595,8.73161717 16.7866452,8.18876003 15.5723595,8.18876003 L13.8866452,8.18876003 Z M24.0814651,7 C26.7671794,7 28.1100365,8.6 28.1100365,11 L28.1100365,12.7428571 C28.1100365,15.3571429 26.5814651,17 23.7243222,17 L20.9957508,17 L20.9957508,7 L24.0814651,7 Z M26.4949754,12.7714286 L26.4949754,10.9714286 C26.4949754,9.22857143 25.6235468,8.15714286 23.8521182,8.15714286 L22.2949754,8.15714286 L22.2949754,15.8428571 L23.5664039,15.8428571 C25.5092611,15.8428571 26.4949754,14.8142857 26.4949754,12.7714286 Z" fill="#FFFFFF"></path>
    </g>
</svg>