<?xml version="1.0" encoding="UTF-8" standalone="no"?>
<svg width="32px" height="32px" viewBox="0 0 32 32" version="1.1" xmlns="http://www.w3.org/2000/svg" xmlns:xlink="http://www.w3.org/1999/xlink">
    <!-- Generator: Sketch 49.3 (51167) - http://www.bohemiancoding.com/sketch -->
    <title>Change</title>
    <desc>Created with Sketch.</desc>
    <defs></defs>
    <g stroke="none" stroke-width="1" fill="none" fill-rule="evenodd">
        <path d="M25.3304194,10.3115235 L29.2881049,6.32023139 L29.6426496,6.65876703 C30.5630256,7.53758441 31.0568467,8.77286833 30.9947798,10.0638278 C30.839506,11.8496852 30.0185504,13.5117611 28.7115665,14.7040459 C26.6456099,16.7712257 23.0201867,17.6598808 20.5530005,16.3714258 C20.3034852,16.2113771 19.9745408,16.2577347 19.7512158,16.5096127 C19.487023,16.765701 16.9688743,19.4390827 13.0042025,23.6662906 C11.4988774,25.2713143 9.91321273,26.9635905 8.32854034,28.6558698 C7.77390268,29.2481701 7.2590071,29.7981624 6.79701887,30.2917433 C6.32187246,30.7994201 6.32187246,30.7994201 6.21081213,30.9180213 C5.54045461,31.611837 4.61731304,32.0036169 3.65284949,32.0036169 C2.68838595,32.0036169 1.76524438,31.611837 1.11352165,30.9363259 C0.403327892,30.2742769 2.77391522e-16,29.3467193 0,28.3754926 C-2.77391522e-16,27.4042658 0.403327892,26.4767082 1.11146697,25.8165855 C1.22367802,25.7107933 1.22367802,25.7107933 1.72870311,25.2345555 C2.21970476,24.7715134 2.76682269,24.2554629 3.35602727,23.6996056 C5.03946313,22.1114475 6.72289641,20.5224747 8.29408359,19.0383058 C12.5586671,15.0098811 15.2359066,12.4718288 15.4619977,12.2375045 C15.6808129,12.0300974 15.7252244,11.6979831 15.5308122,11.3642603 C14.4270343,8.56961326 15.111775,5.38495266 17.2501945,3.30834695 C18.4700741,2.00762353 20.1169064,1.18942816 21.9343649,1.00055125 C23.1875157,0.981337579 24.3961621,1.46508237 25.2903732,2.34374934 L25.6496777,2.69680807 L21.6903562,6.66892673 L22.2427117,9.75055092 L25.3304194,10.3115235 Z" fill="#333333"></path>
        <path d="M25.6694098,11.3894616 L21.3814843,10.6104342 L20.6146209,6.33205839 L24.2065073,2.72856249 C23.5597843,2.24663728 22.7737304,1.98745691 21.9941848,1.99776082 C20.4598545,2.15890359 19.0346684,2.86697845 17.9626672,4.00923206 C16.0975564,5.82108763 15.5048508,8.57770245 16.4224823,10.9206736 C16.823829,11.580957 16.7100245,12.4319999 16.1657269,12.9471827 C15.9373668,13.1846387 13.3178306,15.6679875 9.00099379,19.745772 C7.4087914,21.2497923 5.7252091,22.8389057 4.04162938,24.4271996 C3.45237851,24.9831005 2.90521637,25.4991927 2.41417181,25.9622753 C1.90909223,26.4385645 1.90909223,26.4385645 1.79478089,26.5463259 C1.28749963,27.019218 0.999408284,27.6817592 0.999408284,28.3754926 C0.999408284,29.069226 1.28749963,29.7317671 1.81341569,30.2229639 C2.29547054,30.7218875 2.95930267,31.0036169 3.65284949,31.0036169 C4.34639631,31.0036169 5.01022845,30.7218875 5.48676423,30.2287684 C5.59235775,30.115916 5.59235775,30.115916 6.06756662,29.6081724 C6.52960403,29.114539 7.0445503,28.5644925 7.59924105,27.9721356 C9.18407839,26.2796801 10.769914,24.5872215 12.2514405,23.0075724 C16.2958858,18.6953082 18.7725913,16.0659246 19.0281347,15.8204684 C19.5498077,15.2263832 20.426993,15.1027629 21.0535754,15.5070673 C23.0599712,16.5530353 26.2258472,15.7770234 28.0214477,13.9811031 C29.1596296,12.9421868 29.8656055,11.5128946 29.997822,9.99661396 C30.0368652,9.17952837 29.7793379,8.38181148 29.2822131,7.74598016 L25.6694098,11.3894616 Z" fill="#999999"></path>
        <path d="M4.15514472,27.8501883 C3.92315444,27.6195583 3.54823719,27.6207723 3.31774362,27.8528999 C3.08725004,28.0850276 3.08846336,28.4601668 3.32045365,28.6907968 C3.55244395,28.9214269 3.9273612,28.9202128 4.15785478,28.6880852 C4.38834834,28.4559576 4.38713501,28.0808183 4.15514472,27.8501883 Z M2.61605599,29.4001883 C1.99251145,28.7802998 1.98925027,27.7719989 2.60877195,27.1480852 C3.22829362,26.5241715 4.23599787,26.5209084 4.85954239,27.1407969 C5.48308692,27.7606853 5.48634811,28.7689862 4.86682647,29.3928999 C4.24730479,30.0168136 3.23960052,30.0200767 2.61605599,29.4001883 Z" fill="#333333" fill-rule="nonzero"></path>
        <path d="M4.15514472,27.8501883 C3.92315444,27.6195583 3.54823719,27.6207723 3.31774362,27.8528999 C3.08725004,28.0850276 3.08846336,28.4601668 3.32045365,28.6907968 C3.55244395,28.9214269 3.9273612,28.9202128 4.15785478,28.6880852 C4.38834834,28.4559576 4.38713501,28.0808183 4.15514472,27.8501883 Z" fill="#F3F3F3" fill-rule="nonzero"></path>
    </g>
</svg>