<?xml version="1.0" encoding="UTF-8" standalone="no"?>
<svg width="32px" height="32px" viewBox="0 0 32 32" version="1.1" xmlns="http://www.w3.org/2000/svg" xmlns:xlink="http://www.w3.org/1999/xlink">
    <!-- Generator: Sketch 49.3 (51167) - http://www.bohemiancoding.com/sketch -->
    <title>ClearFind</title>
    <desc>Created with Sketch.</desc>
    <defs></defs>
    <g stroke="none" stroke-width="1" fill="none" fill-rule="evenodd">
        <path d="M4.79533962,28.5979264 C2.58985682,28.5979264 0.801959761,26.8110564 0.801959761,24.5961851 L0.801959761,6.89822585 C0.801959761,4.68812518 2.6016788,2.89648459 4.81010727,2.89648459 L19.7938898,2.89648459 C21.450927,2.89648459 23.5457051,4.00046006 24.4802855,5.373415 L30.8657701,14.7540772 C31.1787969,15.2139325 31.1850549,15.9620871 30.8828505,16.4204214 L24.5076829,26.0892347 C23.5941403,27.4747469 21.5073359,28.5979264 19.8566403,28.5979264 L4.79533962,28.5979264 Z" fill="#666666"></path>
        <path d="M6.64903762,22.5726092 L6.17816093,22.1017325 C5.61243743,21.536009 5.61243743,20.6194362 6.17732158,20.0545521 L17.0889025,9.14297121 C17.6537866,8.57808706 18.5703594,8.57808706 19.1352436,9.14297121 L19.6061202,9.61384789 C20.1718437,10.1795714 20.1718437,11.0961442 19.6069596,11.6610283 L8.69537871,22.5726092 C8.13049456,23.1374934 7.21392177,23.1374934 6.64903762,22.5726092 Z" fill="#FFFFFF"></path>
        <path d="M6.17732158,9.43506583 L6.46857686,9.14381056 C7.08382215,8.52856527 8.08013342,8.52772591 8.69537871,9.14297121 L19.6069596,20.0545521 C20.2222049,20.6697974 19.9082871,21.3530302 19.2938812,21.9674362 L19.0026259,22.2586914 C18.3873806,22.8739367 17.7041478,23.1878545 17.0889025,22.5726092 L6.17732158,11.6610283 C5.56207629,11.045783 5.56291564,10.0494718 6.17732158,9.43506583 Z" fill="#FFFFFF"></path>
    </g>
</svg>