<?xml version="1.0" encoding="UTF-8" standalone="no"?>
<svg width="10px" height="10px" viewBox="0 0 10 10" version="1.1" xmlns="http://www.w3.org/2000/svg" xmlns:xlink="http://www.w3.org/1999/xlink">
    <!-- Generator: Sketch 48.1 (47250) - http://www.bohemiancoding.com/sketch -->
    <title>Close</title>
    <desc>Created with Sketch.</desc>
    <defs></defs>
    <g stroke="none" stroke-width="1" fill="none" fill-rule="evenodd" transform="translate(-614.000000, -28.000000)">
        <g transform="translate(599.000000, 13.000000)" fill="#8C8C8C">
            <path d="M19.0493867,21.0855881 L15.4307597,21.0855881 C14.900269,21.0855881 14.4710998,20.6556952 14.4710998,20.1259282 L14.4710998,19.8747955 C14.4710998,19.3443048 14.900269,18.9144119 15.4307597,18.9144119 L19.0493867,18.9144119 L19.0493867,15.2957849 C19.0493867,14.8087177 19.4445408,14.4135637 19.931608,14.4135637 L20.3376179,14.4135637 C20.8254088,14.4135637 21.2205629,14.8087177 21.2205629,15.2957849 L21.2205629,18.9144119 L24.8391899,18.9144119 C25.3696806,18.9144119 25.5289002,19.3443048 25.5289002,19.8740718 L25.5289002,20.1252045 C25.5289002,20.6556952 25.3696806,21.0855881 24.8391899,21.0855881 L21.2205629,21.0855881 L21.2205629,24.7042151 C21.2205629,25.1912823 20.8254088,25.5864363 20.3383416,25.5864363 L19.9323317,25.5864363 C19.4445408,25.5864363 19.0493867,25.1912823 19.0493867,24.7042151 L19.0493867,21.0855881 Z" transform="translate(20.000000, 20.000000) rotate(-315.000000) translate(-20.000000, -20.000000) "></path>
        </g>
    </g>
</svg>