<?xml version="1.0" encoding="UTF-8" standalone="no"?>
<svg width="32px" height="32px" viewBox="0 0 32 32" version="1.1" xmlns="http://www.w3.org/2000/svg" xmlns:xlink="http://www.w3.org/1999/xlink">
    <!-- Generator: Sketch 49.3 (51167) - http://www.bohemiancoding.com/sketch -->
    <title>ConnectRouteAll</title>
    <desc>Created with Sketch.</desc>
    <defs></defs>
    <g stroke="none" stroke-width="1" fill="none" fill-rule="evenodd">
        <polygon fill="#2B74B9" fill-rule="nonzero" points="12 18 12 14 20 14 20 18"></polygon>
        <path d="M7.25022612,11.4030244 L7.25022612,9.75609756e-05 L7.25022612,11.4030244 Z" fill="#2B74B9"></path>
        <polygon fill="#2B74B9" fill-rule="nonzero" points="6 3.19744231e-14 10 3.19744231e-14 10 11 6 11"></polygon>
        <path d="M6.27242563,13.5485763 C7.63323861,12.5933251 9.49148734,12.9198807 10.4374307,14.2617084 C11.4017222,15.625917 11.0989795,17.5008135 9.73918588,18.4591166 C8.37939224,19.4153851 6.50993082,19.0674661 5.54563937,17.701223 C4.59867663,16.3614298 4.91161265,14.5058621 6.27242563,13.5485763 M11.4534569,20.9054365 C14.1536359,19.004022 14.8230368,15.256136 12.8982637,12.5237112 C11.0009733,9.83641798 7.23387517,9.19182082 4.53467773,11.091273 C1.82860961,12.9995553 1.19552512,16.7454792 3.09085248,19.4327724 C5.01758869,22.1651972 8.74738878,22.8146999 11.4534569,20.9054365" fill="#42AB3D"></path>
        <path d="M22.2724256,13.5485763 C23.6332386,12.5933251 25.4914873,12.9198807 26.4374307,14.2617084 C27.4017222,15.625917 27.0989795,17.5008135 25.7391859,18.4591166 C24.3793922,19.4153851 22.5099308,19.0674661 21.5456394,17.701223 C20.5986766,16.3614298 20.9116126,14.5058621 22.2724256,13.5485763 M27.4534569,20.9054365 C30.1536359,19.004022 30.8230368,15.256136 28.8982637,12.5237112 C27.0009733,9.83641798 23.2338752,9.19182082 20.5346777,11.091273 C17.8286096,12.9995553 17.1955251,16.7454792 19.0908525,19.4327724 C21.0175887,22.1651972 24.7473888,22.8146999 27.4534569,20.9054365" fill="#42AB3D"></path>
    </g>
</svg>