<?xml version="1.0" encoding="UTF-8" standalone="no"?>
<svg width="32px" height="32px" viewBox="0 0 32 32" version="1.1" xmlns="http://www.w3.org/2000/svg" xmlns:xlink="http://www.w3.org/1999/xlink">
    <!-- Generator: Sketch 49.3 (51167) - http://www.bohemiancoding.com/sketch -->
    <title>Connect</title>
    <desc>Created with Sketch.</desc>
    <defs></defs>
    <g stroke="none" stroke-width="1" fill="none" fill-rule="evenodd">
        <path d="M11,25 C6.02943725,25 2,20.9705627 2,16 C2,11.0294373 6.02943725,7 11,7 C15.9705627,7 20,11.0294373 20,16 C20,20.9705627 15.9705627,25 11,25 Z M11,23 C14.8659932,23 18,19.8659932 18,16 C18,12.1340068 14.8659932,9 11,9 C7.13400675,9 4,12.1340068 4,16 C4,19.8659932 7.13400675,23 11,23 Z" fill="#808080" fill-rule="nonzero"></path>
        <path d="M22,25 C17.0294373,25 13,20.9705627 13,16 C13,11.0294373 17.0294373,7 22,7 C26.9705627,7 31,11.0294373 31,16 C31,20.9705627 26.9705627,25 22,25 Z M22,23 C25.8659932,23 29,19.8659932 29,16 C29,12.1340068 25.8659932,9 22,9 C18.1340068,9 15,12.1340068 15,16 C15,19.8659932 18.1340068,23 22,23 Z" fill="#808080" fill-rule="nonzero"></path>
    </g>
</svg>