<?xml version="1.0" encoding="UTF-8" standalone="no"?>
<svg width="32px" height="32px" viewBox="0 0 32 32" version="1.1" xmlns="http://www.w3.org/2000/svg" xmlns:xlink="http://www.w3.org/1999/xlink">
    <!-- Generator: Sketch 49.3 (51167) - http://www.bohemiancoding.com/sketch -->
    <title>Copy</title>
    <desc>Created with Sketch.</desc>
    <defs></defs>
    <g stroke="none" stroke-width="1" fill="none" fill-rule="evenodd">
        <polygon fill="#F3F3F3" fill-rule="nonzero" points="8 5 15 5 15 0 3 0 3 26 8 26"></polygon>
        <polygon fill="#F3F3F3" fill-rule="nonzero" points="21 14 21 6 9 6 9 32 29 32 29 14"></polygon>
        <polygon fill="#333333" fill-rule="nonzero" points="20 5 15 0 3 0 3 26 8 26 8 25 4 25 4 1 15 1 15 5"></polygon>
        <path d="M21,6 L9,6 L9,32 L29,32 L29,14 L21,6 Z M28,31 L10,31 L10,7 L21,7 L21,14 L28,14 L28,31 Z" fill="#333333" fill-rule="nonzero"></path>
    </g>
</svg>