<?xml version="1.0" encoding="UTF-8" standalone="no"?>
<svg width="32px" height="32px" viewBox="0 0 32 32" version="1.1" xmlns="http://www.w3.org/2000/svg" xmlns:xlink="http://www.w3.org/1999/xlink">
    <!-- Generator: Sketch 49.3 (51167) - http://www.bohemiancoding.com/sketch -->
    <title>Dbl</title>
    <desc>Created with Sketch.</desc>
    <defs></defs>
    <g stroke="none" stroke-width="1" fill="none" fill-rule="evenodd">
        <rect fill="#D9D9D9" fill-rule="nonzero" x="0" y="12" width="24" height="17"></rect>
        <polygon fill="#F3F3F3" fill-rule="nonzero" points="8 4 0 12 24 12 32 4"></polygon>
        <polygon fill="#BBBBBB" fill-rule="nonzero" points="32 4 24 12 24 29 32 21"></polygon>
        <path d="M8,4 L0,12 L0,29 L24,29 L32,21 L32,4 L8,4 Z M23.001,28.001 L1,28.001 L1,13 L23.001,13 L23.001,28.001 Z M23.293,12 L1.414,12 L8.414,5 L30.293,5 L23.293,12 Z M31,20.586 L24,27.587 L24,12.707 L31,5.707 L31,20.586 Z" fill="#666666" fill-rule="nonzero"></path>
        <g transform="translate(17.000000, 3.000000)" fill-rule="nonzero">
            <rect fill="#D9D9D9" x="0" y="3" width="6" height="4"></rect>
            <polygon fill="#F3F3F3" points="3 0 0 3 6 3 9 0"></polygon>
            <polygon fill="#BBBBBB" points="9 0 6 3 6 7 9 4"></polygon>
            <path d="M1,4 L5.001,4 L5.001,6.001 L1,6.001 L1,4 Z M6,3.707 L8,1.707 L8,3.586 L6,5.587 L6,3.707 Z M3.414,1 L7.293,1 L5.293,3 L1.414,3 L3.414,1 Z M3,0 L0,3 L0,7 L6,7 L9,4 L9,0 L3,0 Z" fill="#666666"></path>
        </g>
        <g transform="translate(7.000000, 3.000000)" fill-rule="nonzero">
            <rect fill="#D9D9D9" x="0" y="3" width="6" height="4"></rect>
            <polygon fill="#F3F3F3" points="3 0 0 3 6 3 9 0"></polygon>
            <polygon fill="#BBBBBB" points="9 0 6 3 6 7 9 4"></polygon>
            <path d="M1,4 L5.001,4 L5.001,6.001 L1,6.001 L1,4 Z M6,3.707 L8,1.707 L8,3.586 L6,5.587 L6,3.707 Z M3.414,1 L7.293,1 L5.293,3 L1.414,3 L3.414,1 Z M3,0 L0,3 L0,7 L6,7 L9,4 L9,0 L3,0 Z" fill="#666666"></path>
        </g>
    </g>
</svg>