<?xml version="1.0" encoding="UTF-8" standalone="no"?>
<svg width="32px" height="32px" viewBox="0 0 32 32" version="1.1" xmlns="http://www.w3.org/2000/svg" xmlns:xlink="http://www.w3.org/1999/xlink">
    <!-- Generator: Sketch 50.2 (55047) - http://www.bohemiancoding.com/sketch -->
    <title>Delete</title>
    <desc>Created with Sketch.</desc>
    <defs></defs>
    <g stroke="none" stroke-width="1" fill="none" fill-rule="evenodd">
        <path d="M25,29 C25,29.552 24.551,30 24,30 L8,30 C7.449,30 7,29.552 7,29 L7,9 L25,9 L25,29 Z" fill="#F3F3F3" fill-rule="nonzero"></path>
        <path d="M5,8 C5,6.897 5.897,6 7,6 L25,6 C26.103,6 27,6.897 27,8 L5,8 Z" fill="#F3F3F3" fill-rule="nonzero"></path>
        <rect fill="#333333" fill-rule="nonzero" x="9.99647621" y="13" width="2" height="12"></rect>
        <rect fill="#333333" fill-rule="nonzero" x="14.9964762" y="13" width="2" height="12"></rect>
        <rect fill="#333333" fill-rule="nonzero" x="19.9964762" y="13" width="2" height="12"></rect>
        <path d="M25,5 L22,5 L20.447,1.895 C20.2,1.4 19.552,1 19,1 L13,1 C12.448,1 11.8,1.4 11.553,1.895 L10,5 L7,5 C5.343,5 4,6.344 4,8 L4,9 L6,9 L6,29 C6,30.104 6.896,31 8,31 L24,31 C25.104,31 26,30.104 26,29 L26,9 L28,9 L28,8 C28,6.344 26.657,5 25,5 Z M13,3 L19,3 C19.552,3 20,5 20,5 L12,5 C12,5 12.448,3 13,3 Z M25,29 C25,29.552 24.551,30 24,30 L8,30 C7.449,30 7,29.552 7,29 L7,9 L25,9 L25,29 Z M5,8 C5,6.897 5.897,6 7,6 L25,6 C26.103,6 27,6.897 27,8 L5,8 Z" fill="#333333" fill-rule="nonzero"></path>
    </g>
</svg>