<?xml version="1.0" encoding="UTF-8" standalone="no"?>
<svg width="32px" height="32px" viewBox="0 0 32 32" version="1.1" xmlns="http://www.w3.org/2000/svg" xmlns:xlink="http://www.w3.org/1999/xlink">
    <!-- Generator: Sketch 49.3 (51167) - http://www.bohemiancoding.com/sketch -->
    <title>DimensionLeader</title>
    <desc>Created with Sketch.</desc>
    <defs></defs>
    <g stroke="none" stroke-width="1" fill="none" fill-rule="evenodd">
        <g transform="translate(2.000000, 3.000000)" fill-rule="nonzero">
            <polygon fill="#333333" transform="translate(12.291498, 12.934292) rotate(200.000000) translate(-12.291498, -12.934292) " points="7.69149823 15.4142917 16.8914982 17.5342917 14.7714982 8.33429172"></polygon>
            <path d="M23.7119221,1.58423513 L19.1533919,1.58423513 L23.7119221,1.58423513 Z M11.1034533,14.5800054 L9.4677017,13.4292158 L18.5044468,0.584235131 L28.6406632,0.584235131 L28.6406632,2.58423513 L19.542759,2.58423513 L11.1034533,14.5800054 Z" fill="#333333"></path>
            <path d="M5.71453659,26.5342 C2.95311284,26.5342 0.714536585,24.2956237 0.714536585,21.5342 C0.714536585,18.7727763 2.95311284,16.5342 5.71453659,16.5342 C8.47596033,16.5342 10.7145366,18.7727763 10.7145366,21.5342 C10.7145366,24.2956237 8.47596033,26.5342 5.71453659,26.5342 Z M5.71453659,24.5342 C7.37139083,24.5342 8.71453659,23.1910542 8.71453659,21.5342 C8.71453659,19.8773458 7.37139083,18.5342 5.71453659,18.5342 C4.05768234,18.5342 2.71453659,19.8773458 2.71453659,21.5342 C2.71453659,23.1910542 4.05768234,24.5342 5.71453659,24.5342 Z" fill="#999999"></path>
        </g>
    </g>
</svg>