<?xml version="1.0" encoding="UTF-8" standalone="no"?>
<svg width="32px" height="32px" viewBox="0 0 32 32" version="1.1" xmlns="http://www.w3.org/2000/svg" xmlns:xlink="http://www.w3.org/1999/xlink">
    <!-- Generator: Sketch 49.3 (51167) - http://www.bohemiancoding.com/sketch -->
    <title>DimensionAngle</title>
    <desc>Created with Sketch.</desc>
    <defs></defs>
    <g stroke="none" stroke-width="1" fill="none" fill-rule="evenodd">
        <g fill-rule="nonzero">
            <rect fill="#999999" x="0" y="29" width="32" height="2"></rect>
            <rect fill="#999999" transform="translate(10.856836, 10.829809) rotate(-45.000000) translate(-10.856836, -10.829809) " x="-3.43816367" y="9.82980868" width="28.59" height="2"></rect>
            <path d="M26.4602248,25.4877299 C26.4017915,24.533657 26.2873106,23.5011961 26.1034911,22.4106663 C25.6004377,19.4262457 24.6633945,16.4687986 23.1888099,13.7095362 C22.8887201,13.1480041 22.5687611,12.5997988 22.2284348,12.065704 C22.5734147,12.6086591 22.8974424,13.1659861 23.2010286,13.7368331 C24.6712407,16.5013399 25.6033906,19.4563658 26.1040723,22.4352547 C26.2866998,23.5218279 26.4006746,24.5507557 26.4591679,25.5025392 C26.4855536,25.9318787 26.4985706,26.3034126 26.5023011,26.62 C26.4998531,26.3019172 26.4870435,25.9256135 26.4602248,25.4877299 Z M26.5,27.12 C26.5002522,27.1147294 26.5002522,27.1147294 26.5015645,27.0468278 C26.501753,27.0355535 26.5019281,27.0241811 26.5020896,27.0127104 C26.5020412,27.0156167 26.5019919,27.0185163 26.5019417,27.0214091 C26.5006343,27.085052 26.5006343,27.085052 26.5,27.12 Z M19.0117415,8.0446283 L19.0033275,8.04464137 L19.0033294,8.05039893 C19.1193906,8.16582307 19.2340349,8.28230652 19.3472706,8.39983623 L19.3534992,8.39360754 C19.2409747,8.2762457 19.1270582,8.15991482 19.0117415,8.0446283 Z M25.5,27.62 L25.5,27.12 C25.500565,27.0875775 25.500565,27.0875775 25.5017042,27.0301098 C25.507851,26.6624887 25.4987135,26.1767118 25.461051,25.56388 C25.4046392,24.645966 25.2945081,23.6517377 25.1179048,22.6010064 C24.6340248,19.7220818 23.7338645,16.8684669 22.3181205,14.2063788 C21.2483459,12.194833 19.9160018,10.3610163 18.2966752,8.74378186 L17.9426646,8.39022862 L19.348903,6.98399019 L19.702453,7.33534965 C21.463391,9.08537728 22.9107203,11.0675115 24.0707673,13.238207 C25.6002662,16.1002257 26.5695924,19.159563 27.0895806,22.2444512 C27.27948,23.3710506 27.3978334,24.4384356 27.4583545,25.4265983 C27.4991583,26.0928238 27.508944,26.6265373 27.5017912,27.0387583 C27.500299,27.1131586 27.500299,27.1131586 27.5,27.12 L27.5,27.2765467 L25.5,27.62 Z" fill="#333333"></path>
            <polygon fill="#333333" transform="translate(19.061014, 8.486990) rotate(-136.000000) translate(-19.061014, -8.486990) " points="16.0610139 2.98699031 16.0610139 6.98699031 16.0610139 9.98699031 16.0610139 13.9869903 22.0610139 8.48699031"></polygon>
            <polygon fill="#333333" transform="translate(26.159079, 25.997559) rotate(-270.000000) translate(-26.159079, -25.997559) " points="23.1590788 20.4975588 23.1590788 24.4975588 23.1590788 27.4975588 23.1590788 31.4975588 29.1590788 25.9975588"></polygon>
        </g>
    </g>
</svg>