<?xml version="1.0" encoding="UTF-8" standalone="no"?>
<svg width="32px" height="32px" viewBox="0 0 32 32" version="1.1" xmlns="http://www.w3.org/2000/svg" xmlns:xlink="http://www.w3.org/1999/xlink">
    <!-- Generator: Sketch 49.3 (51167) - http://www.bohemiancoding.com/sketch -->
    <title>DimensionRadius</title>
    <desc>Created with Sketch.</desc>
    <defs></defs>
    <g stroke="none" stroke-width="1" fill="none" fill-rule="evenodd">
        <rect fill="#333333" fill-rule="nonzero" x="15" y="15" width="3" height="3"></rect>
        <path d="M16.5,1 C7.93958638,1 1,7.93958638 1,16.5 C1,25.0604136 7.93958638,32 16.5,32 C25.0604136,32 32,25.0604136 32,16.5 C32,12.3891444 30.366969,8.44665876 27.4601551,5.53984489 C24.5533412,2.63303103 20.6108556,1 16.5,1 Z M16.5,30 C9.04415588,30 3,23.9558441 3,16.5 C3,9.04415588 9.04415588,3 16.5,3 C23.9558441,3 30,9.04415588 30,16.5 C30,20.0804226 28.5776827,23.5142004 26.0459415,26.0459415 C23.5142004,28.5776827 20.0804226,30 16.5,30 Z" fill="#999999" fill-rule="nonzero"></path>
        <polygon fill="#333333" fill-rule="nonzero" transform="translate(22.516900, 10.632225) rotate(-45.000000) translate(-22.516900, -10.632225) " points="21.556608 5.13222525 21.556608 9.13222525 17.5779829 9.13222525 17.4771922 12.1322253 21.556608 12.1322253 21.556608 16.1322253 27.556608 10.6322253"></polygon>
    </g>
</svg>