<?xml version="1.0" encoding="UTF-8" standalone="no"?>
<svg width="32px" height="32px" viewBox="0 0 32 32" version="1.1" xmlns="http://www.w3.org/2000/svg" xmlns:xlink="http://www.w3.org/1999/xlink">
    <!-- Generator: Sketch 49.3 (51167) - http://www.bohemiancoding.com/sketch -->
    <title>Disconnect</title>
    <desc>Created with Sketch.</desc>
    <defs></defs>
    <g stroke="none" stroke-width="1" fill="none" fill-rule="evenodd">
        <path d="M5.23000002,17 C4.67771527,17 4.23000002,16.5522847 4.23000002,16 C4.23000002,15.4477153 4.67771527,15 5.23000002,15 L10.5900002,15 C11.1422849,15 11.5900002,15.4477153 11.5900002,16 C11.5900002,16.5522847 11.1422849,17 10.5900002,17 L5.23000002,17 Z M21.4099998,17 C20.8577151,17 20.4099998,16.5522847 20.4099998,16 C20.4099998,15.4477153 20.8577151,15 21.4099998,15 L26.7700005,15 C27.3222852,15 27.7700005,15.4477153 27.7700005,16 C27.7700005,16.5522847 27.3222852,17 26.7700005,17 L21.4099998,17 Z" fill="#64B0E8" fill-rule="nonzero"></path>
        <path d="M17.0019564,26.7700005 C17.0019564,27.3222852 16.5542411,27.7700005 16.0019564,27.7700005 C15.4496716,27.7700005 15.0019564,27.3222852 15.0019564,26.7700005 L15.0019564,21.4099998 C15.0019564,20.8577151 15.4496716,20.4099998 16.0019564,20.4099998 C16.5542411,20.4099998 17.0019564,20.8577151 17.0019564,21.4099998 L17.0019564,26.7700005 Z M17.0019563,10.5896352 C17.0021579,11.1419199 16.5546061,11.5897985 16.0023214,11.5900001 C15.4500367,11.5902017 15.002158,11.1426499 15.0019564,10.5903651 L15.0000001,5.23036501 C14.9997985,4.6780803 15.4473503,4.23020167 15.999635,4.23000009 C16.5519197,4.2297985 16.9997984,4.67735031 16.9999999,5.22963502 L17.0019563,10.5896352 Z" fill="#64B0E8" fill-rule="nonzero"></path>
        <path d="M20.5371067,12.887108 C20.1465824,13.2776323 19.5134174,13.2776323 19.1228931,12.887108 C18.7323689,12.4965837 18.7323689,11.8634188 19.1228931,11.4728945 L22.9128941,7.68289356 C23.3034183,7.29236927 23.9365833,7.29236927 24.3271076,7.68289356 C24.7176319,8.07341785 24.7176319,8.70658283 24.3271076,9.09710712 L20.5371067,12.887108 Z M9.0961724,24.3280411 C8.70513255,24.7180492 8.07196812,24.7172127 7.68196007,24.3261729 C7.29195201,23.935133 7.29278844,23.3019686 7.68382829,22.9119606 L11.4738283,19.1319608 C11.8648681,18.7419528 12.4980325,18.7427892 12.8880406,19.1338291 C13.2780486,19.5248689 13.2772122,20.1580333 12.8861724,20.5480414 L9.0961724,24.3280411 Z" fill="#64B0E8" fill-rule="nonzero" transform="translate(16.005001, 16.005001) scale(1, -1) translate(-16.005001, -16.005001) "></path>
        <path d="M3.20766839,30.2065447 L1.79233161,28.7934553 L12.5300557,18.0386544 L13.9453924,19.4517438 L3.20766839,30.2065447 Z M19.0973678,14.3168458 L17.6831542,12.9026322 L28.7928932,1.79289322 L30.2071068,3.20710678 L19.0973678,14.3168458 Z" fill="#666666" fill-rule="nonzero"></path>
    </g>
</svg>