<?xml version="1.0" encoding="UTF-8" standalone="no"?>
<svg width="32px" height="32px" viewBox="0 0 32 32" version="1.1" xmlns="http://www.w3.org/2000/svg" xmlns:xlink="http://www.w3.org/1999/xlink">
    <!-- Generator: Sketch 49.3 (51167) - http://www.bohemiancoding.com/sketch -->
    <title>DRC</title>
    <desc>Created with Sketch.</desc>
    <defs></defs>
    <g stroke="none" stroke-width="1" fill="none" fill-rule="evenodd">
        <g transform="translate(0.500000, 0.526622)" fill="#666666">
            <path d="M1.93490348,14.4720603 C1.54258129,14.4720603 1.19429885,14.3381633 0.919118548,14.0756401 C0.638958623,13.8083664 0.492952423,13.4627194 0.492952423,13.0719196 L0.492952423,1.87220114 C0.492952423,1.48140125 0.638958623,1.13575434 0.919118548,0.868480558 C1.19429885,0.605957357 1.54258129,0.472060348 1.93490348,0.472060348 L4.48785165,0.472060348 C6.09966908,0.472060348 7.43541599,0.949074163 8.46678934,1.90567734 C8.97663365,2.37817407 9.36071967,2.94001764 9.61567055,3.58629921 C9.86675639,4.22278318 9.99131117,4.92555287 9.99131117,5.69154498 L9.99131117,9.23412478 C9.99131117,9.99962171 9.86692007,10.7048585 9.61637852,11.3467918 C9.3615303,11.9997596 8.9772562,12.5653697 8.46694846,13.0382958 C7.43541599,13.9950465 6.09966908,14.4720603 4.48785165,14.4720603 L1.93490348,14.4720603 Z M2.91268214,12.169954 L4.48785165,12.169954 C5.49270708,12.169954 6.24601068,11.908625 6.77736362,11.3965916 C7.30495872,10.8881795 7.57158145,10.1790568 7.57158145,9.23412478 L7.57158145,5.69154498 C7.57158145,4.75927156 7.30534862,4.0563169 6.77736362,3.54752905 C6.24601068,3.03549571 5.49270708,2.77416666 4.48785165,2.77416666 L2.91268214,2.77416666 L2.91268214,12.169954 Z"></path>
            <path d="M14.4939392,8.60814082 L13.0670613,8.60814082 L13.0670613,13.3086635 C13.0670613,13.6259452 12.939042,13.9109174 12.7037055,14.1354295 C12.4732034,14.3553295 12.1876994,14.4720603 11.8729341,14.4720603 C11.5581688,14.4720603 11.2726648,14.3553295 11.0421628,14.1354295 C10.8068262,13.9109174 10.6788069,13.6259452 10.6788069,13.3086635 L10.6788069,1.85398838 C10.6788069,1.46827194 10.8229139,1.12712114 11.0994296,0.863324 C11.3710304,0.60421565 11.7147824,0.472060348 12.1020014,0.472060348 L15.4998325,0.472060348 C16.7363564,0.472060348 17.7580008,0.841036179 18.5353762,1.58265574 C19.3431438,2.35326948 19.7481898,3.37200174 19.7481898,4.60383884 C19.7481898,5.66194325 19.4378928,6.55706574 18.8152284,7.26423775 C18.3513732,7.79104708 17.7648882,8.16353921 17.0654548,8.38099828 L19.6543433,12.7469953 C19.7554919,12.9158638 19.8054567,13.10653 19.8054567,13.3086635 C19.8054567,13.5126877 19.7512626,13.7080039 19.6466574,13.8854151 C19.5439934,14.0595341 19.4009112,14.2014951 19.2243166,14.3067901 C19.0417707,14.4156336 18.8406701,14.4720603 18.6304184,14.4720603 C18.198759,14.4720603 17.8424915,14.2610999 17.6244079,13.8865718 L14.4939392,8.60814082 Z M15.4616546,6.33597987 C16.1036682,6.33597987 16.5765269,6.18241074 16.9049561,5.88751901 C17.2039288,5.61958382 17.3599355,5.20466097 17.3599355,4.60383884 C17.3599355,4.29803452 17.3155079,4.02378439 17.2282065,3.77882567 C17.1471081,3.55127231 17.0295143,3.36649693 16.8738335,3.21797683 C16.5458066,2.90503776 16.0847183,2.7442213 15.4616546,2.7442213 L13.0670613,2.7442213 L13.0670613,6.33597987 L15.4616546,6.33597987 Z"></path>
            <path d="M20.4929524,5.32379837 C20.4929524,3.8803851 20.961593,2.69493206 21.8974746,1.80209698 C22.8283695,0.914019176 24.0567293,0.472060348 25.5535734,0.472060348 C26.0826365,0.472060348 26.5959947,0.548687271 27.0919136,0.701947862 C27.575111,0.851276944 28.0528992,1.06140307 28.5250396,1.33165746 C28.8775097,1.53341222 29.069001,1.8744215 29.069001,2.28567054 C29.069001,2.58886736 28.959496,2.86164542 28.7485981,3.07402061 C28.5333272,3.29079938 28.2489857,3.39817432 27.927895,3.39817432 C27.829617,3.39817432 27.7338988,3.38856216 27.6411885,3.36890748 C27.5285816,3.34503471 27.4191938,3.30109515 27.2950443,3.22960347 C27.003529,3.04776437 26.7121154,2.91008332 26.4205119,2.81560335 C26.139369,2.72451262 25.8510534,2.67909081 25.5535734,2.67909081 C24.6746366,2.67909081 24.0121777,2.90981682 23.5457621,3.35460982 C23.0836823,3.81502824 22.8505397,4.44274425 22.8505397,5.2698671 L22.8505397,9.67425359 C22.8505397,10.5122303 23.083042,11.1382222 23.5376818,11.5816327 C24.0121777,12.0343039 24.6746366,12.2650299 25.5535734,12.2650299 C25.848156,12.2650299 26.1337076,12.2175443 26.4125293,12.1221868 C26.7071417,12.0214289 27.0012379,11.8798083 27.3119065,11.68646 C27.4191938,11.6250485 27.5285816,11.5811089 27.6411885,11.5572361 C27.7338988,11.5375814 27.829617,11.5279693 27.927895,11.5279693 C28.2349485,11.5279693 28.511443,11.6346025 28.7291547,11.8423005 C28.9538158,12.0566281 29.069001,12.3400212 29.069001,12.6584502 C29.069001,13.0696992 28.8775097,13.4107085 28.5250396,13.6124632 C28.0528992,13.8827176 27.575111,14.0928438 27.0919136,14.2421728 C26.5959947,14.3954334 26.0826365,14.4720603 25.5535734,14.4720603 C24.0567293,14.4720603 22.8283695,14.0301015 21.8919097,13.136635 C20.9605863,12.2212245 20.4929524,11.0383181 20.4929524,9.62032233 L20.4929524,5.32379837 Z"></path>
        </g>
        <path d="M18.6920565,24.1628958 L26.8390068,16.0159455 C27.2256413,15.629311 27.8561851,15.6329965 28.2498212,16.0266325 L30.7034069,18.4802183 C31.0959437,18.8727551 31.098169,19.5069576 30.714094,19.8910326 L21.9291144,28.6760122 C21.8910736,28.714053 21.8506717,28.7483153 21.8083665,28.7787995 L19.7868722,30.8002938 C19.3985643,31.1886016 18.771061,31.1906697 18.3817757,30.8013844 L11.5520548,23.9716635 C11.1643493,23.583958 11.170686,22.9490265 11.5531454,22.566567 L13.621343,20.4983695 C14.0096508,20.1100616 14.6371542,20.1079935 15.0264395,20.4972788 L18.6920565,24.1628958 Z" fill="#14B44E"></path>
    </g>
</svg>