<?xml version="1.0" encoding="UTF-8" standalone="no"?>
<svg width="32px" height="32px" viewBox="0 0 32 32" version="1.1" xmlns="http://www.w3.org/2000/svg" xmlns:xlink="http://www.w3.org/1999/xlink">
    <!-- Generator: Sketch 49.3 (51167) - http://www.bohemiancoding.com/sketch -->
    <title>Dru</title>
    <desc>Created with Sketch.</desc>
    <defs></defs>
    <g stroke="none" stroke-width="1" fill="none" fill-rule="evenodd">
        <g transform="translate(18.000000, 16.000000) rotate(90.000000) translate(-18.000000, -16.000000) translate(2.000000, 4.000000)" fill-rule="nonzero">
            <polygon fill="#666666" points="32 9 23 9 23 0"></polygon>
            <polygon fill="#F3F3F3" points="23 9 23 0 0 0 0 24 32 24 32 9"></polygon>
            <polygon fill="#666666" points="31 9 31 10 31 13 31 23 1 23 1 1 20 1 22 1 23 1 23 0 0 0 0 24 32 24 32 9"></polygon>
        </g>
        <rect fill="#A78A28" x="2" y="4" width="28" height="16"></rect>
        <path d="M7.03370787,7 C9.6741573,7 10.994382,8.57303371 10.994382,10.9325843 L10.994382,12.6460674 C10.994382,15.2162921 9.49157303,16.8314607 6.68258427,16.8314607 L4,16.8314607 L4,7 L7.03370787,7 Z M9.56179775,12.6741573 L9.56179775,10.9044944 C9.56179775,9.19101124 8.70505618,8.13764045 6.96348315,8.13764045 L5.43258427,8.13764045 L5.43258427,15.6938202 L6.68258427,15.6938202 C8.59269663,15.6938202 9.56179775,14.6825843 9.56179775,12.6741573 Z M19.591634,16.8314607 L18.0186003,16.8314607 L15.855679,12.8146067 L14.086016,12.8146067 L14.086016,16.8314607 L12.6534318,16.8314607 L12.6534318,7 L15.7714093,7 C17.8079262,7 19.1562408,7.96910112 19.1562408,9.57022472 L19.1562408,10.2724719 C19.1562408,11.3820225 18.4259037,12.1966292 17.2742183,12.5758427 L19.591634,16.8314607 Z M14.086016,8.13764045 L14.086016,11.6769663 L15.7573644,11.6769663 C16.9511846,11.6769663 17.7096115,11.1713483 17.7096115,10.2162921 L17.7096115,9.62640449 C17.7096115,8.67134831 16.9371396,8.13764045 15.7433194,8.13764045 L14.086016,8.13764045 Z M28.0262179,7 L28.0262179,13.6573034 C28.0262179,15.5393258 26.8604875,17 24.3464426,17 C21.8323976,17 20.6666673,15.5393258 20.6666673,13.6573034 L20.6666673,7 L22.0992516,7 L22.0992516,13.6713483 C22.0992516,14.9494382 22.745319,15.8623596 24.3464426,15.8623596 C25.9475662,15.8623596 26.5936336,14.9494382 26.5936336,13.6713483 L26.5936336,7 L28.0262179,7 Z" fill="#FFFFFF"></path>
    </g>
</svg>