<?xml version="1.0" encoding="UTF-8" standalone="no"?>
<svg width="32px" height="32px" viewBox="0 0 32 32" version="1.1" xmlns="http://www.w3.org/2000/svg" xmlns:xlink="http://www.w3.org/1999/xlink">
    <!-- Generator: Sketch 49.3 (51167) - http://www.bohemiancoding.com/sketch -->
    <title>Edit</title>
    <desc>Created with Sketch.</desc>
    <defs></defs>
    <g stroke="none" stroke-width="1" fill="none" fill-rule="evenodd">
        <polygon fill="#666666" fill-rule="nonzero" points="0 31.997 0 32 9.839 29.24 2.759 22.16"></polygon>
        <rect fill="#FFC44D" fill-rule="nonzero" transform="translate(14.998100, 16.962714) rotate(-45.000000) translate(-14.998100, -16.962714) " x="5.09919493" y="11.9567622" width="19.7978101" height="10.011904"></rect>
        <g transform="translate(4.000000, 0.000000)" fill-rule="nonzero">
            <g opacity="0.1" transform="translate(0.000000, 6.000000)" fill="#000000">
                <g>
                    <path d="M14.459,0.46 L0.459,14.46 L7.539,21.54 L21.538,7.54 L14.459,0.46 Z M3.288,14.461 L14.46,3.289 L18.709,7.539 L7.539,18.711 L3.288,14.461 Z"></path>
                </g>
            </g>
            <path d="M28,6 L28,6.141 C28,6.3 27.96,6.46 27.94,6.62 C27.86,7.019 27.669,7.38 27.389,7.66 L23.204,11.84 L16.122,4.76 L20.3,0.58 C20.58,0.3 20.941,0.12 21.34,0.04 C21.5,0.019 21.659,2.27373675e-13 21.819,2.27373675e-13 L21.959,2.27373675e-13 C25.28,5.04870979e-29 28,2.68 28,6" fill="#FF3333"></path>
            <g opacity="0.1" transform="translate(16.000000, 0.000000)" fill="#000000">
                <g>
                    <path d="M5.96,0 L5.82,0 C5.66,0 5.501,0.02 5.341,0.039 C4.942,0.119 4.581,0.3 4.301,0.58 L0.122,4.76 L7.205,11.84 L11.39,7.66 C11.67,7.379 11.861,7.019 11.941,6.619 C11.961,6.459 12.001,6.3 12.001,6.14 L12.001,6 C12,2.68 9.28,0 5.96,0 Z M10,6.14 C9.991,6.168 9.984,6.2 9.979,6.229 L7.204,9.01 L2.951,4.76 L5.7,2.01 C5.743,2.004 5.783,2 5.822,2 L5.961,2 C8.19,2 10.001,3.793 10.001,6 L10.001,6.14 L10,6.14 Z"></path>
                </g>
            </g>
        </g>
    </g>
</svg>