<?xml version="1.0" encoding="UTF-8" standalone="no"?>
<svg width="32px" height="32px" viewBox="0 0 32 32" version="1.1" xmlns="http://www.w3.org/2000/svg" xmlns:xlink="http://www.w3.org/1999/xlink">
    <!-- Generator: Sketch 49.3 (51167) - http://www.bohemiancoding.com/sketch -->
    <title>ERC</title>
    <desc>Created with Sketch.</desc>
    <defs></defs>
    <g stroke="none" stroke-width="1" fill="none" fill-rule="evenodd">
        <path d="M18.6982754,24.4342331 L26.8452257,16.2872827 C27.2318602,15.9006483 27.862404,15.9043337 28.2560401,16.2979698 L30.7096258,18.7515555 C31.1021626,19.1440923 31.1043879,19.7782949 30.7203129,20.1623699 L21.9353333,28.9473495 C21.8972925,28.9853903 21.8568906,29.0196526 21.8145854,29.0501367 L19.7930911,31.071631 C19.4047832,31.4599389 18.7772799,31.462007 18.3879946,31.0727217 L11.5582737,24.2430008 C11.1705682,23.8552953 11.1769049,23.2203637 11.5593644,22.8379043 L13.6275619,20.7697067 C14.0158698,20.3813989 14.6433731,20.3793308 15.0326584,20.7686161 L18.6982754,24.4342331 Z" fill="#14B44E"></path>
        <path d="M3.36540066,12.720151 L8.02772906,12.720151 C8.33475446,12.720151 8.61285065,12.827729 8.83595008,13.0348565 C9.06824755,13.2505236 9.19151344,13.5336149 9.19151344,13.8508325 C9.19151344,14.1643951 9.0713446,14.4462456 8.84560577,14.6668541 C8.62219153,14.8851907 8.34024123,15 8.02772906,15 L2.40969174,15 C2.02360281,15 1.68124964,14.8651723 1.4121135,14.6021529 C1.1406288,14.3368383 1,13.9958016 1,13.6105139 L1,2.38948606 C1,2.00419838 1.1406288,1.66316169 1.4121135,1.3978471 C1.68124964,1.13482769 2.02360281,1 2.40969174,1 L7.91423336,1 C8.22674553,1 8.50869583,1.11480931 8.73211006,1.33314595 C8.9578489,1.55375436 9.07801774,1.83560491 9.07801774,2.14916751 C9.07801774,2.46638509 8.95475185,2.74947642 8.72245437,2.96514351 C8.49935494,3.17227105 8.22125876,3.27984898 7.91423336,3.27984898 L3.36540066,3.27984898 L3.36540066,6.638243 L7.668326,6.638243 C7.9753514,6.638243 8.25344759,6.74582093 8.47654702,6.95294847 C8.70884449,7.16861555 8.83211038,7.45170689 8.83211038,7.76892447 C8.83211038,8.07684783 8.719462,8.35496538 8.50508861,8.57549302 C8.28448843,8.80242623 7.99451708,8.91809198 7.668326,8.91809198 L3.36540066,8.91809198 L3.36540066,12.720151 Z" fill="#666666" fill-rule="nonzero"></path>
        <path d="M20,5.84775573 C20,4.40752671 20.4562865,3.22517267 21.3690463,2.33315747 C22.2794541,1.44344073 23.4825879,1 24.9486978,1 C25.4672513,1 25.9704048,1.0769355 26.4563443,1.23077485 C26.929422,1.38054241 27.3970765,1.59122816 27.8590865,1.86213402 C28.2018878,2.06314019 28.3861964,2.3993638 28.3861964,2.80399606 C28.3861964,3.101875 28.2810963,3.37006612 28.0772931,3.5803025 C27.8669036,3.79733303 27.5870623,3.90558604 27.2707845,3.90558604 C27.173879,3.90558604 27.0794755,3.89587467 26.9880563,3.87602101 C26.8769943,3.8519015 26.7693917,3.8076248 26.647503,3.73572339 C26.362613,3.55368262 26.0779679,3.41591933 25.7933065,3.32143909 C25.5192946,3.23049347 25.2384503,3.18516955 24.9486978,3.18516955 C24.0912361,3.18516955 23.445206,3.41566154 22.988945,3.86138533 C22.5344721,4.32526906 22.3045409,4.95943791 22.3045409,5.7937245 L22.3045409,10.2062755 C22.3045409,11.0514508 22.5338693,11.6839572 22.9811424,12.1308217 C23.445206,12.5843385 24.0912361,12.8148304 24.9486978,12.8148304 C25.2355585,12.8148304 25.5136534,12.7674569 25.7853771,12.6722604 C26.0730422,12.5714789 26.3603508,12.4297524 26.6640531,12.2361315 C26.7693917,12.1743648 26.8769943,12.1300881 26.9880563,12.1059686 C27.0794755,12.0861149 27.173879,12.0764035 27.2707845,12.0764035 C27.5734065,12.0764035 27.845484,12.1838926 28.0584032,12.3919727 C28.2756213,12.604254 28.3861964,12.8829403 28.3861964,13.1960039 C28.3861964,13.6006362 28.2018878,13.9368598 27.8590865,14.137866 C27.3970765,14.4087718 26.929422,14.6194576 26.4563443,14.7692252 C25.9704048,14.9230645 25.4672513,15 24.9486978,15 C23.4825879,15 22.2794541,14.5565593 21.3636714,13.6615108 C20.4553373,12.746921 20,11.5670266 20,10.1522443 L20,5.84775573 Z" fill="#666666"></path>
        <path d="M12.3345742,9.12506872 L12.3345742,13.8475636 C12.3345742,14.1590261 12.2115657,14.4395228 11.9838398,14.6620731 C11.7583937,14.8823954 11.4776013,15 11.1672871,15 C10.8569729,15 10.5761805,14.8823954 10.3507344,14.6620731 C10.1230085,14.4395228 10,14.1590261 10,13.8475636 L10,2.37137796 C10,1.99111143 10.1387961,1.65451921 10.4067427,1.39266226 C10.6723714,1.13307058 11.010263,1 11.3913203,1 L14.7144795,1 C15.926061,1 16.9270677,1.37033998 17.6873517,2.11334482 C18.4748088,2.88290519 18.8688759,3.89819793 18.8688759,5.12639231 C18.8688759,6.18109457 18.5671105,7.07283753 17.9605911,7.77847428 C17.5045622,8.30902742 16.9263451,8.68368072 16.2358451,8.90116393 L18.7799408,13.2962659 C18.8770666,13.462373 18.9248842,13.6492965 18.9248842,13.8475636 C18.9248842,14.0476106 18.8729636,14.2392972 18.7723687,14.4140682 C18.6729546,14.5867877 18.5338432,14.7281754 18.3614968,14.8334438 C18.1821204,14.9430061 17.9838346,15 17.7762666,15 C17.3512712,15 17.0022139,14.7882677 16.7901477,14.4151917 L13.7274449,9.12506872 L12.3345742,9.12506872 Z M14.6771406,6.87493128 C15.302962,6.87493128 15.7635022,6.72171479 16.0845583,6.42641216 C16.379649,6.15550591 16.5343017,5.73415184 16.5343017,5.12639231 C16.5343017,4.81725762 16.4904119,4.53971935 16.4041444,4.29175788 C16.3239246,4.06117953 16.2076738,3.87405917 16.0542464,3.72411878 C15.7334216,3.41058548 15.2843427,3.25013745 14.6771406,3.25013745 L12.3345742,3.25013745 L12.3345742,6.87493128 L14.6771406,6.87493128 Z" fill="#666666"></path>
    </g>
</svg>