<?xml version="1.0" encoding="UTF-8" standalone="no"?>
<svg width="32px" height="32px" viewBox="0 0 32 32" version="1.1" xmlns="http://www.w3.org/2000/svg" xmlns:xlink="http://www.w3.org/1999/xlink">
    <!-- Generator: Sketch 49.3 (51167) - http://www.bohemiancoding.com/sketch -->
    <title>Errors</title>
    <desc>Created with Sketch.</desc>
    <defs></defs>
    <g stroke="none" stroke-width="1" fill="none" fill-rule="evenodd">
        <path d="M30.6908,27.7517411 C27.72064,22.2702411 20.71582,9.34256111 17.53156,3.46628111 C16.2436,1.58939111 15.27186,1.46036111 14.32453,3.39255111 C11.2168,9.14652111 4.3501,21.8606911 1.29822,27.5115711 C0.61005,28.9088511 1.13263,30.3525711 2.66223,30.3321311 C8.86175,30.3273711 23.45038,30.3364611 29.27307,30.3321311 C30.80865,30.3540411 31.42627,28.9292911 30.6908,27.7517411 Z" fill="#FCBE02" fill-rule="nonzero"></path>
        <g opacity="0.1" transform="translate(1.000000, 2.000000)" fill="#000000" fill-rule="nonzero">
            <g>
                <path d="M28.81159,26.22812 C29.01247,26.55336 29.04756,26.84928 28.93421,27.0537 C28.80683,27.28344 28.52465,27.33212 28.27429,27.33212 C28.27387,27.33212 26.76978,27.3325267 23.76202,27.33334 L15.42493,27.33204 L6.74893,27.3307 L1.63023,27.33233 C1.23337,27.33233 1.13012,27.16639 1.09619,27.11186 C0.9748,26.91676 0.92792,26.49628 1.17809,25.98673 L14.3936118,1.81079073 C14.5260644,1.56848735 14.8298641,1.47943569 15.0721675,1.61188827 C15.155231,1.65729406 15.2236981,1.72534706 15.269607,1.80813359 L28.81159,26.22812 Z M13.32448,1.39258 C10.21678,7.14651 3.35012,19.8607 0.29821,25.51153 C-0.38513,26.89902 0.12542,28.33233 1.63023,28.33233 C3.01688,28.33107 4.77219,28.33069 6.74893,28.33069 C11.97348,28.33069 18.74627,28.33334 23.76202,28.33334 C25.53359,28.33334 27.0854,28.33301 28.27311,28.33212 C29.81812,28.33237 30.42072,26.92042 29.69081,25.75171 C26.72068,20.27024 19.71583,7.34259 16.53158,1.46628 C15.87052,0.50297 15.29263,9e-05 14.75873,0 C14.25238,-9e-05 13.78562,0.45206 13.32448,1.39258 Z"></path>
            </g>
        </g>
        <path d="M15.49182,20.73572 L16.50317,20.73572 C16.78241,20.73572 17.00879,20.42798 17.00879,20.04846 L18.02014,10.10663 C18.02014,9.72705 16.95099,8.73187 16.67163,8.73187 L15.32324,8.73187 C15.044,8.73187 13.97497,9.72705 13.97497,10.10663 L14.98608,20.04846 C14.98608,20.42798 15.21259,20.73572 15.49182,20.73572 Z M16.00415,23.07477 C14.8866,23.07477 13.98059,24.01831 13.98059,25.18225 C13.98059,26.34607 14.8866,27.28961 16.00415,27.28961 C17.12164,27.28961 18.02771,26.34607 18.02771,25.18225 C18.02771,24.01831 17.12164,23.07477 16.00415,23.07477 Z" fill="#000000" fill-rule="nonzero"></path>
    </g>
</svg>