<?xml version="1.0" encoding="UTF-8" standalone="no"?>
<svg width="32px" height="32px" viewBox="0 0 32 32" version="1.1" xmlns="http://www.w3.org/2000/svg" xmlns:xlink="http://www.w3.org/1999/xlink">
    <!-- Generator: Sketch 49.3 (51167) - http://www.bohemiancoding.com/sketch -->
    <title>Expand</title>
    <desc>Created with Sketch.</desc>
    <defs>
        <rect id="path-1" x="6" y="17" width="16" height="2"></rect>
        <rect id="path-2" x="13" y="10" width="2" height="16"></rect>
    </defs>
    <g stroke="none" stroke-width="1" fill="none" fill-rule="evenodd">
        <rect fill="#F3F3F3" x="6" y="1" width="26" height="26"></rect>
        <path d="M7,2 L7,26 L31,26 L31,2 L7,2 Z M6,1 L32,1 L32,27 L6,27 L6,1 Z" fill="#333333" fill-rule="nonzero"></path>
        <rect fill="#F3F3F3" x="1" y="5" width="26" height="26"></rect>
        <path d="M2,6 L2,30 L26,30 L26,6 L2,6 Z M1,5 L27,5 L27,31 L1,31 L1,5 Z" fill="#333333" fill-rule="nonzero"></path>
        <g>
            <use fill="#D8D8D8" fill-rule="evenodd" xlink:href="#path-1"></use>
            <rect stroke="#666666" stroke-width="1" x="6.5" y="17.5" width="15" height="1"></rect>
        </g>
        <g>
            <use fill="#D8D8D8" fill-rule="evenodd" xlink:href="#path-2"></use>
            <rect stroke="#666666" stroke-width="1" x="13.5" y="10.5" width="1" height="15"></rect>
        </g>
    </g>
</svg>