<?xml version="1.0" encoding="UTF-8" standalone="no"?>
<svg width="32px" height="32px" viewBox="0 0 32 32" version="1.1" xmlns="http://www.w3.org/2000/svg" xmlns:xlink="http://www.w3.org/1999/xlink">
    <!-- Generator: Sketch 50.2 (55047) - http://www.bohemiancoding.com/sketch -->
    <title>Factory</title>
    <desc>Created with Sketch.</desc>
    <defs></defs>
    <g stroke="none" stroke-width="1" fill="none" fill-rule="evenodd">
        <path d="M25,2 L24,16 L21,16 L21,10.0871103 C21,9.81096794 20.7761424,9.58711032 20.5,9.58711032 C20.3806444,9.58711032 20.2652259,9.6298064 20.1746043,9.70748202 L14.8253957,14.292518 C14.6157328,14.4722291 14.3000828,14.4479483 14.1203717,14.2382854 C14.0426961,14.1476638 14,14.0322453 14,13.9128897 L14,10.0871103 C14,9.81096794 13.7761424,9.58711032 13.5,9.58711032 C13.3806444,9.58711032 13.2652259,9.6298064 13.1746043,9.70748202 L7.82539569,14.292518 C7.61573277,14.4722291 7.30008277,14.4479483 7.1203717,14.2382854 C7.04269608,14.1476638 7,14.0322453 7,13.9128897 L7,10.0919485 C7,9.81580615 6.77614237,9.59194852 6.5,9.59194852 C6.38006517,9.59194852 6.26412607,9.6350592 6.17332806,9.71341788 L0,15.041 L0,32 L32,32 L32,15 L31,2 L25,2 Z" fill="#333333" fill-rule="nonzero"></path>
        <path d="M30,3 L26,3 L25,17 L20,17 L20,12.2611103 C20,11.9849679 19.7761424,11.7611103 19.5,11.7611103 C19.3806444,11.7611103 19.2652259,11.8038064 19.1746043,11.881482 L13.8253957,16.466518 C13.6157328,16.6462291 13.3000828,16.6219483 13.1203717,16.4122854 C13.0426961,16.3216638 13,16.2062453 13,16.0868897 L13,12.2611103 C13,11.9849679 12.7761424,11.7611103 12.5,11.7611103 C12.3806444,11.7611103 12.2652259,11.8038064 12.1746043,11.881482 L6.82539569,16.466518 C6.61573277,16.6462291 6.30008277,16.6219483 6.1203717,16.4122854 C6.04269608,16.3216638 6,16.2062453 6,16.0868897 L6,12.2759485 C6,11.9998061 5.77614237,11.7759485 5.5,11.7759485 C5.38006517,11.7759485 5.26412607,11.8190592 5.17332806,11.8974179 L1,15.499 L1,31 L31,31 L31,16.0499992 L30,3 Z" fill="#F3F3F3" fill-rule="nonzero"></path>
        <polygon fill="#14B44E" fill-rule="nonzero" points="8 18 8 23 3.898 23 10.995 30.098 18.001 23.094 18.001 23 14 23 14 18"></polygon>
    </g>
</svg>