<?xml version="1.0" encoding="UTF-8" standalone="no"?>
<svg width="32px" height="32px" viewBox="0 0 32 32" version="1.1" xmlns="http://www.w3.org/2000/svg" xmlns:xlink="http://www.w3.org/1999/xlink">
    <!-- Generator: Sketch 49.3 (51167) - http://www.bohemiancoding.com/sketch -->
    <title>Fanout</title>
    <desc>Created with Sketch.</desc>
    <defs></defs>
    <g stroke="none" stroke-width="1" fill="none" fill-rule="evenodd">
        <g transform="translate(11.000000, 6.000000)" fill="#008DE9" fill-rule="nonzero">
            <path d="M14.113,12.698 L10.915,9.5 L13.178,7.236 L11.264,5.322 L5,11.586 L6.914,13.5 L9.5,10.914 L12.698,14.111 C13.059,13.54 13.541,13.059 14.113,12.698 Z"></path>
            <path d="M8.175,1.412 L5.501,4.086 L2.302,0.887 C1.942,1.459 1.46,1.942 0.888,2.301 L4.087,5.5 L1.912,7.676 L3.826,9.59 L10.09,3.326 L8.175,1.412 Z"></path>
        </g>
        <polygon fill="#666666" fill-rule="nonzero" points="0 23.5 12.75 15 9 22 17 23.5 4.25 32 8 25"></polygon>
        <g transform="translate(23.000000, 18.000000)" fill-rule="nonzero">
            <path d="M8,4.542 C8,6.474 6.433,8.042 4.5,8.042 C2.567,8.042 1,6.474 1,4.542 C1,2.61 2.567,1.042 4.5,1.042 C6.433,1.042 8,2.61 8,4.542 Z" fill="#6DA745"></path>
            <path d="M4.5,1.042 C6.433,1.042 8,2.61 8,4.542 C8,6.474 6.433,8.042 4.5,8.042 C2.567,8.042 1,6.474 1,4.542 C1,2.61 2.567,1.042 4.5,1.042 Z M4.5,0.042 C2.019,0.042 0,2.061 0,4.542 C0,7.023 2.019,9.042 4.5,9.042 C6.981,9.042 9,7.023 9,4.542 C9,2.061 6.981,0.042 4.5,0.042 Z" fill="#4D8844"></path>
        </g>
        <g transform="translate(5.000000, 0.000000)" fill-rule="nonzero">
            <path d="M8,4.5 C8,6.432 6.433,8 4.5,8 C2.567,8 1,6.432 1,4.5 C1,2.568 2.567,1 4.5,1 C6.433,1 8,2.568 8,4.5 Z" fill="#6DA745"></path>
            <path d="M4.5,1 C6.433,1 8,2.568 8,4.5 C8,6.432 6.433,8 4.5,8 C2.567,8 1,6.432 1,4.5 C1,2.568 2.567,1 4.5,1 Z M4.5,0 C2.019,0 0,2.019 0,4.5 C0,6.981 2.019,9 4.5,9 C6.981,9 9,6.981 9,4.5 C9,2.019 6.981,0 4.5,0 Z" fill="#4D8844"></path>
        </g>
    </g>
</svg>