<?xml version="1.0" encoding="UTF-8"?>
<svg width="32px" height="32px" viewBox="0 0 32 32" version="1.1" xmlns="http://www.w3.org/2000/svg" xmlns:xlink="http://www.w3.org/1999/xlink">
    <!-- Generator: Sketch 50.2 (55047) - http://www.bohemiancoding.com/sketch -->
    <title>FanoutAlternate</title>
    <desc>Created with Sketch.</desc>
    <defs></defs>
    <g id="FanoutAlternate" stroke="none" stroke-width="1" fill="none" fill-rule="evenodd">
        <path d="M15.5,18.5 L11.5,18.5" id="Line-3" stroke="#008DE9" stroke-width="3" stroke-linecap="square"></path>
        <path d="M25.5,7.5 L17.9833518,7.5" id="Line-4" stroke="#008DE9" stroke-width="3" stroke-linecap="square"></path>
        <g id="Group-Copy-2" transform="translate(22.000000, 3.000000)" fill-rule="nonzero">
            <path d="M8,4.5 C8,6.432 6.433,8 4.5,8 C2.567,8 1,6.432 1,4.5 C1,2.568 2.567,1 4.5,1 C6.433,1 8,2.568 8,4.5 Z" id="Shape" fill="#6DA745"></path>
            <path d="M4.5,1 C6.433,1 8,2.568 8,4.5 C8,6.432 6.433,8 4.5,8 C2.567,8 1,6.432 1,4.5 C1,2.568 2.567,1 4.5,1 Z M4.5,0 C2.019,0 0,2.019 0,4.5 C0,6.981 2.019,9 4.5,9 C6.981,9 9,6.981 9,4.5 C9,2.019 6.981,0 4.5,0 Z" id="Shape" fill="#4D8844"></path>
        </g>
        <g id="Group-Copy-3" transform="translate(2.000000, 14.000000)" fill-rule="nonzero">
            <path d="M8,4.5 C8,6.432 6.433,8 4.5,8 C2.567,8 1,6.432 1,4.5 C1,2.568 2.567,1 4.5,1 C6.433,1 8,2.568 8,4.5 Z" id="Shape" fill="#6DA745"></path>
            <path d="M4.5,1 C6.433,1 8,2.568 8,4.5 C8,6.432 6.433,8 4.5,8 C2.567,8 1,6.432 1,4.5 C1,2.568 2.567,1 4.5,1 Z M4.5,0 C2.019,0 0,2.019 0,4.5 C0,6.981 2.019,9 4.5,9 C6.981,9 9,6.981 9,4.5 C9,2.019 6.981,0 4.5,0 Z" id="Shape" fill="#4D8844"></path>
        </g>
        <path d="M17,1 L17,27" id="Line" stroke="#666666" stroke-width="3" stroke-linecap="square"></path>
        <path d="M17,27 L1,27" id="Line-2" stroke="#666666" stroke-width="3" stroke-linecap="square"></path>
    </g>
</svg>