<?xml version="1.0" encoding="UTF-8"?>
<svg width="32px" height="32px" viewBox="0 0 32 32" version="1.1" xmlns="http://www.w3.org/2000/svg" xmlns:xlink="http://www.w3.org/1999/xlink">
    <!-- Generator: Sketch 50.2 (55047) - http://www.bohemiancoding.com/sketch -->
    <title>FanoutSignal</title>
    <desc>Created with Sketch.</desc>
    <defs></defs>
    <g id="FanoutSignal" stroke="none" stroke-width="1" fill="none" fill-rule="evenodd">
        <polygon id="Shape" fill="#666666" fill-rule="nonzero" points="0 24 12 16 8.47058824 22.5882353 16 24 4 32 7.52941176 25.4117647"></polygon>
        <g id="Group-2-Copy" transform="translate(24.500000, 14.500000) rotate(270.000000) translate(-24.500000, -14.500000) translate(19.000000, 13.000000)" fill="#008DE9" fill-rule="nonzero">
            <path d="M10.2730002,-1.13686838e-13 L0.723,-1.13686838e-13 C0.833245312,0.472 0.904117299,0.972 0.904117299,1.5 C0.904117299,2.028 0.833245312,2.528 0.723,3 L10.2730002,3 C10.1627549,2.528 10.0918829,2.028 10.0918829,1.5 C10.0918829,0.972 10.1627549,0.472 10.2730002,-1.13686838e-13 Z" id="Shape"></path>
        </g>
        <g id="Group-2" transform="translate(16.202796, 13.202796) rotate(45.000000) translate(-16.202796, -13.202796) translate(8.202796, 11.702796)" fill="#008DE9" fill-rule="nonzero">
            <path d="M15.276,1.42108547e-14 C11.9819492,1.42108547e-14 9.51141106,1.42108547e-14 7.86438565,1.42108547e-14 C6.27741106,1.42108547e-14 3.89694918,1.42108547e-14 0.723,1.42108547e-14 C0.891,0.472 0.999,0.972 0.999,1.5 C0.999,2.028 0.891,2.528 0.723,3 L15.276,3 C15.108,2.528 15,2.028 15,1.5 C15,0.972 15.108,0.472 15.276,1.42108547e-14 Z" id="Shape"></path>
        </g>
        <path d="M28.2429885,26.7570114 L20.9557905,26.7570114 C21.1334834,27.187462 21.2527258,27.7290114 21.2527258,28.2570114 C21.2527258,28.7850114 20.9328214,29.3036361 20.7570113,29.7570114 C25.7476627,29.7570114 28.2429885,29.7570114 28.2429885,29.7570114 C28.2429885,29.7570114 28.2429885,27.2375489 28.2429885,26.7570114 Z" id="Shape" fill="#999999" fill-rule="nonzero" transform="translate(24.500000, 28.257011) scale(-1, 1) rotate(-270.000000) translate(-24.500000, -28.257011) "></path>
        <g id="Group-Copy-3" transform="translate(4.000000, 1.000000)" fill-rule="nonzero">
            <path d="M8,4.5 C8,6.432 6.433,8 4.5,8 C2.567,8 1,6.432 1,4.5 C1,2.568 2.567,1 4.5,1 C6.433,1 8,2.568 8,4.5 Z" id="Shape" fill="#6DA745"></path>
            <path d="M4.5,1 C6.433,1 8,2.568 8,4.5 C8,6.432 6.433,8 4.5,8 C2.567,8 1,6.432 1,4.5 C1,2.568 2.567,1 4.5,1 Z M4.5,0 C2.019,0 0,2.019 0,4.5 C0,6.981 2.019,9 4.5,9 C6.981,9 9,6.981 9,4.5 C9,2.019 6.981,0 4.5,0 Z" id="Shape" fill="#4D8844"></path>
        </g>
        <g id="Group-Copy-4" transform="translate(20.000000, 1.000000)" fill-rule="nonzero">
            <path d="M8,4.5 C8,6.432 6.433,8 4.5,8 C2.567,8 1,6.432 1,4.5 C1,2.568 2.567,1 4.5,1 C6.433,1 8,2.568 8,4.5 Z" id="Shape" fill="#6DA745"></path>
            <path d="M4.5,1 C6.433,1 8,2.568 8,4.5 C8,6.432 6.433,8 4.5,8 C2.567,8 1,6.432 1,4.5 C1,2.568 2.567,1 4.5,1 Z M4.5,0 C2.019,0 0,2.019 0,4.5 C0,6.981 2.019,9 4.5,9 C6.981,9 9,6.981 9,4.5 C9,2.019 6.981,0 4.5,0 Z" id="Shape" fill="#4D8844"></path>
        </g>
        <g id="Group-Copy-5" transform="translate(20.000000, 16.000000)" fill-rule="nonzero">
            <path d="M8,4.5 C8,6.432 6.433,8 4.5,8 C2.567,8 1,6.432 1,4.5 C1,2.568 2.567,1 4.5,1 C6.433,1 8,2.568 8,4.5 Z" id="Shape" fill="#6DA745"></path>
            <path d="M4.5,1 C6.433,1 8,2.568 8,4.5 C8,6.432 6.433,8 4.5,8 C2.567,8 1,6.432 1,4.5 C1,2.568 2.567,1 4.5,1 Z M4.5,0 C2.019,0 0,2.019 0,4.5 C0,6.981 2.019,9 4.5,9 C6.981,9 9,6.981 9,4.5 C9,2.019 6.981,0 4.5,0 Z" id="Shape" fill="#4D8844"></path>
        </g>
    </g>
</svg>