<?xml version="1.0" encoding="UTF-8" standalone="no"?>
<svg width="32px" height="32px" viewBox="0 0 32 32" version="1.1" xmlns="http://www.w3.org/2000/svg" xmlns:xlink="http://www.w3.org/1999/xlink">
    <!-- Generator: Sketch 49.3 (51167) - http://www.bohemiancoding.com/sketch -->
    <title>FolderClosed</title>
    <desc>Created with Sketch.</desc>
    <defs></defs>
    <g stroke="none" stroke-width="1" fill="none" fill-rule="evenodd">
        <polygon fill="#F3F3F3" fill-rule="nonzero" opacity="0.1" points="14 6 10 2 0 2 0 4.56 0 5.83 0 27 0 28 15 28 19 28 20.97 28 31 28 32 28 32 27 32 14.59 32 14 32 6 15 6"></polygon>
        <polygon fill="#F3F3F3" fill-rule="nonzero" points="14 7 10 3 0 3 0 29 32 29 32 7"></polygon>
        <path d="M14,7 L10,3 L0,3 L0,29 L32,29 L32,7 L14,7 Z M1,4 L9.59,4 L13.3,7.71 L12,9 L1,9 L1,4 Z M31,28 L1,28 L1,10 L12.36,10 L14.36,8 L31,8 L31,28 Z" fill="#666666" fill-rule="nonzero"></path>
    </g>
</svg>