<?xml version="1.0" encoding="UTF-8" standalone="no"?>
<svg width="32px" height="32px" viewBox="0 0 32 32" version="1.1" xmlns="http://www.w3.org/2000/svg" xmlns:xlink="http://www.w3.org/1999/xlink">
    <!-- Generator: Sketch 49.3 (51167) - http://www.bohemiancoding.com/sketch -->
    <title>FolderOpen</title>
    <desc>Created with Sketch.</desc>
    <defs></defs>
    <g stroke="none" stroke-width="1" fill="none" fill-rule="evenodd">
        <polygon fill="#F3F3F3" fill-rule="nonzero" points="24 29 0 29 8 13 32 13"></polygon>
        <polygon fill="#F3F3F3" fill-rule="nonzero" points="24 29 0 29 8 13 32 13"></polygon>
        <polygon fill="#F3F3F3" fill-rule="nonzero" points="24 29 24 6 15 6 12 3 0 3 0 29"></polygon>
        <path d="M8,13 L0,29 L24,29 L32,13 L8,13 Z M23.38184,28 L1.61816,28 L8.61816,14 L30.38183,14 L23.38184,28 Z" fill="#666666" fill-rule="nonzero"></path>
        <polygon fill="#666666" fill-rule="nonzero" points="1 27 1 4 11.58594 4 14.58594 7 23 7 23 13 24 13 24 6 15 6 12 3 0 3 0 29"></polygon>
    </g>
</svg>