<?xml version="1.0" encoding="UTF-8" standalone="no"?>
<svg width="32px" height="32px" viewBox="0 0 32 32" version="1.1" xmlns="http://www.w3.org/2000/svg" xmlns:xlink="http://www.w3.org/1999/xlink">
    <!-- Generator: Sketch 50.2 (55047) - http://www.bohemiancoding.com/sketch -->
    <title>Forward</title>
    <desc>Created with Sketch.</desc>
    <defs></defs>
    <g stroke="none" stroke-width="1" fill="none" fill-rule="evenodd">
        <path d="M16,12 L32.00001,12 L32.00001,20 L16,20 L16,28 L0,16 L16,4 L16,12 Z" fill="#333333" transform="translate(16.000005, 16.000000) scale(-1, 1) translate(-16.000005, -16.000000) "></path>
        <path d="M1.666667,16 L15.000005,26.0000004 L15.000005,19 L31.00001,19 L31.00001,13 L15.000005,13 L15.000005,5.99999963 L1.666667,16 Z M0,16 L16.000005,4 L16.000005,12 L32.00001,12 L32.00001,20 L16.000005,20 L16.000005,28 L0,16 Z" fill="#333333" fill-rule="nonzero" transform="translate(16.000005, 16.000000) scale(-1, 1) translate(-16.000005, -16.000000) "></path>
    </g>
</svg>