<?xml version="1.0" encoding="UTF-8"?>
<svg width="32px" height="32px" viewBox="0 0 32 32" version="1.1" xmlns="http://www.w3.org/2000/svg" xmlns:xlink="http://www.w3.org/1999/xlink">
    <!-- Generator: Sketch 50.2 (55047) - http://www.bohemiancoding.com/sketch -->
    <title>Fusion Sync</title>
    <desc>Created with Sketch.</desc>
    <defs>
        <rect id="path-1" x="5.54556401e-14" y="0" width="32" height="32" rx="2.66075388"></rect>
    </defs>
    <g id="Icons" stroke="none" stroke-width="1" fill="none" fill-rule="evenodd">
        <g id="Fusion-Sync">
            <g>
                <mask id="mask-2" fill="white">
                    <use xlink:href="#path-1"></use>
                </mask>
                <use id="Mask" fill="#F5A623" xlink:href="#path-1"></use>
                <g id="Group-2" mask="url(#mask-2)">
                    <g transform="translate(8.617818, 3.139106)" id="fusion-sync-button">
                        <g transform="translate(0.041282, 0.298183)">
                            <g id="5:10" transform="translate(0.193908, 0.428050)" fill-rule="nonzero">
                                <g id="fusion" transform="translate(0.476301, 0.346019)">
                                    <g id="Group">
                                        <path d="M0,1.56962656 C0,4.22591766 0.120740505,18.3525567 0.603702523,23.3029174 C1.20740505,23.7858794 7.00294927,23.9066199 7.00294927,23.9066199 C-2.17332908,9.90072137 2.29406959,3.13925312 4.70887968,0 C3.13925312,0.362221514 1.56962656,0.965924037 0,1.56962656 Z" id="Shape" fill="#3C3C3C"></path>
                                        <path d="M6.88220876,23.9066199 C5.55406321,20.7673668 5.52446977e-13,10.5044239 4.10517716,6.15776573 C7.60665179,2.41481009 15.3340441,4.95036069 15.3340441,4.95036069 C15.3340441,4.95036069 14.8510821,2.6562911 14.6096011,1.69036706 C14.4888605,1.44888605 14.2473795,1.20740505 14.0058985,1.08666454 C10.8666454,0.482962018 7.72739229,0.120740505 4.46739867,0 C4.58813917,0 -3.86369615,7.24443027 6.88220876,23.9066199 Z" id="Shape" fill="#3C3C3C"></path>
                                        <g transform="translate(2.414810, 3.622215)" fill="#8C8C8C" id="Shape">
                                            <path d="M0.724443027,3.86369615 C-1.81110757,8.93479734 4.46739867,20.1636643 4.46739867,20.2844048 C4.34665816,18.4732972 4.34665816,16.6621896 4.46739867,14.8510821 C4.58813917,13.160715 4.82962018,11.7118289 7.00294927,11.1081264 C8.81405683,10.7459049 10.6251644,10.5044239 12.436272,10.3836834 C12.5570125,10.3836834 11.5910884,9.77998087 6.39924674,9.90072137 C3.25999362,9.90072137 3.38073413,6.76146826 5.79554422,6.64072775 C7.60665179,6.51998725 10.9873859,6.76146826 10.9873859,6.76146826 C10.9873859,6.76146826 8.21035431,6.27850624 6.27850624,5.79554422 C5.07110119,5.79554422 4.22591766,4.82962018 4.22591766,3.62221514 L4.22591766,3.62221514 L4.22591766,3.62221514 L0.845183532,3.62221514 L0.724443027,3.86369615 Z"></path>
                                            <path d="M9.29701885,1.44888605 C13.0399745,1.81110757 13.0399745,1.20740505 13.0399745,1.20740505 C13.0399745,1.20740505 5.3125822,-1.32814555 1.81110757,2.41481009 C1.44888605,2.77703161 1.08666454,3.25999362 0.845183532,3.86369615 L0.965924037,4.22591766 L4.10517716,4.22591766 L4.22591766,3.86369615 C4.46739867,2.89777211 5.55406321,1.32814555 9.29701885,1.44888605 Z"></path>
                                        </g>
                                        <path d="M13.402196,10.3836834 C11.5910884,10.2629429 9.77998087,10.1422024 7.8481328,10.2629429 C5.43332271,10.3836834 5.3125822,13.5229365 8.45183532,13.5229365 C13.643677,13.5229365 14.6096011,14.0058985 14.7303416,14.0058985 L14.7303416,14.0058985 L13.402196,10.3836834 Z" id="Shape" fill="#3C3C3C"></path>
                                    </g>
                                </g>
                            </g>
                        </g>
                    </g>
                </g>
            </g>
        </g>
    </g>
</svg>