<?xml version="1.0" encoding="UTF-8" standalone="no"?>
<svg width="32px" height="32px" viewBox="0 0 32 32" version="1.1" xmlns="http://www.w3.org/2000/svg" xmlns:xlink="http://www.w3.org/1999/xlink">
    <!-- Generator: Sketch 49.3 (51167) - http://www.bohemiancoding.com/sketch -->
    <title>Go</title>
    <desc>Created with Sketch.</desc>
    <defs></defs>
    <g stroke="none" stroke-width="1" fill="none" fill-rule="evenodd">
        <circle fill="#14B44E" cx="16" cy="16" r="16"></circle>
        <path d="M8.62,17.917 C8.62,18.4210025 8.66499955,18.873998 8.755,19.276 C8.84500045,19.678002 8.99499895,20.0229986 9.205,20.311 C9.41500105,20.5990014 9.69399826,20.8179993 10.042,20.968 C10.3900017,21.1180008 10.8159975,21.193 11.32,21.193 C11.7520022,21.193 12.1299984,21.1330006 12.454,21.013 C12.7780016,20.8929994 13.0779986,20.731001 13.354,20.527 L13.354,16.657 L11.608,16.657 C11.4279991,16.657 11.2690007,16.5910007 11.131,16.459 C10.9929993,16.3269993 10.924,16.165001 10.924,15.973 C10.924,15.780999 10.9929993,15.6190007 11.131,15.487 C11.2690007,15.3549993 11.4279991,15.289 11.608,15.289 L13.75,15.289 C14.0380014,15.289 14.280999,15.3549993 14.479,15.487 C14.677001,15.6190007 14.776,15.8289986 14.776,16.117 L14.776,20.419 C14.776,20.7790018 14.6650011,21.0909987 14.443,21.355 C14.2209989,21.6190013 13.9390017,21.8379991 13.597,22.012 C13.2549983,22.1860009 12.8740021,22.3119996 12.454,22.39 C12.0339979,22.4680004 11.626002,22.507 11.23,22.507 C10.5339965,22.507 9.93100255,22.3990011 9.421,22.183 C8.91099745,21.9669989 8.49100165,21.658002 8.161,21.256 C7.83099835,20.853998 7.58500081,20.3710028 7.423,19.807 C7.26099919,19.2429972 7.18,18.6130035 7.18,17.917 L7.18,14.065 C7.18,13.3689965 7.26099919,12.7390028 7.423,12.175 C7.58500081,11.6109972 7.83099835,11.128002 8.161,10.726 C8.49100165,10.323998 8.91099745,10.0150011 9.421,9.799 C9.93100255,9.58299892 10.5339965,9.475 11.23,9.475 C11.638002,9.475 12.0339981,9.51699958 12.418,9.601 C12.8020019,9.68500042 13.1409985,9.79599931 13.435,9.934 C13.7290015,10.0720007 13.9659991,10.2339991 14.146,10.42 C14.3260009,10.6060009 14.416,10.8069989 14.416,11.023 C14.416,11.1910008 14.3560006,11.3379994 14.236,11.464 C14.1159994,11.5900006 13.960001,11.653 13.768,11.653 C13.6359993,11.653 13.5310004,11.6260003 13.453,11.572 C13.3749996,11.5179997 13.2640007,11.4430005 13.12,11.347 C12.5919974,10.9749981 11.9920034,10.789 11.32,10.789 C10.8159975,10.789 10.3900017,10.8639993 10.042,11.014 C9.69399826,11.1640008 9.41500105,11.3829986 9.205,11.671 C8.99499895,11.9590014 8.84500045,12.303998 8.755,12.706 C8.66499955,13.108002 8.62,13.5609975 8.62,14.065 L8.62,17.917 Z M20.68,22.525 C19.9959966,22.525 19.3930026,22.4050012 18.871,22.165 C18.3489974,21.9249988 17.9170017,21.5980021 17.575,21.184 C17.2329983,20.7699979 16.9750009,20.2810028 16.801,19.717 C16.6269991,19.1529972 16.54,18.5530032 16.54,17.917 L16.54,14.065 C16.54,13.4409969 16.6149993,12.8500028 16.765,12.292 C16.9150008,11.7339972 17.1579983,11.2480021 17.494,10.834 C17.8300017,10.4199979 18.2589974,10.0900012 18.781,9.844 C19.3030026,9.59799877 19.9359963,9.475 20.68,9.475 C21.4240037,9.475 22.0569974,9.59799877 22.579,9.844 C23.1010026,10.0900012 23.5299983,10.4199979 23.866,10.834 C24.2020017,11.2480021 24.4449993,11.7339972 24.595,12.292 C24.7450008,12.8500028 24.82,13.4409969 24.82,14.065 L24.82,17.917 C24.82,18.5530032 24.7330009,19.1529972 24.559,19.717 C24.3849991,20.2810028 24.1270017,20.7699979 23.785,21.184 C23.4429983,21.5980021 23.0110026,21.9249988 22.489,22.165 C21.9669974,22.4050012 21.3640034,22.525 20.68,22.525 Z M20.68,10.879 C20.1879975,10.879 19.7710017,10.9569992 19.429,11.113 C19.0869983,11.2690008 18.8080011,11.4849986 18.592,11.761 C18.3759989,12.0370014 18.2200005,12.3699981 18.124,12.76 C18.0279995,13.150002 17.98,13.5849976 17.98,14.065 L17.98,17.917 C17.98,18.8650047 18.1989978,19.635997 18.637,20.23 C19.0750022,20.824003 19.7559954,21.121 20.68,21.121 C21.6040046,21.121 22.2849978,20.824003 22.723,20.23 C23.1610022,19.635997 23.38,18.8650047 23.38,17.917 L23.38,14.065 C23.38,13.5849976 23.3320005,13.150002 23.236,12.76 C23.1399995,12.3699981 22.9840011,12.0370014 22.768,11.761 C22.5519989,11.4849986 22.2730017,11.2690008 21.931,11.113 C21.5889983,10.9569992 21.1720025,10.879 20.68,10.879 Z" fill="#FFFFFF"></path>
        <path d="M16,0 C7.16345,0 0,7.16345 0,16 C0,24.83655 7.16345,32 16,32 C24.83655,32 32,24.83655 32,16 C32,7.16345 24.83655,0 16,0 Z M16,31 C7.729,31 1,24.27148 1,16 C1,7.72852 7.729,1 16,1 C24.27148,1 31,7.72852 31,16 C31,24.27148 24.27148,31 16,31 Z" fill="#000000" fill-rule="nonzero" opacity="0.1"></path>
    </g>
</svg>