<?xml version="1.0" encoding="UTF-8" standalone="no"?>
<svg width="32px" height="32px" viewBox="0 0 32 32" version="1.1" xmlns="http://www.w3.org/2000/svg" xmlns:xlink="http://www.w3.org/1999/xlink">
    <!-- Generator: Sketch 49.3 (51167) - http://www.bohemiancoding.com/sketch -->
    <title>HasSupply</title>
    <desc>Created with Sketch.</desc>
    <defs></defs>
    <g stroke="none" stroke-width="1" fill="none" fill-rule="evenodd">
        <path d="M24.9973369,32 L23,32 C23,26.714098 23.0004324,22.9778499 23.0013316,18.6886766 C23.0018541,16.3015879 23.0021024,15.1514403 23.0022813,14.1254766 C23.0025368,12.6600673 23.0026631,11.3694365 23.0026631,10 L25,10 C25,11.369624 24.9998737,12.6604276 24.9996181,14.1260032 C24.9994392,15.1520401 24.9991909,16.3022636 24.9986684,18.6893096 C24.9977693,22.9782816 24.9973369,26.714321 24.9973369,32 Z" fill="#666666" fill-rule="nonzero"></path>
        <path d="M8.00266309,-2.15578329 L10,-2.15578329 C10,7.77149459 9.99967881,11.3683234 9.99873406,15.1139206 C9.99840926,16.3692734 9.99823423,17.0592745 9.99805996,17.8311543 C9.99779161,19.0197135 9.99755884,20.2732931 9.99733686,21.7879456 L8,21.7873171 C8.00022199,20.2725519 8.00045479,19.0188591 8.00072316,17.830186 C8.00089745,17.0582364 8.00107249,16.3681646 8.00139729,15.1128388 C8.00234193,11.3676667 8.00266309,7.77116494 8.00266309,-2.15578329 Z" fill="#666666" fill-rule="nonzero"></path>
        <path d="M23.9990346,15.1034146 C26.7592199,15.1034146 29,12.8409756 29,10.0507317 C29,7.2604878 26.7592199,5 23.9990346,5 C21.2388492,5 19,7.2604878 19,10.0507317 C19,12.8409756 21.2388492,15.1034146 23.9990346,15.1034146" fill="#666666"></path>
        <polygon fill="#666666" points="2 25 16 25 16 19 2 19 2 25"></polygon>
    </g>
</svg>