<?xml version="1.0" encoding="UTF-8"?>
<svg width="32px" height="25px" viewBox="0 0 32 25" version="1.1" xmlns="http://www.w3.org/2000/svg" xmlns:xlink="http://www.w3.org/1999/xlink">
    <!-- Generator: Sketch 49.1 (51147) - http://www.bohemiancoding.com/sketch -->
    <title>openbook画板 13</title>
    <desc>Created with Sketch.</desc>
    <defs></defs>
    <g id="HigSVGs" stroke="none" stroke-width="1" fill="none" fill-rule="evenodd">
        <g id="help" transform="translate(-292.000000, -177.000000)" fill-rule="nonzero">
            <g id="openbook画板-13" transform="translate(292.000000, 177.000000)">
                <path d="M30.8965517,22.826087 L18.7586207,22.826087 C17.6483828,22.826887 16.6124811,23.3758726 16,24.2880435 C15.4096552,23.4076087 13.2910345,22.826087 12.137931,22.826087 L0,22.826087 L0,0 L12.137931,0 C12.9216244,0.00465969838 13.6440225,0.418381444 14.0358621,1.08695652 L16.8606897,1.08695652 C17.2525292,0.418381444 17.9749273,0.00465969838 18.7586207,0 L30.8965517,0 L30.8965517,22.826087 Z" id="Shape" fill="#F3F3F3"></path>
                <path d="M18.7586207,21.7391304 C17.9835171,21.6898546 17.2120986,21.8798269 16.5517241,22.2826087 L16.5517241,2.17391304 L15.4482759,2.17391304 L15.4482759,22.2826087 C14.7879014,21.8798269 14.0164829,21.6898546 13.2413793,21.7391304 L1.10344828,21.7391304 L1.10344828,22.826087 L13.2413793,22.826087 C14.0524138,22.826087 15.0675862,22.826087 15.4482759,23.9130435 L16.5517241,23.9130435 C16.9324138,22.826087 17.9475862,22.826087 18.7586207,22.826087 L30.8965517,22.826087 L30.8965517,21.7391304 L18.7586207,21.7391304 Z" id="Shape" fill="#898989" opacity="0.7"></path>
                <rect id="Rectangle-path" fill="#BBBBBB" x="3.31034483" y="4.34782609" width="9.93103448" height="1.08695652"></rect>
                <rect id="Rectangle-path" fill="#BBBBBB" x="3.31034483" y="7.60869565" width="9.93103448" height="1.08695652"></rect>
                <rect id="Rectangle-path" fill="#BBBBBB" x="3.31034483" y="10.8695652" width="9.93103448" height="1.08695652"></rect>
                <rect id="Rectangle-path" fill="#BBBBBB" x="3.31034483" y="14.1304348" width="9.93103448" height="1.08695652"></rect>
                <rect id="Rectangle-path" fill="#BBBBBB" x="18.7586207" y="4.34782609" width="9.93103448" height="1.08695652"></rect>
                <rect id="Rectangle-path" fill="#BBBBBB" x="18.7586207" y="7.60869565" width="9.93103448" height="1.08695652"></rect>
                <rect id="Rectangle-path" fill="#BBBBBB" x="18.7586207" y="10.8695652" width="9.93103448" height="1.08695652"></rect>
                <rect id="Rectangle-path" fill="#BBBBBB" x="18.7586207" y="14.1304348" width="7.72413793" height="1.08695652"></rect>
                <path d="M30.8965517,0 L18.7586207,0 C17.6055172,0 16.5903448,0.206521739 16,1.08695652 C15.4096552,0.206521739 14.3944828,0 13.2413793,0 L0,0 L0,23.9130435 L13.2413793,23.9130435 C14.0524138,23.9130435 15.0675862,23.9130435 15.4482759,25 L16.5517241,25 C16.9324138,23.9130435 17.9475862,23.9130435 18.7586207,23.9130435 L32,23.9130435 L32,0 L30.8965517,0 Z M30.8965517,22.826087 L18.7586207,22.826087 C17.6055172,22.826087 16.5903448,23.0326087 16,23.9130435 C15.4096552,23.0326087 14.3944828,22.826087 13.2413793,22.826087 L1.10344828,22.826087 L1.10344828,1.08695652 L13.2413793,1.08695652 C14.0524138,1.08695652 15.0675862,1.08695652 15.4482759,2.17391304 L16.5517241,2.17391304 C16.9324138,1.08695652 17.9475862,1.08695652 18.7586207,1.08695652 L30.8965517,1.08695652 L30.8965517,22.826087 Z" id="Shape" fill="#666666"></path>
            </g>
        </g>
    </g>
</svg>