<?xml version="1.0" encoding="UTF-8"?>
<svg width="28px" height="32px" viewBox="0 0 28 32" version="1.1" xmlns="http://www.w3.org/2000/svg" xmlns:xlink="http://www.w3.org/1999/xlink">
    <!-- Generator: Sketch 49.1 (51147) - http://www.bohemiancoding.com/sketch -->
    <title>helpbook画板 2</title>
    <desc>Created with Sketch.</desc>
    <defs></defs>
    <g id="HigSVGs" stroke="none" stroke-width="1" fill="none" fill-rule="evenodd">
        <g id="help" transform="translate(-194.000000, -92.000000)" fill-rule="nonzero">
            <g id="helpbook画板-2" transform="translate(194.000000, 92.000000)">
                <path d="M7.40148683e-17,4.57333333 L-2.22044605e-16,28 L4,28 L4,0 C1.7967663,0.463182669 0.165692031,2.32804425 7.40148683e-17,4.57333333 Z" id="Shape" fill="#AB3C3C"></path>
                <circle id="Oval" fill="#666666" cx="4.66666667" cy="27.3333333" r="4.66666667"></circle>
                <rect id="Rectangle-path" fill="#CC5C5C" x="4" y="0" width="24" height="24"></rect>
                <rect id="Rectangle-path" fill="#666666" x="4" y="22.6666667" width="24" height="1.33333333"></rect>
                <rect id="Rectangle-path" fill="#666666" x="4" y="30.6666667" width="24" height="1.33333333"></rect>
                <circle id="Oval" fill="#F3F3F3" cx="4.66666667" cy="27.3333333" r="3.33333333"></circle>
                <path d="M4.66666667,30.6666667 L27.4266667,30.6666667 C26.5866667,30.6666667 25.9066667,29.0133333 25.9066667,27.3333333 C25.9066667,25.6533333 26.5866667,24 27.4266667,24 L4.66666667,24 L4,24.0666667 L4,30.6666667 L4.66666667,30.6666667 Z" id="Shape" fill="#F3F3F3"></path>
                <path d="M16.2666667,10.2533333 C16.8,9.82666667 17.16,9.45333333 17.44,9.21333333 C17.8708314,8.85360498 18.1198535,8.32126658 18.1198535,7.76 C18.1198535,7.19873342 17.8708314,6.66639502 17.44,6.30666667 C16.8556403,5.91974101 16.1673834,5.71977448 15.4666667,5.73333333 C14.8710343,5.71838647 14.2780736,5.81796766 13.72,6.02666667 C13.24,6.22666667 12.9866667,6.30666667 12.1333333,7.53333333 L11.0133333,6.66666667 C11.3952477,5.67345646 12.1801231,4.888581 13.1733333,4.50666667 C13.9725131,4.1759065 14.8284194,4.00381952 15.6933333,4 C16.4818963,3.97965422 17.2651539,4.13448422 17.9866667,4.45333333 C18.6009059,4.74703218 19.1188627,5.20949366 19.48,5.78666667 C19.8129792,6.29412042 19.993446,6.88642191 20,7.49333333 L20,8.13333333 C20,9.46666667 18.4266667,10.8 17.9866667,11.12 C17.4954592,11.4749461 17.0479122,11.8866894 16.6533333,12.3466667 C16.3994502,12.8914712 16.3069127,13.4975919 16.3866667,14.0933333 L16.3866667,14.6666667 L14.6666667,14.6666667 C14.5742104,13.7441585 14.6556181,12.8124931 14.9066667,11.92 C15.1749799,11.2361415 15.6505259,10.6533646 16.2666667,10.2533333 Z" id="Shape" fill="#F3F3F3"></path>
                <rect id="Rectangle-path" fill="#F3F3F3" x="14.6666667" y="16.6666667" width="2" height="2"></rect>
            </g>
        </g>
    </g>
</svg>