<?xml version="1.0" encoding="UTF-8" standalone="no"?>
<svg width="32px" height="32px" viewBox="0 0 32 32" version="1.1" xmlns="http://www.w3.org/2000/svg" xmlns:xlink="http://www.w3.org/1999/xlink">
    <!-- Generator: Sketch 49.3 (51167) - http://www.bohemiancoding.com/sketch -->
    <title>Help</title>
    <desc>Created with Sketch.</desc>
    <defs></defs>
    <g stroke="none" stroke-width="1" fill="none" fill-rule="evenodd">
        <circle fill="#F3F3F3" fill-rule="nonzero" cx="16" cy="16" r="16"></circle>
        <path d="M16,0 C7.16345,0 0,7.16345 0,16 C0,24.83655 7.16345,32 16,32 C24.83655,32 32,24.83655 32,16 C32,7.16345 24.83655,0 16,0 Z M16,31 C7.72888,31 1,24.27008 1,16 C1,7.72992 7.72888,1 16,1 C24.27008,1 31,7.72992 31,16 C31,24.27008 24.27008,31 16,31 Z" fill="#333333" fill-rule="nonzero"></path>
        <g transform="translate(10.000000, 6.000000)" fill="#808080">
            <path d="M4.11685442,13.0505758 C4.10993618,12.8015195 4.10644598,12.6130487 4.10644598,12.4817933 C4.10644598,11.6589252 4.22612152,10.9289045 4.47045301,10.3018944 C4.65780618,9.80796333 4.95053943,9.32557191 5.34588393,8.8495567 C5.6255894,8.51546405 6.08790753,8.06742602 6.74724254,7.48565984 C7.29909141,6.99873436 7.64473254,6.62464541 7.76637112,6.41177789 C7.86945695,6.23137769 7.91973856,6.0392301 7.91973856,5.81856624 C7.91973856,5.38465432 7.75592008,5.01606274 7.39123182,4.66249302 C7.0254665,4.30787909 6.59564004,4.1378731 6.04838079,4.1378731 C5.51899303,4.1378731 5.1143671,4.28960782 4.78317264,4.59929615 C4.44481705,4.9156806 4.19468319,5.4729095 4.06497278,6.29981334 L3.92036675,7.22167681 L0.172644026,6.77600167 L0.290241205,5.81170481 C0.48463675,4.21766134 1.08478473,2.94866157 2.10094936,2.05180372 C3.11525913,1.15658295 4.43614744,0.715612581 6.01827585,0.715612581 C7.68584803,0.715612581 9.06726978,1.18682642 10.1137293,2.14335585 C11.1683511,3.10734602 11.7132934,4.31217937 11.7132934,5.69814647 C11.7132934,6.50348522 11.5215775,7.25756742 11.1398353,7.94470344 C10.7751752,8.60109172 10.1204467,9.33394115 9.16946196,10.1760344 C8.63027014,10.6539544 8.28316894,11.0010556 8.15537744,11.1761773 C8.04610737,11.3259178 7.96308723,11.5023356 7.90646099,11.711417 C7.8452073,11.9375845 7.80147185,12.3924332 7.78944996,13.0416151 L7.7718461,13.9922239 L4.14301131,13.9922239 L4.11685442,13.0505758 Z"></path>
            <circle fill-rule="nonzero" cx="5.94296869" cy="17.404541" r="2"></circle>
        </g>
    </g>
</svg>