<?xml version="1.0" encoding="UTF-8" standalone="no"?>
<svg width="32px" height="32px" viewBox="0 0 32 32" version="1.1" xmlns="http://www.w3.org/2000/svg" xmlns:xlink="http://www.w3.org/1999/xlink">
    <!-- Generator: Sketch 49.3 (51167) - http://www.bohemiancoding.com/sketch -->
    <title>Hole</title>
    <desc>Created with Sketch.</desc>
    <defs></defs>
    <g stroke="none" stroke-width="1" fill="none" fill-rule="evenodd">
        <g fill-rule="nonzero">
            <rect fill="#F3F3F3" x="0" y="0" width="32" height="32"></rect>
            <path d="M31,1 L31,31 L1,31 L1,1 L31,1 Z M32,0 L0,0 L0,32 L32,32 L32,0 Z" fill="#333333"></path>
        </g>
        <g transform="translate(5.000000, 5.000000)" fill-rule="nonzero">
            <path d="M21,11 C21,16.518 16.521,21 11,21 C5.479,21 1,16.518 1,11 C1,5.482 5.479,1 11,1 C16.521,1 21,5.482 21,11 Z" fill="#666666"></path>
            <path d="M11,1 C16.521,1 21,5.482 21,11 C21,16.518 16.521,21 11,21 C5.479,21 1,16.518 1,11 C1,5.482 5.479,1 11,1 Z M11,0 C4.935,0 0,4.935 0,11 C0,17.065 4.935,22 11,22 C17.065,22 22,17.065 22,11 C22,4.935 17.065,0 11,0 Z" fill="#808080"></path>
        </g>
    </g>
</svg>