<?xml version="1.0" encoding="UTF-8" standalone="no"?>
<svg width="38px" height="38px" viewBox="0 0 38 38" version="1.1" xmlns="http://www.w3.org/2000/svg" xmlns:xlink="http://www.w3.org/1999/xlink">
    <!-- Generator: Sketch 49.3 (51167) - http://www.bohemiancoding.com/sketch -->
    <title>horizontal</title>
    <desc>Created with Sketch.</desc>
    <defs></defs>
    <g stroke="none" stroke-width="1" fill="none" fill-rule="evenodd">
        <g transform="translate(-0.330805, 0.115918)" fill="#666666" fill-rule="nonzero">
            <g transform="translate(19.333333, 19.709289) scale(-1, 1) translate(-19.333333, -19.709289) translate(0.000000, 0.375956)">
                <g transform="translate(0.333333, 0.145355)">
                    <polygon points="0 0 0 16 16 16 16 0"></polygon>
                    <polygon points="21.3333333 0 21.3333333 16 37.3333333 16 37.3333333 0"></polygon>
                    <path d="M0,21.3333333 L0,37.3333333 L16,37.3333333 L16,21.3333333 L0,21.3333333 Z M14.6666667,36 L1.33333333,36 L1.33333333,22.6666667 L14.6666667,22.6666667 L14.6666667,36 Z"></path>
                    <path d="M21.3333333,21.3333333 L21.3333333,37.3333333 L37.3333333,37.3333333 L37.3333333,21.3333333 L21.3333333,21.3333333 Z M36,36 L22.6666667,36 L22.6666667,22.6666667 L36,22.6666667 L36,36 Z"></path>
                </g>
            </g>
        </g>
    </g>
</svg>