<?xml version="1.0" encoding="UTF-8" standalone="no"?>
<svg width="32px" height="32px" viewBox="0 0 32 32" version="1.1" xmlns="http://www.w3.org/2000/svg" xmlns:xlink="http://www.w3.org/1999/xlink">
    <!-- Generator: Sketch 49.3 (51167) - http://www.bohemiancoding.com/sketch -->
    <title>IgnoreObstacles</title>
    <desc>Created with Sketch.</desc>
    <defs></defs>
    <g stroke="none" stroke-width="1" fill="none" fill-rule="evenodd">
        <path d="M16.0373229,7.0949229 C11.0753229,7.0949229 7.0373229,11.1319229 7.0373229,16.0949229 C7.0373229,17.8529229 7.5523229,19.4899229 8.4273229,20.8769229 L20.8203229,8.4839229 C19.4323229,7.6099229 17.7953229,7.0949229 16.0373229,7.0949229 Z" fill="#F3F3F3" fill-rule="nonzero"></path>
        <path d="M23.6473229,11.3099229 L11.2543229,23.7029229 C12.6413229,24.5779229 14.2783229,25.0929229 16.0363229,25.0929229 C20.9983229,25.0929229 25.0363229,21.0559229 25.0363229,16.0929229 C25.0373229,14.3339229 24.5223229,12.6969229 23.6473229,11.3099229 Z" fill="#F3F3F3" fill-rule="nonzero"></path>
        <path d="M7.0373229,16.0919229 C7.0373229,11.1289229 11.0753229,7.0919229 16.0373229,7.0919229 C17.7953229,7.0919229 19.4323229,7.6069229 20.8193229,8.4819229 L21.5483229,7.7529229 C19.9673229,6.7059229 18.0743229,6.0929229 16.0373229,6.0929229 C10.5163229,6.0929229 6.0373229,10.5719229 6.0373229,16.0929229 C6.0373229,18.1299229 6.6503229,20.0229229 7.6983229,21.6049229 L8.4273229,20.8759229 C7.5523229,19.4869229 7.0373229,17.8499229 7.0373229,16.0919229 Z" fill="#333333" fill-rule="nonzero"></path>
        <path d="M23.6473229,11.3099229 C24.5223229,12.6979229 25.0373229,14.3339229 25.0373229,16.0919229 C25.0373229,21.0549229 20.9993229,25.0919229 16.0373229,25.0919229 C14.2793229,25.0919229 12.6423229,24.5769229 11.2553229,23.7019229 L10.5263229,24.4309229 C12.1073229,25.4779229 14.0003229,26.0909229 16.0373229,26.0909229 C21.5583229,26.0909229 26.0373229,21.6109229 26.0373229,16.0909229 C26.0373229,14.0539229 25.4243229,12.1599229 24.3763229,10.5789229 L23.6473229,11.3099229 Z" fill="#333333" fill-rule="nonzero"></path>
        <rect fill="#008DE9" fill-rule="nonzero" transform="translate(16.060523, 16.060523) rotate(45.000000) translate(-16.060523, -16.060523) " x="14.5605373" y="-3.73828723" width="2.99997123" height="39.5976203"></rect>
    </g>
</svg>