<?xml version="1.0" encoding="UTF-8" standalone="no"?>
<svg width="32px" height="32px" viewBox="0 0 32 32" version="1.1" xmlns="http://www.w3.org/2000/svg" xmlns:xlink="http://www.w3.org/1999/xlink">
    <!-- Generator: Sketch 49.3 (51167) - http://www.bohemiancoding.com/sketch -->
    <title>Invoke</title>
    <desc>Created with Sketch.</desc>
    <defs></defs>
    <g stroke="none" stroke-width="1" fill="none" fill-rule="evenodd">
        <path d="M16,15 L11.931,15 C11.438,11.055 8.079,8 4,8 L4,11 L0,11 L0,13 L4,13 L4,19 L0,19 L0,21 L4,21 L4,24 C8.079,24 11.438,20.945 11.931,17 L16,17 L16,15 Z M5,22.929 L5,9.072 C8.388,9.558 11,12.48 11,16.001 C11,19.522 8.388,22.442 5,22.929 Z" fill="#666666" fill-rule="nonzero"></path>
        <path d="M32,15 L27.931,15 C27.438,11.055 24.079,8 20,8 L20,11 L16,11 L16,13 L20,13 L20,19 L16,19 L16,21 L20,21 L20,24 C24.079,24 27.438,20.945 27.931,17 L32,17 L32,15 Z" fill="#333333" fill-rule="nonzero"></path>
        <path d="M5,22.929 L5,9.072 C8.388,9.558 11,12.48 11,16.001 C11,19.522 8.388,22.442 5,22.929 Z" fill="#F3F3F3" fill-rule="nonzero"></path>
    </g>
</svg>