<?xml version="1.0" encoding="UTF-8" standalone="no"?>
<svg width="32px" height="32px" viewBox="0 0 32 32" version="1.1" xmlns="http://www.w3.org/2000/svg" xmlns:xlink="http://www.w3.org/1999/xlink">
    <!-- Generator: Sketch 49.3 (51167) - http://www.bohemiancoding.com/sketch -->
    <title>Junction</title>
    <desc>Created with Sketch.</desc>
    <defs></defs>
    <g stroke="none" stroke-width="1" fill="none" fill-rule="evenodd">
        <g fill="#333333" fill-rule="nonzero">
            <path d="M32,15 L20.899,15 C20.965,15.323 21,15.658 21,16 C21,16.342 20.965,16.677 20.899,17 L32,17 L32,15 Z"></path>
            <path d="M11.101,15 L0,15 L0,17 L11.101,17 C11.035,16.677 11,16.342 11,16 C11,15.658 11.035,15.323 11.101,15 Z"></path>
            <path d="M17,11.102 L17,0 L15,0 L15,11.102 C15.323,11.036 15.658,11 16,11 C16.342,11 16.677,11.035 17,11.102 Z"></path>
            <path d="M15,20.898 L15,32 L17,32 L17,20.898 C16.677,20.964 16.342,21 16,21 C15.658,21 15.323,20.965 15,20.898 Z"></path>
        </g>
        <g transform="translate(10.000000, 11.000000)" fill-rule="nonzero">
            <path d="M10.9928141,5 C10.9928141,7.75773972 8.75363441,9.99816895 5.99464516,9.99816895 C3.2356559,9.99816895 0.996476212,7.75773972 0.996476212,5 C0.996476212,2.24226028 3.2356559,0.00183105469 5.99464516,0.00183105469 C8.75363441,0.00183105469 10.9928141,2.24226028 10.9928141,5 Z" fill="#14B44E"></path>
            <path d="M6,1 C8.208,1 10,2.793 10,5 C10,7.207 8.208,9 6,9 C3.792,9 2,7.207 2,5 C2,2.793 3.792,1 6,1 Z M6,0 C3.243,0 1,2.243 1,5 C1,7.757 3.243,10 6,10 C8.757,10 11,7.757 11,5 C11,2.243 8.757,0 6,0 Z" fill="#000000" opacity="0.1"></path>
        </g>
    </g>
</svg>