<?xml version="1.0" encoding="UTF-8" standalone="no"?>
<svg width="32px" height="32px" viewBox="0 0 32 32" version="1.1" xmlns="http://www.w3.org/2000/svg" xmlns:xlink="http://www.w3.org/1999/xlink">
    <!-- Generator: Sketch 49.3 (51167) - http://www.bohemiancoding.com/sketch -->
    <title>LabelXrefOff</title>
    <desc>Created with Sketch.</desc>
    <defs></defs>
    <g stroke="none" stroke-width="1" fill="none" fill-rule="evenodd">
        <polygon fill="#6DA745" fill-rule="nonzero" points="5 25 5 23 27 23 27 25"></polygon>
        <path d="M16.014,19 L13.86,19 L12.998,16.282 L9.059,16.282 L8.245,19 L6.134,19 L9.966,7 L12.07,7 L16.014,19 Z M12.358,14.252 L11,9.799 L9.667,14.252 L12.358,14.252 Z" fill="#666666" fill-rule="nonzero"></path>
        <path d="M17,7 L20.941,7 C22.017,7 22.774,7.099 23.211,7.294 C23.648,7.49 24.017,7.837 24.317,8.335 C24.618,8.83 24.768,9.393 24.768,10.021 C24.768,10.599 24.639,11.123 24.381,11.588 C24.123,12.053 23.789,12.4 23.378,12.622 C23.961,12.83 24.418,13.185 24.748,13.687 C25.078,14.189 25.242,14.8 25.242,15.521 C25.242,16.393 25.032,17.131 24.612,17.734 C24.192,18.338 23.695,18.71 23.122,18.853 C22.723,18.951 21.798,18.999 20.347,18.999 L17,18.999 L17,7 Z M18.98,8.996 L18.98,11.771 L20.29,11.771 C21.076,11.771 21.561,11.757 21.748,11.731 C22.085,11.675 22.351,11.533 22.541,11.3 C22.732,11.069 22.828,10.753 22.828,10.356 C22.828,10.001 22.75,9.713 22.595,9.492 C22.439,9.271 22.251,9.133 22.03,9.079 C21.809,9.024 21.175,8.996 20.128,8.996 L18.98,8.996 Z M18.98,13.769 L18.98,16.969 L20.825,16.969 C21.634,16.969 22.154,16.927 22.383,16.844 C22.613,16.758 22.805,16.592 22.962,16.346 C23.118,16.098 23.195,15.784 23.195,15.403 C23.195,15.01 23.112,14.688 22.945,14.435 C22.779,14.182 22.557,14.007 22.281,13.914 C22.006,13.818 21.441,13.769 20.587,13.769 L18.98,13.769 Z" fill="#666666" fill-rule="nonzero"></path>
    </g>
</svg>