<?xml version="1.0" encoding="UTF-8" standalone="no"?>
<svg width="32px" height="32px" viewBox="0 0 32 32" version="1.1" xmlns="http://www.w3.org/2000/svg" xmlns:xlink="http://www.w3.org/1999/xlink">
    <!-- Generator: Sketch 49.3 (51167) - http://www.bohemiancoding.com/sketch -->
    <title>LabelXrefOn</title>
    <desc>Created with Sketch.</desc>
    <defs></defs>
    <g stroke="none" stroke-width="1" fill="none" fill-rule="evenodd">
        <polygon fill="#F3F3F3" fill-rule="nonzero" points="8.188 6 2.278 16 8.188 26 32 26 32 6"></polygon>
        <polygon fill="#6DA745" fill-rule="nonzero" points="32 28 7 28 0 16 7 4 32 4 32 6 8.188 6 2.278 16 8.188 26 32 26"></polygon>
        <path d="M18.014,22 L15.86,22 L14.998,19.282 L11.059,19.282 L10.245,22 L8.134,22 L11.966,10 L14.07,10 L18.014,22 Z M14.358,17.252 L13,12.799 L11.667,17.252 L14.358,17.252 Z" fill="#666666" fill-rule="nonzero"></path>
        <path d="M19,10 L22.941,10 C24.017,10 24.774,10.099 25.211,10.294 C25.648,10.49 26.017,10.837 26.317,11.335 C26.618,11.83 26.768,12.393 26.768,13.021 C26.768,13.599 26.639,14.123 26.381,14.588 C26.123,15.053 25.789,15.4 25.378,15.622 C25.961,15.83 26.418,16.185 26.748,16.687 C27.078,17.189 27.242,17.8 27.242,18.521 C27.242,19.393 27.032,20.131 26.612,20.734 C26.192,21.338 25.695,21.71 25.122,21.853 C24.723,21.951 23.798,21.999 22.347,21.999 L19,21.999 L19,10 Z M20.98,11.996 L20.98,14.771 L22.29,14.771 C23.076,14.771 23.561,14.757 23.748,14.731 C24.085,14.675 24.351,14.533 24.541,14.3 C24.732,14.069 24.828,13.753 24.828,13.356 C24.828,13.001 24.75,12.713 24.595,12.492 C24.439,12.271 24.251,12.133 24.03,12.079 C23.809,12.024 23.175,11.996 22.128,11.996 L20.98,11.996 Z M20.98,16.769 L20.98,19.969 L22.825,19.969 C23.634,19.969 24.154,19.927 24.383,19.844 C24.613,19.758 24.805,19.592 24.962,19.346 C25.118,19.098 25.195,18.784 25.195,18.403 C25.195,18.01 25.112,17.688 24.945,17.435 C24.779,17.182 24.557,17.007 24.281,16.914 C24.006,16.818 23.441,16.769 22.587,16.769 L20.98,16.769 Z" fill="#666666" fill-rule="nonzero"></path>
    </g>
</svg>