<?xml version="1.0" encoding="UTF-8" standalone="no"?>
<svg width="32px" height="32px" viewBox="0 0 32 32" version="1.1" xmlns="http://www.w3.org/2000/svg" xmlns:xlink="http://www.w3.org/1999/xlink">
    <!-- Generator: Sketch 49.3 (51167) - http://www.bohemiancoding.com/sketch -->
    <title>Label</title>
    <desc>Created with Sketch.</desc>
    <defs></defs>
    <g stroke="none" stroke-width="1" fill="none" fill-rule="evenodd">
        <polygon fill="#F3F3F3" fill-rule="nonzero" points="7.557 22 31 22 31 2 7.557 2 1.176 12"></polygon>
        <rect fill="#14B44E" fill-rule="nonzero" x="0" y="29" width="32" height="3"></rect>
        <g transform="translate(8.000000, 6.000000)" fill="#333333" fill-rule="nonzero">
            <path d="M10.014,12 L7.86,12 L6.998,9.282 L3.059,9.282 L2.245,12 L0.134,12 L3.966,0 L6.07,0 L10.014,12 Z M6.358,7.252 L5,2.799 L3.667,7.252 L6.358,7.252 Z"></path>
            <path d="M11,0 L14.941,0 C16.017,0 16.774,0.099 17.211,0.294 C17.648,0.49 18.017,0.837 18.317,1.335 C18.618,1.83 18.768,2.393 18.768,3.021 C18.768,3.599 18.639,4.123 18.381,4.588 C18.123,5.053 17.789,5.4 17.378,5.622 C17.961,5.83 18.418,6.185 18.748,6.687 C19.078,7.189 19.242,7.8 19.242,8.521 C19.242,9.393 19.032,10.131 18.612,10.734 C18.192,11.338 17.695,11.71 17.122,11.853 C16.723,11.951 15.798,11.999 14.347,11.999 L11,11.999 L11,0 Z M12.98,1.996 L12.98,4.771 L14.29,4.771 C15.076,4.771 15.561,4.757 15.748,4.731 C16.085,4.675 16.351,4.533 16.541,4.3 C16.732,4.069 16.828,3.753 16.828,3.356 C16.828,3.001 16.75,2.713 16.595,2.492 C16.439,2.271 16.251,2.133 16.03,2.079 C15.809,2.024 15.175,1.996 14.128,1.996 L12.98,1.996 Z M12.98,6.769 L12.98,9.969 L14.825,9.969 C15.634,9.969 16.154,9.927 16.383,9.844 C16.613,9.758 16.805,9.592 16.962,9.346 C17.118,9.098 17.195,8.784 17.195,8.403 C17.195,8.01 17.112,7.688 16.945,7.435 C16.779,7.182 16.557,7.007 16.281,6.914 C16.006,6.818 15.441,6.769 14.587,6.769 L12.98,6.769 Z"></path>
        </g>
        <path d="M7,1 L0,12 L0,29 L1,29 L1,13.571 L7,23 L32,23 L32,1 L7,1 Z M31,22 L7.557,22 L1.176,12 L7.557,2 L31,2 L31,22 Z" fill="#333333" fill-rule="nonzero"></path>
    </g>
</svg>