<?xml version="1.0" encoding="UTF-8" standalone="no"?>
<svg width="32px" height="32px" viewBox="0 0 32 32" version="1.1" xmlns="http://www.w3.org/2000/svg" xmlns:xlink="http://www.w3.org/1999/xlink">
    <!-- Generator: Sketch 49.3 (51167) - http://www.bohemiancoding.com/sketch -->
    <title>Lbr</title>
    <desc>Created with Sketch.</desc>
    <defs></defs>
    <g stroke="none" stroke-width="1" fill="none" fill-rule="evenodd">
        <path d="M4,4 L4,28 L8,28 L8,0 C5.790861,-1.3527075e-16 4,1.790861 4,4 Z" fill="#666666" fill-rule="nonzero"></path>
        <rect fill="#999999" fill-rule="nonzero" x="8" y="0" width="20" height="25"></rect>
        <rect fill="#666666" fill-rule="nonzero" x="8" y="31" width="20" height="1"></rect>
        <circle fill="#666666" fill-rule="nonzero" cx="8" cy="28" r="4"></circle>
        <rect fill="#666666" fill-rule="nonzero" x="8" y="24" width="20" height="1"></rect>
        <path d="M23.25,30 L23.25,26 L28,26 L28,25 L8,25 C6.34314575,25 5,26.3431458 5,28 C5,29.6568542 6.34314575,31 8,31 L28,31 L28,30 L23.25,30 Z" fill="#666666" fill-rule="nonzero"></path>
        <path d="M27,28 C27,26.895 27.4475,26 28,26 L8,26 C6.8954305,26 6,26.8954305 6,28 C6,29.1045695 6.8954305,30 8,30 L28,30 C27.4475,30 27,29.105 27,28 Z" fill="#F3F3F3" fill-rule="nonzero"></path>
    </g>
</svg>