<?xml version="1.0" encoding="UTF-8" standalone="no"?>
<svg width="32px" height="32px" viewBox="0 0 32 32" version="1.1" xmlns="http://www.w3.org/2000/svg" xmlns:xlink="http://www.w3.org/1999/xlink">
    <!-- Generator: Sketch 49.3 (51167) - http://www.bohemiancoding.com/sketch -->
    <title>WindowDevice</title>
    <desc>Created with Sketch.</desc>
    <defs></defs>
    <g stroke="none" stroke-width="1" fill="none" fill-rule="evenodd">
        <g transform="translate(0.000000, 18.000000)" fill-rule="nonzero">
            <path d="M5,13 L5,1 C7.903,1.45 10.066,3.973 10.066,7 C10.066,10.027 7.903,12.55 5,13 Z" fill="#F3F3F3"></path>
            <path d="M15,6 L10.92,6 C10.434,2.609 7.524,0 4,0 L4,3 L0,3 L0,5 L4,5 L4,9 L0,9 L0,11 L4,11 L4,14 C7.525,14 10.434,11.391 10.92,8 L15,8 L15,6 Z M5,13 L5,1 C7.903,1.45 10.066,3.973 10.066,7 C10.066,10.027 7.903,12.55 5,13 Z" fill="#666666"></path>
        </g>
        <path d="M31,2 L32,2 L32,14 L31,14 L8,14 L8,13 L8,2 L9,2 L31,2 Z M31,3 L9,3 L9,13 L31,13 L31,3 Z" fill="#666666"></path>
        <rect fill="#F3F3F3" x="9" y="3" width="22" height="10"></rect>
        <rect fill="#666666" x="11" y="-2" width="4" height="7"></rect>
        <rect fill="#666666" x="18" y="-2" width="4" height="7"></rect>
        <rect fill="#666666" x="25" y="-2" width="4" height="7"></rect>
        <rect fill="#666666" x="11" y="11" width="4" height="5"></rect>
        <rect fill="#666666" x="18" y="11" width="4" height="5"></rect>
        <rect fill="#666666" x="25" y="11" width="4" height="5"></rect>
    </g>
</svg>