<?xml version="1.0" encoding="UTF-8" standalone="no"?>
<svg width="32px" height="32px" viewBox="0 0 32 32" version="1.1" xmlns="http://www.w3.org/2000/svg" xmlns:xlink="http://www.w3.org/1999/xlink">
    <!-- Generator: Sketch 50.2 (55047) - http://www.bohemiancoding.com/sketch -->
    <title>LbrOpen</title>
    <desc>Created with Sketch.</desc>
    <defs></defs>
    <g stroke="none" stroke-width="1" fill="none" fill-rule="evenodd">
        <path d="M15.5,5.5 C15.5,5.5 12.5,-0.845 0.5,5.476 L0.5,7.582 L0.5,24.5 L0.5,26.438 C11.5,22.223 15.5,28.5 15.5,28.5 C15.5,28.5 19.5,22.223 30.5,26.438 L30.5,24.5 L30.5,7.582 L30.5,5.476 C18.5,-0.845 15.5,5.5 15.5,5.5 Z" fill="#F3F3F3" fill-rule="nonzero"></path>
        <path d="M16,26.117 L16,26.498 C17.992,24.789 22.342,22.534 30,25.194 L30,24.832 C27.147,23.6 24.587,22.969 22.391,22.969 C17.851,22.969 16.265,25.605 16,26.117 Z"></path>
        <path d="M8.609,22.969 C6.413,22.969 3.853,23.6 1,24.832 L1,25.194 C8.658,22.537 13.008,24.791 15,26.498 L15,26.117 C14.734,25.603 13.146,22.969 8.609,22.969 Z"></path>
        <rect fill="#666666" fill-rule="nonzero" x="15" y="26.118" width="1" height="1"></rect>
        <rect fill="#666666" fill-rule="nonzero" x="15.001" y="26.119" width="1" height="1"></rect>
        <rect fill="#666666" fill-rule="nonzero" x="15" y="6.075" width="1" height="1.311"></rect>
        <path d="M15,26.117 L15.001,26.119" fill="#666666" fill-rule="nonzero"></path>
        <path d="M30.733,5.033 C27.129,3.135 23.954,2.173 21.295,2.173 C17.935,2.173 16.229,3.682 15.5,4.6 C14.771,3.682 13.065,2.173 9.705,2.173 C7.046,2.173 3.871,3.135 0.267,5.033 L0,5.174 L0,7.28 L0,25.268 L0,27.164 L0,27.656 L0.858,27.371 C10.889,23.526 14.51,28.815 14.661,29.012 L16.34,29.012 C16.49,28.816 20.111,23.528 30.143,27.371 L31.001,27.672 L31.001,27.164 L31.001,25.268 L31.001,7.28 L31.001,5.174 L30.733,5.033 Z M1,7.885 L1,6.772 L1,5.779 C4.347,4.05 7.274,3.174 9.705,3.174 C13.376,3.174 14.737,5.17 15,5.626 L15,6.076 L15,7.387 L15,7.628 L15,24.433 C13.976,23.332 12.02,21.97 8.609,21.97 C6.38,21.97 3.823,22.566 1,23.741 L1,7.885 Z M15.001,26.119 L15.001,26.499 C15.001,26.499 15,26.499 15,26.498 C13.008,24.791 8.658,22.537 1,25.194 L1,24.832 C3.853,23.6 6.413,22.969 8.609,22.969 C13.147,22.969 14.734,25.603 15,26.117 L15.001,26.119 Z M30,25.194 C22.342,22.534 17.992,24.789 16,26.498 L16,26.117 C16.265,25.605 17.851,22.969 22.391,22.969 C24.587,22.969 27.147,23.6 30,24.832 L30,25.194 Z M30,6.771 L30,7.884 L30,23.739 C27.177,22.563 24.62,21.968 22.391,21.968 C18.98,21.968 17.024,23.33 16,24.431 L16,7.627 L16,7.499 L16,6.074 L16,5.624 C16.266,5.163 17.628,3.172 21.295,3.172 C23.726,3.172 26.653,4.049 30,5.777 L30,6.771 Z" fill="#333333" fill-rule="nonzero"></path>
        <rect fill="#333333" fill-rule="nonzero" x="15" y="6" width="1" height="21"></rect>
    </g>
</svg>