<?xml version="1.0" encoding="UTF-8" standalone="no"?>
<svg width="32px" height="32px" viewBox="0 0 32 32" version="1.1" xmlns="http://www.w3.org/2000/svg" xmlns:xlink="http://www.w3.org/1999/xlink">
    <!-- Generator: Sketch 49.3 (51167) - http://www.bohemiancoding.com/sketch -->
    <title>Lock</title>
    <desc>Created with Sketch.</desc>
    <defs>
        <path d="M23,13 L23,8 C23,6 22.2,4.3 20.9,3 C19.6,1.8 17.9,1 16,1 C14.1,1 12.4,1.8 11.1,3 C9.8,4.3 9,6 9,8 L9,13 L5,13 L5,31 L27,31 L27,13 L23,13 Z M19,13 L13,13 L13,8 C13,6.3 14.3,5 16,5 C17.7,5 19,6.3 19,8 L19,13 Z" id="path-1"></path>
    </defs>
    <g stroke="none" stroke-width="1" fill="none" fill-rule="evenodd">
        <path d="M23,13 L27,13 L27,31 L5,31 L5,13 L9,13 L9,8 C9,6 9.8,4.3 11.1,3 C12.4,1.8 14.1,1 16,1 C17.9,1 19.6,1.8 20.9,3 C22.2,4.3 23,6 23,8 L23,13 Z M19,13 L19,8 C19,6.3 17.7,5 16,5 C14.3,5 13,6.3 13,8 L13,13 L19,13 Z" fill="#D8D8D8"></path>
        <g fill-rule="nonzero">
            <use fill="#F3F3F3" fill-rule="evenodd" xlink:href="#path-1"></use>
            <path stroke="#333333" stroke-width="1" d="M5.5,13.5 L5.5,30.5 L26.5,30.5 L26.5,13.5 L22.5,13.5 L22.5,8 C22.5,6.20969121 21.8111856,4.61829235 20.5608599,3.36740172 C19.270803,2.17657989 17.6760075,1.5 16,1.5 C14.3239925,1.5 12.729197,2.17657989 11.4535534,3.35355339 C10.1888144,4.61829235 9.5,6.20969121 9.5,8 L9.5,13.5 L5.5,13.5 Z M19.5,13.5 L12.5,13.5 L12.5,8 C12.5,6.02385763 14.0238576,4.5 16,4.5 C17.9761424,4.5 19.5,6.02385763 19.5,8 L19.5,13.5 Z"></path>
        </g>
        <rect fill="#333333" fill-rule="nonzero" x="15" y="19" width="2" height="6"></rect>
    </g>
</svg>