<?xml version="1.0" encoding="UTF-8" standalone="no"?>
<svg width="32px" height="32px" viewBox="0 0 32 32" version="1.1" xmlns="http://www.w3.org/2000/svg" xmlns:xlink="http://www.w3.org/1999/xlink">
    <!-- Generator: Sketch 49.3 (51167) - http://www.bohemiancoding.com/sketch -->
    <title>LoopRemoveOn</title>
    <desc>Created with Sketch.</desc>
    <defs></defs>
    <g stroke="none" stroke-width="1" fill="none" fill-rule="evenodd">
        <polygon fill="#FF3333" fill-rule="nonzero" points="32 2.2 29.799 0 26.5 3.3 23.201 0 21 2.2 24.3 5.5 21 8.8 23.201 11 26.5 7.7 29.799 11 32 8.8 28.7 5.5"></polygon>
        <rect fill="#008DE9" fill-rule="nonzero" x="11" y="3" width="3" height="3"></rect>
        <rect fill="#008DE9" fill-rule="nonzero" x="16" y="3" width="3" height="3"></rect>
        <rect fill="#008DE9" fill-rule="nonzero" x="26" y="18" width="3" height="3"></rect>
        <rect fill="#008DE9" fill-rule="nonzero" x="26" y="13" width="3" height="3"></rect>
        <path d="M29.799,1.414 L30.586,2.2 L27.993,4.793 L27.286,5.5 L27.993,6.207 L30.586,8.8 L29.799,9.586 L27.207,6.993 L26.5,6.286 L25.793,6.993 L23.201,9.586 L22.414,8.8 L25.007,6.207 L25.714,5.5 L25.007,4.793 L22.414,2.2 L23.201,1.414 L25.793,4.007 L26.5,4.714 L27.207,4.007 L29.799,1.414 Z M29.799,0 L26.5,3.3 L23.201,0 L21,2.2 L24.3,5.5 L21,8.8 L23.201,11 L26.5,7.7 L29.799,11 L32,8.8 L28.7,5.5 L32,2.2 L29.799,0 Z" fill="#000000" fill-rule="nonzero" opacity="0.1"></path>
        <path d="M23.276,26 L14.527,26 L6,17.379 L6,8.724 C5.528,8.892 5.028,9 4.5,9 C3.972,9 3.472,8.892 3,8.724 L3,18.621 L13.285,29 L23.276,29 C23.108,28.528 23,28.028 23,27.5 C23,26.972 23.108,26.472 23.276,26 Z" fill="#008DE9" fill-rule="nonzero"></path>
        <g transform="translate(-1.000000, 0.000000)" fill-rule="nonzero">
            <path d="M9.99647621,4.5 C9.99647621,6.984 7.98176193,9 5.49647621,9 C3.0111905,9 0.996476212,6.984 0.996476212,4.5 C0.996476212,2.016 3.0111905,0 5.49647621,0 C7.98176193,0 9.99647621,2.016 9.99647621,4.5 Z" fill="#14B44E"></path>
            <path d="M5.5,1 C7.433,1 9,2.568 9,4.5 C9,6.432 7.433,8 5.5,8 C3.567,8 2,6.432 2,4.5 C2,2.568 3.567,1 5.5,1 Z M5.5,0 C3.019,0 1,2.019 1,4.5 C1,6.981 3.019,9 5.5,9 C7.981,9 10,6.981 10,4.5 C10,2.019 7.981,0 5.5,0 Z" fill="#000000" opacity="0.1"></path>
        </g>
        <g transform="translate(22.000000, 23.000000)" fill-rule="nonzero">
            <path d="M9.99647621,4.5 C9.99647621,6.984 7.98176193,9 5.49647621,9 C3.0111905,9 0.996476212,6.984 0.996476212,4.5 C0.996476212,2.016 3.0111905,0 5.49647621,0 C7.98176193,0 9.99647621,2.016 9.99647621,4.5 Z" fill="#14B44E"></path>
            <path d="M5.5,1 C7.433,1 9,2.568 9,4.5 C9,6.432 7.433,8 5.5,8 C3.567,8 2,6.432 2,4.5 C2,2.568 3.567,1 5.5,1 Z M5.5,0 C3.019,0 1,2.019 1,4.5 C1,6.981 3.019,9 5.5,9 C7.981,9 10,6.981 10,4.5 C10,2.019 7.981,0 5.5,0 Z" fill="#000000" opacity="0.1"></path>
        </g>
    </g>
</svg>