<?xml version="1.0" encoding="UTF-8" standalone="no"?>
<svg width="32px" height="32px" viewBox="0 0 32 32" version="1.1" xmlns="http://www.w3.org/2000/svg" xmlns:xlink="http://www.w3.org/1999/xlink">
    <!-- Generator: Sketch 49.3 (51167) - http://www.bohemiancoding.com/sketch -->
    <title>Managed</title>
    <desc>Created with Sketch.</desc>
    <defs></defs>
    <g stroke="none" stroke-width="1" fill="none" fill-rule="evenodd">
        <polygon fill="#333333" points="9.7052179 7.69934344 8.75401396 9.25869417 23.9576836 9.25869417 23.0563789 7.69934344"></polygon>
        <polygon fill="#333333" points="8.14586717 10.8180449 7.19466323 12.3773956 25.7369028 12.3773956 24.8106484 10.8180449"></polygon>
        <polygon fill="#333333" points="4.83380622 13.9367464 9.60230076 6.13999271 23.159296 6.13999271 28.0119955 13.9367464 30.414955 13.9367464 24.177552 4.58064198 8.58404473 4.58064198 2.34664181 13.9367464"></polygon>
        <path d="M2.38672011,27.9709029 C2.38672011,28.8316645 3.04523093,29.218033 3.90599254,29.218033 L28.8556042,29.218033 C29.7163658,29.218033 30.3867201,28.8316645 30.3867201,27.9709029 L30.3867201,13.9367464 L2.38672011,13.9367464 L2.38672011,27.9709029 Z M9.38672011,21.218033 L9.38672011,19.218033 L23.3867201,19.218033 L23.3867201,21.218033 L9.38672011,21.218033 Z" fill="#333333"></path>
    </g>
</svg>