<?xml version="1.0" encoding="UTF-8" standalone="no"?>
<svg width="33px" height="32px" viewBox="0 0 33 32" version="1.1" xmlns="http://www.w3.org/2000/svg" xmlns:xlink="http://www.w3.org/1999/xlink">
    <!-- Generator: Sketch 49.3 (51167) - http://www.bohemiancoding.com/sketch -->
    <title>ManagedDraft</title>
    <desc>Created with Sketch.</desc>
    <defs></defs>
    <g stroke="none" stroke-width="1" fill="none" fill-rule="evenodd">
        <g transform="translate(-274.000000, -175.000000)">
            <g transform="translate(274.775391, 175.000000)">
                <g transform="translate(1.000000, 2.000000)">
                    <g transform="translate(5.000000, 4.000000)" fill="#008DE9">
                        <polygon points="3.1204889 0 2.16928496 2 17.3729546 2 16.4716499 0"></polygon>
                        <polygon points="1.45120395 4 0.5 6 19.0422395 6 18.1159852 4"></polygon>
                    </g>
                    <polygon fill="#008DE9" points="2.65833333 12 7.755 2 22.245 2 27.4316667 12 30 12 23.3333333 0 6.66666667 0 0 12"></polygon>
                    <polygon fill="#008DE9" points="0 28 30 28 30 12 0 12"></polygon>
                    <path d="M19,21.5592068 C19,22.1877274 18.9139794,22.7950868 18.7419355,23.3813031 C18.5698916,23.9675195 18.2917582,24.4842282 17.9075269,24.9314448 C17.5232956,25.3786614 17.0129064,25.7352206 16.3763441,26.0011331 C15.7397818,26.2670457 14.9569939,26.4 14.027957,26.4 L12.083871,26.4 C11.7856616,26.4 11.530467,26.2942409 11.3182796,26.0827195 C11.1060921,25.8711982 11,25.6143547 11,25.3121813 L11,14.6878187 C11,14.3977323 11.1060921,14.1439105 11.3182796,13.9263456 C11.530467,13.7087808 11.7856616,13.6 12.083871,13.6 L14.027957,13.6 C14.9569939,13.6 15.7369144,13.7299326 16.3677419,13.9898017 C16.9985695,14.2496708 17.5089586,14.5941433 17.8989247,15.0232295 C18.2888908,15.4523157 18.5698916,15.9508943 18.7419355,16.5189802 C18.9139794,17.0870661 19,17.6793171 19,18.2957507 L19,21.5592068 Z M17.1075269,18.2957507 C17.1075269,17.8968819 17.0587818,17.5252142 16.9612903,17.1807365 C16.8637988,16.8362589 16.7032269,16.5371118 16.4795699,16.2832861 C16.2559129,16.0294605 15.9691774,15.8300291 15.6193548,15.6849858 C15.2695323,15.5399426 14.8365617,15.4674221 14.3204301,15.4674221 L12.8924731,15.4674221 L12.8924731,24.5507082 L14.3204301,24.5507082 C14.8365617,24.5507082 15.2723996,24.4721444 15.627957,24.3150142 C15.9835143,24.157884 16.2702498,23.9433442 16.488172,23.6713881 C16.7060943,23.3994321 16.8637988,23.0821548 16.9612903,22.7195467 C17.0587818,22.3569387 17.1075269,21.9701626 17.1075269,21.5592068 L17.1075269,18.2957507 Z" fill="#FFFFFF" fill-rule="nonzero"></path>
                </g>
            </g>
        </g>
    </g>
</svg>