<?xml version="1.0" encoding="UTF-8" standalone="no"?>
<svg width="32px" height="32px" viewBox="0 0 32 32" version="1.1" xmlns="http://www.w3.org/2000/svg" xmlns:xlink="http://www.w3.org/1999/xlink">
    <!-- Generator: Sketch 49.3 (51167) - http://www.bohemiancoding.com/sketch -->
    <title>Meander</title>
    <desc>Created with Sketch.</desc>
    <defs></defs>
    <g stroke="none" stroke-width="1" fill="none" fill-rule="evenodd">
        <path d="M10.6613448,6.82451997 C10.2898721,5.62185958 9.65127916,4.99972215 8.56649271,4.99972215 C7.5018898,4.99972215 6.91693233,5.60240288 6.60972868,6.79533257 C6.43317038,7.48094173 6.4395271,8.2249163 6.4260782,8.86936926 C6.42516488,8.91313444 6.42964784,11.7766777 6.4395271,17.4599991 L1,17.4599991 L1,15.4599991 L4.44016167,15.4599991 C4.43282415,11.2037319 4.42915539,9.04381754 4.42915539,8.98025608 C4.42915539,8.11841645 4.43669784,7.2139264 4.67290254,6.29669904 C5.18530715,4.30693532 6.45380893,3 8.56649271,3 C10.658287,3 11.9670893,4.27507655 12.5722892,6.23443946 C12.7475011,6.8016964 12.8545698,7.39740554 12.9086536,7.99843971 C12.9448257,8.40042126 12.9532853,8.75304873 12.9458878,9.03137402 C12.9446972,9.06936756 12.8769372,13.6904764 12.7426079,22.8947004 C12.7437024,22.9927761 12.7583316,23.1958312 12.7997358,23.4660452 C12.869235,23.9196155 12.9897921,24.3713416 13.1695676,24.7823873 C13.6436543,25.866357 14.4096712,26.4602769 15.6755796,26.4602769 C16.9571594,26.4602769 17.7463099,25.878671 18.2450229,24.8292892 C18.4326053,24.4345822 18.562142,24.001239 18.6410266,23.5663189 C18.6879016,23.3078793 18.7067546,23.1143469 18.709333,23.0566979 L18.7123946,9.28812015 C18.7096762,9.25346506 18.7273496,7.33269787 18.9672171,6.39180985 C19.477645,4.38963992 20.6960196,3.06775764 22.734648,3.06775764 C24.7140782,3.06775764 25.9432233,4.3513235 26.5287282,6.3082529 C26.7029517,6.89055908 26.8109758,7.50271731 26.8678045,8.11841645 C26.9046448,8.51755414 26.9152041,8.85827154 26.9112321,9.11195038 C26.9108781,9.13107135 26.9107426,11.2470876 26.9108254,15.4599991 L31,15.4599991 L31,17.4599991 L24.9108254,17.4599991 L24.9112752,9.09203063 C24.9208801,8.48011252 24.8450033,7.6580413 24.6126302,6.88138198 C24.2529762,5.67931297 23.6670836,5.06747979 22.734648,5.06747979 C21.7731724,5.06747979 21.2141744,5.67396791 20.9052462,6.88574863 C20.7218726,7.6050374 20.7053311,9.11977211 20.709333,9.20993977 L20.7087405,23.0911113 C20.6854884,23.7661955 20.5132405,24.7158627 20.0514529,25.6875468 C19.2422214,27.390315 17.7908236,28.4599991 15.6755796,28.4599991 C13.5446643,28.4599991 12.1079494,27.3460634 11.3371189,25.5836072 C10.8999086,24.5839527 10.7504498,23.6085459 10.7427761,22.8912964 L10.945596,9.00958183 C10.9628833,8.36536494 10.8911923,7.56866203 10.6613448,6.82451997 Z" fill="#333333" fill-rule="nonzero" transform="translate(16.000000, 15.730000) scale(1, -1) translate(-16.000000, -15.730000) "></path>
    </g>
</svg>