<?xml version="1.0" encoding="UTF-8" standalone="no"?>
<svg width="32px" height="32px" viewBox="0 0 32 32" version="1.1" xmlns="http://www.w3.org/2000/svg" xmlns:xlink="http://www.w3.org/1999/xlink">
    <!-- Generator: Sketch 50.2 (55047) - http://www.bohemiancoding.com/sketch -->
    <title>Miter</title>
    <desc>Created with Sketch.</desc>
    <defs></defs>
    <g stroke="none" stroke-width="1" fill="none" fill-rule="evenodd">
        <path d="M32,10.98 L32,0 L0,0 L0,32 L11.001,32 C11.001,31.993 11,31.987 11,31.98 C11,20.383 20.402,10.98 32,10.98 Z" fill="#F3F3F3" fill-rule="nonzero"></path>
        <path d="M32,10.515 L32.5,10.515 L32.5,12.48 L32,12.48 C21.2309352,12.48 12.484,21.2293493 12.484,32 L12.484,32.5 L10.501,32.5 L10.501,32.0144093 C10.5,20.1122753 20.1194239,10.515 32,10.515 Z" fill="#333333" fill-rule="nonzero"></path>
        <polygon fill="#808080" fill-rule="nonzero" points="30 2 2 2 2 30 9 30 9 32 0 32 0 0 32 0 32 9 30 9"></polygon>
    </g>
</svg>