<?xml version="1.0" encoding="UTF-8" standalone="no"?>
<svg width="32px" height="32px" viewBox="0 0 32 32" version="1.1" xmlns="http://www.w3.org/2000/svg" xmlns:xlink="http://www.w3.org/1999/xlink">
    <!-- Generator: Sketch 49.3 (51167) - http://www.bohemiancoding.com/sketch -->
    <title>Modified</title>
    <desc>Created with Sketch.</desc>
    <defs></defs>
    <g stroke="none" stroke-width="1" fill="none" fill-rule="evenodd">
        <circle fill="#666666" fill-rule="nonzero" cx="16" cy="16" r="16"></circle>
        <path d="M16,0 C7.16345,0 0,7.16345 0,16 C0,24.83655 7.16345,32 16,32 C24.83655,32 32,24.83655 32,16 C32,7.16345 24.83655,0 16,0 Z M16,31 C7.72888,31 1,24.27008 1,16 C1,7.72992 7.72888,1 16,1 C24.27008,1 31,7.72992 31,16 C31,24.27008 24.27008,31 16,31 Z" fill="#676767" fill-rule="nonzero"></path>
        <path d="M14.035,5.305 L17.995,5.305 L17.515,19.135 L14.515,19.135 L14.035,5.305 Z M16.015,26.695 C14.695,26.695 13.645,25.645 13.645,24.325 C13.645,23.035 14.695,21.955 16.015,21.955 C17.335,21.955 18.355,23.035 18.355,24.325 C18.355,25.645 17.335,26.695 16.015,26.695 Z" fill="#FFFFFF"></path>
    </g>
</svg>