<?xml version="1.0" encoding="UTF-8" standalone="no"?>
<svg width="32px" height="32px" viewBox="0 0 32 32" version="1.1" xmlns="http://www.w3.org/2000/svg" xmlns:xlink="http://www.w3.org/1999/xlink">
    <!-- Generator: Sketch 49.3 (51167) - http://www.bohemiancoding.com/sketch -->
    <title>Module</title>
    <desc>Created with Sketch.</desc>
    <defs></defs>
    <g stroke="none" stroke-width="1" fill="none" fill-rule="evenodd">
        <g transform="translate(24.000000, 19.000000)" fill-rule="nonzero">
            <rect fill="#F3F3F3" x="0" y="0" width="6" height="5"></rect>
            <polygon fill="#666666" points="0 0 0 1 5 1 5 4 0 4 0 5 6 5 6 0"></polygon>
        </g>
        <g transform="translate(8.000000, 3.000000)" fill-rule="nonzero">
            <rect fill="#666666" x="0" y="0" width="16" height="26"></rect>
            <path d="M15,1 L15,25 L1,25 L1,1 L15,1 Z M16,0 L0,0 L0,26 L16,26 L16,0 Z" fill="#F3F3F3"></path>
        </g>
        <g transform="translate(2.000000, 19.000000)" fill-rule="nonzero">
            <rect fill="#F3F3F3" x="0" y="0" width="6" height="5"></rect>
            <polygon fill="#666666" points="6 0 6 1 1 1 1 4 6 4 6 5 0 5 0 0"></polygon>
        </g>
        <g transform="translate(2.000000, 8.000000)" fill-rule="nonzero">
            <rect fill="#F3F3F3" x="0" y="0" width="6" height="5"></rect>
            <polygon fill="#666666" points="6 0 6 1 1 1 1 4 6 4 6 5 0 5 0 0"></polygon>
        </g>
    </g>
</svg>