<?xml version="1.0" encoding="UTF-8" standalone="no"?>
<svg width="40px" height="40px" viewBox="0 0 40 40" version="1.1" xmlns="http://www.w3.org/2000/svg" xmlns:xlink="http://www.w3.org/1999/xlink">
    <!-- Generator: Sketch 47.1 (45422) - http://www.bohemiancoding.com/sketch -->
    <title>multiple-wire</title>
    <desc>Created with Sketch.</desc>
    <defs></defs>
    <g stroke="none" stroke-width="1" fill="none" fill-rule="evenodd">
        <g>
            <g stroke-linecap="round" stroke-width="4.5" stroke="#DD203C" stroke-linejoin="round">
                <polyline points="36.3499985 9.65136719 26.5214844 9.65136719 10.0004883 24.5743376 10 36.5"></polyline>
                <polyline points="36.3499985 18.0073242 28.581543 18.0116215 18.1225586 27.1826172 18.1225586 36.5"></polyline>
                <polyline points="36.3499985 26.5043945 31.2130852 26.5043945 26.0761719 31.0253906 26.0761719 36.5"></polyline>
            </g>
            <path d="M6.36546165,3.05980974 C6.51244858,2.56180925 6.71574393,2.12011719 7.30442293,2.12011719 C7.91138388,2.12011719 8.13296119,2.58009121 8.26093488,3.05980974 L11.8120221,15.5156722 C11.9407271,15.9580956 11.4441891,16.4363516 10.928638,16.4363516 C10.3582409,16.4363516 10.0649983,15.9580956 9.9348308,15.5156722 L9.25401075,13.3079432 L5.33509059,13.3079432 L4.63598858,15.5156722 C4.50728361,15.9580956 4.21257847,16.4363516 3.64291271,16.4363516 C3.12809282,16.4363516 2.63082361,15.9580956 2.75952858,15.5156722 L6.36546165,3.05980974 Z M7.32270488,6.48146069 L7.28614097,6.48146069 L5.85064176,11.4665845 L8.73919086,11.4665845 L7.32270488,6.48146069 Z" stroke="#3C3C3C" stroke-width="0.5" fill="#3C3C3C"></path>
        </g>
    </g>
</svg>