<?xml version="1.0" encoding="UTF-8" standalone="no"?>
<svg width="32px" height="32px" viewBox="0 0 32 32" version="1.1" xmlns="http://www.w3.org/2000/svg" xmlns:xlink="http://www.w3.org/1999/xlink">
    <!-- Generator: Sketch 49.3 (51167) - http://www.bohemiancoding.com/sketch -->
    <title>Name</title>
    <desc>Created with Sketch.</desc>
    <defs></defs>
    <g stroke="none" stroke-width="1" fill="none" fill-rule="evenodd">
        <rect fill="#333333" fill-rule="nonzero" x="4" y="15.005" width="23" height="1"></rect>
        <path d="M4,13 L4,2 L8.655,2 C9.825,2 10.676,2.144 11.207,2.34 C11.737,2.537 12.162,2.887 12.48,3.391 C12.799,3.894 12.959,4.469 12.959,5.118 C12.959,5.939 12.717,6.618 12.234,7.153 C11.751,7.689 11.028,8.027 10.067,8.167 C10.546,8.445 10.94,8.751 11.252,9.085 C11.563,9.42 11.983,10.013 12.511,10.863 L13.848,13.001 L11.203,13.001 L9.603,10.617 C9.036,9.765 8.646,9.228 8.437,9.007 C8.228,8.785 8.006,8.633 7.772,8.551 C7.538,8.47 7.167,8.428 6.659,8.428 L6,8.428 L6,13 L4,13 Z M6,6.678 L7.848,6.678 C8.91,6.678 9.572,6.634 9.836,6.543 C10.1,6.454 10.307,6.3 10.456,6.08 C10.605,5.861 10.68,5.587 10.68,5.258 C10.68,4.89 10.581,4.592 10.385,4.365 C10.189,4.138 9.911,3.996 9.552,3.935 C9.373,3.911 8.835,3.898 7.938,3.898 L6,3.898 L6,6.678 Z" fill="#333333" fill-rule="nonzero"></path>
        <path d="M23,11 L23,13 L15.64,13 C15.72,12.263 15.958,11.563 16.357,10.904 C16.755,10.244 17.543,9.368 18.718,8.277 C19.664,7.395 20.245,6.797 20.459,6.484 C20.748,6.05 20.892,5.622 20.892,5.198 C20.892,4.73 20.766,4.37 20.515,4.119 C20.263,3.867 19.915,3.742 19.473,3.742 C19.035,3.742 18.685,3.873 18.427,4.137 C18.168,4.403 18.019,4.84 17.979,5.452 L15.887,5.244 C16.012,4.088 16.403,3.259 17.06,2.756 C17.717,2.252 18.539,2 19.526,2 C20.607,2 21.456,2.292 22.074,2.875 C22.692,3.457 23.001,4.182 23.001,5.049 C23.001,5.543 22.912,6.012 22.736,6.458 C22.559,6.904 22.279,7.37 21.895,7.859 C21.641,8.183 21.183,8.648 20.52,9.256 C19.857,9.862 19.437,10.267 19.261,10.466 C19.084,10.665 18.94,10.81 18.831,10.999 L23,10.999 L23,11 Z" fill="#333333" fill-rule="nonzero"></path>
        <path d="M9,29 L7,29 L7,21 C6.233,21.718 5.229,22.334 4.188,22.678 L4.188,20.773 C4.736,20.594 5.331,20.254 5.974,19.752 C6.617,19.252 7.057,18.668 7.296,18 L9,18 L9,29 Z" fill="#BBBBBB" fill-rule="nonzero"></path>
        <path d="M14.5,18 C15.544,18 16.36,18.373 16.949,19.117 C17.65,19.999 18,21.461 18,23.504 C18,25.542 17.647,27.006 16.941,27.898 C16.358,28.633 15.544,29.001 14.5,29.001 C13.45,29.001 12.605,28.598 11.963,27.792 C11.321,26.985 11,25.551 11,23.483 C11,21.454 11.353,19.994 12.059,19.102 C12.643,18.367 13.456,18 14.5,18 Z M14.5,19.713 C14.25,19.713 14.026,19.792 13.831,19.951 C13.635,20.11 13.483,20.396 13.374,20.807 C13.232,21.34 13.161,22.24 13.161,23.503 C13.161,24.766 13.225,25.634 13.352,26.108 C13.48,26.579 13.64,26.894 13.834,27.051 C14.027,27.207 14.25,27.285 14.5,27.285 C14.75,27.285 14.973,27.206 15.169,27.047 C15.365,26.888 15.518,26.602 15.625,26.191 C15.767,25.663 15.838,24.766 15.838,23.503 C15.838,22.24 15.775,21.372 15.647,20.898 C15.52,20.427 15.359,20.11 15.166,19.951 C14.972,19.792 14.75,19.713 14.5,19.713 Z" fill="#BBBBBB" fill-rule="nonzero"></path>
        <polygon fill="#BBBBBB" fill-rule="nonzero" points="20 29 20 18 22 18 22 24 24.558 21 27.144 21 24.431 23.963 27.338 29 25.073 29 23.078 25.435 21.999 26.459 21.999 29"></polygon>
    </g>
</svg>