<?xml version="1.0" encoding="UTF-8" standalone="no"?>
<svg width="32px" height="32px" viewBox="0 0 32 32" version="1.1" xmlns="http://www.w3.org/2000/svg" xmlns:xlink="http://www.w3.org/1999/xlink">
    <!-- Generator: Sketch 50 (54983) - http://www.bohemiancoding.com/sketch -->
    <title>NetPinBreakout</title>
    <desc>Created with Sketch.</desc>
    <defs></defs>
    <g stroke="none" stroke-width="1" fill="none" fill-rule="evenodd">
        <path d="M7.5,21.5 C4.1862915,21.5 1.5,18.8137085 1.5,15.5 C1.5,12.1862915 4.1862915,9.5 7.5,9.5 C10.8137085,9.5 13.5,12.1862915 13.5,15.5 C13.5,18.8137085 10.8137085,21.5 7.5,21.5 Z M7.5,18.5 C9.15685425,18.5 10.5,17.1568542 10.5,15.5 C10.5,13.8431458 9.15685425,12.5 7.5,12.5 C5.84314575,12.5 4.5,13.8431458 4.5,15.5 C4.5,17.1568542 5.84314575,18.5 7.5,18.5 Z" fill="#666666" fill-rule="nonzero"></path>
        <polygon fill="#666666" fill-rule="nonzero" points="11 17 11 14 30 14 30 17"></polygon>
    </g>
</svg>