<?xml version="1.0" encoding="UTF-8" standalone="no"?>
<svg width="32px" height="32px" viewBox="0 0 32 32" version="1.1" xmlns="http://www.w3.org/2000/svg" xmlns:xlink="http://www.w3.org/1999/xlink">
    <!-- Generator: Sketch 49.3 (51167) - http://www.bohemiancoding.com/sketch -->
    <title>Offline</title>
    <desc>Created with Sketch.</desc>
    <defs></defs>
    <g stroke="none" stroke-width="1" fill="none" fill-rule="evenodd">
        <path d="M15.5311091,23.3054082 L14.7818242,22.556875 C14.6748755,22.4516627 14.6237615,22.3022829 14.6438625,22.1536844 C14.6639635,22.005086 14.7529329,21.8746174 14.8839994,21.801537 C15.4973517,21.4761093 16.2324113,21.4761093 16.8457637,21.801537 C16.9768302,21.8746174 17.0657995,22.005086 17.0859005,22.1536844 C17.1060016,22.3022829 17.0548876,22.4516627 16.9479389,22.556875 L16.1986539,23.3054082 C16.0132464,23.4869615 15.7165166,23.4869615 15.5311091,23.3054082 Z" fill="#D7D7D7" fill-rule="nonzero"></path>
        <path d="M18.7257878,20.7603954 C18.3775397,21.0974246 17.8450865,21.1562157 17.4315683,20.9032972 C16.4634597,20.3481432 15.2731151,20.3481432 14.3050065,20.9032972 C13.8914882,21.1562157 13.359035,21.0974246 13.010787,20.7603954 C12.7834301,20.5373443 12.6715504,20.222131 12.7074703,19.9058216 C12.7433902,19.5895121 12.9231078,19.307346 13.1947024,19.1408418 C14.8441594,18.1593971 16.899227,18.1593971 18.548684,19.1408418 C18.8202785,19.307346 18.9999963,19.5895121 19.0359162,19.9058216 C19.071836,20.222131 18.9599563,20.5373443 18.7325994,20.7603954 L18.7257878,20.7603954 Z" fill="#D7D7D7" fill-rule="nonzero"></path>
        <path d="M20.9804543,18.5011862 C20.6196104,18.8771948 20.0342113,18.9239798 19.618118,18.6100638 C17.3850255,16.9326612 14.3106791,16.9326612 12.0775866,18.6100638 C11.6614934,18.9239798 11.0760942,18.8771948 10.7152503,18.5011862 C10.5003305,18.2880713 10.3888246,17.9921095 10.4097489,17.6903167 C10.4306733,17.3885239 10.5819587,17.1107458 10.8242372,16.9292666 C13.7926117,14.7108761 17.8690346,14.7108761 20.837409,16.9292666 C21.0796875,17.1107458 21.2309729,17.3885239 21.2518973,17.6903167 C21.2728217,17.9921095 21.1613158,18.2880713 20.9463959,18.5011862 L20.9804543,18.5011862 Z" fill="#D7D7D7" fill-rule="nonzero"></path>
        <path d="M23.2146858,16.2760013 C22.8289453,16.6544188 22.218493,16.6779875 21.8046678,16.33044 C18.3469126,13.5203439 13.3896622,13.5203439 9.93190698,16.33044 C9.51808166,16.6779875 8.90762943,16.6544188 8.52188892,16.2760013 C8.31497858,16.0725736 8.20306318,15.7917112 8.21342467,15.5018807 C8.22378616,15.2120503 8.35547258,14.9398792 8.57638237,14.7517155 C12.8148694,11.2752553 18.9217053,11.2752553 23.1601924,14.7517155 C23.3811022,14.9398792 23.5127885,15.2120503 23.52315,15.5018807 C23.5335115,15.7917112 23.4215962,16.0725736 23.2146858,16.2760013 Z" fill="#D7D7D7" fill-rule="nonzero"></path>
        <path d="M25.4012355,14.0508163 C25.0141655,14.4345502 24.3964249,14.4553187 23.9844058,14.0984502 C19.2913372,10.0954807 12.3805804,10.0983669 7.69086378,14.1052551 C7.28620614,14.4275279 6.70612579,14.404348 6.32852749,14.0508163 C6.11889478,13.8540344 6,13.5794447 6,13.2920758 C6,13.004707 6.11889478,12.7301173 6.32852749,12.5333354 C11.8115803,7.82222153 19.9181828,7.82222153 25.4012355,12.5333354 C25.6108683,12.7301173 25.729763,13.004707 25.729763,13.2920758 C25.729763,13.5794447 25.6108683,13.8540344 25.4012355,14.0508163 Z" fill="#D7D7D7" fill-rule="nonzero"></path>
    </g>
</svg>