<?xml version="1.0" encoding="UTF-8" standalone="no"?>
<svg width="32px" height="32px" viewBox="0 0 32 32" version="1.1" xmlns="http://www.w3.org/2000/svg" xmlns:xlink="http://www.w3.org/1999/xlink">
    <!-- Generator: Sketch 49.3 (51167) - http://www.bohemiancoding.com/sketch -->
    <title>OpenSym</title>
    <desc>Created with Sketch.</desc>
    <defs></defs>
    <g stroke="none" stroke-width="1" fill="none" fill-rule="evenodd">
        <path d="M10,2.921 L10,29.079 C16.773,28.565 22.13,22.902 22.13,16 C22.13,9.098 16.773,3.435 10,2.921 Z" fill="#F3F3F3" fill-rule="nonzero"></path>
        <path d="M22.949,15 C22.433,7.747 16.382,2 9,2 L9,2.87 L9,8 L2,8 L2,10 L9,10 L9,22 L2,22 L2,24 L9,24 L9,29.13 L9,30 C12.755361,30 16.1662662,28.5127072 18.6792439,26.0964646 C21.1060845,23.7630433 22.6954988,20.5632637 22.949,17 C23.3936993,17 23.7272238,17 23.9495735,17 C25.2941127,17 24.9605882,16.3333333 22.949,15 Z M10,29.079 L10,2.921 C16.773,3.435 22.13,9.098 22.13,16 C22.13,20.0627593 20.2738463,23.696216 17.3653332,26.1028985 C15.3327321,27.7847974 12.7861746,28.8675584 10,29.079 Z" fill="#666666" fill-rule="nonzero"></path>
        <g transform="translate(14.000000, 14.000000)" fill-rule="nonzero">
            <polygon fill="#333333" transform="translate(8.951000, 7.051500) rotate(270.000000) translate(-8.951000, -7.051500) " points="6.0015 -0.9975 6.0015 8.0025 1.8995 8.0025 8.9965 15.1005 16.0025 8.0965 16.0025 8.0025 12.0015 8.0025 12.0015 -0.9975"></polygon>
            <path d="M12.5015,7.5025 L16.5025,7.5025 L16.5025,8.30364859 L8.99642462,15.8075812 L0.69251347,7.5025 L5.5015,7.5025 L5.5015,-1.4975 L12.5015,-1.4975 L12.5015,7.5025 Z" stroke="#F3F3F3" transform="translate(8.951000, 7.051500) rotate(270.000000) translate(-8.951000, -7.051500) "></path>
        </g>
    </g>
</svg>