<?xml version="1.0" encoding="UTF-8" standalone="no"?>
<svg width="32px" height="32px" viewBox="0 0 32 32" version="1.1" xmlns="http://www.w3.org/2000/svg" xmlns:xlink="http://www.w3.org/1999/xlink">
    <!-- Generator: Sketch 49.3 (51167) - http://www.bohemiancoding.com/sketch -->
    <title>OpenPac</title>
    <desc>Created with Sketch.</desc>
    <defs></defs>
    <g stroke="none" stroke-width="1" fill="none" fill-rule="evenodd">
        <path d="M5,22 L27,22 L27,10 L5,10 L5,22 Z M5,23 L4,23 L4,9 L5,9 L27,9 L28,9 L28,23 L27,23 L5,23 Z" fill="#666666"></path>
        <rect fill="#F3F3F3" x="5" y="10" width="22" height="12"></rect>
        <rect fill="#666666" x="7" y="5" width="4" height="7"></rect>
        <rect fill="#666666" x="14" y="5" width="4" height="7"></rect>
        <rect fill="#666666" x="21" y="5" width="4" height="7"></rect>
        <rect fill="#666666" x="7" y="20" width="4" height="7"></rect>
        <rect fill="#666666" x="14" y="20" width="4" height="7"></rect>
        <rect fill="#666666" x="21" y="20" width="4" height="7"></rect>
        <g transform="translate(14.000000, 14.000000)" fill-rule="nonzero">
            <polygon fill="#333333" transform="translate(8.951000, 7.051500) rotate(270.000000) translate(-8.951000, -7.051500) " points="6.0015 -0.9975 6.0015 8.0025 1.8995 8.0025 8.9965 15.1005 16.0025 8.0965 16.0025 8.0025 12.0015 8.0025 12.0015 -0.9975"></polygon>
            <path d="M12.5015,7.5025 L16.5025,7.5025 L16.5025,8.30364859 L8.99642462,15.8075812 L0.69251347,7.5025 L5.5015,7.5025 L5.5015,-1.4975 L12.5015,-1.4975 L12.5015,7.5025 Z" stroke="#F3F3F3" transform="translate(8.951000, 7.051500) rotate(270.000000) translate(-8.951000, -7.051500) "></path>
        </g>
    </g>
</svg>