<?xml version="1.0" encoding="UTF-8" standalone="no"?>
<svg width="32px" height="32px" viewBox="0 0 32 32" version="1.1" xmlns="http://www.w3.org/2000/svg" xmlns:xlink="http://www.w3.org/1999/xlink">
    <!-- Generator: Sketch 49.3 (51167) - http://www.bohemiancoding.com/sketch -->
    <title>Orientation270</title>
    <desc>Created with Sketch.</desc>
    <defs></defs>
    <g stroke="none" stroke-width="1" fill="none" fill-rule="evenodd">
        <polygon fill="#666666" fill-rule="nonzero" points="18 18 18 30 30 30 30 18"></polygon>
        <path d="M2,18 L2,30 L14,30 L14,18 L2,18 Z M13,29 L3,29 L3,19 L13,19 L13,29 Z" fill="#666666" fill-rule="nonzero"></path>
        <path d="M18,2 L18,14 L30,14 L30,2 L18,2 Z M29,13 L19,13 L19,3 L29,3 L29,13 Z" fill="#666666" fill-rule="nonzero"></path>
        <path d="M2,2 L2,14 L14,14 L14,2 L2,2 Z M13,13 L3,13 L3,3 L13,3 L13,13 Z" fill="#666666" fill-rule="nonzero"></path>
    </g>
</svg>