<?xml version="1.0" encoding="UTF-8" standalone="no"?>
<svg width="32px" height="32px" viewBox="0 0 32 32" version="1.1" xmlns="http://www.w3.org/2000/svg" xmlns:xlink="http://www.w3.org/1999/xlink">
    <!-- Generator: Sketch 49.3 (51167) - http://www.bohemiancoding.com/sketch -->
    <title>Package3d</title>
    <desc>Created with Sketch.</desc>
    <defs></defs>
    <g stroke="none" stroke-width="1" fill="none" fill-rule="evenodd">
        <rect fill="#3C3C3C" fill-rule="nonzero" x="1" y="1" width="30" height="30"></rect>
        <path d="M14.006322,10.1221675 C13.4388524,10.8190598 12.8713915,11.505053 12.303922,12.1801675 C11.7364524,12.855282 11.1689915,13.5412751 10.601522,14.2381675 C11.2137917,14.2962418 11.7775194,14.4341664 12.292722,14.6519452 C12.8079245,14.8697241 13.2484534,15.1637212 13.614322,15.5339452 C13.9801905,15.9041693 14.2676542,16.3433501 14.476722,16.8515008 C14.6857897,17.3596515 14.790322,17.925868 14.790322,18.5501675 C14.790322,19.1309111 14.6932563,19.7225348 14.499122,20.3250564 C14.3049876,20.9275779 14.0025907,21.4720169 13.591922,21.9583897 C13.1812532,22.4447625 12.6585918,22.8440178 12.023922,23.1561675 C11.3892521,23.4683172 10.6239264,23.6243897 9.72792195,23.6243897 C9.47405407,23.6243897 9.10072442,23.6026121 8.60792195,23.5590564 C8.11511948,23.5155005 7.61859112,23.4283903 7.11832195,23.297723 C6.61805279,23.1670557 6.18125716,22.9819464 5.80792196,22.7423897 C5.43458676,22.5028329 5.24792196,22.1870583 5.24792196,21.7950564 C5.24792196,21.5046845 5.35618754,21.250613 5.57272196,21.0328341 C5.78925637,20.8150553 6.06178698,20.7061675 6.39032196,20.7061675 C6.58445626,20.7061675 6.78232095,20.7497226 6.98392195,20.8368341 C7.18552296,20.9239457 7.40578746,21.0183151 7.64472195,21.1199452 C7.88365644,21.2215754 8.14498719,21.3159448 8.42872195,21.4030564 C8.71245672,21.4901679 9.04098673,21.533723 9.41432195,21.533723 C9.96685809,21.533723 10.43352,21.4466128 10.814322,21.2723897 C11.1951239,21.0981666 11.4975209,20.8731318 11.721522,20.5972786 C11.945523,20.3214253 12.1060548,20.0129099 12.203122,19.671723 C12.3001891,19.3305361 12.348722,18.9929839 12.348722,18.6590564 C12.348722,17.8024595 12.0836579,17.1890582 11.553522,16.8188341 C11.023386,16.44861 10.355126,16.2635008 9.54872195,16.2635008 C9.38445443,16.2635008 9.25378911,16.2743896 9.15672195,16.2961675 C9.0596548,16.3179453 8.96632241,16.346982 8.87672195,16.3832786 C8.78712149,16.419575 8.70125571,16.4486118 8.61912195,16.4703897 C8.53698819,16.4921676 8.42872259,16.5030564 8.29432195,16.5030564 C7.99565379,16.5030564 7.74552296,16.3977981 7.54392195,16.1872786 C7.34232095,15.976759 7.24152195,15.7335763 7.24152195,15.457723 C7.24152195,15.3706115 7.25272186,15.2653532 7.27512195,15.1419452 C7.29752204,15.0185372 7.32365516,14.9277973 7.35352195,14.869723 L11.027122,10.361723 L6.74872195,10.361723 C6.40525357,10.361723 6.11778978,10.2528352 5.88632196,10.0350564 C5.65485413,9.81727752 5.53912196,9.55594676 5.53912196,9.25105636 C5.53912196,8.98972169 5.65485413,8.72839103 5.88632196,8.46705636 C6.11778978,8.20572169 6.40525357,8.07505636 6.74872195,8.07505636 L12.998322,8.07505636 C13.3417904,8.07505636 13.6441873,8.18757378 13.905522,8.41261192 C14.1668566,8.63765005 14.297522,8.93890632 14.297522,9.31638969 C14.297522,9.59224294 14.2004563,9.8608328 14.006322,10.1221675 Z M27.142322,17.6355008 C27.142322,18.3904676 27.030323,19.1200158 26.806322,19.8241675 C26.5823209,20.5283191 26.2201911,21.1489796 25.719922,21.6861675 C25.2196528,22.2233553 24.5551261,22.6516474 23.726322,22.9710564 C22.8975178,23.2904653 21.878328,23.4501675 20.668722,23.4501675 L18.137522,23.4501675 C17.7492533,23.4501675 17.41699,23.3231316 17.140722,23.0690564 C16.8644539,22.814981 16.726322,22.5064656 16.726322,22.1435008 L16.726322,9.38172303 C16.726322,9.0332768 16.8644539,8.72839103 17.140722,8.46705636 C17.41699,8.20572169 17.7492533,8.07505636 18.137522,8.07505636 L20.668722,8.07505636 C21.878328,8.07505636 22.8937845,8.23112889 23.715122,8.54327858 C24.5364594,8.85542827 25.2009861,9.26920196 25.708722,9.78461192 C26.2164578,10.3000219 26.5823209,10.8989048 26.806322,11.5812786 C27.030323,12.2636524 27.142322,12.9750526 27.142322,13.7155008 L27.142322,17.6355008 Z M24.678322,13.7155008 C24.678322,13.2363873 24.6148559,12.7899473 24.487922,12.3761675 C24.360988,11.9623876 24.1519234,11.6030579 23.860722,11.2981675 C23.5695205,10.9932771 23.1961909,10.7537239 22.740722,10.5795008 C22.285253,10.4052777 21.7215253,10.3181675 21.049522,10.3181675 L19.190322,10.3181675 L19.190322,21.2288341 L21.049522,21.2288341 C21.7215253,21.2288341 22.2889863,21.1344647 22.751922,20.945723 C23.2148576,20.7569813 23.5881872,20.4992802 23.871922,20.1726119 C24.1556567,19.8459436 24.360988,19.4648363 24.487922,19.0292786 C24.6148559,18.5937208 24.678322,18.1291329 24.678322,17.6355008 L24.678322,13.7155008 Z" fill="#FFFFFF" fill-rule="nonzero"></path>
    </g>
</svg>