<?xml version="1.0" encoding="UTF-8"?>
<svg width="32px" height="32px" viewBox="0 0 32 32" version="1.1" xmlns="http://www.w3.org/2000/svg" xmlns:xlink="http://www.w3.org/1999/xlink">
    <!-- Generator: Sketch 50.2 (55047) - http://www.bohemiancoding.com/sketch -->
    <title>PadArray</title>
    <desc>Created with Sketch.</desc>
    <defs></defs>
    <g id="PadArray" stroke="none" stroke-width="1" fill="none" fill-rule="evenodd">
        <g id="Group-Copy" transform="translate(0.000000, 3.000000)" fill-rule="nonzero">
            <path d="M28.9954038,14.3478261 C28.9954038,22.2649565 22.5690124,28.6956522 14.6475777,28.6956522 C6.72614288,28.6956522 0.29975158,22.2649565 0.29975158,14.3478261 C0.29975158,6.43069565 6.72614288,0 14.6475777,0 C22.5690124,0 28.9954038,6.43069565 28.9954038,14.3478261 Z" id="Shape" fill="#14B44E"></path>
            <path d="M14.6521739,1.30434783 C21.8534783,1.30434783 27.6956522,7.15043478 27.6956522,14.3478261 C27.6956522,21.5452174 21.8534783,27.3913043 14.6521739,27.3913043 C7.45086957,27.3913043 1.60869565,21.5452174 1.60869565,14.3478261 C1.60869565,7.15043478 7.45086957,1.30434783 14.6521739,1.30434783 Z M14.6521739,0 C6.74130435,0 0.304347826,6.43695652 0.304347826,14.3478261 C0.304347826,22.2586957 6.74130435,28.6956522 14.6521739,28.6956522 C22.5630435,28.6956522 29,22.2586957 29,14.3478261 C29,6.43695652 22.5630435,0 14.6521739,0 Z" id="Shape" fill="#000000" opacity="0.12"></path>
        </g>
        <g id="Group-Copy-2" transform="translate(9.000000, 12.000000)" fill-rule="nonzero">
            <path d="M9.13043478,5.2173913 C9.13043478,7.37478261 7.3773913,9.13043478 5.2173913,9.13043478 C3.0573913,9.13043478 1.30434783,7.37478261 1.30434783,5.2173913 C1.30434783,3.06 3.0573913,1.30434783 5.2173913,1.30434783 C7.3773913,1.30434783 9.13043478,3.06 9.13043478,5.2173913 Z" id="Shape" fill="#F3F3F3"></path>
            <path d="M5.2173913,1.30434783 C7.3773913,1.30434783 9.13043478,3.06 9.13043478,5.2173913 C9.13043478,7.37478261 7.3773913,9.13043478 5.2173913,9.13043478 C3.0573913,9.13043478 1.30434783,7.37478261 1.30434783,5.2173913 C1.30434783,3.06 3.0573913,1.30434783 5.2173913,1.30434783 Z M5.2173913,0 C2.34,0 0,2.34130435 0,5.2173913 C0,8.09347826 2.34,10.4347826 5.2173913,10.4347826 C8.09478261,10.4347826 10.4347826,8.09347826 10.4347826,5.2173913 C10.4347826,2.34130435 8.09478261,0 5.2173913,0 Z" id="Shape" fill="#000000" opacity="0.12"></path>
        </g>
        <polyline id="Shape-Copy-3" fill="#666666" fill-rule="nonzero" points="16 8 28 0 24.4705882 6.58823529 32 8 20 16 23.5294118 9.41176471"></polyline>
    </g>
</svg>