<?xml version="1.0" encoding="UTF-8"?>
<svg width="32px" height="32px" viewBox="0 0 32 32" version="1.1" xmlns="http://www.w3.org/2000/svg" xmlns:xlink="http://www.w3.org/1999/xlink">
    <!-- Generator: Sketch 50.2 (55047) - http://www.bohemiancoding.com/sketch -->
    <title>PaintRoller</title>
    <desc>Created with Sketch.</desc>
    <defs></defs>
    <g id="PaintRoller" stroke="none" stroke-width="1" fill="none" fill-rule="evenodd">
        <rect id="Rectangle-path" fill="#F3F3F3" fill-rule="nonzero" x="0" y="1" width="27" height="7"></rect>
        <path d="M15.1733208,9 C22.0946575,9.03271545 25.74842,9.03271545 26.1346084,9 C26.5207967,8.96728455 26.8018554,8.63395122 26.9777843,8 C27.0074052,3.79002501 27.0074052,1.45669167 26.9777843,1 C26.9481635,0.543308326 26.6671048,0.209974993 26.1346084,8.43422554e-14 C9.66362292,-0.0150174861 1.23186325,-0.0150174861 0.83932937,8.43422554e-14 C0.446795486,0.0150174861 0.16573683,0.348350819 -0.00384659686,1 C-0.0314219454,5.20880865 -0.0314219454,7.54214198 -0.00384659686,8 C0.0375164259,8.68678703 0.83932937,9 0.83932937,9 C0.83932937,9 4.21203324,9 10.957441,9 L15.1733208,9 Z M0.83932937,7 L0.83932937,2 C0.83932937,1.44771525 1.28704462,1 1.83932937,1 L25.1346084,1 C25.6868931,1 26.1346084,1.44771525 26.1346084,2 L26.1346084,7 C26.1346084,7.55228475 25.6868931,8 25.1346084,8 L1.83932937,8 C1.28704462,8 0.83932937,7.55228475 0.83932937,7 Z" id="Combined-Shape" fill="#333333" fill-rule="nonzero"></path>
        <path d="M27,3 L29,3 C30.6568542,3 32,4.34314575 32,6 L32,10.145898 C32,11.2822142 31.3579929,12.3210036 30.3416408,12.8291796 L16.2111456,19.8944272 C16.0722902,19.9638549 15.9191771,20 15.763932,20 L11,20 L11,19.618034 C11,19.2392619 11.2140024,18.8929988 11.5527864,18.7236068 L28.4472136,10.2763932 C28.7859976,10.1070012 29,9.76073807 29,9.38196601 L29,7 C29,6.44771525 28.5522847,6 28,6 L27,6 L27,3 Z" id="Path-14" fill="#333333"></path>
        <rect id="Rectangle-2-Copy" stroke="#333333" fill="#333333" x="10.5" y="21.5" width="6" height="2"></rect>
        <rect id="Rectangle-2-Copy-2" fill="#333333" x="10" y="25" width="7" height="3"></rect>
        <rect id="Rectangle-2-Copy-3" fill="#333333" x="10" y="29" width="7" height="3"></rect>
    </g>
</svg>