<?xml version="1.0" encoding="UTF-8" standalone="no"?>
<svg width="32px" height="32px" viewBox="0 0 32 32" version="1.1" xmlns="http://www.w3.org/2000/svg" xmlns:xlink="http://www.w3.org/1999/xlink">
    <!-- Generator: Sketch 49.3 (51167) - http://www.bohemiancoding.com/sketch -->
    <title>PasteDbl</title>
    <desc>Created with Sketch.</desc>
    <defs></defs>
    <g stroke="none" stroke-width="1" fill="none" fill-rule="evenodd">
        <rect fill="#D9D9D9" fill-rule="nonzero" x="0" y="11" width="24" height="17"></rect>
        <polygon fill="#F3F3F3" fill-rule="nonzero" points="8 3 0 11 24 11 32 3"></polygon>
        <polygon fill="#999999" fill-rule="nonzero" points="32 3 24 11 24 28 32 20"></polygon>
        <path d="M1,12 L23.001,12 L23.001,27.001 L1,27.001 L1,12 Z M24,11.707 L31,4.707 L31,19.586 L24,26.587 L24,11.707 Z M8.414,4 L30.293,4 L23.293,11 L1.414,11 L8.414,4 Z M8,3 L0,11 L0,28 L24,28 L32,20 L32,3 L8,3 Z" fill="#333333" fill-rule="nonzero"></path>
        <g transform="translate(7.000000, 2.000000)" fill-rule="nonzero">
            <rect fill="#D9D9D9" x="0" y="3" width="6" height="4"></rect>
            <polygon fill="#F3F3F3" points="3 0 0 3 6 3 9 0"></polygon>
            <polygon fill="#BBBBBB" points="9 0 6 3 6 7 9 4"></polygon>
            <path d="M1,4 L5.001,4 L5.001,6.001 L1,6.001 L1,4 Z M6,3.707 L8,1.707 L8,3.586 L6,5.587 L6,3.707 Z M3.414,1 L7.293,1 L5.293,3 L1.414,3 L3.414,1 Z M3,0 L0,3 L0,7 L6,7 L9,4 L9,0 L3,0 Z" fill="#333333"></path>
        </g>
        <g transform="translate(17.000000, 2.000000)" fill-rule="nonzero">
            <rect fill="#D9D9D9" x="0" y="3" width="6" height="4"></rect>
            <polygon fill="#F3F3F3" points="3 0 0 3 6 3 9 0"></polygon>
            <polygon fill="#BBBBBB" points="9 0 6 3 6 7 9 4"></polygon>
            <path d="M1,4 L5.001,4 L5.001,6.001 L1,6.001 L1,4 Z M6,3.707 L8,1.707 L8,3.586 L6,5.587 L6,3.707 Z M3.414,1 L7.293,1 L5.293,3 L1.414,3 L3.414,1 Z M3,0 L0,3 L0,7 L6,7 L9,4 L9,0 L3,0 Z" fill="#333333"></path>
        </g>
        <polygon fill="#F3F3F3" fill-rule="nonzero" points="17 20 11 20 11 14 5 14 5 20 0 20 0 26 5 26 5 28 11 28 11 26 17 26"></polygon>
        <g transform="translate(0.000000, 15.000000)" fill-rule="nonzero">
            <polygon fill="#21A04A" points="16 6 10 6 10 0 6 0 6 6 0 6 0 10 6 10 6 16 10 16 10 10 16 10"></polygon>
            <polygon fill="#24B252" points="15 7 9 7 9 1 7 1 7 7 1 7 1 9 7 9 7 15 9 15 9 9 15 9"></polygon>
        </g>
    </g>
</svg>