<?xml version="1.0" encoding="UTF-8" standalone="no"?>
<svg width="32px" height="32px" viewBox="0 0 32 32" version="1.1" xmlns="http://www.w3.org/2000/svg" xmlns:xlink="http://www.w3.org/1999/xlink">
    <!-- Generator: Sketch 49.3 (51167) - http://www.bohemiancoding.com/sketch -->
    <title>Paste</title>
    <desc>Created with Sketch.</desc>
    <defs></defs>
    <g stroke="none" stroke-width="1" fill="none" fill-rule="evenodd">
        <path d="M17.5,2 L16,2 L16,0.5 C16,0.223857625 15.7761424,1.69088438e-17 15.5,0 L12.5,0 C12.2238576,-1.69088438e-17 12,0.223857625 12,0.5 L12,2 L10.5,2 C10.0120281,1.99672093 9.55337622,2.23259363 9.2721996,2.63142572 C8.99102298,3.03025781 8.92296127,3.54149657 9.09,4 L18.91,4 C19.0770387,3.54149657 19.008977,3.03025781 18.7278004,2.63142572 C18.4466238,2.23259363 17.9879719,1.99672093 17.5,2 Z" fill="#333333" fill-rule="nonzero"></path>
        <polygon fill="#999999" fill-rule="nonzero" points="20 3 20 5 8 5 8 3 3 3 3 28 10 28 10 9 25 9 25 3"></polygon>
        <polygon fill="#F3F3F3" fill-rule="nonzero" points="22 17 22 10 11 10 11 32 29 32 29 17"></polygon>
        <path d="M22,10 L11,10 L11,32 L29,32 L29,17 L22,10 Z M28,31 L12,31 L12,11 L22,11 L22,17 L28,17 L28,31 Z" fill="#333333" fill-rule="nonzero"></path>
        <path d="M3,27 L3,4 L3,3 L8,3 L8,4 L4,4 L4,27 L10,27 L10,28 L3,28 L3,27 Z" fill="#333333"></path>
        <path d="M25,4 L25,9 L24,9 L24,4 L20,4 L20,3 L25,3 L25,4 Z" fill="#333333"></path>
    </g>
</svg>