<?xml version="1.0" encoding="UTF-8" standalone="no"?>
<svg width="32px" height="32px" viewBox="0 0 32 32" version="1.1" xmlns="http://www.w3.org/2000/svg" xmlns:xlink="http://www.w3.org/1999/xlink">
    <!-- Generator: Sketch 49.3 (51167) - http://www.bohemiancoding.com/sketch -->
    <title>Pin</title>
    <desc>Created with Sketch.</desc>
    <defs></defs>
    <g stroke="none" stroke-width="1" fill="none" fill-rule="evenodd">
        <rect fill="#999999" fill-rule="nonzero" x="1" y="14" width="10" height="3"></rect>
        <rect x="1" y="14" width="10" height="3"></rect>
        <path d="M18,30 L12,30 L12,1 L18,1 L18,21 L19,21 L19,0 L11,0 L11,13 L0,13 L0,18 L11,18 L11,31 L19,31 L19,27 L18,27 L18,30 Z M11,17 L1,17 L1,14 L11,14 L11,17 Z" fill="#333333" fill-rule="nonzero"></path>
        <polygon fill="#F3F3F3" fill-rule="nonzero" points="16 22 19 22 19 21 18 21 18 1 12 1 12 30 18 30 18 27 19 27 19 26 16 26"></polygon>
        <g transform="translate(16.000000, 16.000000)" fill-rule="nonzero">
            <polygon fill="#24B252" points="9 7 9 1 7 1 7 7 1 7 1 9 7 9 7 15 9 15 9 9 15 9 15 7"></polygon>
            <path d="M10,6 L10,0 L6,0 L6,6 L0,6 L0,10 L6,10 L6,16 L10,16 L10,10 L16,10 L16,6 L10,6 Z M15,9 L9,9 L9,15 L7,15 L7,9 L1,9 L1,7 L7,7 L7,1 L9,1 L9,7 L15,7 L15,9 Z" fill="#21A04A"></path>
        </g>
    </g>
</svg>