<?xml version="1.0" encoding="UTF-8" standalone="no"?>
<svg width="32px" height="32px" viewBox="0 0 32 32" version="1.1" xmlns="http://www.w3.org/2000/svg" xmlns:xlink="http://www.w3.org/1999/xlink">
    <!-- Generator: Sketch 49.3 (51167) - http://www.bohemiancoding.com/sketch -->
    <title>PinFunctionDotClk</title>
    <desc>Created with Sketch.</desc>
    <defs></defs>
    <g stroke="none" stroke-width="1" fill="none" fill-rule="evenodd">
        <path d="M26.787,15 C26.688,14.651 26.556,14.316 26.393,14 C25.48,12.222 23.632,11 21.5,11 C19.368,11 17.52,12.222 16.607,14 C16.444,14.316 16.313,14.651 16.213,15 L14,15 L14,18 L16.213,18 C16.312,18.349 16.444,18.684 16.607,19 C17.52,20.778 19.368,22 21.5,22 C23.632,22 25.48,20.778 26.393,19 C26.556,18.684 26.687,18.349 26.787,18 L31,18 L31,15 L26.787,15 Z M25.24,19 C24.433,20.205 23.06,21 21.5,21 C19.94,21 18.567,20.205 17.76,19 C17.554,18.693 17.401,18.354 17.276,18 C17.109,17.529 17.001,17.029 17.001,16.5 C17.001,15.971 17.109,15.471 17.276,15 C17.401,14.646 17.555,14.307 17.76,14 C18.567,12.795 19.94,12 21.5,12 C23.06,12 24.433,12.795 25.24,14 C25.446,14.307 25.599,14.646 25.724,15 C25.891,15.471 25.999,15.971 25.999,16.5 C25.999,17.029 25.891,17.529 25.724,18 C25.599,18.354 25.446,18.693 25.24,19 Z" fill="#999999" fill-rule="nonzero"></path>
        <g transform="translate(17.000000, 10.000000)" fill-rule="nonzero">
            <polygon fill="#999999" points="10.819 8 10.819 8 10.82 7.996"></polygon>
            <polygon fill="#999999" points="10.819 5 10.819 5 10.82 5.004"></polygon>
            <path d="M0.852,1.121 C0.852,1.12 0.853,1.119 0.854,1.119 C0.853,1.119 0.853,1.12 0.852,1.121 Z" fill="#666666"></path>
            <path d="M2.552,0.298 C2.555,0.297 2.558,0.295 2.561,0.295 C2.558,0.295 2.555,0.297 2.552,0.298 Z" fill="#666666"></path>
        </g>
        <path d="M21.5,13 C23.43,13 25,14.57 25,16.5 C25,18.43 23.43,20 21.5,20 C19.57,20 18,18.43 18,16.5 C18,14.57 19.57,13 21.5,13 Z M21.5,12 C19.015,12 17,14.014 17,16.5 C17,18.986 19.015,21 21.5,21 C23.985,21 26,18.986 26,16.5 C26,14.014 23.985,12 21.5,12 Z" fill="#333333" fill-rule="nonzero"></path>
        <rect fill="#F3F3F3" fill-rule="nonzero" x="1" y="1" width="12" height="30"></rect>
        <path d="M27.5,14 C26.521,11.651 24.204,10 21.5,10 C18.796,10 16.479,11.651 15.5,14 L14,14 L14,0 L0,0 L0,32 L14,32 L14,19 L15.5,19 C16.479,21.349 18.796,23 21.5,23 C24.204,23 26.521,21.349 27.5,19 L32,19 L32,14 L27.5,14 Z M13,31 L1,31 L1,1 L13,1 L13,31 Z M31,18 L27.819,18 L26.786,18 C26.687,18.349 26.555,18.684 26.392,19 C25.479,20.778 23.631,22 21.499,22 C19.367,22 17.519,20.778 16.606,19 C16.443,18.684 16.312,18.349 16.212,18 L15.179,18 L14,18 L14,15 L15.181,15 L16.214,15 C16.313,14.651 16.445,14.316 16.608,14 C17.521,12.222 19.369,11 21.501,11 C23.633,11 25.481,12.222 26.394,14 C26.557,14.316 26.688,14.651 26.788,15 L27.821,15 L31,15 L31,18 Z" fill="#333333" fill-rule="nonzero"></path>
        <polygon fill="#666666" fill-rule="nonzero" points="9.241 24.15 2.683 16.5 9.241 8.85 10.759 10.15 5.317 16.5 10.759 22.85"></polygon>
    </g>
</svg>