<?xml version="1.0" encoding="UTF-8" standalone="no"?>
<svg width="32px" height="32px" viewBox="0 0 32 32" version="1.1" xmlns="http://www.w3.org/2000/svg" xmlns:xlink="http://www.w3.org/1999/xlink">
    <!-- Generator: Sketch 49.3 (51167) - http://www.bohemiancoding.com/sketch -->
    <title>Pinswap</title>
    <desc>Created with Sketch.</desc>
    <defs></defs>
    <g stroke="none" stroke-width="1" fill="none" fill-rule="evenodd">
        <rect fill="#333333" fill-rule="nonzero" x="18" y="5" width="8" height="2.966"></rect>
        <rect fill="#999999" fill-rule="nonzero" x="18" y="14" width="8" height="3"></rect>
        <rect fill="#999999" fill-rule="nonzero" x="18" y="23" width="8" height="2.966"></rect>
        <rect fill="#333333" fill-rule="nonzero" x="26" y="0" width="6" height="31"></rect>
        <rect fill="#F3F3F3" fill-rule="nonzero" x="27" y="1" width="4" height="29"></rect>
        <path d="M3.851,6.851 C1.499,8.776 0,12.7 0,15.971 C0,19.264 1.513,22.197 3.879,24.12 L1,27 L9,27 L9,19.001 L6.023,21.977 C4.192,20.61 3,18.431 3,15.971 C3,13.534 4.175,10.359 5.987,8.987 L9,12 L9,4 L1,4 L3.851,6.851 Z" fill="#333333" fill-rule="nonzero"></path>
    </g>
</svg>