<?xml version="1.0" encoding="UTF-8" standalone="no"?>
<svg width="32px" height="32px" viewBox="0 0 32 32" version="1.1" xmlns="http://www.w3.org/2000/svg" xmlns:xlink="http://www.w3.org/1999/xlink">
    <!-- Generator: Sketch 49.3 (51167) - http://www.bohemiancoding.com/sketch -->
    <title>PinVisiblePad</title>
    <desc>Created with Sketch.</desc>
    <defs></defs>
    <g stroke="none" stroke-width="1" fill="none" fill-rule="evenodd">
        <rect fill="#999999" fill-rule="nonzero" x="14" y="25" width="17" height="3"></rect>
        <rect fill="#F3F3F3" fill-rule="nonzero" x="1" y="1" width="12" height="30"></rect>
        <path d="M32,24 L14,24 L14,0 L0,0 L0,32 L14,32 L14,29 L32,29 L32,24 Z M13,31 L1,31 L1,1 L13,1 L13,31 Z M31,28 L14,28 L14,25 L31,25 L31,28 Z" fill="#333333" fill-rule="nonzero"></path>
        <path d="M24,20 L24,10 L22.482,10 C22.265,10.711 21.877,11.338 21.315,11.884 C20.756,12.428 20.522,12.709 20,12.92 L20,15 C20.919,14.631 21.421,14.148 22.124,13.361 L22.124,20 L20,20 L20,22 L22.124,22 L24,22 L26,22 L26,20 L24,20 Z" fill="#666666" fill-rule="nonzero"></path>
    </g>
</svg>