<?xml version="1.0" encoding="UTF-8" standalone="no"?>
<svg width="32px" height="32px" viewBox="0 0 32 32" version="1.1" xmlns="http://www.w3.org/2000/svg" xmlns:xlink="http://www.w3.org/1999/xlink">
    <!-- Generator: Sketch 49.3 (51167) - http://www.bohemiancoding.com/sketch -->
    <title>PolygonPourHatch</title>
    <desc>Created with Sketch.</desc>
    <defs></defs>
    <g stroke="none" stroke-width="1" fill="none" fill-rule="evenodd">
        <polyline fill="#F3F3F3" fill-rule="nonzero" points="16 1.93 30.757 12.649 25.12 30 6.88 30 1.243 12.649 16 1.93"></polyline>
        <path d="M29,12 L29.863,12 L29,11.373 L28.486,11 L28,10.646 L28,11 L24,11 L24,7.741 L23,7.014 L23,11 L19,11 L19,7 L22.98,7 L21.603,6 L19,6 L19,4.109 L18,3.382 L18,6 L14,6 L14,3.383 L13,4.11 L13,6 L10.397,6 L9.02,7 L13,7 L13,11 L9,11 L9,7.015 L8,7.742 L8,11 L4,11 L4,10.646 L3.514,11 L3,11.373 L2.137,12 L3,12 L3,16 L2.332,16 L2.657,17 L3,17 L3,18.058 L3.956,21 L4,21 L4,17 L8,17 L8,21 L4,21 L4,21.136 L4.281,22 L8,22 L8,26 L5.581,26 L5.906,27 L8,27 L8,30 L9,30 L9,27 L13,27 L13,30 L14,30 L14,27 L18,27 L18,30 L19,30 L19,27 L23,27 L23,30 L24,30 L24,27 L26.095,27 L26.42,26 L24,26 L24,22 L27.719,22 L28,21.136 L28,21 L24,21 L24,17 L28,17 L28,21 L28.044,21 L29,18.058 L29,17 L29.343,17 L29.668,16 L29,16 L29,12 Z M8,16 L4,16 L4,12 L8,12 L8,16 Z M13,26 L9,26 L9,22 L13,22 L13,26 Z M13,21 L9,21 L9,17 L13,17 L13,21 Z M13,16 L9,16 L9,12 L13,12 L13,16 Z M18,26 L14,26 L14,22 L18,22 L18,26 Z M18,21 L14,21 L14,17 L18,17 L18,21 Z M18,16 L14,16 L14,12 L18,12 L18,16 Z M18,11 L14,11 L14,7 L18,7 L18,11 Z M23,26 L19,26 L19,22 L23,22 L23,26 Z M23,21 L19,21 L19,17 L23,17 L23,21 Z M23,16 L19,16 L19,12 L23,12 L23,16 Z M28,16 L24,16 L24,12 L28,12 L28,16 Z" fill="#008DE9" fill-rule="nonzero"></path>
        <path d="M16,1.93 L30.757,12.65 L25.12,30 L6.88,30 L1.243,12.649 L16,1.93 Z M16,0.693 L0.067,12.267 L6.153,30.999 L25.846,30.999 L31.932,12.267 L16,0.693 Z" fill="#666666" fill-rule="nonzero"></path>
        <polygon points="13.029 11 13.029 7 9.049 7 9.029 7.015 9.029 11"></polygon>
        <rect x="9.029" y="12" width="4" height="4"></rect>
        <rect x="4.029" y="12" width="4" height="4"></rect>
    </g>
</svg>