<?xml version="1.0" encoding="UTF-8" standalone="no"?>
<svg width="32px" height="32px" viewBox="0 0 32 32" version="1.1" xmlns="http://www.w3.org/2000/svg" xmlns:xlink="http://www.w3.org/1999/xlink">
    <!-- Generator: Sketch 49.3 (51167) - http://www.bohemiancoding.com/sketch -->
    <title>PolygonPourCutout</title>
    <desc>Created with Sketch.</desc>
    <defs></defs>
    <g stroke="none" stroke-width="1" fill="none" fill-rule="evenodd">
        <g fill-rule="nonzero">
            <rect fill="#B9DDF7" x="0.5" y="0.5" width="31" height="31"></rect>
            <path d="M31,1 L31,31 L1,31 L1,1 L31,1 Z M32,0 L0,0 L0,32 L32,32 L32,0 Z" fill="#666666"></path>
        </g>
        <polygon fill="#F3F3F3" fill-rule="nonzero" points="8.584 27 4 12.893 16 4.175 28 12.893 23.416 27"></polygon>
        <path d="M16,5.411 L26.824,13.274 L22.689,26 L9.31,26 L5.175,13.274 L16,5.411 Z M16,4.175 L4,12.893 L8.584,27 L23.416,27 L28,12.893 L16,4.175 Z" fill="#666666" fill-rule="nonzero"></path>
    </g>
</svg>