<?xml version="1.0" encoding="UTF-8" standalone="no"?>
<svg width="32px" height="32px" viewBox="0 0 32 32" version="1.1" xmlns="http://www.w3.org/2000/svg" xmlns:xlink="http://www.w3.org/1999/xlink">
    <!-- Generator: Sketch 49.3 (51167) - http://www.bohemiancoding.com/sketch -->
    <title>PolygonThermalsOff</title>
    <desc>Created with Sketch.</desc>
    <defs></defs>
    <g stroke="none" stroke-width="1" fill="none" fill-rule="evenodd">
        <polyline fill="#B9DDF7" fill-rule="nonzero" points="15.933 1.95000005 30.69 12.669 25.053 30.02 6.813 30.02 1.176 12.669 15.933 1.95000005"></polyline>
        <path d="M15.933,1.927 L30.69,12.647 L25.053,29.997 L6.813,29.997 L1.176,12.646 L15.933,1.927 Z M15.933,0.689999998 L0,12.264 L6.086,30.996 L25.779,30.996 L31.865,12.264 L15.933,0.689999998 Z" fill="#666666" fill-rule="nonzero"></path>
        <g transform="translate(9.933000, 11.307000)" fill-rule="nonzero">
            <path d="M6,1 C3.242,1 1,3.241 1,6 C1,8.759 3.242,11 6,11 C8.758,11 11,8.759 11,6 C11,3.241 8.758,1 6,1 Z" fill="#F3F3F3"></path>
            <path d="M6,1 C8.758,1 11,3.241 11,6 C11,8.759 8.758,11 6,11 C3.242,11 1,8.759 1,6 C1,3.241 3.242,1 6,1 Z M6,0 C2.691,0 0,2.691 0,6 C0,9.309 2.691,12 6,12 C9.309,12 12,9.309 12,6 C12,2.691 9.309,0 6,0 Z" fill="#666666"></path>
        </g>
    </g>
</svg>