<?xml version="1.0" encoding="UTF-8" standalone="no"?>
<svg width="32px" height="32px" viewBox="0 0 32 32" version="1.1" xmlns="http://www.w3.org/2000/svg" xmlns:xlink="http://www.w3.org/1999/xlink">
    <!-- Generator: Sketch 49.3 (51167) - http://www.bohemiancoding.com/sketch -->
    <title>PolygonThermalsOn</title>
    <desc>Created with Sketch.</desc>
    <defs></defs>
    <g stroke="none" stroke-width="1" fill="none" fill-rule="evenodd">
        <polyline fill="#B9DDF7" fill-rule="nonzero" points="16 1.93 30.757 12.649 25.12 30 6.88 30 1.243 12.649 16 1.93"></polyline>
        <path d="M16,1.93 L30.757,12.65 L25.12,30 L6.88,30 L1.243,12.649 L16,1.93 Z M16,0.693 L0.067,12.267 L6.153,30.999 L25.846,30.999 L31.932,12.267 L16,0.693 Z" fill="#666666" fill-rule="nonzero"></path>
        <g transform="translate(7.000000, 8.000000)" fill-rule="nonzero">
            <g transform="translate(0.000000, 10.000000)">
                <path d="M7.5,7.364 C4.03,6.741 1.258,3.968 0.636,0.5 L4.773,0.5 C5.224,1.773 6.228,2.777 7.501,3.228 L7.501,7.364 L7.5,7.364 Z" fill="#F3F3F3"></path>
                <path d="M4.433,1 C4.935,2.147 5.853,3.065 7,3.567 L7,6.742 C4.207,6.016 1.983,3.793 1.257,1 L4.433,1 Z M5.142,0 L0.059,0 C0.52,4.171 3.83,7.479 8,7.941 L8,2.858 C6.599,2.496 5.504,1.4 5.142,0 Z" fill="#666666"></path>
            </g>
            <g>
                <path d="M0.636,7.5 C1.259,4.031 4.031,1.259 7.5,0.636 L7.5,4.773 C6.228,5.223 5.224,6.227 4.772,7.501 L0.636,7.501 L0.636,7.5 Z" fill="#F3F3F3"></path>
                <path d="M7,1.258 L7,4.433 C5.853,4.935 4.935,5.853 4.433,7 L1.258,7 C1.983,4.207 4.207,1.983 7,1.258 Z M8,0.059 C3.829,0.521 0.52,3.83 0.059,8 L5.142,8 C5.505,6.6 6.6,5.504 8,5.142 L8,0.059 Z" fill="#666666"></path>
            </g>
            <g transform="translate(10.000000, 0.000000)">
                <path d="M3.228,7.5 C2.777,6.227 1.773,5.223 0.5,4.772 L0.5,0.635 C3.97,1.258 6.742,4.031 7.364,7.499 L3.228,7.499 L3.228,7.5 Z" fill="#F3F3F3"></path>
                <path d="M1,1.258 C3.793,1.984 6.017,4.207 6.743,7 L3.568,7 C3.066,5.853 2.148,4.935 1.001,4.433 L1.001,1.258 L1,1.258 Z M0,0.059 L0,5.142 C1.401,5.504 2.496,6.6 2.858,8 L7.941,8 C7.48,3.829 4.171,0.521 0,0.059 Z" fill="#666666"></path>
            </g>
            <g transform="translate(10.000000, 10.000000)">
                <path d="M0.5,3.228 C1.772,2.778 2.776,1.774 3.228,0.5 L7.365,0.5 C6.742,3.969 3.97,6.741 0.501,7.364 L0.501,3.228 L0.5,3.228 Z" fill="#F3F3F3"></path>
                <path d="M6.743,1 C6.017,3.793 3.794,6.017 1,6.742 L1,3.567 C2.147,3.065 3.065,2.147 3.567,1 L6.743,1 Z M7.941,0 L2.858,0 C2.495,1.4 1.4,2.496 1.13686838e-13,2.858 L1.13686838e-13,7.941 C4.171,7.479 7.48,4.171 7.941,0 Z" fill="#666666"></path>
            </g>
        </g>
    </g>
</svg>