<?xml version="1.0" encoding="UTF-8" standalone="no"?>
<svg width="32px" height="32px" viewBox="0 0 32 32" version="1.1" xmlns="http://www.w3.org/2000/svg" xmlns:xlink="http://www.w3.org/1999/xlink">
    <!-- Generator: Sketch 49.3 (51167) - http://www.bohemiancoding.com/sketch -->
    <title>Port</title>
    <desc>Created with Sketch.</desc>
    <defs></defs>
    <g stroke="none" stroke-width="1" fill="none" fill-rule="evenodd">
        <rect fill="#666666" fill-rule="nonzero" x="2" y="8" width="6" height="5"></rect>
        <polygon fill="#F3F3F3" fill-rule="nonzero" points="8 9 8 8 2 8 2 13 8 13 8 12 3 12 3 9"></polygon>
        <g transform="translate(8.000000, 3.000000)" fill-rule="nonzero">
            <rect fill="#F3F3F3" x="0" y="0" width="16" height="26"></rect>
            <path d="M15,1 L15,25 L1,25 L1,1 L15,1 Z M16,0 L0,0 L0,26 L16,26 L16,0 Z" fill="#333333"></path>
        </g>
        <rect fill="#666666" fill-rule="nonzero" x="2" y="19" width="6" height="5"></rect>
        <polygon fill="#F3F3F3" fill-rule="nonzero" points="8 20 8 19 2 19 2 24 8 24 8 23 3 23 3 20"></polygon>
        <rect fill="#666666" fill-rule="nonzero" x="24" y="19" width="6" height="5"></rect>
        <polygon fill="#F3F3F3" fill-rule="nonzero" points="24 20 24 19 30 19 30 24 24 24 24 23 29 23 29 20"></polygon>
    </g>
</svg>