<?xml version="1.0" encoding="UTF-8" standalone="no"?>
<svg width="32px" height="32px" viewBox="0 0 32 32" version="1.1" xmlns="http://www.w3.org/2000/svg" xmlns:xlink="http://www.w3.org/1999/xlink">
    <!-- Generator: Sketch 49.3 (51167) - http://www.bohemiancoding.com/sketch -->
    <title>PreserveAngle</title>
    <desc>Created with Sketch.</desc>
    <defs></defs>
    <g stroke="none" stroke-width="1" fill="none" fill-rule="evenodd">
        <path d="M20.4954037,23.5963225 C20.3792747,18.499972 19.792429,14.199886 16,11.0048279 C15.9938959,10.9996853 11.5986832,15.1968502 2.81436192,23.5963225 C14.603763,23.6858446 20.4974436,23.6858446 20.4954037,23.5963225 Z" fill="#B0DFFF"></path>
        <path d="M21.5220453,28.3649941 L19.569852,27.93032 C19.85485,26.6503471 20,25.3349464 20,24 C20,17.9116469 16.955321,12.3415526 11.9859234,9.02155829 L13.0969595,7.35854934 C18.6160921,11.0458149 22,17.2365122 22,24 C22,25.4813913 21.8387664,26.9425472 21.5220453,28.3649941 Z" fill="#008DE9" fill-rule="nonzero"></path>
        <path d="M29.8379613,23.1050062 L29.8379613,25.1050062 L3.59871008,25.1050062 C2.90835414,25.1050062 2.34871008,24.5453621 2.34871008,23.8550062 C2.34871008,23.5259597 2.47845317,23.2101837 2.70979107,22.9761871 L21.3535926,4.11811973 L22.775863,5.52423027 L5.39484032,23.1050062 L29.8379613,23.1050062 Z" fill="#666666" fill-rule="nonzero"></path>
    </g>
</svg>