<?xml version="1.0" encoding="UTF-8" standalone="no"?>
<svg width="32px" height="32px" viewBox="0 0 32 32" version="1.1" xmlns="http://www.w3.org/2000/svg" xmlns:xlink="http://www.w3.org/1999/xlink">
    <!-- Generator: Sketch 49.3 (51167) - http://www.bohemiancoding.com/sketch -->
    <title>Print</title>
    <desc>Created with Sketch.</desc>
    <defs></defs>
    <g stroke="none" stroke-width="1" fill="none" fill-rule="evenodd">
        <rect fill="#F3F3F3" fill-rule="nonzero" x="7" y="20" width="18" height="11"></rect>
        <path d="M30.85712,6 L29.7143,6 L26,6 L26,0 L6,0 L6,6 L2.28571,6 L0,6 L0,8 L0,24 L0,25.14282 L0,26 L6,26 L6,32 L26,32 L26,26 L32,26 L32,25.14282 L32,24 L32,6 L30.85712,6 Z M7,1 L25,1 L25,12 L7,12 L7,1 Z M25,31 L7,31 L7,20 L25,20 L25,31 Z M31,25 L27,25 L27,19 L26.28571,19 L5.71429,19 L5,19 L5,25 L1,25 L1,7 L5,7 L5,13 L6,13 L26,13 L27,13 L27,7 L31,7 L31,25 Z" fill="#333333" fill-rule="nonzero"></path>
        <rect fill="#F3F3F3" fill-rule="nonzero" x="7" y="1" width="18" height="11"></rect>
        <rect fill="#BBBBBB" fill-rule="nonzero" x="8" y="20" width="16" height="10"></rect>
        <polygon fill="#818181" fill-rule="nonzero" points="1 16 1 18 1 19 1 25 5 25 5 19 27 19 27 25 31 25 31 19 31 16"></polygon>
        <polygon fill="#F3F3F3" fill-rule="nonzero" points="1 16 1 14 1 13 1 7 5 7 5 13 27 13 27 7 31 7 31 13 31 16"></polygon>
    </g>
</svg>