<?xml version="1.0" encoding="UTF-8" standalone="no"?>
<svg width="32px" height="32px" viewBox="0 0 32 32" version="1.1" xmlns="http://www.w3.org/2000/svg" xmlns:xlink="http://www.w3.org/1999/xlink">
    <!-- Generator: Sketch 49.3 (51167) - http://www.bohemiancoding.com/sketch -->
    <title>ProjectClosed</title>
    <desc>Created with Sketch.</desc>
    <defs></defs>
    <g stroke="none" stroke-width="1" fill="none" fill-rule="evenodd">
        <path d="M25.1848185,2.94710979 C22.4257426,-0.14284737 7,1.37060103 7,1.37060103 L7,29.9369396 L7.25082508,29.9369396 C7.25082508,29.9369396 11.0759076,30 16.9075908,30 C20.6072607,30 23.0528053,29.5585775 24.369637,29.0540947 C25.1221122,28.8018533 25.4983498,28.6126723 25.4983498,28.6126723 L25.7491749,23.693965 C25.7491749,23.693965 19.1650165,23.9462064 16.1551155,23.3786632 C13.3960396,22.8741804 13.5214521,18.7752577 15.9669967,18.7752577 C24.0561056,18.7752577 24.0561056,15.9375419 23.6171617,13.2890072 C20.4191419,13.0367658 16.970297,12.9106451 15.4026403,12.4061623 C13.709571,11.9016795 13.7722772,8.748662 16.1551155,8.3702999 C17.7854785,8.1180585 25.7491749,8.81172235 26,7.67663605 L26,7.55051535 C25.8745875,6.6046101 25.1848185,2.94710979 25.1848185,2.94710979 Z" fill="#DC7F24"></path>
        <path d="M24.6473191,24.3635446 C23.1605163,24.398535 21.5982011,24.4041355 20.1327693,24.3615328 C18.4258178,24.3119087 17.0297232,24.2010063 16.0388595,24.0131135 C12.5496271,23.3715586 12.5107947,17.9523016 15.9954593,17.9523016 C19.4693054,17.9523016 21.4468382,17.4116231 22.296249,16.4822319 C22.8155865,15.9139937 22.9447787,15.2022732 22.7976414,13.9948452 C22.6583042,13.9869066 22.5046638,13.9782261 22.327882,13.9682869 C22.2084788,13.9615772 22.2084788,13.9615772 22.0890518,13.9548711 C17.9781871,13.7240078 16.3975045,13.5750888 15.2197838,13.1937762 C12.6091102,12.4115264 13.0844934,8.19580429 16.0599473,7.72070783 C16.5820046,7.63948625 17.2096619,7.63754672 19.4408676,7.67405306 C20.0817648,7.68453923 20.4578383,7.68980185 20.8649629,7.69314776 C22.2921685,7.7048771 23.3312889,7.68026951 24.1132357,7.60224862 C24.4918948,7.56446686 24.7916555,7.51484105 25,7.45708543 C24.936816,7.0546043 24.8297155,6.43375899 24.6901067,5.65499798 C24.6766589,5.58003227 24.6766589,5.58003227 24.6631912,5.50514243 C24.574087,5.0099566 24.4785725,4.48775154 24.3830523,3.97125237 C24.3506718,3.79616339 24.3223624,3.64369845 24.2992764,3.51974222 C23.2783966,2.61992695 21.0654672,2.10215154 17,2.01418697 C14.867364,1.9680431 11.8828368,2.03726928 9.62476458,2.18105459 C9.03398934,2.21867287 8.48865037,2.2588321 8,2.29908627 L8,29 C8.53005665,29.0068932 14.5053758,29 17,29 C20.1875208,29 22.5538971,28.6549735 23.9710932,28.1097607 C24.1976399,28.0333942 24.3988286,27.9595304 24.5746657,27.8897592 L24.753612,24.3609851 C24.7186625,24.361846 24.6832279,24.3626996 24.6473191,24.3635446 Z M25.1848185,2.94710979 C25.1848185,2.94710979 25.8745875,6.6046101 26,7.55051535 L26,7.67663605 C25.7491749,8.81172235 17.7854785,8.1180585 16.1551155,8.3702999 C13.7722772,8.748662 13.709571,11.9016795 15.4026403,12.4061623 C16.970297,12.9106451 20.4191419,13.0367658 23.6171617,13.2259469 C24.0561056,15.9375419 24.0561056,18.7752577 15.9669967,18.7752577 C13.5214521,18.7752577 13.3960396,22.8741804 16.1551155,23.3786632 C19.1650165,23.9462064 25.7491749,23.693965 25.7491749,23.693965 L25.4983498,28.6126723 C25.4983498,28.6126723 25.1221122,28.8018533 24.369637,29.0540947 C23.0528053,29.5585775 20.6072607,30 16.9075908,30 C11.0759076,30 7,29.9369396 7,29.9369396 L7,1.37060103 C7,1.37060103 22.4257426,-0.14284737 25.1848185,2.94710979 Z" fill="#000000" fill-rule="nonzero" opacity="0.1"></path>
    </g>
</svg>