<?xml version="1.0" encoding="UTF-8" standalone="no"?>
<svg width="32px" height="32px" viewBox="0 0 32 32" version="1.1" xmlns="http://www.w3.org/2000/svg" xmlns:xlink="http://www.w3.org/1999/xlink">
    <!-- Generator: Sketch 49.3 (51167) - http://www.bohemiancoding.com/sketch -->
    <title>QuickRouteSmooth</title>
    <desc>Created with Sketch.</desc>
    <defs></defs>
    <g stroke="none" stroke-width="1" fill="none" fill-rule="evenodd">
        <polygon fill="#666666" fill-rule="nonzero" points="14.5 18.295 15.828 21.795 19.706 23.5 15.828 24.317 14.5 28.705 13.056 24.317 9.294 23.5 13.056 21.795"></polygon>
        <polygon fill="#666666" fill-rule="nonzero" points="7.5 6.997 9.159 11.37 14.003 13.5 9.159 14.521 7.5 20.003 5.696 14.521 0.997 13.5 5.696 11.37"></polygon>
        <polygon fill="#666666" fill-rule="nonzero" points="4.5 22.871 5.425 25.312 8.128 26.5 5.425 27.07 4.5 30.129 3.494 27.07 0.872 26.5 3.494 25.312"></polygon>
        <polygon fill="#008DE9" fill-rule="nonzero" points="29.337 30.447 18 16.534 18 5 0 5 0 2 21 2 21 15.466 31.663 28.553"></polygon>
    </g>
</svg>