<?xml version="1.0" encoding="UTF-8" standalone="no"?>
<svg width="32px" height="32px" viewBox="0 0 32 32" version="1.1" xmlns="http://www.w3.org/2000/svg" xmlns:xlink="http://www.w3.org/1999/xlink">
    <!-- Generator: Sketch 49.3 (51167) - http://www.bohemiancoding.com/sketch -->
    <title>QuickRouteAirwire</title>
    <desc>Created with Sketch.</desc>
    <defs></defs>
    <g stroke="none" stroke-width="1" fill="none" fill-rule="evenodd">
        <polygon fill="#666666" fill-rule="nonzero" points="0 23.5 12.75 15 9 22 17 23.5 4.25 32 8 25"></polygon>
        <g transform="translate(6.000000, 5.000000)" fill-rule="nonzero">
            <path d="M17.269,8.056 L20.342,3.83 C19.333,3.559 18.466,2.955 17.867,2.133 L14.881,6.239 C15.869,6.561 16.712,7.2 17.269,8.056 Z" fill="#008DE9"></path>
            <path d="M20.542,18.107 L17.184,13.071 C16.6,13.905 15.737,14.517 14.735,14.806 L18.001,19.704 C18.635,18.914 19.517,18.332 20.542,18.107 Z" fill="#666666"></path>
            <path d="M11.027,6.747 L2.771,0.85 C2.457,1.842 1.825,2.691 0.974,3.253 L9.23,9.15 C9.544,8.158 10.176,7.31 11.027,6.747 Z" fill="#666666"></path>
        </g>
        <g fill-rule="nonzero">
            <path d="M8,4.5 C8,6.432 6.433,8 4.5,8 C2.567,8 1,6.432 1,4.5 C1,2.568 2.567,1 4.5,1 C6.433,1 8,2.568 8,4.5 Z" fill="#F3F3F3"></path>
            <path d="M4.5,1 C6.433,1 8,2.568 8,4.5 C8,6.432 6.433,8 4.5,8 C2.567,8 1,6.432 1,4.5 C1,2.568 2.567,1 4.5,1 Z M4.5,0 C2.019,0 0,2.019 0,4.5 C0,6.981 2.019,9 4.5,9 C6.981,9 9,6.981 9,4.5 C9,2.019 6.981,0 4.5,0 Z" fill="#666666"></path>
        </g>
        <g transform="translate(15.000000, 11.000000)" fill-rule="nonzero">
            <path d="M8,4.5 C8,6.432 6.433,8 4.5,8 C2.567,8 1,6.432 1,4.5 C1,2.568 2.567,1 4.5,1 C6.433,1 8,2.568 8,4.5 Z" fill="#F3F3F3"></path>
            <path d="M4.5,1 C6.433,1 8,2.568 8,4.5 C8,6.432 6.433,8 4.5,8 C2.567,8 1,6.432 1,4.5 C1,2.568 2.567,1 4.5,1 Z M4.5,0 C2.019,0 0,2.019 0,4.5 C0,6.981 2.019,9 4.5,9 C6.981,9 9,6.981 9,4.5 C9,2.019 6.981,0 4.5,0 Z" fill="#666666"></path>
        </g>
        <g transform="translate(23.000000, 0.000000)" fill-rule="nonzero">
            <path d="M8,4.5 C8,6.432 6.433,8 4.5,8 C2.567,8 1,6.432 1,4.5 C1,2.568 2.567,1 4.5,1 C6.433,1 8,2.568 8,4.5 Z" fill="#B9DDF7"></path>
            <path d="M4.5,1 C6.433,1 8,2.568 8,4.5 C8,6.432 6.433,8 4.5,8 C2.567,8 1,6.432 1,4.5 C1,2.568 2.567,1 4.5,1 Z M4.5,0 C2.019,0 0,2.019 0,4.5 C0,6.981 2.019,9 4.5,9 C6.981,9 9,6.981 9,4.5 C9,2.019 6.981,0 4.5,0 Z" fill="#178FE6"></path>
        </g>
        <g transform="translate(23.000000, 23.000000)" fill-rule="nonzero">
            <path d="M8,4.5 C8,6.432 6.433,8 4.5,8 C2.567,8 1,6.432 1,4.5 C1,2.568 2.567,1 4.5,1 C6.433,1 8,2.568 8,4.5 Z" fill="#F3F3F3"></path>
            <path d="M4.5,1 C6.433,1 8,2.568 8,4.5 C8,6.432 6.433,8 4.5,8 C2.567,8 1,6.432 1,4.5 C1,2.568 2.567,1 4.5,1 Z M4.5,0 C2.019,0 0,2.019 0,4.5 C0,6.981 2.019,9 4.5,9 C6.981,9 9,6.981 9,4.5 C9,2.019 6.981,0 4.5,0 Z" fill="#666666"></path>
        </g>
    </g>
</svg>