<?xml version="1.0" encoding="UTF-8" standalone="no"?>
<svg width="32px" height="32px" viewBox="0 0 32 32" version="1.1" xmlns="http://www.w3.org/2000/svg" xmlns:xlink="http://www.w3.org/1999/xlink">
    <!-- Generator: Sketch 49.3 (51167) - http://www.bohemiancoding.com/sketch -->
    <title>Ratsnest</title>
    <desc>Created with Sketch.</desc>
    <defs></defs>
    <g stroke="none" stroke-width="1" fill="none" fill-rule="evenodd">
        <g transform="translate(6.000000, 7.000000)" fill="#999999" fill-rule="nonzero">
            <path d="M11.944,13.269 L17.239,17.12 C17.561,16.132 18.2,15.289 19.055,14.732 L13.76,10.881 C13.439,11.869 12.8,12.712 11.944,13.269 Z"></path>
            <path d="M13.652,7.771 L19.431,2.473 C18.521,1.997 17.786,1.235 17.375,0.288 L11.626,5.559 C12.527,6.047 13.254,6.817 13.652,7.771 Z"></path>
            <path d="M8.341,5.17 L5.134,0.131 C4.536,0.954 3.668,1.559 2.658,1.83 L5.865,6.869 C6.464,6.046 7.332,5.441 8.341,5.17 Z"></path>
            <path d="M5.451,11.428 L0.428,16.451 C1.357,16.895 2.105,17.643 2.549,18.572 L7.572,13.549 C6.644,13.104 5.895,12.356 5.451,11.428 Z"></path>
        </g>
        <g transform="translate(3.000000, 0.000000)" fill-rule="nonzero">
            <path d="M8,4.5 C8,6.432 6.433,8 4.5,8 C2.567,8 1,6.432 1,4.5 C1,2.568 2.567,1 4.5,1 C6.433,1 8,2.568 8,4.5 Z" fill="#F3F3F3"></path>
            <path d="M4.5,1 C6.433,1 8,2.568 8,4.5 C8,6.432 6.433,8 4.5,8 C2.567,8 1,6.432 1,4.5 C1,2.568 2.567,1 4.5,1 Z M4.5,0 C2.019,0 0,2.019 0,4.5 C0,6.981 2.019,9 4.5,9 C6.981,9 9,6.981 9,4.5 C9,2.019 6.981,0 4.5,0 Z" fill="#333333"></path>
        </g>
        <g transform="translate(11.000000, 12.000000)" fill-rule="nonzero">
            <path d="M8,4.5 C8,6.432 6.433,8 4.5,8 C2.567,8 1,6.432 1,4.5 C1,2.568 2.567,1 4.5,1 C6.433,1 8,2.568 8,4.5 Z" fill="#F3F3F3"></path>
            <path d="M4.5,1 C6.433,1 8,2.568 8,4.5 C8,6.432 6.433,8 4.5,8 C2.567,8 1,6.432 1,4.5 C1,2.568 2.567,1 4.5,1 Z M4.5,0 C2.019,0 0,2.019 0,4.5 C0,6.981 2.019,9 4.5,9 C6.981,9 9,6.981 9,4.5 C9,2.019 6.981,0 4.5,0 Z" fill="#333333"></path>
        </g>
        <g transform="translate(0.000000, 23.000000)" fill-rule="nonzero">
            <path d="M8,4.5 C8,6.432 6.433,8 4.5,8 C2.567,8 1,6.432 1,4.5 C1,2.568 2.567,1 4.5,1 C6.433,1 8,2.568 8,4.5 Z" fill="#F3F3F3"></path>
            <path d="M4.5,1 C6.433,1 8,2.568 8,4.5 C8,6.432 6.433,8 4.5,8 C2.567,8 1,6.432 1,4.5 C1,2.568 2.567,1 4.5,1 Z M4.5,0 C2.019,0 0,2.019 0,4.5 C0,6.981 2.019,9 4.5,9 C6.981,9 9,6.981 9,4.5 C9,2.019 6.981,0 4.5,0 Z" fill="#333333"></path>
        </g>
        <g transform="translate(23.000000, 21.000000)" fill-rule="nonzero">
            <path d="M8,4.5 C8,6.432 6.433,8 4.5,8 C2.567,8 1,6.432 1,4.5 C1,2.568 2.567,1 4.5,1 C6.433,1 8,2.568 8,4.5 Z" fill="#F3F3F3"></path>
            <path d="M4.5,1 C6.433,1 8,2.568 8,4.5 C8,6.432 6.433,8 4.5,8 C2.567,8 1,6.432 1,4.5 C1,2.568 2.567,1 4.5,1 Z M4.5,0 C2.019,0 0,2.019 0,4.5 C0,6.981 2.019,9 4.5,9 C6.981,9 9,6.981 9,4.5 C9,2.019 6.981,0 4.5,0 Z" fill="#333333"></path>
        </g>
        <g transform="translate(23.000000, 1.000000)" fill-rule="nonzero">
            <path d="M8,4.5 C8,6.432 6.433,8 4.5,8 C2.567,8 1,6.432 1,4.5 C1,2.568 2.567,1 4.5,1 C6.433,1 8,2.568 8,4.5 Z" fill="#F3F3F3"></path>
            <path d="M4.5,1 C6.433,1 8,2.568 8,4.5 C8,6.432 6.433,8 4.5,8 C2.567,8 1,6.432 1,4.5 C1,2.568 2.567,1 4.5,1 Z M4.5,0 C2.019,0 0,2.019 0,4.5 C0,6.981 2.019,9 4.5,9 C6.981,9 9,6.981 9,4.5 C9,2.019 6.981,0 4.5,0 Z" fill="#333333"></path>
        </g>
    </g>
</svg>