<?xml version="1.0" encoding="UTF-8" standalone="no"?>
<svg width="32px" height="32px" viewBox="0 0 32 32" version="1.1" xmlns="http://www.w3.org/2000/svg" xmlns:xlink="http://www.w3.org/1999/xlink">
    <!-- Generator: Sketch 50.2 (55047) - http://www.bohemiancoding.com/sketch -->
    <title>Redo</title>
    <desc>Created with Sketch.</desc>
    <defs></defs>
    <g stroke="none" stroke-width="1" fill="none" fill-rule="evenodd">
        <path d="M18,8.73206 L29.96014,16.21454 L18,23.31219 L18,19.5 L18,19 L16.5,19 L10,19 C6.57793,19 3.47787,20.16245 1.15613,22.25787 C1.94283,18.13092 5.60925,14 10,14 L16.5,14 L18,14 L18,12.5 L18,9 L18,8.73206 Z M17,7 L17,13 L10,13 C4.47717,13 0,18.2688 0,23.79163 C0,24.1886 0.07178,24.31568 0.11682,24.70057 C2.28113,21.56091 5.89819,20 10,20 L17,20 L17,25 L32,16.23755 L17,7 Z" fill="#333333" fill-rule="nonzero"></path>
        <path d="M18.5,9.63465608 L18.5,14.5 L10,14.5 C6.57038428,14.5 3.30177816,17.3445814 2.03641479,20.9187068 C4.28245969,19.3449662 7.03611034,18.5 10,18.5 L18.5,18.5 L18.5,22.4340534 L28.9993977,16.2032605 L18.5,9.63465608 Z" stroke="#333333" fill="#333333" fill-rule="nonzero"></path>
    </g>
</svg>