<?xml version="1.0" encoding="UTF-8" standalone="no"?>
<svg width="32px" height="32px" viewBox="0 0 32 32" version="1.1" xmlns="http://www.w3.org/2000/svg" xmlns:xlink="http://www.w3.org/1999/xlink">
    <!-- Generator: Sketch 49.3 (51167) - http://www.bohemiancoding.com/sketch -->
    <title>Regex</title>
    <desc>Created with Sketch.</desc>
    <defs></defs>
    <g stroke="none" stroke-width="1" fill="none" fill-rule="evenodd">
        <g fill="#666666">
            <path d="M8,25.8408203 L8,22.8378906 L11.0029297,22.8378906 L11.0029297,25.8408203 L8,25.8408203 Z M14.5478516,11.3066406 L15.2216797,9.2265625 C16.7744218,9.77344023 17.9023402,10.2470683 18.6054688,10.6474609 C18.4199209,8.87987397 18.3222657,7.66406582 18.3125,7 L20.4365234,7 C20.4072264,7.96680171 20.2949229,9.1777271 20.0996094,10.6328125 C21.1054738,10.1249975 22.257806,9.65625215 23.5566406,9.2265625 L24.2304687,11.3066406 C22.9902282,11.7167989 21.77442,11.9902337 20.5830078,12.1269531 C21.1787139,12.6445338 22.0185493,13.5673762 23.1025391,14.8955078 L21.3447266,16.140625 C20.7783175,15.3691368 20.1093789,14.3193426 19.3378906,12.9912109 C18.6152308,14.3681709 17.9804715,15.4179651 17.4335938,16.140625 L15.7050781,14.8955078 C16.8378963,13.4990165 17.6484351,12.5761741 18.1367188,12.1269531 C16.8769468,11.8828113 15.6806697,11.6093765 14.5478516,11.3066406 Z"></path>
        </g>
    </g>
</svg>