<?xml version="1.0" encoding="UTF-8" standalone="no"?>
<svg width="32px" height="32px" viewBox="0 0 32 32" version="1.1" xmlns="http://www.w3.org/2000/svg" xmlns:xlink="http://www.w3.org/1999/xlink">
    <!-- Generator: Sketch 49.3 (51167) - http://www.bohemiancoding.com/sketch -->
    <title>Replace</title>
    <desc>Created with Sketch.</desc>
    <defs>
        <rect id="path-1" x="0" y="0" width="14" height="12"></rect>
    </defs>
    <g stroke="none" stroke-width="1" fill="none" fill-rule="evenodd">
        <path d="M7,16 C3.691,16 1,18.691 1,22 C1,25.309 3.691,28 7,28 C10.309,28 13,25.309 13,22 C13,18.691 10.309,16 7,16 Z" fill="#F3F3F3" fill-rule="nonzero"></path>
        <g transform="translate(18.000000, 16.000000)">
            <mask id="mask-2" fill="white">
                <use xlink:href="#path-1"></use>
            </mask>
            <g></g>
            <rect fill="#178FE6" fill-rule="nonzero" mask="url(#mask-2)" x="0" y="0" width="14" height="12"></rect>
        </g>
        <path d="M7,29 C3.14,29 0,25.859 0,22 C0,18.141 3.14,15 7,15 C10.86,15 14,18.141 14,22 C14,25.859 10.86,29 7,29 Z M7,16 C3.691,16 1,18.691 1,22 C1,25.309 3.691,28 7,28 C10.309,28 13,25.309 13,22 C13,18.691 10.309,16 7,16 Z" fill="#333333" fill-rule="nonzero"></path>
        <rect fill="#333333" fill-rule="nonzero" x="18" y="16" width="14" height="12"></rect>
        <rect fill="#999999" fill-rule="nonzero" x="19" y="17" width="12" height="10"></rect>
        <path d="M24.149,6.852 L24.126,6.875 C22.203,4.513 19.277,3 16,3 C10.721,3 6.352,6.92 5.62,12 L8.652,12 C9.349,8.581 12.379,6 16.001,6 C18.451,6 20.627,7.184 21.996,9.006 L19,12 L27,12 L27,4 L24.149,6.852 Z" fill="#333333" fill-rule="nonzero"></path>
    </g>
</svg>