<?xml version="1.0" encoding="UTF-8" standalone="no"?>
<svg width="32px" height="32px" viewBox="0 0 32 32" version="1.1" xmlns="http://www.w3.org/2000/svg" xmlns:xlink="http://www.w3.org/1999/xlink">
    <!-- Generator: Sketch 49.3 (51167) - http://www.bohemiancoding.com/sketch -->
    <title>RipupConnectedCopperOnLayer</title>
    <desc>Created with Sketch.</desc>
    <defs></defs>
    <g stroke="none" stroke-width="1" fill="none" fill-rule="evenodd">
        <g transform="translate(4.000000, 3.000000)" fill="#CE2621" fill-rule="nonzero">
            <path d="M17,3.94487076 C16.1034292,3.74291904 15.1542722,3.71074934 14.1958299,3.87729738 C14.1301847,3.88860619 14.0649049,3.90077087 14,3.91377814 L14,3.084961 L0,3.084961 L0,0.084961 L17,0.084961 L17,3.94487076 Z"></path>
            <path d="M19.4714072,16.8801706 L24.2,23.184961 L21.8,24.984961 L16.5900699,18.0383875 C16.608698,18.0353221 16.627331,18.0321817 16.6459685,18.0289662 C17.6913877,17.8473618 18.6464406,17.4456769 19.4714072,16.8801706 Z"></path>
        </g>
        <g transform="translate(4.000000, 18.000000)" fill="#FF3333" fill-rule="nonzero">
            <polygon points="11 2.2 8.799 0 5.5 3.3 2.201 0 0 2.2 3.3 5.5 0 8.8 2.201 11 5.5 7.7 8.799 11 11 8.8 7.7 5.5"></polygon>
        </g>
        <path d="M18.5722644,9.02680826 C21.2827132,8.55581489 23.8864988,10.3675923 24.3630423,13.1119022 C24.8275432,15.8106598 22.9893239,18.4079991 20.2780149,18.8789925 C17.558104,19.3482669 14.9775435,17.5167215 14.510462,14.8136665 C14.0347786,12.0727946 15.8532137,9.49522319 18.5722644,9.02680826" stroke="#11A146" stroke-width="0.82697611" fill="#14B44E"></path>
    </g>
</svg>