<?xml version="1.0" encoding="UTF-8" standalone="no"?>
<svg width="40px" height="40px" viewBox="0 0 40 40" version="1.1" xmlns="http://www.w3.org/2000/svg" xmlns:xlink="http://www.w3.org/1999/xlink">
    <!-- Generator: Sketch 48.2 (47327) - http://www.bohemiancoding.com/sketch -->
    <title>ripup</title>
    <desc>Created with Sketch.</desc>
    <defs>
        <polygon id="path-1" points="0.373705682 12 11.9990866 12 11.9990866 0.365491357 0.373705682 0.365491357 0.373705682 12"></polygon>
    </defs>
    <g stroke="none" stroke-width="1" fill="none" fill-rule="evenodd">
        <g>
            <g>
                <g transform="translate(4.000000, 3.000000)">
                    <g transform="translate(0.000000, 0.000100)">
                        <path d="M2.60449219,4.73915781 C1.3618515,4.73915781 0.354492188,3.7317985 0.354492188,2.48915781 C0.354492188,1.24651713 1.3618515,0.239157813 2.60449219,0.239157813 L17.6897611,0.239157813 C18.9324018,0.239157813 19.9397611,1.24651713 19.9397611,2.48915781 L19.9397611,13.1521724 L32.5202594,29.2584274 C33.2851888,30.2377327 33.1114029,31.6517143 32.1320976,32.4166438 C31.1527923,33.1815732 29.7388107,33.0077872 28.9738812,32.0284819 L15.916572,15.311787 C15.6075964,14.9162192 15.4397611,14.4286958 15.4397611,13.9267597 L15.4397611,4.73915781 L2.60449219,4.73915781 Z" fill="#2B74B9"></path>
                        <g transform="translate(24.000000, 25.000000)">
                            <mask id="mask-2" fill="white">
                                <use xlink:href="#path-1"></use>
                            </mask>
                            <g></g>
                        </g>
                    </g>
                </g>
                <path d="M10.8422337,31.9824255 L8.06115377,34.7645645 C7.28486603,35.5397932 6.00764501,35.5387341 5.23771161,34.7677417 C4.4942546,34.0242846 4.47201443,32.7280006 5.24830216,31.9517129 L8.0293821,29.1674558 L5.24830216,26.3874349 C4.48260498,25.6217377 4.49849082,24.3582844 5.26630611,23.5936463 C6.02353084,22.8332444 7.27745264,22.825831 8.04314982,23.5915282 L10.8252888,26.3736672 L13.648731,23.549166 C14.393247,22.8046499 15.6958854,22.8205357 16.4382833,23.5650518 C17.2092758,24.3349852 17.2060986,25.6175015 16.4626416,26.3620176 L13.6391995,29.1865188 L16.4223975,31.9707759 C17.1870356,32.7375321 17.1955081,34.0073398 16.4382833,34.7677417 C15.6736452,35.5334388 14.393247,35.5334388 13.6254317,34.7677417 L10.8422337,31.9824255 Z" fill="#DD203C"></path>
            </g>
        </g>
    </g>
</svg>