<?xml version="1.0" encoding="UTF-8" standalone="no"?>
<svg width="32px" height="32px" viewBox="0 0 32 32" version="1.1" xmlns="http://www.w3.org/2000/svg" xmlns:xlink="http://www.w3.org/1999/xlink">
    <!-- Generator: Sketch 49.3 (51167) - http://www.bohemiancoding.com/sketch -->
    <title>RipupSignal</title>
    <desc>Created with Sketch.</desc>
    <defs></defs>
    <g stroke="none" stroke-width="1" fill="none" fill-rule="evenodd">
        <g transform="translate(3.603474, 1.335969)">
            <g transform="translate(0.000000, 11.000000)">
                <path d="M0.350907132,0.256367152 C1.25640845,0.491369907 2.22541561,0.542284224 3.20777159,0.372795389 C3.25633196,0.364359754 3.30468666,0.355423224 3.35283126,0.345992073 L3.39652555,7.71566712 L8.39652555,13.7329102 L12.0031956,13.7329102 L13.3349446,15.0647119 L11.6668124,16.7329102 L7.2707032,16.7329102 L0.396525552,8.51607961 L0.350907132,0.256367152 Z M21.1275967,16.7329102 L19.4594645,15.0647119 L20.7912136,13.7329102 L26.4528249,13.7329102 L26.4528249,16.7329102 L21.1275967,16.7329102 Z" fill="#008DE9" fill-rule="nonzero"></path>
                <polygon fill="#FF3333" points="20.3965256 12.7640314 18.7957983 11.1640314 16.3965256 13.5640314 13.9972528 11.1640314 12.3965256 12.7640314 14.7965256 15.1640314 12.3965256 17.5640314 13.9972528 19.1640314 16.3965256 16.7640314 18.7957983 19.1640314 20.3965256 17.5640314 17.9965256 15.1640314"></polygon>
            </g>
            <g transform="translate(8.396526, 0.164031)" fill-rule="nonzero">
                <path d="M0.19687118,2.59277344 L3.87952897,2.59277344 L5.40975516,4.09277344 L3.87952897,5.59277344 L0.381409257,5.59277344 C0.501492404,4.86916438 0.504750118,4.11528554 0.373979072,3.35550369 C0.3287216,3.09487582 0.269374514,2.84042449 0.19687118,2.59277344 Z M12.201467,2.59277344 L18,2.59277344 L18,5.59277344 L12.201467,5.59277344 L10.6712408,4.09277344 L12.201467,2.59277344 Z" fill="#008DE9"></path>
                <polygon fill="#FF3333" points="12 1.6 10.3992727 0 8 2.4 5.60072727 0 4 1.6 6.4 4 4 6.4 5.60072727 8 8 5.6 10.3992727 8 12 6.4 9.6 4"></polygon>
            </g>
        </g>
        <path d="M4.80049385,1.07443813 C7.51094267,0.603444766 10.1147283,2.41522217 10.5912718,5.15953206 C11.0557727,7.85828967 9.21755341,10.455629 6.50624441,10.9266224 C3.78633354,11.3958968 1.20577294,9.5643514 0.738691475,6.86129641 C0.263008138,4.12042443 2.08144317,1.54285307 4.80049385,1.07443813" stroke="#11A146" stroke-width="0.82697611" fill="#14B44E"></path>
    </g>
</svg>