<?xml version="1.0" encoding="UTF-8" standalone="no"?>
<svg width="32px" height="32px" viewBox="0 0 32 32" version="1.1" xmlns="http://www.w3.org/2000/svg" xmlns:xlink="http://www.w3.org/1999/xlink">
    <!-- Generator: Sketch 49.3 (51167) - http://www.bohemiancoding.com/sketch -->
    <title>Ripup</title>
    <desc>Created with Sketch.</desc>
    <defs></defs>
    <g stroke="none" stroke-width="1" fill="none" fill-rule="evenodd">
        <polygon fill="#FF3333" fill-rule="nonzero" points="22 12.2 19.799 10 16.5 13.3 13.201 10 11 12.2 14.3 15.5 11 18.8 13.201 21 16.5 17.7 19.799 21 22 18.8 18.7 15.5"></polygon>
        <path d="M8.724,3 C8.892,3.472 9,3.972 9,4.5 C9,5.028 8.892,5.528 8.724,6 L15,6 L15,10.244 L16.5,11.744 L18,10.244 L18,3 L8.724,3 Z" fill="#008DE9" fill-rule="nonzero"></path>
        <path d="M25.454,23.516 L22.047,20.309 L20.577,21.779 L20.02,22.336 L23.427,25.616 C23.85,24.707 24.566,23.973 25.454,23.516 Z" fill="#008DE9" fill-rule="nonzero"></path>
        <g transform="translate(22.000000, 23.000000)" fill-rule="nonzero">
            <path d="M9.99647621,4.5 C9.99647621,6.984 7.98176193,9 5.49647621,9 C3.0111905,9 0.996476212,6.984 0.996476212,4.5 C0.996476212,2.016 3.0111905,0 5.49647621,0 C7.98176193,0 9.99647621,2.016 9.99647621,4.5 Z" fill="#14B44E"></path>
            <path d="M5.5,1 C7.433,1 9,2.568 9,4.5 C9,6.432 7.433,8 5.5,8 C3.567,8 2,6.432 2,4.5 C2,2.568 3.567,1 5.5,1 Z M5.5,0 C3.019,0 1,2.019 1,4.5 C1,6.981 3.019,9 5.5,9 C7.981,9 10,6.981 10,4.5 C10,2.019 7.981,0 5.5,0 Z" fill="#000000" opacity="0.1"></path>
        </g>
        <g transform="translate(-1.000000, 0.000000)" fill-rule="nonzero">
            <path d="M9.99647621,4.5 C9.99647621,6.984 7.98176193,9 5.49647621,9 C3.0111905,9 0.996476212,6.984 0.996476212,4.5 C0.996476212,2.016 3.0111905,0 5.49647621,0 C7.98176193,0 9.99647621,2.016 9.99647621,4.5 Z" fill="#14B44E"></path>
            <path d="M5.5,1 C7.433,1 9,2.568 9,4.5 C9,6.432 7.433,8 5.5,8 C3.567,8 2,6.432 2,4.5 C2,2.568 3.567,1 5.5,1 Z M5.5,0 C3.019,0 1,2.019 1,4.5 C1,6.981 3.019,9 5.5,9 C7.981,9 10,6.981 10,4.5 C10,2.019 7.981,0 5.5,0 Z" fill="#000000" opacity="0.1"></path>
        </g>
    </g>
</svg>