<?xml version="1.0" encoding="UTF-8" standalone="no"?>
<svg width="32px" height="32px" viewBox="0 0 32 32" version="1.1" xmlns="http://www.w3.org/2000/svg" xmlns:xlink="http://www.w3.org/1999/xlink">
    <!-- Generator: Sketch 49.3 (51167) - http://www.bohemiancoding.com/sketch -->
    <title>RipupPolygons</title>
    <desc>Created with Sketch.</desc>
    <defs></defs>
    <g stroke="none" stroke-width="1" fill="none" fill-rule="evenodd">
        <g transform="translate(9.110840, 2.430176)" fill-rule="nonzero">
            <polygon fill="#F3F3F3" points="18.6541016 7.03870997 15.3482578 16.847371 4.65132863 16.847371 1.34548489 7.03870997 9.99979323 0.979172322"></polygon>
            <path d="M17.4995,7.22195653 L14.6345884,16.1333008 L5.36441157,16.1333008 L2.4995,7.22146663 L9.9995,1.9701478 L17.4995,7.22195653 Z M9.99979323,0.279886188 L0.655814453,6.82276227 L4.22497624,17.4121138 L15.7740238,17.4121138 L19.3431855,6.82276227 L9.99979323,0.279886188 Z" fill="#333333"></path>
        </g>
        <g transform="translate(3.000000, 18.500000)" fill="#FF3333" fill-rule="nonzero">
            <polygon points="11 2.7 8.799 0.5 5.5 3.8 2.201 0.5 0 2.7 3.3 6 0 9.3 2.201 11.5 5.5 8.2 8.799 11.5 11 9.3 7.7 6"></polygon>
        </g>
    </g>
</svg>