<?xml version="1.0" encoding="UTF-8" standalone="no"?>
<svg width="32px" height="32px" viewBox="0 0 32 32" version="1.1" xmlns="http://www.w3.org/2000/svg" xmlns:xlink="http://www.w3.org/1999/xlink">
    <!-- Generator: Sketch 49.3 (51167) - http://www.bohemiancoding.com/sketch -->
    <title>RipupConnectedPath</title>
    <desc>Created with Sketch.</desc>
    <defs></defs>
    <g stroke="none" stroke-width="1" fill="none" fill-rule="evenodd">
        <path d="M21.9473469,17.5154248 C21.0190245,17.9076543 20.2135588,18.5047966 19.5766492,19.2430384 L18,17.5 L18,6 L4,6 L4,3 L21,3 L21,16.5 L21.9473469,17.5154248 Z" fill="#008DE9" fill-rule="nonzero"></path>
        <g transform="translate(4.000000, 18.000000)" fill="#FF3333" fill-rule="nonzero">
            <polygon points="11 2.2 8.799 0 5.5 3.3 2.201 0 0 2.2 3.3 5.5 0 8.8 2.201 11 5.5 7.7 8.799 11 11 8.8 7.7 5.5"></polygon>
        </g>
        <path d="M23.6374079,18.5744381 C26.3478567,18.1034448 28.9516424,19.9152222 29.4281859,22.6595321 C29.8926868,25.3582897 28.0544675,27.955629 25.3431585,28.4266224 C22.6232476,28.8958968 20.042687,27.0643514 19.5756055,24.3612964 C19.0999222,21.6204244 20.9183572,19.0428531 23.6374079,18.5744381" stroke="#11A146" stroke-width="0.82697611" fill="#14B44E"></path>
    </g>
</svg>