<?xml version="1.0" encoding="UTF-8" standalone="no"?>
<svg width="32px" height="32px" viewBox="0 0 32 32" version="1.1" xmlns="http://www.w3.org/2000/svg" xmlns:xlink="http://www.w3.org/1999/xlink">
    <!-- Generator: Sketch 49.3 (51167) - http://www.bohemiancoding.com/sketch -->
    <title>Run</title>
    <desc>Created with Sketch.</desc>
    <defs></defs>
    <g stroke="none" stroke-width="1" fill="none" fill-rule="evenodd">
        <polygon fill="#DB8441" points="0 1.97919286e-16 32 1.97919286e-16 32 32 1.67989245e-15 32 1.67989245e-15 0"></polygon>
        <path d="M5.66424797,10.2592597 L8.16286773,10.2592597 C9.03125838,10.2592597 9.65437492,10.500625 10.196503,11.1045408 C10.6819498,11.6478241 10.8261693,12.1688331 10.8261693,13.0418135 L10.8261693,21.2408829 C10.8261693,21.8876259 10.4767278,22.2592597 9.80779241,22.2592597 C9.14018988,22.2592597 8.78941557,21.886959 8.78941557,21.2408829 L8.78941557,13.0418135 C8.78941557,12.401266 8.69061034,12.2960134 8.16286773,12.2960134 L5.66424797,12.2960134 C5.13600844,12.2960134 5.03770013,12.4008221 5.03770013,13.0418135 L5.03770013,21.2408829 C5.03770013,21.8871286 4.68673283,22.2592597 4.01837684,22.2592597 C3.35077431,22.2592597 3,21.886959 3,21.2408829 L3,13.0418135 C3,12.1685503 3.1444204,11.6475976 3.63104865,11.1040541 C4.17274079,10.500625 4.79585732,10.2592597 5.66424797,10.2592597 Z" fill="#FFFFFF" fill-rule="nonzero" transform="translate(6.913085, 16.259260) scale(1, -1) translate(-6.913085, -16.259260) "></path>
        <path d="M14.2831376,12.2960134 L14.2831376,21.2408829 C14.2831376,21.887292 13.9330296,22.2592597 13.2647607,22.2592597 C12.5964047,22.2592597 12.2454374,21.8871286 12.2454374,21.2408829 L12.2454374,10.2592597 L19.0541763,10.2592597 C19.6414381,10.2592597 20.0725531,10.6325926 20.0725531,11.278583 C20.0725531,11.923833 19.6414692,12.2960134 19.0541763,12.2960134 L14.2831376,12.2960134 Z" fill="#FFFFFF" fill-rule="nonzero" transform="translate(16.158995, 16.259260) scale(1, -1) translate(-16.158995, -16.259260) "></path>
        <path d="M22.542843,21.488335 C22.542843,21.9820844 22.3262687,22.2592597 21.7719182,22.2592597 C21.2165742,22.2592597 21,21.9820844 21,21.488335 L21,10.2592597 L26.1212849,10.2592597 C26.8286282,10.2592597 27.338273,10.3675468 27.8956039,10.8911001 C28.5582416,11.509032 28.6198361,12.0792779 28.6198361,12.9117972 L28.6198361,15.0109776 C28.6198361,15.7968042 28.5582416,16.3521482 27.9860088,16.9839886 C27.3849656,17.663515 26.7531253,17.7251095 25.920606,17.7251095 L22.542843,17.7251095 L22.542843,21.488335 Z M22.8369676,12.1632316 L22.8369676,15.9632315 L25.818508,15.9632315 C26.612143,15.9632315 26.7869677,15.762415 26.7869677,15.0005189 L26.7869677,13.1268061 C26.7869677,12.3640481 26.612143,12.1632316 25.818508,12.1632316 L22.8369676,12.1632316 Z" fill="#FFFFFF"></path>
    </g>
</svg>