<?xml version="1.0" encoding="UTF-8" standalone="no"?>
<svg width="32px" height="32px" viewBox="0 0 32 32" version="1.1" xmlns="http://www.w3.org/2000/svg" xmlns:xlink="http://www.w3.org/1999/xlink">
    <!-- Generator: Sketch 49.3 (51167) - http://www.bohemiancoding.com/sketch -->
    <title>Sch</title>
    <desc>Created with Sketch.</desc>
    <defs></defs>
    <g stroke="none" stroke-width="1" fill="none" fill-rule="evenodd">
        <g transform="translate(18.000000, 16.000000) rotate(90.000000) translate(-18.000000, -16.000000) translate(2.000000, 4.000000)" fill-rule="nonzero">
            <polygon fill="#666666" points="32 9 23 9 23 0"></polygon>
            <polygon fill="#F3F3F3" points="23 9 23 0 0 0 0 24 32 24 32 9"></polygon>
            <polygon fill="#666666" points="31 9 31 10 31 13 31 23 1 23 1 1 20 1 22 1 23 1 23 0 0 0 0 24 32 24 32 9"></polygon>
        </g>
        <rect fill="#CE2621" x="2" y="4" width="28" height="16"></rect>
        <path d="M8.48066298,17 C6.79558011,17 5.74585635,16.461326 5,15.7707182 L5.74585635,14.9005525 C6.53314917,15.4254144 7.08563536,15.8259669 8.46685083,15.8259669 C10.0276243,15.8259669 10.6767956,15.0248619 10.6767956,14.320442 L10.6767956,14.140884 C10.6767956,13.339779 10.3038674,12.980663 9.08839779,12.5801105 L7.63812155,12.1104972 C6.00828729,11.5856354 5.38674033,10.7569061 5.38674033,9.70718232 L5.38674033,9.40331492 C5.38674033,8.1878453 6.54696133,7 8.74309392,7 C10.1519337,7 11.2016575,7.44198895 12.058011,8.25690608 L11.3121547,9.05801105 C10.4558011,8.36740331 9.80662983,8.11878453 8.75690608,8.11878453 C7.3480663,8.11878453 6.79558011,8.82320442 6.79558011,9.41712707 L6.79558011,9.67955801 C6.79558011,10.218232 7.27900552,10.660221 8.43922652,11.019337 L9.72375691,11.4198895 C11.0497238,11.8480663 12.0856354,12.4972376 12.0856354,13.9889503 L12.0856354,14.3342541 C12.0856354,15.8812155 10.6767956,17 8.48066298,17 Z M16.3892033,17 C14.0135127,17 12.6875459,15.5497238 12.6875459,13.3950276 L12.6875459,10.839779 C12.6875459,8.47790055 14.1101978,7 16.4582641,7 C17.784231,7 18.6267724,7.4558011 19.3311923,8.0359116 L18.5991481,8.86464088 C18.0466619,8.4640884 17.4389271,8.11878453 16.4997006,8.11878453 C14.9527393,8.11878453 14.0963857,9.11325967 14.0963857,10.8121547 L14.0963857,13.3535912 C14.0963857,14.9696133 14.8698663,15.8812155 16.4030155,15.8812155 C17.3974906,15.8812155 18.0742862,15.5220994 18.6267724,15.1629834 L19.2345072,16.0331492 C18.6129603,16.5165746 17.6322973,17 16.3892033,17 Z M27,7 L27,17 L25.6189555,17 L25.6189555,12.4428571 L21.3810445,12.4428571 L21.3810445,17 L20,17 L20,7 L21.3810445,7 L21.3810445,11.2285714 L25.6189555,11.2285714 L25.6189555,7 L27,7 Z" fill="#FFFFFF"></path>
    </g>
</svg>