<?xml version="1.0" encoding="UTF-8" standalone="no"?>
<svg width="32px" height="32px" viewBox="0 0 32 32" version="1.1" xmlns="http://www.w3.org/2000/svg" xmlns:xlink="http://www.w3.org/1999/xlink">
    <!-- Generator: Sketch 49.3 (51167) - http://www.bohemiancoding.com/sketch -->
    <title>Scr</title>
    <desc>Created with Sketch.</desc>
    <defs></defs>
    <g stroke="none" stroke-width="1" fill="none" fill-rule="evenodd">
        <g transform="translate(18.000000, 16.000000) rotate(90.000000) translate(-18.000000, -16.000000) translate(2.000000, 4.000000)" fill-rule="nonzero">
            <polygon fill="#666666" points="32 9 23 9 23 0"></polygon>
            <polygon fill="#F3F3F3" points="23 9 23 0 0 0 0 24 32 24 32 9"></polygon>
            <polygon fill="#666666" points="31 9 31 10 31 13 31 23 1 23 1 1 20 1 22 1 23 1 23 0 0 0 0 24 32 24 32 9"></polygon>
        </g>
        <rect fill="#196BA6" x="2" y="4" width="28" height="16"></rect>
        <path d="M7.48066298,17 C5.79558011,17 4.74585635,16.461326 4,15.7707182 L4.74585635,14.9005525 C5.53314917,15.4254144 6.08563536,15.8259669 7.46685083,15.8259669 C9.02762431,15.8259669 9.67679558,15.0248619 9.67679558,14.320442 L9.67679558,14.140884 C9.67679558,13.339779 9.3038674,12.980663 8.08839779,12.5801105 L6.63812155,12.1104972 C5.00828729,11.5856354 4.38674033,10.7569061 4.38674033,9.70718232 L4.38674033,9.40331492 C4.38674033,8.1878453 5.54696133,7 7.74309392,7 C9.1519337,7 10.2016575,7.44198895 11.058011,8.25690608 L10.3121547,9.05801105 C9.4558011,8.36740331 8.80662983,8.11878453 7.75690608,8.11878453 C6.3480663,8.11878453 5.79558011,8.82320442 5.79558011,9.41712707 L5.79558011,9.67955801 C5.79558011,10.218232 6.27900552,10.660221 7.43922652,11.019337 L8.72375691,11.4198895 C10.0497238,11.8480663 11.0856354,12.4972376 11.0856354,13.9889503 L11.0856354,14.3342541 C11.0856354,15.8812155 9.67679558,17 7.48066298,17 Z M15.7016575,17 C13.3259669,17 12,15.5497238 12,13.3950276 L12,10.839779 C12,8.47790055 13.4226519,7 15.7707182,7 C17.0966851,7 17.9392265,7.4558011 18.6436464,8.0359116 L17.9116022,8.86464088 C17.359116,8.4640884 16.7513812,8.11878453 15.8121547,8.11878453 C14.2651934,8.11878453 13.4088398,9.11325967 13.4088398,10.8121547 L13.4088398,13.3535912 C13.4088398,14.9696133 14.1823204,15.8812155 15.7154696,15.8812155 C16.7099448,15.8812155 17.3867403,15.5220994 17.9392265,15.1629834 L18.5469613,16.0331492 C17.9254144,16.5165746 16.9447514,17 15.7016575,17 Z M26.8232044,17 L25.2762431,17 L23.1491713,12.9142857 L21.4088398,12.9142857 L21.4088398,17 L20,17 L20,7 L23.0662983,7 C25.0690608,7 26.3950276,7.98571429 26.3950276,9.61428571 L26.3950276,10.3285714 C26.3950276,11.4571429 25.6767956,12.2857143 24.5441989,12.6714286 L26.8232044,17 Z M21.5,8.10999966 L21.5,11.5906626 L23.1436464,11.5906626 C24.3176796,11.5906626 25.0635359,11.0934251 25.0635359,10.1541986 L25.0635359,9.57408805 C25.0635359,8.63486154 24.3038674,8.10999966 23.1298343,8.10999966 L21.5,8.10999966 Z" fill="#FFFFFF"></path>
    </g>
</svg>