<?xml version="1.0" encoding="UTF-8" standalone="no"?>
<svg width="32px" height="32px" viewBox="0 0 32 32" version="1.1" xmlns="http://www.w3.org/2000/svg" xmlns:xlink="http://www.w3.org/1999/xlink">
    <!-- Generator: Sketch 49.3 (51167) - http://www.bohemiancoding.com/sketch -->
    <title>Script</title>
    <desc>Created with Sketch.</desc>
    <defs></defs>
    <g stroke="none" stroke-width="1" fill="none" fill-rule="evenodd">
        <polygon fill="#2B74B9" points="0 1.97919286e-16 32 1.97919286e-16 32 32 1.67989245e-15 32 1.67989245e-15 0"></polygon>
        <path d="M25.2903435,15.9407426 L24.7577135,15.9407426 L27.5608657,19.9152356 C27.6002327,19.9680727 27.6002327,19.9680727 27.6500158,20.0367466 C27.8789897,20.3566271 28,20.6104346 28,20.9125433 C28,21.5427302 27.4802925,22 26.8420066,22 C26.4196406,22 26.1148654,21.7890213 25.8592991,21.4183137 L21.9986488,16.3667951 L21.9986488,20.869201 C21.9986488,21.5730294 21.7329111,22 20.9964043,22 C20.2589728,22 20,21.5734266 20,20.869201 L20,10 L25.2903435,10 C26.7474334,10 28,11.0523815 28,12.4967015 L28,13.4873833 C28,14.9828652 26.7984229,15.9407426 25.2903435,15.9407426 Z M25,12 L22,12 L22,14 L25.1651524,14 C25.6966785,14 26,13.569151 26,13.0118082 C26,12.4544654 25.8739125,12 25,12 Z" fill="#FFFFFF"></path>
        <path d="M5.15588183,12.2605508 C5.15415049,12.2612996 5.152903,12.2616785 5.15223471,12.2617078 C5.1544361,12.2616113 5.15664305,12.2615246 5.15887004,12.2614474 L5.15588183,12.2605508 Z M5.43858648,11.9989022 C5.67420477,13.0155252 10.9963479,18.6020134 10.9963479,19.963517 C10.9963479,21.2227301 9.97924766,22 8.69848245,22 L5.53942928,22 C4.84039137,22 4.30360255,21.8432912 3.82712862,21.4468856 C3.33048722,21.0431642 3,20.615424 3,20 C3,19.2882705 3.45416408,18.7424335 4.17446809,18.7424335 C4.81371302,18.7424335 5.26260957,19.2606228 5.26260957,19.888126 C5.26260957,19.9972814 5.20929737,20 5.48187821,20 L8.42458882,20 L3.56002751,13.4827624 C3.15541945,12.9623122 3,12.6086198 3,12.0502452 C3,11.3365651 3.34304445,10.7173408 3.95021376,10.3250162 C4.122074,10.2141904 4.2928709,10.1360876 4.47206344,10.0849665 C4.7263875,10.0124114 4.91000184,10 5.36552496,10 L8.41072711,10 C9.09491004,10 9.63013767,10.167726 10.1058657,10.577777 C10.5884646,11.0038844 10.9201297,11.3839486 10.9201297,11.9867155 C10.9201297,12.7033129 10.4914898,13.233748 9.76067498,13.233748 C9.1079958,13.233748 8.65626907,12.7832116 8.65626907,12.1456065 C8.65626907,11.9733097 8.6939738,11.9989022 8.38195158,11.9989022 L5.43858648,11.9989022 Z M8.77649494,19.7390493 C8.7804076,19.738867 8.78422146,19.7386487 8.78797894,19.7383937 C8.78670153,19.7384804 8.78528196,19.7386736 8.78373521,19.738979 L8.77649494,19.7390493 Z" fill="#FFFFFF" fill-rule="nonzero"></path>
        <path d="M12.7508115,20.4044773 L11.4319529,17.7367375 C11.1391197,17.1540592 11,16.6382662 11,16.0431688 C11,15.3684496 11.1166523,14.9199613 11.444919,14.2648597 L12.7656307,11.6084333 C13.3239498,10.4760475 14.086773,10 15.3477245,10 L17.7889141,10 C18.4081641,10 18.9221762,10.4069739 18.9221762,11.1320109 C18.9221762,11.8355025 18.405621,11.9990998 17.7889141,11.9990998 L15.3915182,11.9990998 C14.9261742,11.9990998 14.7821195,11.9716201 14.5811608,12.3735374 L13.3338144,15.1318059 C13.1231819,15.5686209 13.0733327,15.7301443 13.0733327,16.0431688 C13.0733327,16.2130271 13.21592,16.6168609 13.3324992,16.8517294 L14.5528884,19.5977569 C14.7550441,20.0117366 14.9208823,19.9986687 15.4478245,19.9986687 L17.7889141,19.9986687 C18.4079226,19.9986687 18.9221762,20.1611116 18.9221762,20.8679904 C18.9221762,21.5748693 18.405621,22.0000013 17.7878673,22 L15.2764032,21.993647 C14.0621963,22.0000013 13.2905481,21.5000848 12.7508115,20.4044773 Z" fill="#FFFFFF" fill-rule="nonzero"></path>
    </g>
</svg>