<?xml version="1.0" encoding="UTF-8"?>
<svg width="32px" height="32px" viewBox="0 0 32 32" version="1.1" xmlns="http://www.w3.org/2000/svg" xmlns:xlink="http://www.w3.org/1999/xlink">
    <!-- Generator: Sketch 50.2 (55047) - http://www.bohemiancoding.com/sketch -->
    <title>Search</title>
    <desc>Created with Sketch.</desc>
    <defs></defs>
    <g id="Search" stroke="none" stroke-width="1" fill="none" fill-rule="evenodd">
        <circle id="Oval" fill="#F3F3F3" fill-rule="nonzero" cx="14" cy="14" r="9"></circle>
        <path d="M14,5 C9.029465,5 5,9.02942 5,14 C5,18.970535 9.029465,23 14,23 C18.970535,23 23,18.970535 23,14 C23,9.02942 18.970535,5 14,5 Z M14,21.5 C9.86438,21.5 6.5,18.1352525 6.5,14 C6.5,9.8647475 9.86438,6.5 14,6.5 C18.1352525,6.5 21.5,9.8647475 21.5,14 C21.5,18.1352525 18.1352525,21.5 14,21.5 Z" id="Shape" fill="#585858" fill-rule="nonzero"></path>
        <path d="M26.7024268,25.1475588 L21.3151474,19.7602794 C20.8515293,20.3305564 20.3305574,20.8515357 19.7602804,21.3151464 L25.1475597,26.7024258 C25.1475597,26.7024258 25.9249969,27.3910905 26.6580479,26.6580396 C27.3910988,25.9249886 26.7024268,25.1475588 26.7024268,25.1475588 Z" id="Shape" fill="#585858" fill-rule="nonzero"></path>
    </g>
</svg>