<?xml version="1.0" encoding="UTF-8" standalone="no"?>
<svg width="40px" height="40px" viewBox="0 0 40 40" version="1.1" xmlns="http://www.w3.org/2000/svg" xmlns:xlink="http://www.w3.org/1999/xlink">
    <!-- Generator: Sketch 46.2 (44496) - http://www.bohemiancoding.com/sketch -->
    <title>settings</title>
    <desc>Created with Sketch.</desc>
    <defs></defs>
    <g stroke="none" stroke-width="1" fill="none" fill-rule="evenodd">
        <g fill="#3C3C3C">
            <path d="M27.0446968,19.5499287 C27.0446968,23.1375853 24.039572,26.0465461 20.5480794,26.0465461 C16.9604227,26.0465461 13.9552979,23.1375853 13.9552979,19.5499287 C13.9552979,15.962272 16.9604227,12.9571472 20.5480794,12.9571472 C24.039572,12.9571472 27.0446968,15.962272 27.0446968,19.5499287 L27.0446968,19.5499287 Z M36.8386296,16.5448039 L34.9967193,16.5448039 C34.3180234,16.5448039 33.7354915,16.2544626 33.5431635,15.5757667 L32.0896078,13.1513245 C31.8954305,12.5687927 31.9934438,11.6977688 32.3799491,11.3094142 L33.9315181,9.85585848 C34.3198727,9.46750389 34.3198727,8.59463073 33.9315181,8.20812545 L31.8954305,6.07587384 C31.3128986,5.59135527 30.6342027,5.59135527 30.1496842,6.07587384 L28.6942791,7.71990826 C28.2097605,8.01024954 27.4330514,8.10826284 26.8523688,7.81607225 L24.4279266,6.45868051 C23.943408,6.36251651 23.3608761,5.68382064 23.3608761,5.00512477 L23.3608761,3.16321445 C23.3608761,2.48451858 22.7783443,2 21.7131431,2 L19.3867142,2 C18.1254865,2 17.7389812,2.48451858 17.7389812,3.16321445 L17.7389812,5.00512477 C17.7389812,5.68382064 17.1564493,6.36251651 16.6719307,6.45868051 L14.1513245,7.81607225 C13.6649567,8.10826284 12.8900968,8.01209885 12.4037289,7.71990826 L10.8540092,6.07217523 C10.4656546,5.58765665 9.69079472,5.58765665 9.30244014,6.07217523 L7.07217523,8.20627614 C6.68382064,8.59463073 6.68382064,9.46750389 7.07217523,9.85400917 L8.62374426,11.3075649 C9.10826284,11.6959195 9.10826284,12.5687927 8.91408555,13.1494752 L7.6528578,15.5739174 C7.36251651,16.2526133 6.77998464,16.5429546 6.10128876,16.5429546 L4.16321445,16.5429546 C3.58068257,16.5429546 3,17.2216505 3,18.3848649 L3,20.5171165 C3,21.8745083 3.58253188,22.2628628 4.16321445,22.2628628 L6.10313807,22.2628628 C6.78183394,22.2628628 7.36436582,22.7473814 7.55669381,23.3299133 L8.91408555,25.8505195 C9.10826284,26.4330514 9.10826284,27.2079112 8.62374426,27.4982525 L7.07217523,29.0498216 C6.68382064,29.6323534 6.68382064,30.3110493 7.07217523,30.6975546 L9.30244014,32.9278195 C9.69079472,33.3161741 10.4656546,33.3161741 10.8540092,32.9278195 L12.4055782,31.3762505 C12.8900968,30.9878959 13.666806,30.7937186 14.1513245,31.1820732 L16.6719307,32.4433009 C17.1564493,32.7336422 17.7389812,33.2181608 17.7389812,33.99487 L17.7389812,35.9347936 C17.7389812,36.4193122 18.1273358,37.001844 19.3867142,37.001844 L21.7131431,37.001844 C22.7801936,37.001844 23.3608761,36.4193122 23.3608761,35.9347936 L23.3608761,33.99487 C23.3608761,33.2200101 23.943408,32.7336422 24.4279266,32.4433009 L26.8523688,31.1820732 C27.4349007,30.7937186 28.2097605,30.9878959 28.6942791,31.3762505 L30.1478349,32.9278195 C30.6323534,33.3161741 31.3110493,33.3161741 31.8935812,32.9278195 L33.9296688,30.6975546 C34.3180234,30.3092 34.3180234,29.6305041 33.9296688,29.0498216 L32.3780998,27.4982525 C31.9897452,27.2079112 31.8935812,26.4312021 32.0877585,25.8505195 L33.5413142,23.3299133 C33.7354915,22.7473814 34.3161741,22.2628628 34.99487,22.2628628 L36.8367803,22.2628628 C37.5154761,22.2628628 37.9999947,21.8745083 37.9999947,20.6151298 L37.9999947,18.3848649 C38.001844,17.2234998 37.5173255,16.5448039 36.8386296,16.5448039 L36.8386296,16.5448039 Z"></path>
        </g>
    </g>
</svg>