<?xml version="1.0" encoding="UTF-8" standalone="no"?>
<svg width="32px" height="32px" viewBox="0 0 32 32" version="1.1" xmlns="http://www.w3.org/2000/svg" xmlns:xlink="http://www.w3.org/1999/xlink">
    <!-- Generator: Sketch 49.3 (51167) - http://www.bohemiancoding.com/sketch -->
    <title>ShapeOffset</title>
    <desc>Created with Sketch.</desc>
    <defs></defs>
    <g stroke="none" stroke-width="1" fill="none" fill-rule="evenodd">
        <path d="M30,16 C30,11.5818667 27.0041912,8 23.3095588,8 L9.69143382,8 C5.99580882,8 3,11.5818667 3,16 C3,20.4181333 5.99580882,24 9.69143382,24 L23.3095588,24 C27.0041912,24 30,20.4181333 30,16" fill="#42AB3D"></path>
        <path d="M30,16 C30,11.5818667 27.0041912,8 23.3095588,8 L9.69143382,8 C5.99580882,8 3,11.5818667 3,16 C3,20.4181333 5.99580882,24 9.69143382,24 L23.3095588,24 C27.0041912,24 30,20.4181333 30,16 M29,16 C29,12.1341333 26.2261029,9 22.8051471,9 L10.1957721,9 C6.77389706,9 4,12.1341333 4,16 C4,19.8658667 6.77389706,23 10.1957721,23 L22.8051471,23 C26.2261029,23 29,19.8658667 29,16" fill="#000000" opacity="0.1"></path>
        <path d="M13.0004791,16 C13.0004791,14.6211192 11.8793599,13.5 10.4995209,13.5 C9.11872365,13.5 7.99952089,14.6211192 7.99952089,16 C7.99952089,17.3807972 9.11872365,18.5 10.4995209,18.5 C11.8793599,18.5 13.0004791,17.3807972 13.0004791,16" fill="#FFFFFF"></path>
    </g>
</svg>