<?xml version="1.0" encoding="UTF-8" standalone="no"?>
<svg width="32px" height="32px" viewBox="0 0 32 32" version="1.1" xmlns="http://www.w3.org/2000/svg" xmlns:xlink="http://www.w3.org/1999/xlink">
    <!-- Generator: Sketch 49.3 (51167) - http://www.bohemiancoding.com/sketch -->
    <title>ShapeOctagon</title>
    <desc>Created with Sketch.</desc>
    <defs></defs>
    <g stroke="none" stroke-width="1" fill="none" fill-rule="evenodd">
        <polygon fill="#42AB3D" points="11.1125735 3 3 11.1431618 3 20.9094118 11.1125735 29 20.8033088 29 28.9789706 20.9094118 29 11.2119853 20.8033088 3"></polygon>
        <path d="M11.1125735,3 L3,11.1431618 L3,20.9094118 L11.1125735,29 L20.8033088,29 L28.9789706,20.9094118 L29,11.2119853 L20.8033088,3 L11.1125735,3 Z M11.4885294,4 L4,11.5167647 L4,20.5317647 L11.4885294,28 L20.4338235,28 L27.9805882,20.5317647 L28,11.5802941 L20.4338235,4 L11.4885294,4 Z" fill="#000000" opacity="0.1"></path>
        <path d="M18.5004791,16 C18.5004791,14.6211192 17.3793599,13.5 15.9995209,13.5 C14.6187236,13.5 13.4995209,14.6211192 13.4995209,16 C13.4995209,17.3807972 14.6187236,18.5 15.9995209,18.5 C17.3793599,18.5 18.5004791,17.3807972 18.5004791,16" fill="#FFFFFF"></path>
    </g>
</svg>