<?xml version="1.0" encoding="UTF-8" standalone="no"?>
<svg width="32px" height="32px" viewBox="0 0 32 32" version="1.1" xmlns="http://www.w3.org/2000/svg" xmlns:xlink="http://www.w3.org/1999/xlink">
    <!-- Generator: Sketch 49.3 (51167) - http://www.bohemiancoding.com/sketch -->
    <title>ShapeRound</title>
    <desc>Created with Sketch.</desc>
    <defs></defs>
    <g stroke="none" stroke-width="1" fill="none" fill-rule="evenodd">
        <path d="M29,16 C29,8.82036765 23.1805882,3 16,3 C8.82132353,3 3,8.82036765 3,16 C3,23.1786765 8.82132353,29 16,29 C23.1805882,29 29,23.1786765 29,16" fill="#42AB3D"></path>
        <path d="M28.037037,16 C28.037037,9.35219227 22.6486928,3.96296296 16,3.96296296 C9.35307734,3.96296296 3.96296296,9.35219227 3.96296296,16 C3.96296296,22.6469227 9.35307734,28.037037 16,28.037037 C22.6486928,28.037037 28.037037,22.6469227 28.037037,16 M29,16 C29,8.82036765 23.1805882,3 16,3 C8.82132353,3 3,8.82036765 3,16 C3,23.1786765 8.82132353,29 16,29 C23.1805882,29 29,23.1786765 29,16" fill="#000000" opacity="0.1"></path>
        <path d="M18.5004791,16 C18.5004791,14.6211192 17.3793599,13.5 15.9995209,13.5 C14.6187236,13.5 13.4995209,14.6211192 13.4995209,16 C13.4995209,17.3807972 14.6187236,18.5 15.9995209,18.5 C17.3793599,18.5 18.5004791,17.3807972 18.5004791,16" fill="#FFFFFF"></path>
    </g>
</svg>