<?xml version="1.0" encoding="UTF-8" standalone="no"?>
<svg width="32px" height="32px" viewBox="0 0 32 32" version="1.1" xmlns="http://www.w3.org/2000/svg" xmlns:xlink="http://www.w3.org/1999/xlink">
    <!-- Generator: Sketch 49.3 (51167) - http://www.bohemiancoding.com/sketch -->
    <title>ShapeSquare</title>
    <desc>Created with Sketch.</desc>
    <defs></defs>
    <g stroke="none" stroke-width="1" fill="none" fill-rule="evenodd">
        <polygon fill="#42AB3D" points="29 3 3 3 3 29 29 29 29 3"></polygon>
        <path d="M29,3 L3,3 L3,29 L29,29 L29,3 L29,3 Z M27.962963,3.96296296 L3.96296296,3.96296296 L3.96296296,27.962963 L27.962963,27.962963 L27.962963,3.96296296 L27.962963,3.96296296 Z" fill="#000000" opacity="0.1"></path>
        <path d="M18.5004791,16 C18.5004791,14.6211192 17.3793599,13.5 15.9995209,13.5 C14.6187236,13.5 13.4995209,14.6211192 13.4995209,16 C13.4995209,17.3807972 14.6187236,18.5 15.9995209,18.5 C17.3793599,18.5 18.5004791,17.3807972 18.5004791,16" fill="#FFFFFF"></path>
    </g>
</svg>