<?xml version="1.0" encoding="UTF-8" standalone="no"?>
<svg width="32px" height="32px" viewBox="0 0 32 32" version="1.1" xmlns="http://www.w3.org/2000/svg" xmlns:xlink="http://www.w3.org/1999/xlink">
    <!-- Generator: Sketch 49.3 (51167) - http://www.bohemiancoding.com/sketch -->
    <title>SheetRemove_D</title>
    <desc>Created with Sketch.</desc>
    <defs></defs>
    <g stroke="none" stroke-width="1" fill="none" fill-rule="evenodd">
        <g>
            <g transform="translate(4.000000, 0.000000)" fill-rule="nonzero">
                <polygon fill="#999999" transform="translate(19.500000, 27.500000) rotate(90.000000) translate(-19.500000, -27.500000) " points="24 32 15 32 15 23"></polygon>
                <polygon fill="#F3F3F3" transform="translate(12.000000, 16.000000) rotate(90.000000) translate(-12.000000, -16.000000) " points="19 13 19 4 -4 4 -4 28 28 28 28 13"></polygon>
                <polygon fill="#999999" transform="translate(12.000000, 16.000000) rotate(90.000000) translate(-12.000000, -16.000000) " points="27 13 27 14 27 17 27 27 -3 27 -3 5 16 5 18 5 19 5 19 4 -4 4 -4 28 28 28 28 13"></polygon>
            </g>
            <rect fill="#BBBBBB" x="0" y="4" width="28" height="16"></rect>
            <rect stroke="#F3F3F3" x="4.5" y="7.53320312" width="19" height="7.96679688"></rect>
        </g>
        <g transform="translate(19.003524, 19.315170)" fill-rule="nonzero">
            <polygon fill="#BBBBBB" points="12.5 3.91803299 10.299 1.71803299 7 5.01803299 3.701 1.71803299 1.5 3.91803299 4.8 7.21803299 1.5 10.518033 3.701 12.718033 7 9.41803299 10.299 12.718033 12.5 10.518033 9.2 7.21803299"></polygon>
            <path d="M12.5,3.91803299 L10.299,1.71803299 L7,5.01803299 L3.701,1.71803299 L1.5,3.91803299 L4.8,7.21803299 L1.5,10.518033 L3.701,12.718033 L7,9.41803299 L10.299,12.718033 L12.5,10.518033 L9.2,7.21803299 L12.5,3.91803299 Z M10.6142136,7.21803299 L13.9143743,10.5181937 L10.2987322,14.132193 L7,10.8324609 L3.70126781,14.132193 L0.0856257498,10.5181937 L3.38578644,7.21803299 L0.0856257498,3.91787231 L3.70126781,0.303872969 L7,3.60360507 L10.2987322,0.303872969 L13.9143743,3.91787231 L10.6142136,7.21803299 Z M7.70721393,10.1250326 L6.29278607,10.1250326 L7,10.8324609 L7.70721393,10.1250326 Z M7,3.60360507 L6.29278607,4.31103337 L7.70721393,4.31103337 L7,3.60360507 Z" fill="#F3F3F3"></path>
            <path d="M10.2992678,3.13219302 L7,6.43246091 L3.70073219,3.13219302 L2.91437425,3.91819368 L6.21421356,7.21803299 L2.91437425,10.5178723 L3.70073219,11.303873 L7,8.00360507 L10.2992678,11.303873 L11.0856257,10.5178723 L7.78578644,7.21803299 L11.0856257,3.91819368 L10.2992678,3.13219302 Z M7,5.01803299 L7.70678538,4.31103337 L10.299,1.71803299 L12.5,3.91803299 L9.2,7.21803299 L12.5,10.518033 L10.299,12.718033 L7,9.41803299 L6.29321462,10.1250326 L3.701,12.718033 L1.5,10.518033 L4.8,7.21803299 L1.5,3.91803299 L3.701,1.71803299 L6.29300035,4.31081903 L7,5.01803299 Z" fill="#000000" opacity="0.1"></path>
        </g>
    </g>
</svg>