<?xml version="1.0" encoding="UTF-8" standalone="no"?>
<svg width="32px" height="32px" viewBox="0 0 32 32" version="1.1" xmlns="http://www.w3.org/2000/svg" xmlns:xlink="http://www.w3.org/1999/xlink">
    <!-- Generator: Sketch 49.3 (51167) - http://www.bohemiancoding.com/sketch -->
    <title>SheetNew</title>
    <desc>Created with Sketch.</desc>
    <defs></defs>
    <g stroke="none" stroke-width="1" fill="none" fill-rule="evenodd">
        <g>
            <g transform="translate(4.000000, 0.000000)" fill-rule="nonzero">
                <polygon fill="#666666" transform="translate(19.500000, 27.500000) rotate(90.000000) translate(-19.500000, -27.500000) " points="24 32 15 32 15 23"></polygon>
                <polygon fill="#F3F3F3" transform="translate(12.000000, 16.000000) rotate(90.000000) translate(-12.000000, -16.000000) " points="19 13 19 4 -4 4 -4 28 28 28 28 13"></polygon>
                <polygon fill="#666666" transform="translate(12.000000, 16.000000) rotate(90.000000) translate(-12.000000, -16.000000) " points="27 13 27 14 27 17 27 27 -3 27 -3 5 16 5 18 5 19 5 19 4 -4 4 -4 28 28 28 28 13"></polygon>
            </g>
            <rect fill="#666666" x="0" y="4" width="28" height="16"></rect>
            <rect stroke="#F3F3F3" x="4.5" y="7.53320312" width="19" height="7.96679688"></rect>
        </g>
        <g transform="translate(16.000000, 15.533203)" fill-rule="nonzero">
            <polygon fill="#21A04A" points="16 6 10 6 10 0 6 0 6 6 0 6 0 10 6 10 6 16 10 16 10 10 16 10"></polygon>
            <path d="M16,6 L10,6 L10,0 L6,0 L6,6 L0,6 L0,10 L6,10 L6,16 L10,16 L10,10 L16,10 L16,6 Z M11,11 L11,17 L5,17 L5,11 L-1,11 L-1,5 L5,5 L5,-1 L11,-1 L11,5 L17,5 L17,11 L11,11 Z" fill="#F3F3F3"></path>
            <polygon fill="#24B252" points="15 7 9 7 9 1 7 1 7 7 1 7 1 9 7 9 7 15 9 15 9 9 15 9"></polygon>
        </g>
    </g>
</svg>