<?xml version="1.0" encoding="UTF-8" standalone="no"?>
<svg width="32px" height="32px" viewBox="0 0 32 32" version="1.1" xmlns="http://www.w3.org/2000/svg" xmlns:xlink="http://www.w3.org/1999/xlink">
    <!-- Generator: Sketch 49.3 (51167) - http://www.bohemiancoding.com/sketch -->
    <title>SheetNew_D</title>
    <desc>Created with Sketch.</desc>
    <defs></defs>
    <g stroke="none" stroke-width="1" fill="none" fill-rule="evenodd">
        <g>
            <g transform="translate(4.000000, 0.000000)" fill-rule="nonzero">
                <polygon fill="#999999" transform="translate(19.500000, 27.500000) rotate(90.000000) translate(-19.500000, -27.500000) " points="24 32 15 32 15 23"></polygon>
                <polygon fill="#F3F3F3" transform="translate(12.000000, 16.000000) rotate(90.000000) translate(-12.000000, -16.000000) " points="19 13 19 4 -4 4 -4 28 28 28 28 13"></polygon>
                <polygon fill="#999999" transform="translate(12.000000, 16.000000) rotate(90.000000) translate(-12.000000, -16.000000) " points="27 13 27 14 27 17 27 27 -3 27 -3 5 16 5 18 5 19 5 19 4 -4 4 -4 28 28 28 28 13"></polygon>
            </g>
            <rect fill="#BBBBBB" x="0" y="4" width="28" height="16"></rect>
            <rect stroke="#F3F3F3" x="4.5" y="7.53320312" width="19" height="7.96679688"></rect>
        </g>
        <g transform="translate(15.000000, 14.533203)" fill-rule="nonzero">
            <polygon fill="#999999" points="17 7 11 7 11 1 7 1 7 7 1 7 1 11 7 11 7 17 11 17 11 11 17 11"></polygon>
            <path d="M17,7 L11,7 L11,1 L7,1 L7,7 L1,7 L1,11 L7,11 L7,17 L11,17 L11,11 L17,11 L17,7 Z M12,12 L12,18 L6,18 L6,12 L0,12 L0,6 L6,6 L6,0 L12,0 L12,6 L18,6 L18,12 L12,12 Z" fill="#F3F3F3"></path>
            <polygon fill="#BBBBBB" points="16 8 10 8 10 2 8 2 8 8 2 8 2 10 8 10 8 16 10 16 10 10 16 10"></polygon>
        </g>
    </g>
</svg>