<?xml version="1.0" encoding="UTF-8" standalone="no"?>
<svg width="32px" height="32px" viewBox="0 0 32 32" version="1.1" xmlns="http://www.w3.org/2000/svg" xmlns:xlink="http://www.w3.org/1999/xlink">
    <!-- Generator: Sketch 49.3 (51167) - http://www.bohemiancoding.com/sketch -->
    <title>SheetRemove</title>
    <desc>Created with Sketch.</desc>
    <defs>
        <polygon id="path-1" points="11.5 2.91803299 9.299 0.718032993 6 4.01803299 2.701 0.718032993 0.5 2.91803299 3.8 6.21803299 0.5 9.51803299 2.701 11.718033 6 8.41803299 9.299 11.718033 11.5 9.51803299 8.2 6.21803299"></polygon>
    </defs>
    <g stroke="none" stroke-width="1" fill="none" fill-rule="evenodd">
        <g>
            <g transform="translate(4.000000, 0.000000)" fill-rule="nonzero">
                <polygon fill="#666666" transform="translate(19.500000, 27.500000) rotate(90.000000) translate(-19.500000, -27.500000) " points="24 32 15 32 15 23"></polygon>
                <polygon fill="#F3F3F3" transform="translate(12.000000, 16.000000) rotate(90.000000) translate(-12.000000, -16.000000) " points="19 13 19 4 -4 4 -4 28 28 28 28 13"></polygon>
                <polygon fill="#333333" transform="translate(12.000000, 16.000000) rotate(90.000000) translate(-12.000000, -16.000000) " points="27 13 27 14 27 17 27 27 -3 27 -3 5 16 5 18 5 19 5 19 4 -4 4 -4 28 28 28 28 13"></polygon>
            </g>
            <rect fill="#666666" x="0" y="4" width="28" height="16"></rect>
            <rect stroke="#F3F3F3" x="4.5" y="7.53320312" width="19" height="7.96679688"></rect>
        </g>
        <g transform="translate(20.500000, 20.315170)" fill-rule="nonzero">
            <polygon fill="#FF3333" points="11.5 2.91803299 9.299 0.718032993 6 4.01803299 2.701 0.718032993 0.5 2.91803299 3.8 6.21803299 0.5 9.51803299 2.701 11.718033 6 8.41803299 9.299 11.718033 11.5 9.51803299 8.2 6.21803299"></polygon>
            <g>
                <use fill="#FF3333" fill-rule="evenodd" xlink:href="#path-1"></use>
                <path stroke="#F3F3F3" stroke-width="1" d="M8.90710678,6.21803299 L12.2071871,9.51811334 L9.29886609,12.425113 L6,9.12524695 L2.70113391,12.425113 L-0.207187125,9.51811334 L3.09289322,6.21803299 L-0.207187125,2.91795265 L2.70113391,0.0109529811 L6,3.31081903 L9.29886609,0.0109529811 L12.2071871,2.91795265 L8.90710678,6.21803299 Z"></path>
            </g>
            <path d="M9.29926781,2.13219302 L6,5.43246091 L2.70073219,2.13219302 L1.91437425,2.91819368 L5.21421356,6.21803299 L1.91437425,9.51787231 L2.70073219,10.303873 L6,7.00360507 L9.29926781,10.303873 L10.0856257,9.51787231 L6.78578644,6.21803299 L10.0856257,2.91819368 L9.29926781,2.13219302 Z M6,4.01803299 L6.70678538,3.31103337 L9.299,0.718032993 L11.5,2.91803299 L8.2,6.21803299 L11.5,9.51803299 L9.299,11.718033 L6,8.41803299 L5.29321462,9.12503261 L2.701,11.718033 L0.5,9.51803299 L3.8,6.21803299 L0.5,2.91803299 L2.701,0.718032993 L5.29300035,3.31081903 L6,4.01803299 Z" fill="#000000" opacity="0.1"></path>
        </g>
    </g>
</svg>