<?xml version="1.0" encoding="UTF-8" standalone="no"?>
<svg width="32px" height="32px" viewBox="0 0 32 32" version="1.1" xmlns="http://www.w3.org/2000/svg" xmlns:xlink="http://www.w3.org/1999/xlink">
    <!-- Generator: Sketch 49.3 (51167) - http://www.bohemiancoding.com/sketch -->
    <title>Signal</title>
    <desc>Created with Sketch.</desc>
    <defs></defs>
    <g stroke="none" stroke-width="1" fill="none" fill-rule="evenodd">
        <path d="M23.276,15 L8.723,15 C8.891,15.472 8.999,15.972 8.999,16.5 C8.999,17.028 8.891,17.528 8.723,18 L23.276,18 C23.108,17.528 23,17.028 23,16.5 C23,15.972 23.108,15.472 23.276,15 Z" fill="#999999" fill-rule="nonzero"></path>
        <g transform="translate(-1.000000, 12.000000)" fill-rule="nonzero">
            <path d="M9.99647621,4.5 C9.99647621,6.984 7.98176193,9 5.49647621,9 C3.0111905,9 0.996476212,6.984 0.996476212,4.5 C0.996476212,2.016 3.0111905,0 5.49647621,0 C7.98176193,0 9.99647621,2.016 9.99647621,4.5 Z" fill="#14B44E"></path>
            <path d="M5.5,1 C7.433,1 9,2.568 9,4.5 C9,6.432 7.433,8 5.5,8 C3.567,8 2,6.432 2,4.5 C2,2.568 3.567,1 5.5,1 Z M5.5,0 C3.019,0 1,2.019 1,4.5 C1,6.981 3.019,9 5.5,9 C7.981,9 10,6.981 10,4.5 C10,2.019 7.981,0 5.5,0 Z" fill="#000000" opacity="0.1"></path>
        </g>
        <g transform="translate(22.000000, 12.000000)" fill-rule="nonzero">
            <path d="M9.99647621,4.5 C9.99647621,6.984 7.98176193,9 5.49647621,9 C3.0111905,9 0.996476212,6.984 0.996476212,4.5 C0.996476212,2.016 3.0111905,0 5.49647621,0 C7.98176193,0 9.99647621,2.016 9.99647621,4.5 Z" fill="#14B44E"></path>
            <path d="M5.5,1 C7.433,1 9,2.568 9,4.5 C9,6.432 7.433,8 5.5,8 C3.567,8 2,6.432 2,4.5 C2,2.568 3.567,1 5.5,1 Z M5.5,0 C3.019,0 1,2.019 1,4.5 C1,6.981 3.019,9 5.5,9 C7.981,9 10,6.981 10,4.5 C10,2.019 7.981,0 5.5,0 Z" fill="#000000" opacity="0.1"></path>
        </g>
    </g>
</svg>