<?xml version="1.0" encoding="UTF-8" standalone="no"?>
<svg width="32px" height="32px" viewBox="0 0 32 32" version="1.1" xmlns="http://www.w3.org/2000/svg" xmlns:xlink="http://www.w3.org/1999/xlink">
    <!-- Generator: Sketch 49.3 (51167) - http://www.bohemiancoding.com/sketch -->
    <title>SimAddModelGry</title>
    <desc>Created with Sketch.</desc>
    <defs></defs>
    <g stroke="none" stroke-width="1" fill="none" fill-rule="evenodd">
        <g fill="#333333">
            <path d="M13.394,9.075 C12.969,8.65 12.844,8.336 11.844,8.086 L11.844,9.838 C11.844,9.934 12.22,10.023 12.333,10.137 C13.796,11.598 13.858,13.978 12.396,15.44 L7.965,19.902 C6.503,21.364 4.139,21.364 2.677,19.902 C1.215,18.44 1.098,16.061 2.56,14.599 L5.844,11.197 L5.844,9.076 L1.507,13.538 C-0.543,15.589 -0.481,18.913 1.57,20.963 C3.62,23.014 6.975,23.014 9.025,20.963 L13.441,16.501 C15.49,14.449 15.443,11.125 13.394,9.075"></path>
            <path d="M21.056,1.537 C19.006,-0.512 15.682,-0.512 13.631,1.537 L9.169,6 C7.119,8.05 7.244,11.375 9.294,13.425 C9.719,13.85 9.844,14.165 10.844,14.414 L10.844,12.661 C10.844,12.565 10.468,12.476 10.355,12.363 C8.893,10.902 8.83,8.522 10.292,7.06 L14.723,2.598 C16.185,1.136 18.549,1.136 20.011,2.598 C21.473,4.06 21.59,6.439 20.128,7.902 L16.844,11.303 L16.844,13.424 L21.181,8.962 C23.231,6.912 23.106,3.588 21.056,1.537"></path>
        </g>
        <g transform="translate(16.000000, 16.000000)" fill-rule="nonzero">
            <polygon fill="#21A04A" points="16 6 10 6 10 0 6 0 6 6 0 6 0 10 6 10 6 16 10 16 10 10 16 10"></polygon>
            <polygon fill="#24B252" points="15 7 9 7 9 1 7 1 7 7 1 7 1 9 7 9 7 15 9 15 9 9 15 9"></polygon>
        </g>
    </g>
</svg>