<?xml version="1.0" encoding="UTF-8" standalone="no"?>
<svg width="32px" height="32px" viewBox="0 0 32 32" version="1.1" xmlns="http://www.w3.org/2000/svg" xmlns:xlink="http://www.w3.org/1999/xlink">
    <!-- Generator: Sketch 49.3 (51167) - http://www.bohemiancoding.com/sketch -->
    <title>SimCurrentProbe</title>
    <desc>Created with Sketch.</desc>
    <defs></defs>
    <g stroke="none" stroke-width="1" fill="none" fill-rule="evenodd">
        <path d="M28,11.449 C28,5.447 23.375,0.51 17.5,0 L17.5,6.57 C19.5,7.027 21,8.813 21,10.949 C21,13.43 18.981,15.449 16.5,15.449 C14.019,15.449 12,13.43 12,10.949 C12,8.813 13.5,7.027 15.5,6.57 L15.5,0 C9.626,0.51 5,5.447 5,11.449 C5,14.818 6.465,17.844 8.781,19.949 L6.5,31.949 L26.5,31.949 L24.219,19.949 C26.535,17.844 28,14.818 28,11.449 Z" fill="#F3F3F3" fill-rule="nonzero"></path>
        <polygon fill="#BBBBBB" fill-rule="nonzero" points="19.083 19.949 13.083 19.949 10.083 30.949 22.083 30.949"></polygon>
        <path d="M18.5,1.148 C23.346,2.094 27,6.423 27,11.449 C27,14.386 25.741,17.214 23.546,19.209 L23.132,19.586 L23.236,20.136 L25.291,30.949 L7.707,30.949 L9.763,20.136 L9.867,19.586 L9.453,19.209 C7.258,17.214 5.999,14.385 5.999,11.449 C5.999,6.424 9.653,2.095 14.499,1.148 L14.499,5.833 C12.403,6.645 10.999,8.646 10.999,10.949 C10.999,13.982 13.466,16.449 16.499,16.449 C19.532,16.449 21.999,13.982 21.999,10.949 C21.999,8.646 20.595,6.644 18.499,5.833 L18.499,1.148 L18.5,1.148 Z M17.5,0 L17.5,6.57 C19.5,7.027 21,8.813 21,10.949 C21,13.43 18.981,15.449 16.5,15.449 C14.019,15.449 12,13.43 12,10.949 C12,8.813 13.5,7.027 15.5,6.57 L15.5,0 C9.626,0.51 5,5.447 5,11.449 C5,14.818 6.465,17.844 8.781,19.949 L6.5,31.949 L26.5,31.949 L24.219,19.949 C26.535,17.844 28,14.818 28,11.449 C28,5.447 23.375,0.51 17.5,0 Z" fill="#333333" fill-rule="nonzero"></path>
    </g>
</svg>