<?xml version="1.0" encoding="utf-8"?>
<!-- Generator: Adobe Illustrator 16.0.4, SVG Export Plug-In . SVG Version: 6.00 Build 0)  -->
<!DOCTYPE svg PUBLIC "-//W3C//DTD SVG 1.1//EN" "http://www.w3.org/Graphics/SVG/1.1/DTD/svg11.dtd">
<svg version="1.1" xmlns="http://www.w3.org/2000/svg" xmlns:xlink="http://www.w3.org/1999/xlink" x="0px" y="0px" width="32px"
	 height="32px" viewBox="571 5234 32 32" enable-background="new 571 5234 32 32" xml:space="preserve">
<g id="_x2A_OUTLINED_x2A_">
</g>
<g id="EXTRAS">
</g>
<g id="_x33_2_x__x_32_PROPOSED">
	<g>
		<path fill="#666666" d="M602.817,5244.771c-0.216-0.163-0.982-0.725-1.245-0.959c-0.552-0.469-1.15,0.141-2.084-0.655
			c-0.887-0.772-0.479-1.733-0.958-2.153c-0.119-0.095-0.767-0.772-2.49-1.943c-1.317-0.889-3.952-2.81-6.06-3.021
			c-0.503-0.069-3.975-0.022-4.836,0c-1.699,0.048,9.319,2.618,6.399,6.382l3.13,3.131c1.134-0.973,2.135-1.213,3.282-0.336
			c0.671,0.491,0.456,1.756,0.551,1.85c0.12,0.117,0.863,0.749,1.15,1.007c0.287,0.257,0.766,0.069,0.934-0.117
			c0.191-0.211,2.251-2.435,2.251-2.435C603.08,5245.264,603.032,5244.959,602.817,5244.771"/>
		<path fill="#E69963" d="M575.205,5261.275c-0.311,0.375-0.263,0.913,0.096,1.217l1.58,1.312c0.36,0.305,0.91,0.258,1.222-0.094
			c0,0,12.855-14.062,16.57-18.157l-3.08-3.111C587.893,5246.685,575.205,5261.275,575.205,5261.275"/>
		<path fill-rule="evenodd" clip-rule="evenodd" fill="#666666" d="M583.119,5247.288l0.86,0.86c-0.86,1-1.74,2.02-2.62,3.02
			l-1.04-1.02c-0.22-0.16-2.16-1.541-5.681-1.541c-1-0.039-1.9-0.379-2.58-1.059c-1.3-1.301-1.38-3.725-0.36-5.725l2.56,2.176h0.02
			c0,0,0.02,0.284,0.04,0.305c0.88,0.879,2.321,1.002,3.201,0.121c0.9-0.88,0.9-2.259,0-3.158c-0.02-0.021-0.04,0.01-0.06-0.01
			l0.02-0.006l-2.401-2.552c1.981-1.021,4.161-0.937,5.461,0.364c0.72,0.72,1.04,1.662,1.06,2.722
			C581.599,5245.246,582.919,5247.028,583.119,5247.288"/>
		<path fill-rule="evenodd" clip-rule="evenodd" fill="#666666" d="M596.419,5263.31c-0.78,0.779-2.06,0.779-2.84,0l-6.501-6.44
			c0.9-0.98,1.82-2.001,2.701-2.981l6.64,6.581C597.2,5261.27,597.2,5262.529,596.419,5263.31"/>
	</g>
</g>
<g id="_x33_2_x__x_32_ORIG">
</g>
<g id="_x2A__x2A_BASE_x2A__x2A_">
	<g id="BLOCKS" display="none">
	</g>
	<g id="PADDING">
		<g>
			<g>
				<g>
					<path fill="#E3F4FF" d="M569,5232v36h36v-36H569z M603,5266h-32v-32h32V5266z"/>
				</g>
			</g>
		</g>
	</g>
	<g id="ARTBOARDS" display="none">
		<rect x="571" y="5234" display="inline" fill="#E6E6E6" width="32" height="32"/>
	</g>
	<g id="OLDER_SCREEN">
	</g>
	<g id="LINES_1_">
	</g>
	<g id="LABELS">
		<g>
		</g>
	</g>
</g>
</svg>
