<?xml version="1.0" encoding="UTF-8"?>
<svg width="41px" height="41px" viewBox="0 0 41 41" version="1.1" xmlns="http://www.w3.org/2000/svg" xmlns:xlink="http://www.w3.org/1999/xlink">
    <!-- Generator: Sketch 46.2 (44496) - http://www.bohemiancoding.com/sketch -->
    <title>Make Spice CopyGry</title>
    <desc>Created with Sketch.</desc>
    <defs>
        <rect id="path-1" x="0" y="0" width="40" height="40"></rect>
    </defs>
    <g id="Drafts" stroke="none" stroke-width="1" fill="none" fill-rule="evenodd">
        <g id="simulation" transform="translate(-317.000000, -138.000000)"></g>
        <g id="simulation-copy" transform="translate(-297.000000, -251.000000)"></g>
        <g id="Make-Spice-Copy">
            <g id="MakeSpice" transform="translate(0.984375, 0.562500)">
                <mask id="mask-2" fill="white">
                    <use xlink:href="#path-1"></use>
                </mask>
                <g id="make-spice"></g>
                <path d="M23.4582912,26.6455 C23.4582912,25.5574946 23.2422933,24.7895022 22.8102912,24.3415 C22.378289,23.8934978 21.9382934,23.573501 21.4902912,23.3815 C20.9782886,23.1574989 20.4262941,22.941501 19.8342912,22.7335 C19.2422882,22.525499 18.6262944,22.3095011 17.9862912,22.0855 C16.8022853,21.7334982 15.626297,21.3415022 14.4582912,20.9095 C13.2902853,20.4774978 12.2422958,19.9015036 11.3142912,19.1815 C10.3862865,18.4614964 9.63429405,17.5335057 9.05829117,16.3975 C8.48228829,15.2614943 8.19429117,13.8295086 8.19429117,12.1015 C8.19429117,10.5654923 8.45828853,9.18150616 8.98629117,7.9495 C9.51429381,6.71749384 10.2582864,5.66950432 11.2182912,4.8055 C12.178296,3.94149568 13.3462843,3.28550224 14.7222912,2.8375 C16.0982981,2.38949776 17.6342827,2.1655 19.3302912,2.1655 C20.0342947,2.1655 20.9302857,2.22149944 22.0182912,2.3335 C23.1062966,2.44550056 24.170286,2.6614984 25.2102912,2.9815 C26.2502964,3.3015016 27.1382875,3.7414972 27.8742912,4.3015 C28.6102949,4.8615028 28.9782912,5.58949552 28.9782912,6.4855 C28.9782912,7.285504 28.6822941,7.98949696 28.0902912,8.5975 C27.4982882,9.20550304 26.6742965,9.5095 25.6182912,9.5095 C25.1702889,9.5095 24.7702929,9.45350056 24.4182912,9.3415 C24.0662894,9.22949944 23.6822933,9.10950064 23.2662912,8.9815 C22.8182889,8.8214992 22.3062941,8.6615008 21.7302912,8.5015 C21.1542883,8.3414992 20.4502953,8.2615 19.6182912,8.2615 C19.0422883,8.2615 18.474294,8.31749944 17.9142912,8.4295 C17.3542884,8.54150056 16.8662933,8.74149856 16.4502912,9.0295 C16.0342891,9.31750144 15.6982925,9.69349768 15.4422912,10.1575 C15.1862899,10.6215023 15.0582912,11.2054965 15.0582912,11.9095 C15.0582912,12.9655053 15.2902889,13.7174978 15.7542912,14.1655 C16.2182935,14.6135022 16.6582891,14.933499 17.0742912,15.1255 C17.7142944,15.4455016 18.3142884,15.701499 18.8742912,15.8935 C19.434294,16.085501 19.9862885,16.2614992 20.5302912,16.4215 C21.7142971,16.8055019 22.8902853,17.2134978 24.0582912,17.6455 C25.226297,18.0775022 26.2742865,18.6534964 27.2022912,19.3735 C28.1302958,20.0935036 28.8902882,21.0134944 29.4822912,22.1335 C30.0742941,23.2535056 30.3702912,24.6614915 30.3702912,26.3575 C30.3702912,28.0215083 30.0662942,29.5094934 29.4582912,30.8215 C28.8502881,32.1335066 28.0182965,33.2374955 26.9622912,34.1335 C25.9062859,35.0295045 24.6502985,35.7094977 23.1942912,36.1735 C21.7382839,36.6375023 20.1462998,36.8695 18.4182912,36.8695 C17.5222867,36.8695 16.4822971,36.7895008 15.2982912,36.6295 C14.1142853,36.4694992 12.9942965,36.2055018 11.9382912,35.8375 C10.8822859,35.4694982 9.98629485,34.989503 9.25029117,34.3975 C8.51428749,33.805497 8.14629117,33.0935042 8.14629117,32.2615 C8.14629117,31.4934962 8.45028813,30.7975031 9.05829117,30.1735 C9.66629421,29.5494969 10.4182867,29.2375 11.3142912,29.2375 C11.6662929,29.2375 12.0422892,29.2934994 12.4422912,29.4055 C12.8422932,29.5175006 13.2662889,29.6534992 13.7142912,29.8135 C14.2902941,30.005501 14.9702873,30.2134989 15.7542912,30.4375 C16.5382951,30.6615011 17.4422861,30.7735 18.4662912,30.7735 C20.1302995,30.7735 21.378287,30.4215035 22.2102912,29.7175 C23.0422953,29.0134965 23.4582912,27.9895067 23.4582912,26.6455 Z" id="S" fill="#3C3C3C" mask="url(#mask-2)"></path>
            </g>
        </g>
    </g>
</svg>