<?xml version="1.0" encoding="UTF-8" standalone="no"?>
<svg width="32px" height="32px" viewBox="0 0 32 32" version="1.1" xmlns="http://www.w3.org/2000/svg" xmlns:xlink="http://www.w3.org/1999/xlink">
    <!-- Generator: Sketch 49.3 (51167) - http://www.bohemiancoding.com/sketch -->
    <title>SimOperatingPointAnalysisGry</title>
    <desc>Created with Sketch.</desc>
    <defs></defs>
    <g stroke="none" stroke-width="1" fill="none" fill-rule="evenodd">
        <path d="M30.59984,28.47875 L23.25072,21.12963 C22.61827,21.90758 21.90758,22.61828 21.12963,23.25072 L28.47875,30.59984 C28.47875,30.59984 29.5393,31.53929 30.5393,30.53929 C31.5393,29.53929 30.59984,28.47875 30.59984,28.47875 Z" fill="#666666" fill-rule="nonzero"></path>
        <circle fill="#F3F3F3" fill-rule="nonzero" cx="13" cy="13" r="12"></circle>
        <path d="M13,1 C6.37262,1 1,6.37256 1,13 C1,19.62738 6.37262,25 13,25 C19.62738,25 25,19.62738 25,13 C25,6.37256 19.62738,1 13,1 Z M13,23 C7.48584,23 3,18.51367 3,13 C3,7.48633 7.48584,3 13,3 C18.51367,3 23,7.48633 23,13 C23,18.51367 18.51367,23 13,23 Z" fill="#666666" fill-rule="nonzero"></path>
        <path d="M16.858,19.571 C15.166,19.571 13.956,16.858 12.556,13.717 C11.783,11.981 10.343,8.75 9.623,8.75 C8.821,8.75 7.581,11.188 6.969,13.377 L5.525,12.973 C5.9,11.631 7.304,7.25 9.623,7.25 C11.316,7.25 12.525,9.964 13.926,13.105 C14.699,14.84 16.139,18.071 16.858,18.071 C17.626,18.071 18.61,15.667 19.014,13.509 L20.489,13.784 C20.309,14.75 19.288,19.571 16.858,19.571 Z" fill="#333333" fill-rule="nonzero"></path>
    </g>
</svg>