<?xml version="1.0" encoding="UTF-8"?>
<svg width="32px" height="32px" viewBox="0 0 32 32" version="1.1" xmlns="http://www.w3.org/2000/svg" xmlns:xlink="http://www.w3.org/1999/xlink">
    <!-- Generator: Sketch 50.2 (55047) - http://www.bohemiancoding.com/sketch -->
    <title>SimSourceDigital</title>
    <desc>Created with Sketch.</desc>
    <defs></defs>
    <g id="SimSourceDigital" stroke="none" stroke-width="1" fill="none" fill-rule="evenodd">
        <path d="M31,18 L31,13 L26.72,13 C26.426,11.678 25.904,10.445 25.199,9.337 L28.228,6.309 L24.693,2.772 L21.664,5.802 C20.556,5.098 19.323,4.574 18.001,4.28 L18.001,0 L13.001,0 L13.001,4.279 C11.679,4.574 10.446,5.097 9.338,5.801 L6.309,2.771 L2.773,6.308 L5.803,9.336 C5.098,10.444 4.575,11.677 4.281,12.999 L0,12.999 L0,17.999 L4.28,17.999 C4.574,19.321 5.097,20.554 5.802,21.662 L2.772,24.691 L6.308,28.226 L9.337,25.197 C10.445,25.902 11.678,26.425 13,26.718 L13,30.998 L18,30.998 L18,26.718 C19.322,26.424 20.555,25.902 21.663,25.197 L24.692,28.226 L28.227,24.691 L25.198,21.662 C25.903,20.554 26.426,19.321 26.719,17.999 L31,17.999 L31,18 Z" id="Shape" fill="#666666" fill-rule="nonzero"></path>
        <path d="M25.743,17.783 L25.918,17 L30,17 L30,14 L25.918,14 L25.743,13.217 C25.48,12.034 25.014,10.909 24.353,9.874 L23.923,9.197 L26.813,6.308 L24.692,4.187 L21.802,7.076 L21.125,6.646 C20.09,5.986 18.965,5.519 17.782,5.256 L16.999,5.081 L16.999,1 L13.999,1 L13.999,5.082 L13.216,5.257 C12.033,5.52 10.908,5.986 9.873,6.647 L9.196,7.077 L6.307,4.188 L4.186,6.309 L7.075,9.198 L6.645,9.875 C5.986,10.91 5.519,12.035 5.255,13.218 L5.082,14.001 L1,14.001 L1,17.001 L5.083,17.001 L5.256,17.784 C5.52,18.967 5.987,20.092 6.646,21.127 L7.076,21.804 L4.187,24.694 L6.308,26.815 L9.197,23.925 L9.874,24.355 C10.909,25.015 12.034,25.482 13.217,25.745 L14,25.92 L14,30 L17,30 L17,25.918 L17.783,25.743 C18.966,25.48 20.091,25.014 21.126,24.353 L21.803,23.923 L24.693,26.813 L26.814,24.692 L23.924,21.802 L24.354,21.125 C25.014,20.091 25.48,18.966 25.743,17.783" id="Shape" fill="#666666" fill-rule="nonzero"></path>
        <path d="M31,13 L26.72,13 C26.426,11.678 25.904,10.445 25.199,9.337 L28.228,6.309 L24.693,2.772 L21.664,5.802 C20.556,5.098 19.323,4.574 18.001,4.28 L18.001,0 L13.001,0 L13.001,4.279 C11.679,4.574 10.446,5.097 9.338,5.801 L6.309,2.771 L2.773,6.308 L5.803,9.336 C5.098,10.444 4.575,11.677 4.281,12.999 L0,12.999 L0,17.999 L4.28,17.999 C4.574,19.321 5.097,20.554 5.802,21.662 L2.772,24.691 L6.308,28.226 L9.337,25.197 C10.445,25.902 11.678,26.425 13,26.718 L13,30.998 L18,30.998 L18,26.718 C19.322,26.424 20.555,25.902 21.663,25.197 L24.692,28.226 L28.227,24.691 L25.198,21.662 C25.903,20.554 26.426,19.321 26.719,17.999 L31,17.999 L31,13 Z" id="Shape" fill="#333333" fill-rule="nonzero"></path>
        <path d="M25.743,17.783 L25.918,17 L30,17 L30,14 L25.918,14 L25.743,13.217 C25.48,12.034 25.014,10.909 24.353,9.874 L23.923,9.197 L26.813,6.308 L24.692,4.187 L21.802,7.076 L21.125,6.646 C20.09,5.986 18.965,5.519 17.782,5.256 L16.999,5.081 L16.999,1 L13.999,1 L13.999,5.082 L13.216,5.257 C12.033,5.52 10.908,5.986 9.873,6.647 L9.196,7.077 L6.307,4.188 L4.186,6.309 L7.075,9.198 L6.645,9.875 C5.986,10.91 5.519,12.035 5.255,13.218 L5.082,14.001 L1,14.001 L1,17.001 L5.083,17.001 L5.256,17.784 C5.52,18.967 5.987,20.092 6.646,21.127 L7.076,21.804 L4.187,24.694 L6.308,26.815 L9.197,23.925 L9.874,24.355 C10.909,25.015 12.034,25.482 13.217,25.745 L14,25.92 L14,30 L17,30 L17,25.918 L17.783,25.743 C18.966,25.48 20.091,25.014 21.126,24.353 L21.803,23.923 L24.693,26.813 L26.814,24.692 L23.924,21.802 L24.354,21.125 C25.014,20.091 25.48,18.966 25.743,17.783" id="Shape" fill="#F3F3F3" fill-rule="nonzero"></path>
        <circle id="Oval" fill="#666666" cx="15.5" cy="15.5" r="8.5"></circle>
        <polyline id="Path-17" stroke="#F5F5F5" stroke-width="1.5" transform="translate(15.500000, 15.500000) scale(1, -1) translate(-15.500000, -15.500000) " points="9 16 11.5 16 11.5 11 15.5 11 15.5 16 15.5 20 19.5 20 19.5 16 22 16"></polyline>
    </g>
</svg>