<?xml version="1.0" encoding="UTF-8" standalone="no"?>
<svg width="32px" height="32px" viewBox="0 0 32 32" version="1.1" xmlns="http://www.w3.org/2000/svg" xmlns:xlink="http://www.w3.org/1999/xlink">
    <!-- Generator: Sketch 49.3 (51167) - http://www.bohemiancoding.com/sketch -->
    <title>SimSimulateGry</title>
    <desc>Created with Sketch.</desc>
    <defs></defs>
    <g stroke="none" stroke-width="1" fill="none" fill-rule="evenodd">
        <polygon fill="#999999" fill-rule="nonzero" points="32 15.5 17 15.5 17 0 16 0 16 15.5 0 15.5 0 16.5 16 16.5 16 32 17 32 17 16.5 32 16.5"></polygon>
        <path d="M24,28.5 C20.844,28.5 18.406,22.893 15.583,16.398 C13.583,11.798 10.844,5.5 9,5.5 C6.768,5.5 4.127,11.502 2.965,15.763 L1.035,15.238 C1.57,13.278 4.466,3.501 9,3.501 C12.156,3.501 14.594,9.108 17.417,15.603 C19.417,20.203 22.156,26.501 24,26.501 C26.18,26.501 28.246,20.549 29.016,16.322 L30.984,16.679 C28.938,27.93 24.807,28.5 24,28.5 Z" fill="#333333" fill-rule="nonzero"></path>
    </g>
</svg>