<?xml version="1.0" encoding="UTF-8" standalone="no"?>
<svg width="32px" height="32px" viewBox="0 0 32 32" version="1.1" xmlns="http://www.w3.org/2000/svg" xmlns:xlink="http://www.w3.org/1999/xlink">
    <!-- Generator: Sketch 49.3 (51167) - http://www.bohemiancoding.com/sketch -->
    <title>SimVoltagePhaseProbeGry</title>
    <desc>Created with Sketch.</desc>
    <defs></defs>
    <g stroke="none" stroke-width="1" fill="none" fill-rule="evenodd">
        <path d="M31,4 L31,0 L30,0 L30,4 L29,4 L29,16 L30,16 L30,21.5 C30,26.661 25.861,30.865 20.729,30.988 C20.896,30.695 21,30.361 21,30 L21,26.609 C23.372,25.347 25,22.868 25,20 L25,16 L26,16 L26,4 L25,4 L25,0 L24,0 L24,4 L23,4 L23,16 L24,16 L24,20 C24,22.293 22.798,24.297 21,25.455 L21,2 C21,0.896 20.104,0 19,0 L3,0 C1.896,0 1,0.896 1,2 L1,30 C1,31.104 1.896,32 3,32 L18.104,32 L19,32 L20.5,32 C26.29,32 31,27.29 31,21.5 L31,16 L32,16 L32,4 L31,4 Z M3,31 C2.449,31 2,30.551 2,30 L2,2 C2,1.449 2.449,1 3,1 L19,1 C19.551,1 20,1.449 20,2 L20,30 C20,30.551 19.551,31 19,31 L3,31 Z" fill="#333333" fill-rule="nonzero"></path>
        <path d="M19,1 C19.551,1 20,1.449 20,2 L20,30 C20,30.551 19.551,31 19,31 L3,31 C2.449,31 2,30.551 2,30 L2,2 C2,1.449 2.449,1 3,1 L19,1" fill="#D9D9D9" fill-rule="nonzero"></path>
        <path d="M17,3 L5,3 C3.896,3 3,3.896 3,5 L3,12 C3,13.104 3.896,14 5,14 L17,14 C18.104,14 19,13.104 19,12 L19,5 C19,3.896 18.104,3 17,3 Z" fill="#666666" fill-rule="nonzero"></path>
        <circle fill="#FFFFFF" fill-rule="nonzero" cx="11" cy="22" r="6"></circle>
        <rect fill="#666666" fill-rule="nonzero" transform="translate(11.030646, 21.960646) rotate(45.000000) translate(-11.030646, -21.960646) " x="6.78818714" y="20.960656" width="8.48491863" height="1.99998082"></rect>
        <path d="M11,16 C14.313,16 17,18.687 17,22 C17,25.313 14.313,28 11,28 C7.687,28 5,25.313 5,22 C5,18.687 7.687,16 11,16 Z M11,15 C7.14,15 4,18.141 4,22 C4,25.859 7.14,29 11,29 C14.86,29 18,25.859 18,22 C18,18.141 14.86,15 11,15 Z" fill="#333333" fill-rule="nonzero"></path>
        <rect fill="#D9D9D9" fill-rule="nonzero" x="24" y="5" width="1" height="10"></rect>
        <rect fill="#D9D9D9" fill-rule="nonzero" x="30" y="5" width="1" height="10"></rect>
        <path d="M14.428,12.107 C12.982,12.107 11.832,10.574 10.614,8.95 C9.76,7.81 8.696,6.392 7.999,6.392 C7.063,6.392 6.031,7.943 5.678,8.694 L4.321,8.055 C4.473,7.732 5.87,4.892 7.999,4.892 C9.446,4.892 10.596,6.426 11.814,8.049 C12.668,9.189 13.731,10.607 14.428,10.607 C15.37,10.607 16.102,8.971 16.284,8.399 L17.715,8.849 C17.61,9.183 16.629,12.107 14.428,12.107 Z" fill="#FFFFFF" fill-rule="nonzero"></path>
    </g>
</svg>