<?xml version="1.0" encoding="utf-8"?>
<!-- Generator: Adobe Illustrator 16.0.4, SVG Export Plug-In . SVG Version: 6.00 Build 0)  -->
<!DOCTYPE svg PUBLIC "-//W3C//DTD SVG 1.1//EN" "http://www.w3.org/Graphics/SVG/1.1/DTD/svg11.dtd">
<svg version="1.1" xmlns="http://www.w3.org/2000/svg" xmlns:xlink="http://www.w3.org/1999/xlink" x="0px" y="0px" width="32px"
	 height="32px" viewBox="571 5093 32 32" enable-background="new 571 5093 32 32" xml:space="preserve">
<g id="_x2A_OUTLINED_x2A_">
</g>
<g id="EXTRAS">
</g>
<g id="_x33_2_x__x_32_PROPOSED">
	<path fill="#D9D9D9" d="M596,5097h-1v-4h-1v4h-1v12h1v4c0,3.584-2.916,6.5-6.5,6.5v1c4.136,0,7.5-3.364,7.5-7.5v-4h1V5097z"/>
	<g>
		<path fill="#666666" d="M595,5098v10h-1v-10H595 M595,5093h-1v4h-1v12h1v4c0,3.584-2.916,6.5-6.5,6.5v1c4.136,0,7.5-3.364,7.5-7.5
			v-4h1v-12h-1V5093L595,5093z"/>
	</g>
	<path fill="#D9D9D9" d="M602,5097h-1v-4h-1v4h-1v12h1v5.5c0,5.238-4.262,9.5-9.5,9.5v1c5.79,0,10.5-4.71,10.5-10.5v-5.5h1V5097z"/>
	<g>
		<path fill="#666666" d="M601,5098v10h-1v-10H601 M601,5093h-1v4h-1v12h1v5.5c0,5.238-4.262,9.5-9.5,9.5v1
			c5.79,0,10.5-4.71,10.5-10.5v-5.5h1v-12h-1V5093L601,5093z"/>
	</g>
	<path fill="#D9D9D9" d="M589,5125h-16c-1.104,0-2-0.896-2-2v-28c0-1.104,0.896-2,2-2h16c1.104,0,2,0.896,2,2v28
		C591,5124.104,590.104,5125,589,5125z"/>
	<g>
		<g>
			<path fill="#666666" d="M589,5094c0.551,0,1,0.449,1,1v28c0,0.551-0.449,1-1,1h-16c-0.551,0-1-0.449-1-1v-28c0-0.551,0.449-1,1-1
				H589 M589,5093h-16c-1.104,0-2,0.896-2,2v28c0,1.104,0.896,2,2,2h16c1.104,0,2-0.896,2-2v-28C591,5093.896,590.104,5093,589,5093
				L589,5093z"/>
		</g>
	</g>
	<path fill="#FFFFFF" d="M587,5107h-12c-1.104,0-2-0.896-2-2v-7c0-1.104,0.896-2,2-2h12c1.104,0,2,0.896,2,2v7
		C589,5106.104,588.104,5107,587,5107z"/>
	<g>
		<path fill="#666666" d="M587,5097c0.551,0,1,0.449,1,1v7c0,0.551-0.449,1-1,1h-12c-0.551,0-1-0.449-1-1v-7c0-0.551,0.449-1,1-1
			H587 M587,5096h-12c-1.104,0-2,0.896-2,2v7c0,1.104,0.896,2,2,2h12c1.104,0,2-0.896,2-2v-7C589,5096.896,588.104,5096,587,5096
			L587,5096z"/>
	</g>
	<circle fill="#FFFFFF" cx="581" cy="5115" r="6"/>
	<line fill="none" stroke="#666666" stroke-width="2" stroke-miterlimit="10" x1="578" y1="5112" x2="584" y2="5118"/>
	<g>
		<path fill="#666666" d="M581,5109c3.313,0,6,2.687,6,6s-2.687,6-6,6s-6-2.687-6-6S577.687,5109,581,5109 M581,5108
			c-3.86,0-7,3.141-7,7s3.14,7,7,7s7-3.141,7-7S584.86,5108,581,5108L581,5108z"/>
	</g>
</g>
<g id="_x33_2_x__x_32_ORIG">
</g>
<g id="_x2A__x2A_BASE_x2A__x2A_">
	<g id="BLOCKS" display="none">
	</g>
	<g id="PADDING">
		<g>
			<g>
				<g>
					<path fill="#E3F4FF" d="M569,5091v36h36v-36H569z M603,5125h-32v-32h32V5125z"/>
				</g>
			</g>
		</g>
	</g>
	<g id="ARTBOARDS" display="none">
		<rect x="571" y="5093" display="inline" fill="#E6E6E6" width="32" height="32"/>
	</g>
	<g id="OLDER_SCREEN">
	</g>
	<g id="LINES_1_">
	</g>
	<g id="LABELS">
		<g>
		</g>
	</g>
</g>
</svg>
