<?xml version="1.0" encoding="UTF-8" standalone="no"?>
<svg width="32px" height="32px" viewBox="0 0 32 32" version="1.1" xmlns="http://www.w3.org/2000/svg" xmlns:xlink="http://www.w3.org/1999/xlink">
    <!-- Generator: Sketch 49.3 (51167) - http://www.bohemiancoding.com/sketch -->
    <title>Smash</title>
    <desc>Created with Sketch.</desc>
    <defs></defs>
    <g stroke="none" stroke-width="1" fill="none" fill-rule="evenodd">
        <path d="M18,7.055 C22.494,7.555 26,11.375 26,16 C26,20.625 22.494,24.445 18,24.945 L18,7.055" fill="#F3F3F3" fill-rule="nonzero"></path>
        <polygon fill="#333333" fill-rule="nonzero" points="10 4 6 4 6 0 4 0 4 4 0 4 0 6 4 6 4 10 6 10 6 6 10 6"></polygon>
        <polygon fill="#333333" fill-rule="nonzero" points="10 26 6 26 6 22 4 22 4 26 0 26 0 28 4 28 4 32 6 32 6 28 10 28"></polygon>
        <path d="M32,15 L26.95,15 C26.448,9.947 22.186,6 17,6 L17,11 L12,11 L12,13 L17,13 L17,19 L12,19 L12,21 L17,21 L17,26 C22.186,26 26.448,22.053 26.95,17 L32,17 L32,15 Z M18,24.945 L18,7.054 C22.494,7.554 26,11.374 26,15.999 C26,20.624 22.494,24.445 18,24.945 Z" fill="#666666" fill-rule="nonzero"></path>
    </g>
</svg>