<?xml version="1.0" encoding="UTF-8" standalone="no"?>
<svg width="32px" height="32px" viewBox="0 0 32 32" version="1.1" xmlns="http://www.w3.org/2000/svg" xmlns:xlink="http://www.w3.org/1999/xlink">
    <!-- Generator: Sketch 49.3 (51167) - http://www.bohemiancoding.com/sketch -->
    <title>Smd</title>
    <desc>Created with Sketch.</desc>
    <defs></defs>
    <g stroke="none" stroke-width="1" fill="none" fill-rule="evenodd">
        <g transform="translate(9.000000, 26.000000)" fill-rule="nonzero">
            <rect fill="#FF908F" x="0.5" y="0.5" width="22" height="4"></rect>
            <path d="M22,1 L22,4 L1,4 L1,1 L22,1 Z M23,0 L0,0 L0,5 L23,5 L23,0 Z" fill="#CE2621"></path>
        </g>
        <path d="M4,1 L0,1 L0,2 L4,2 C5.654,2 7,3.346 7,5 L7,16 C7,17.654 5.654,19 4,19 L0,19 L0,20 L4,20 C6.209,20 8,18.209 8,16 L8,5 C8,2.791 6.209,1 4,1 Z" fill="#666666" fill-rule="nonzero"></path>
        <path d="M18.788,26 C16.579,26 14.413,24.249 13.95,22.089 L12.626,15.911 C12.163,13.752 10.94,12 9.894,12 L8,12 L8,9 C8,9 9.391,9 11.106,9 C12.821,9 14.587,10.752 15.05,12.911 L16.374,19.089 C16.837,21.249 19.003,23 21.212,23 L27,23 L27,26 L18.788,26 Z" fill="#666666" fill-rule="nonzero"></path>
        <path d="M4,2 L0,2 L0,19 L4,19 C5.654,19 7,17.654 7,16 L7,5 C7,3.346 5.654,2 4,2 Z" fill="#F3F3F3" fill-rule="nonzero"></path>
    </g>
</svg>