<?xml version="1.0" encoding="UTF-8" standalone="no"?>
<svg width="32px" height="32px" viewBox="0 0 32 32" version="1.1" xmlns="http://www.w3.org/2000/svg" xmlns:xlink="http://www.w3.org/1999/xlink">
    <!-- Generator: Sketch 49.3 (51167) - http://www.bohemiancoding.com/sketch -->
    <title>Stop</title>
    <desc>Created with Sketch.</desc>
    <defs></defs>
    <g stroke="none" stroke-width="1" fill="none" fill-rule="evenodd">
        <circle fill="#DD203C" cx="16" cy="16" r="16"></circle>
        <rect fill="#FFFFFF" x="6" y="14" width="20" height="4"></rect>
        <path d="M16,0 C7.16345,0 0,7.16345 0,16 C0,24.83655 7.16345,32 16,32 C24.83655,32 32,24.83655 32,16 C32,7.16345 24.83655,0 16,0 Z M16,31 C7.729,31 1,24.27148 1,16 C1,7.72852 7.729,1 16,1 C24.27148,1 31,7.72852 31,16 C31,24.27148 24.27148,31 16,31 Z" fill="#000000" fill-rule="nonzero" opacity="0.1"></path>
    </g>
</svg>