<?xml version="1.0" encoding="UTF-8" standalone="no"?>
<svg
   xmlns:dc="http://purl.org/dc/elements/1.1/"
   xmlns:cc="http://creativecommons.org/ns#"
   xmlns:rdf="http://www.w3.org/1999/02/22-rdf-syntax-ns#"
   xmlns:svg="http://www.w3.org/2000/svg"
   xmlns="http://www.w3.org/2000/svg"
   xmlns:sodipodi="http://sodipodi.sourceforge.net/DTD/sodipodi-0.dtd"
   xmlns:inkscape="http://www.inkscape.org/namespaces/inkscape"
   width="41px"
   height="41px"
   viewBox="0 0 41 41"
   version="1.1"
   id="svg6441"
   sodipodi:docname="icoStyleEditor.svg"
   inkscape:version="0.92.2 (5c3e80d, 2017-08-06)">
  <metadata
     id="metadata6445">
    <rdf:RDF>
      <cc:Work
         rdf:about="">
        <dc:format>image/svg+xml</dc:format>
        <dc:type
           rdf:resource="http://purl.org/dc/dcmitype/StillImage" />
        <dc:title>EPF</dc:title>
      </cc:Work>
    </rdf:RDF>
  </metadata>
  <sodipodi:namedview
     pagecolor="#ffffff"
     bordercolor="#666666"
     borderopacity="1"
     objecttolerance="10"
     gridtolerance="10"
     guidetolerance="10"
     inkscape:pageopacity="0"
     inkscape:pageshadow="2"
     inkscape:window-width="1366"
     inkscape:window-height="715"
     id="namedview6443"
     showgrid="false"
     inkscape:zoom="5.7560976"
     inkscape:cx="18.745812"
     inkscape:cy="34.330132"
     inkscape:window-x="1272"
     inkscape:window-y="246"
     inkscape:window-maximized="1"
     inkscape:current-layer="svg6441" />
  <!-- Generator: Sketch 41.2 (35397) - http://www.bohemiancoding.com/sketch -->
  <title
     id="title6423">EPF</title>
  <desc
     id="desc6425">Created with Sketch.</desc>
  <defs
     id="defs6427">
    <filter
       style="color-interpolation-filters:sRGB;"
       inkscape:label="Drop Shadow"
       id="filter6812">
      <feFlood
         flood-opacity="0.498039"
         flood-color="rgb(0,0,0)"
         result="flood"
         id="feFlood6802" />
      <feComposite
         in="flood"
         in2="SourceGraphic"
         operator="in"
         result="composite1"
         id="feComposite6804" />
      <feGaussianBlur
         in="composite1"
         stdDeviation="1"
         result="blur"
         id="feGaussianBlur6806" />
      <feOffset
         dx="1.5"
         dy="1.5"
         result="offset"
         id="feOffset6808" />
      <feComposite
         in="SourceGraphic"
         in2="offset"
         operator="over"
         result="composite2"
         id="feComposite6810" />
    </filter>
    <filter
       style="color-interpolation-filters:sRGB;"
       inkscape:label="Drop Shadow"
       id="filter6824">
      <feFlood
         flood-opacity="0.498039"
         flood-color="rgb(0,0,0)"
         result="flood"
         id="feFlood6814" />
      <feComposite
         in="flood"
         in2="SourceGraphic"
         operator="in"
         result="composite1"
         id="feComposite6816" />
      <feGaussianBlur
         in="composite1"
         stdDeviation="1"
         result="blur"
         id="feGaussianBlur6818" />
      <feOffset
         dx="1.5"
         dy="1.5"
         result="offset"
         id="feOffset6820" />
      <feComposite
         in="SourceGraphic"
         in2="offset"
         operator="over"
         result="composite2"
         id="feComposite6822" />
    </filter>
  </defs>
  <g
     stroke="none"
     stroke-width="1"
     fill="none"
     fill-rule="evenodd"
     id="g6439">
    <g
       transform="translate(-25.000000, -252.000000)"
       fill="#DC7F24"
       id="g6437">
      <g
         transform="translate(24.962647, 252.009149)"
         id="g6435">
        <g
           transform="translate(7.801205, 1.858753)"
           id="g6433">
          <g
             id="g6431">
            <path
               d="M23.4732229,2.50920658 C19.9117684,-1.45695866 0,0.485652887 0,0.485652887 L0,0.485652887 L0,0.485652887 L0,0.485652887 L0.323768591,37.1524458 L0.323768591,37.1524458 C0.323768591,37.1524458 5.26123961,37.233388 12.7888594,37.233388 C17.5644461,37.233388 20.7211898,36.666793 22.4209749,36.0192558 L22.4209749,36.0192558 C23.3922807,35.6954872 23.8779336,35.4526607 23.8779336,35.4526607 L24.2017022,29.1391732 C24.2017022,29.1391732 15.7027767,29.4629418 11.8175536,28.7344625 C8.25609908,28.0869253 8.41798337,22.8256857 11.5747271,22.8256857 C22.0162642,22.8256857 22.0162642,19.183289 21.4496692,15.7837188 L21.4496692,15.7027767 C17.3216196,15.4599502 12.8698015,15.2980659 10.8462478,14.6505288 C8.66080981,14.0029916 8.74175196,9.95588418 11.8175536,9.47023129 C13.9220494,9.1464627 24.2017022,10.0368263 24.5254708,8.57986767 L24.5254708,8.41798337 C24.3635865,7.20385115 23.4732229,2.50920658 23.4732229,2.50920658 Z"
               id="path6429" />
          </g>
        </g>
      </g>
    </g>
  </g>
  <g
     transform="matrix(0.74388737,0,0,0.74388737,-3.3415902,-3.2642808)"
     id="g5835"
     style="filter:url(#filter6812);stroke:none;stroke-opacity:1;fill:#030303;fill-opacity:1">
    <g
       id="g5829"
       style="stroke:none;stroke-opacity:1;fill:#030303;fill-opacity:1">
      <path
         inkscape:connector-curvature="0"
         class="st3"
         d="m 42.5,42 c -0.7,0 -1.3,-0.3 -1.7,-1 -0.6,-0.9 -0.3,-2.2 0.7,-2.8 L 51.6,32 c 0,0 0,-0.1 0,-0.1 L 41.5,25.7 c -0.9,-0.6 -1.2,-1.8 -0.7,-2.8 0.6,-0.9 1.8,-1.2 2.8,-0.7 l 10.6,6.6 0.2,0.2 c 1.6,1.6 1.6,4.3 0,6 l -0.2,0.2 -10.6,6.6 C 43.2,41.9 42.8,42 42.5,42 Z"
         id="path5827"
         style="fill:#030303;fill-opacity:1;stroke:none;stroke-opacity:1" />
    </g>
    <g
       id="g5833"
       style="stroke:none;stroke-opacity:1;fill:#030303;fill-opacity:1">
      <path
         inkscape:connector-curvature="0"
         class="st3"
         d="m 21.5,42 c -0.4,0 -0.7,-0.1 -1,-0.3 L 9.9,35.1 9.7,35 c -1.6,-1.6 -1.6,-4.3 0,-6 l 0.2,-0.2 10.6,-6.6 c 0.9,-0.6 2.2,-0.3 2.8,0.7 0.6,0.9 0.3,2.2 -0.7,2.8 l -10.1,6.2 c 0,0 0,0.1 0,0.1 l 10.1,6.2 c 0.9,0.6 1.2,1.8 0.7,2.8 -0.4,0.7 -1.1,1 -1.8,1 z"
         id="path5831"
         style="fill:#030303;fill-opacity:1;stroke:none;stroke-opacity:1" />
    </g>
  </g>
  <g
     transform="matrix(0.74388737,0,0,0.74388737,-3.3043958,-3.3094302)"
     id="g5839"
     style="filter:url(#filter6824);stroke:none;stroke-opacity:1;fill:#030303;fill-opacity:1">
    <path
       inkscape:connector-curvature="0"
       class="st3"
       d="m 25.5,51 c -0.2,0 -0.5,0 -0.7,-0.1 -1,-0.4 -1.5,-1.6 -1.2,-2.6 l 13,-34 c 0.4,-1 1.6,-1.5 2.6,-1.2 1,0.4 1.5,1.6 1.2,2.6 l -13,34 C 27.1,50.5 26.3,51 25.5,51 Z"
       id="path5837"
       style="fill:#030303;fill-opacity:1;stroke:none;stroke-opacity:1" />
  </g>
</svg>
