<?xml version="1.0" encoding="UTF-8" standalone="no"?>
<svg width="32px" height="32px" viewBox="0 0 32 32" version="1.1" xmlns="http://www.w3.org/2000/svg" xmlns:xlink="http://www.w3.org/1999/xlink">
    <!-- Generator: Sketch 49.3 (51167) - http://www.bohemiancoding.com/sketch -->
    <title>TextSpin1</title>
    <desc>Created with Sketch.</desc>
    <defs></defs>
    <g stroke="none" stroke-width="1" fill="none" fill-rule="evenodd">
        <rect fill="#999999" fill-rule="nonzero" transform="translate(16.496476, 8.997550) scale(1, -1) translate(-16.496476, -8.997550) " x="1.99647621" y="8" width="29" height="1.9951"></rect>
        <path d="M9.13995943,18.938992 L7.3306288,13.7745358 L5.40770791,18.938992 L9.13995943,18.938992 Z M6.48681542,12.0397878 L8.31237323,12.0397878 L12.6369168,23.729443 L10.8681542,23.729443 L9.65922921,20.2281167 L4.94523327,20.2281167 L3.65517241,23.729443 L2,23.729443 L6.48681542,12.0397878 Z M13.7971602,12 L15.2170385,12 L15.2170385,16.2413793 C15.5361747,15.8328892 15.9175096,15.5212212 16.3610548,15.306366 C16.8045999,15.0915109 17.2860015,14.9840849 17.8052738,14.9840849 C18.8870913,14.9840849 19.7647025,15.3488027 20.4381339,16.0782493 C21.1115652,16.807696 21.4482759,17.883282 21.4482759,19.3050398 C21.4482759,20.6525266 21.115622,21.7718788 20.4503043,22.66313 C19.7849865,23.5543811 18.862751,24 17.68357,24 C17.0236613,24 16.4665337,23.8435029 16.0121704,23.530504 C15.741716,23.3448267 15.4523342,23.0477474 15.1440162,22.6392573 L15.1440162,23.729443 L13.7971602,23.729443 L13.7971602,12 Z M19.36714,21.8116711 C19.7592988,21.1962834 19.9553753,20.3846204 19.9553753,19.3766578 C19.9553753,18.4801016 19.7592988,17.7374035 19.36714,17.1485411 C18.9749811,16.5596788 18.3975697,16.265252 17.6348884,16.265252 C16.9695707,16.265252 16.3867503,16.5066289 15.8864097,16.9893899 C15.3860692,17.472151 15.1359026,18.267899 15.1359026,19.3766578 C15.1359026,20.1777228 15.2386738,20.8275837 15.4442191,21.3262599 C15.8282643,22.2652567 16.5449576,22.734748 17.5943205,22.734748 C18.3840472,22.734748 18.9749811,22.4270588 19.36714,21.8116711 Z M28.8924949,15.6604775 C29.5064263,16.1273233 29.875591,16.9310288 30,18.071618 L28.5801217,18.071618 C28.4935763,17.5464165 28.2961476,17.1100813 27.9878296,16.7625995 C27.6795116,16.4151176 27.1845876,16.2413793 26.5030426,16.2413793 C25.5726796,16.2413793 24.9073718,16.6869982 24.5070994,17.5782493 C24.2474632,18.1565016 24.1176471,18.8700223 24.1176471,19.7188329 C24.1176471,20.5729486 24.3015533,21.2917743 24.6693712,21.8753316 C25.0371891,22.4588889 25.6159528,22.7506631 26.4056795,22.7506631 C27.0114973,22.7506631 27.4915466,22.5689673 27.8458418,22.2055703 C28.200137,21.8421732 28.4448945,21.3448307 28.5801217,20.7135279 L30,20.7135279 C29.8377274,21.843507 29.4320519,22.6697587 28.7829615,23.1923077 C28.133871,23.7148567 27.3035886,23.9761273 26.2920892,23.9761273 C25.1561809,23.9761273 24.2501724,23.5689696 23.5740365,22.7546419 C22.8979006,21.9403142 22.5598377,20.923083 22.5598377,19.7029178 C22.5598377,18.2068891 22.9303546,17.0424445 23.6713996,16.2095491 C24.4124445,15.3766537 25.3563161,14.9602122 26.5030426,14.9602122 C27.4820874,14.9602122 28.2785635,15.1936316 28.8924949,15.6604775 Z" fill="#5D5D5D" transform="translate(16.000000, 18.000000) scale(1, -1) translate(-16.000000, -18.000000) "></path>
    </g>
</svg>