<?xml version="1.0" encoding="UTF-8" standalone="no"?>
<svg width="32px" height="32px" viewBox="0 0 32 32" version="1.1" xmlns="http://www.w3.org/2000/svg" xmlns:xlink="http://www.w3.org/1999/xlink">
    <!-- Generator: Sketch 49.3 (51167) - http://www.bohemiancoding.com/sketch -->
    <title>TextSpin0</title>
    <desc>Created with Sketch.</desc>
    <defs></defs>
    <g stroke="none" stroke-width="1" fill="none" fill-rule="evenodd">
        <g transform="translate(2.000000, 8.000000)">
            <path d="M7.13995943,6.93899204 L5.3306288,1.77453581 L3.40770791,6.93899204 L7.13995943,6.93899204 Z M4.48681542,0.0397877984 L6.31237323,0.0397877984 L10.6369168,11.729443 L8.86815416,11.729443 L7.65922921,8.22811671 L2.94523327,8.22811671 L1.65517241,11.729443 L0,11.729443 L4.48681542,0.0397877984 Z M11.7971602,0 L13.2170385,0 L13.2170385,4.24137931 C13.5361747,3.8328892 13.9175096,3.52122123 14.3610548,3.30636605 C14.8045999,3.09151086 15.2860015,2.98408488 15.8052738,2.98408488 C16.8870913,2.98408488 17.7647025,3.34880272 18.4381339,4.07824934 C19.1115652,4.80769595 19.4482759,5.88328202 19.4482759,7.30503979 C19.4482759,8.65252663 19.115622,9.77187883 18.4503043,10.66313 C17.7849865,11.5543811 16.862751,12 15.68357,12 C15.0236613,12 14.4665337,11.8435029 14.0121704,11.530504 C13.741716,11.3448267 13.4523342,11.0477474 13.1440162,10.6392573 L13.1440162,11.729443 L11.7971602,11.729443 L11.7971602,0 Z M17.36714,9.81167109 C17.7592988,9.1962834 17.9553753,8.38462042 17.9553753,7.37665782 C17.9553753,6.48010162 17.7592988,5.73740347 17.36714,5.14854111 C16.9749811,4.55967875 16.3975697,4.26525199 15.6348884,4.26525199 C14.9695707,4.26525199 14.3867503,4.50662889 13.8864097,4.98938992 C13.3860692,5.47215095 13.1359026,6.26789897 13.1359026,7.37665782 C13.1359026,8.17772284 13.2386738,8.82758371 13.4442191,9.32625995 C13.8282643,10.2652567 14.5449576,10.734748 15.5943205,10.734748 C16.3840472,10.734748 16.9749811,10.4270588 17.36714,9.81167109 Z M26.8924949,3.66047745 C27.5064263,4.12732329 27.875591,4.93102878 28,6.07161804 L26.5801217,6.07161804 C26.4935763,5.54641647 26.2961476,5.11008131 25.9878296,4.76259947 C25.6795116,4.41511763 25.1845876,4.24137931 24.5030426,4.24137931 C23.5726796,4.24137931 22.9073718,4.6869982 22.5070994,5.57824934 C22.2474632,6.15650156 22.1176471,6.87002228 22.1176471,7.71883289 C22.1176471,8.57294857 22.3015533,9.29177427 22.6693712,9.87533156 C23.0371891,10.4588889 23.6159528,10.7506631 24.4056795,10.7506631 C25.0114973,10.7506631 25.4915466,10.5689673 25.8458418,10.2055703 C26.200137,9.84217325 26.4448945,9.34483074 26.5801217,8.71352785 L28,8.71352785 C27.8377274,9.84350698 27.4320519,10.6697587 26.7829615,11.1923077 C26.133871,11.7148567 25.3035886,11.9761273 24.2920892,11.9761273 C23.1561809,11.9761273 22.2501724,11.5689696 21.5740365,10.7546419 C20.8979006,9.94031423 20.5598377,8.92308302 20.5598377,7.70291777 C20.5598377,6.20688907 20.9303546,5.04244448 21.6713996,4.20954907 C22.4124445,3.37665366 23.3563161,2.9602122 24.5030426,2.9602122 C25.4820874,2.9602122 26.2785635,3.19363162 26.8924949,3.66047745 Z" fill="#5D5D5D"></path>
            <rect fill="#999999" fill-rule="nonzero" x="0" y="14" width="29" height="1.9951"></rect>
        </g>
    </g>
</svg>