<?xml version="1.0" encoding="UTF-8" standalone="no"?>
<svg width="32px" height="32px" viewBox="0 0 32 32" version="1.1" xmlns="http://www.w3.org/2000/svg" xmlns:xlink="http://www.w3.org/1999/xlink">
    <!-- Generator: Sketch 49.3 (51167) - http://www.bohemiancoding.com/sketch -->
    <title>Txt</title>
    <desc>Created with Sketch.</desc>
    <defs></defs>
    <g stroke="none" stroke-width="1" fill="none" fill-rule="evenodd">
        <g transform="translate(6.000000, 0.000000)" fill-rule="nonzero">
            <polygon fill="#666666" transform="translate(19.500000, 27.500000) rotate(90.000000) translate(-19.500000, -27.500000) " points="24 32 15 32 15 23"></polygon>
            <polygon fill="#F3F3F3" transform="translate(12.000000, 16.000000) rotate(90.000000) translate(-12.000000, -16.000000) " points="19 13 19 4 -4 4 -4 28 28 28 28 13"></polygon>
            <polygon fill="#666666" transform="translate(12.000000, 16.000000) rotate(90.000000) translate(-12.000000, -16.000000) " points="27 13 27 14 27 17 27 27 -3 27 -3 5 16 5 18 5 19 5 19 4 -4 4 -4 28 28 28 28 13"></polygon>
        </g>
        <rect fill="#666666" x="2" y="4" width="28" height="16"></rect>
        <g transform="translate(6.500000, 7.000000)" fill="#D8D8D8">
            <rect x="0.5" y="0" width="18" height="2"></rect>
            <rect x="0.5" y="4" width="18" height="2"></rect>
            <rect x="0.5" y="8" width="12" height="2"></rect>
        </g>
    </g>
</svg>