<?xml version="1.0" encoding="UTF-8" standalone="no"?>
<svg width="32px" height="32px" viewBox="0 0 32 32" version="1.1" xmlns="http://www.w3.org/2000/svg" xmlns:xlink="http://www.w3.org/1999/xlink">
    <!-- Generator: Sketch 49.3 (51167) - http://www.bohemiancoding.com/sketch -->
    <title>Ulp</title>
    <desc>Created with Sketch.</desc>
    <defs></defs>
    <g stroke="none" stroke-width="1" fill="none" fill-rule="evenodd">
        <g transform="translate(18.000000, 16.000000) rotate(90.000000) translate(-18.000000, -16.000000) translate(2.000000, 4.000000)" fill-rule="nonzero">
            <polygon fill="#666666" points="32 9 23 9 23 0"></polygon>
            <polygon fill="#F3F3F3" points="23 9 23 0 0 0 0 24 32 24 32 9"></polygon>
            <polygon fill="#666666" points="31 9 31 10 31 13 31 23 1 23 1 1 20 1 22 1 23 1 23 0 0 0 0 24 32 24 32 9"></polygon>
        </g>
        <rect fill="#D98448" x="2" y="4" width="28" height="16"></rect>
        <path d="M12.3595506,7 L12.3595506,13.6573034 C12.3595506,15.5393258 11.1938202,17 8.67977528,17 C6.16573034,17 5,15.5393258 5,13.6573034 L5,7 L6.43258427,7 L6.43258427,13.6713483 C6.43258427,14.9494382 7.07865169,15.8623596 8.67977528,15.8623596 C10.2808989,15.8623596 10.9269663,14.9494382 10.9269663,13.6713483 L10.9269663,7 L12.3595506,7 Z M15.4325843,15.6376404 L19.5477528,15.6376404 L19.5477528,16.8314607 L14,16.8314607 L14,7 L15.4325843,7 L15.4325843,15.6376404 Z M24.0477528,7 C26.1264045,7 27.4747191,7.98314607 27.4747191,9.78089888 L27.4747191,10.5393258 C27.4747191,12.3370787 26.0280899,13.3623596 23.8089888,13.3623596 L22.4325843,13.3623596 L22.4325843,16.8314607 L21,16.8314607 L21,7 L24.0477528,7 Z M26.1095506,10.4831461 L26.1095506,9.8511236 C26.1095506,8.67134831 25.3230337,8.13764045 24.0730337,8.13764045 L22.5,8.13764045 L22.5,12.2106742 L23.8483146,12.2106742 C25.2808989,12.2106742 26.1095506,11.6910112 26.1095506,10.4831461 Z" fill="#FFFFFF"></path>
    </g>
</svg>