<?xml version="1.0" encoding="UTF-8" standalone="no"?>
<svg width="32px" height="32px" viewBox="0 0 32 32" version="1.1" xmlns="http://www.w3.org/2000/svg" xmlns:xlink="http://www.w3.org/1999/xlink">
    <!-- Generator: Sketch 49.3 (51167) - http://www.bohemiancoding.com/sketch -->
    <title>Update</title>
    <desc>Created with Sketch.</desc>
    <defs></defs>
    <g stroke="none" stroke-width="1" fill="none" fill-rule="evenodd">
        <polyline fill="#3C3C3C" points="27.2106961 15.6904282 18.9265137 14.1469436 25.7469261 6.90679397"></polyline>
        <polyline fill="#3C3C3C" points="27.2106961 15.6904282 18.9265137 14.1469436 25.7469261 6.90679397"></polyline>
        <path d="M5.73956612,17.9530037 L9.55482314,17.9530037 C10.2610231,20.8577763 12.8793741,23.0143864 16.0014285,23.0143864 C19.1234828,23.0143864 21.7418338,20.8577763 22.4480338,17.9530037 L26.2632908,17.9530037 C25.5053742,22.9395193 21.1996179,26.7604802 16.0014285,26.7604802 C10.803239,26.7604802 6.49748275,22.9395193 5.73956612,17.9530037 Z M5.73956612,14.8074764 C6.49748275,9.82096093 10.803239,6 16.0014285,6 C21.1996179,6 25.5053742,9.82096093 26.2632908,14.8074764 L22.4480338,14.8074764 C21.7418338,11.9027039 19.1234828,9.74609375 16.0014285,9.74609375 C12.8793741,9.74609375 10.2610231,11.9027039 9.55482314,14.8074764 L5.73956612,14.8074764 Z" fill="#3C3C3C"></path>
        <polyline fill="#3C3C3C" transform="translate(8.142091, 20.507962) rotate(180.000000) translate(-8.142091, -20.507962) " points="12.2841825 24.8997788 4 23.3562941 10.8204124 16.1161446"></polyline>
    </g>
</svg>