<?xml version="1.0" encoding="UTF-8" standalone="no"?>
<svg width="32px" height="32px" viewBox="0 0 32 32" version="1.1" xmlns="http://www.w3.org/2000/svg" xmlns:xlink="http://www.w3.org/1999/xlink">
    <!-- Generator: Sketch 50.2 (55047) - http://www.bohemiancoding.com/sketch -->
    <title>Use</title>
    <desc>Created with Sketch.</desc>
    <defs></defs>
    <g stroke="none" stroke-width="1" fill="none" fill-rule="evenodd">
        <path d="M6,30.5 C5.39648092,30.5001639 4.79754005,30.3952647 4.23,30.19 C3.67982672,30.0038787 3.16321392,29.7303778 2.7,29.38 L2.5,29.23 L2.5,7.77 L8.79,1.5 L15.5,1.5 L15.5,23.21 L9.31,29.4 C8.84166686,29.7431041 8.32187535,30.0097504 7.77,30.19 C7.20267221,30.3960608 6.60359003,30.5009848 6,30.5 Z" fill="#F3F3F3" fill-rule="nonzero"></path>
        <path d="M15,2 L15,23 L9,29 C8.57232362,29.3151482 8.09605738,29.5583479 7.59,29.72 C7.08032765,29.9051315 6.54225414,29.9998866 6,30 C5.4505446,29.997781 4.90569621,29.8996407 4.39,29.71 C3.89164087,29.5492822 3.42233054,29.3095625 3,29 L3,8 L9,2 L15,2 Z M16,1 L8.59,1 L2,7.57 L2,29.48 L2.39,29.78 C2.89573601,30.1612081 3.45964299,30.4583567 4.06,30.66 C5.31067176,31.1104816 6.67932824,31.1104816 7.93,30.66 C8.5337721,30.4637362 9.10129453,30.1698407 9.61,29.79 L9.66,29.79 L16,23.41 L16,1 Z" fill="#333333" fill-rule="nonzero"></path>
        <polygon fill="#BBBBBB" fill-rule="nonzero" points="15 23 12 26 9 29 9 18.5 9 8 12 5 15 2 15 12.5"></polygon>
        <path d="M9,2 L3,8 C4.76739887,9.36411474 7.23260113,9.36411474 9,8 L15,2 L9,2 Z" fill="#F3F3F3" fill-rule="nonzero"></path>
        <path d="M9,8 L9,29 C8.57625605,29.3204927 8.10349209,29.5703822 7.6,29.74 C6.56602107,30.1134537 5.43397893,30.1134537 4.4,29.74 C3.89650791,29.5703822 3.42374395,29.3204927 3,29 L3,8 C3.42374395,8.32049268 3.89650791,8.5703822 4.4,8.74 C5.43397893,9.11345373 6.56602107,9.11345373 7.6,8.74 C8.10349209,8.5703822 8.57625605,8.32049268 9,8 Z" fill="#999999" fill-rule="nonzero"></path>
        <path d="M9,13 L9,15.15 C8.08085075,15.657704 7.04999107,15.9291637 6,15.94 C4.95347562,15.9410302 3.92291908,15.683391 3,15.19 L3,13 C4.80298463,14.2554374 7.19701537,14.2554374 9,13 Z" fill="#F3F3F3" fill-rule="nonzero"></path>
        <path d="M13,30.5 C12.3964809,30.5001639 11.7975401,30.3952647 11.23,30.19 C10.6798267,30.0038787 10.1632139,29.7303778 9.7,29.38 L9.5,29.23 L9.5,7.77 L15.79,1.5 L22.5,1.5 L22.5,23.21 L16.31,29.4 C15.8416669,29.7431041 15.3218754,30.0097504 14.77,30.19 C14.2026722,30.3960608 13.60359,30.5009848 13,30.5 Z" fill="#F3F3F3" fill-rule="nonzero"></path>
        <path d="M22,2 L22,23 L16,29 C15.5723236,29.3151482 15.0960574,29.5583479 14.59,29.72 C14.0803277,29.9051315 13.5422541,29.9998866 13,30 C12.4505446,29.997781 11.9056962,29.8996407 11.39,29.71 C10.8916409,29.5492822 10.4223305,29.3095625 10,29 L10,8 L16,2 L22,2 Z M23,1 L15.59,1 L9,7.57 L9,29.48 L9.39,29.78 C9.89573601,30.1612081 10.459643,30.4583567 11.06,30.66 C12.3106718,31.1104816 13.6793282,31.1104816 14.93,30.66 C15.5337721,30.4637362 16.1012945,30.1698407 16.61,29.79 L16.66,29.79 L23,23.41 L23,1 Z" fill="#333333" fill-rule="nonzero"></path>
        <polygon fill="#BBBBBB" fill-rule="nonzero" points="22 23 19 26 16 29 16 18.5 16 8 19 5 22 2 22 12.5"></polygon>
        <path d="M16,2 L10,8 C11.7673989,9.36411474 14.2326011,9.36411474 16,8 L22,2 L16,2 Z" fill="#F3F3F3" fill-rule="nonzero"></path>
        <path d="M16,8 L16,29 C15.5762561,29.3204927 15.1034921,29.5703822 14.6,29.74 C13.5660211,30.1134537 12.4339789,30.1134537 11.4,29.74 C10.8965079,29.5703822 10.4237439,29.3204927 10,29 L10,8 C10.4237439,8.32049268 10.8965079,8.5703822 11.4,8.74 C12.4339789,9.11345373 13.5660211,9.11345373 14.6,8.74 C15.1034921,8.5703822 15.5762561,8.32049268 16,8 Z" fill="#999999" fill-rule="nonzero"></path>
        <path d="M16,13 L16,15.15 C14.1317148,16.1765079 11.8682852,16.1765079 10,15.15 L10,13 C11.8029846,14.2554374 14.1970154,14.2554374 16,13 Z" fill="#F3F3F3" fill-rule="nonzero"></path>
        <path d="M20,30.5 C19.3964809,30.5001639 18.7975401,30.3952647 18.23,30.19 C17.6798267,30.0038787 17.1632139,29.7303778 16.7,29.38 L16.5,29.23 L16.5,7.77 L22.79,1.5 L29.5,1.5 L29.5,23.21 L23.25,29.44 C22.7950107,29.7653896 22.2923927,30.0183853 21.76,30.19 C21.1958289,30.3949119 20.6002316,30.4998182 20,30.5 Z" fill="#F3F3F3" fill-rule="nonzero"></path>
        <path d="M29,2 L29,23 L22.95,29 C22.5351151,29.2990094 22.0763161,29.5317825 21.59,29.69 C21.082163,29.8853683 20.5440338,29.9902866 20,30 C19.4505446,29.997781 18.9056962,29.8996407 18.39,29.71 C17.8916409,29.5492822 17.4223305,29.3095625 17,29 L17,8 L23,2 L29,2 Z M30,1 L22.59,1 L16,7.57 L16,29.48 L16.39,29.78 C16.895736,30.1612081 17.459643,30.4583567 18.06,30.66 C19.3106718,31.1104816 20.6793282,31.1104816 21.93,30.66 C22.5337721,30.4637362 23.1012945,30.1698407 23.61,29.79 L30,23.41 L30,1 Z" fill="#333333" fill-rule="nonzero"></path>
        <polygon fill="#585858" fill-rule="nonzero" points="29 23 26 26 23 29 23 18.5 23 8 26 5 29 2 29 12.5"></polygon>
        <path d="M23,2 L17,8 C18.7673989,9.36411474 21.2326011,9.36411474 23,8 L29,2 L23,2 Z" fill="#F3F3F3" fill-rule="nonzero"></path>
        <path d="M23,8 L23,29 C22.5762561,29.3204927 22.1034921,29.5703822 21.6,29.74 C20.5660211,30.1134537 19.4339789,30.1134537 18.4,29.74 C17.8965079,29.5703822 17.4237439,29.3204927 17,29 L17,8 C17.4237439,8.32049268 17.8965079,8.5703822 18.4,8.74 C19.4339789,9.11345373 20.5660211,9.11345373 21.6,8.74 C22.1034921,8.5703822 22.5762561,8.32049268 23,8 Z" fill="#999999" fill-rule="nonzero"></path>
        <path d="M23,15.15 C21.1317148,16.1765079 18.8682852,16.1765079 17,15.15 L17,13 C18.8029846,14.2554374 21.1970154,14.2554374 23,13 L23,15.15 Z" fill="#F3F3F3" fill-rule="nonzero"></path>
    </g>
</svg>