<?xml version="1.0" encoding="UTF-8" standalone="no"?>
<svg width="32px" height="33px" viewBox="0 0 32 33" version="1.1" xmlns="http://www.w3.org/2000/svg" xmlns:xlink="http://www.w3.org/1999/xlink">
    <!-- Generator: Sketch 49.3 (51167) - http://www.bohemiancoding.com/sketch -->
    <title>UsedOn</title>
    <desc>Created with Sketch.</desc>
    <defs></defs>
    <g stroke="none" stroke-width="1" fill="none" fill-rule="evenodd">
        <g transform="translate(-14.000000, -13.000000)">
            <g transform="translate(10.000000, 10.000000)">
                <g transform="translate(4.003524, 3.781967)">
                    <g transform="translate(6.000000, 6.218033)">
                        <path d="M19.8490854,10.3714164 C19.8490854,5.11870808 15.5948666,0.870426829 10.3490854,0.870426829 C5.10528328,0.870426829 0.849085366,5.11870808 0.849085366,10.3714164 C0.849085366,15.6142289 5.10528328,19.8704268 10.3490854,19.8704268 C15.5948666,19.8704268 19.8490854,15.6142289 19.8490854,10.3714164" fill="#14B44E"></path>
                        <path d="M19.8490854,10.3714164 C19.8490854,5.11870808 15.5948666,0.870426829 10.3490854,0.870426829 C5.10528328,0.870426829 0.849085366,5.11870808 0.849085366,10.3714164 C0.849085366,15.6142289 5.10528328,19.8704268 10.3490854,19.8704268 C15.5948666,19.8704268 19.8490854,15.6142289 19.8490854,10.3714164 M18.8490854,10.3713122 C18.8490854,5.67152058 15.0426791,1.87042683 10.3490854,1.87042683 C5.65726245,1.87042683 1.84908537,5.67152058 1.84908537,10.3713122 C1.84908537,15.0622497 5.65726245,18.8704268 10.3490854,18.8704268 C15.0426791,18.8704268 18.8490854,15.0622497 18.8490854,10.3713122" fill-opacity="0.1" fill="#000000"></path>
                    </g>
                </g>
            </g>
        </g>
    </g>
</svg>