<?xml version="1.0" encoding="UTF-8" standalone="no"?>
<svg width="32px" height="32px" viewBox="0 0 32 32" version="1.1" xmlns="http://www.w3.org/2000/svg" xmlns:xlink="http://www.w3.org/1999/xlink">
    <!-- Generator: Sketch 49.3 (51167) - http://www.bohemiancoding.com/sketch -->
    <title>UsedPrep</title>
    <desc>Created with Sketch.</desc>
    <defs></defs>
    <g stroke="none" stroke-width="1" fill="none" fill-rule="evenodd">
        <path d="M25,16.0009375 C25,11.0246875 20.9696875,7 16,7 C11.0321875,7 7,11.0246875 7,16.0009375 C7,20.9678125 11.0321875,25 16,25 C20.9696875,25 25,20.9678125 25,16.0009375" fill="#E87E29"></path>
        <path d="M25,16.0009375 C25,11.0246875 20.9696875,7 16,7 C11.0321875,7 7,11.0246875 7,16.0009375 C7,20.9678125 11.0321875,25 16,25 C20.9696875,25 25,20.9678125 25,16.0009375 M24,16.0008333 C24,11.5775 20.4175,8 16,8 C11.5841667,8 8,11.5775 8,16.0008333 C8,20.4158333 11.5841667,24 16,24 C20.4175,24 24,20.4158333 24,16.0008333" fill="#000000" opacity="0.1"></path>
    </g>
</svg>