<?xml version="1.0" encoding="UTF-8" standalone="no"?>
<svg width="32px" height="34px" viewBox="0 0 32 34" version="1.1" xmlns="http://www.w3.org/2000/svg" xmlns:xlink="http://www.w3.org/1999/xlink">
    <!-- Generator: Sketch 49.3 (51167) - http://www.bohemiancoding.com/sketch -->
    <title>UsedOff</title>
    <desc>Created with Sketch.</desc>
    <defs></defs>
    <g stroke="none" stroke-width="1" fill="none" fill-rule="evenodd">
        <g transform="translate(-65.000000, -13.000000)">
            <g transform="translate(61.000000, 10.000000)">
                <g transform="translate(4.003524, 3.281967)">
                    <g transform="translate(9.000000, 9.718033)">
                        <path d="M13.0994,7.39903906 C13.0994,3.80575781 10.1886188,0.899039063 6.5994,0.899039063 C3.01119688,0.899039063 0.0994,3.80575781 0.0994,7.39903906 C0.0994,10.9862266 3.01119688,13.8980234 6.5994,13.8980234 C10.1886188,13.8980234 13.0994,10.9862266 13.0994,7.39903906" fill="#8A8A89"></path>
                        <path d="M13.0994,7.3990391 C13.0994,3.80547711 10.1886188,0.89853125 6.5994,0.89853125 C3.01119688,0.89853125 0.0994,3.80547711 0.0994,7.3990391 C0.0994,10.9865069 3.01119688,13.8985313 6.5994,13.8985313 C10.1886188,13.8985313 13.0994,10.9865069 13.0994,7.3990391" fill="#000000" opacity="0.1"></path>
                        <path d="M12.0994,7.39896094 C12.0994,4.35849219 9.63643125,1.89896094 6.5994,1.89896094 C3.56322813,1.89896094 1.0994,4.35849219 1.0994,7.39896094 C1.0994,10.4342734 3.56322813,12.8981016 6.5994,12.8981016 C9.63643125,12.8981016 12.0994,10.4342734 12.0994,7.39896094" fill="#000000" opacity="0.1"></path>
                    </g>
                </g>
            </g>
        </g>
    </g>
</svg>