<?xml version="1.0" encoding="UTF-8" standalone="no"?>
<svg width="39px" height="39px" viewBox="0 0 39 39" version="1.1" xmlns="http://www.w3.org/2000/svg" xmlns:xlink="http://www.w3.org/1999/xlink">
    <!-- Generator: Sketch 49.3 (51167) - http://www.bohemiancoding.com/sketch -->
    <title>vertical</title>
    <desc>Created with Sketch.</desc>
    <defs></defs>
    <g stroke="none" stroke-width="1" fill="none" fill-rule="evenodd">
        <g transform="translate(0.402748, 0.115918)" fill="#666666" fill-rule="nonzero">
            <g transform="translate(0.000000, 0.375956)">
                <g transform="translate(0.333333, 0.290711)">
                    <polygon points="0 0 0 16 16 16 16 0"></polygon>
                    <path d="M21.3333333,0 L21.3333333,16 L37.3333333,16 L37.3333333,0 L21.3333333,0 Z M36,14.6666667 L22.6666667,14.6666667 L22.6666667,1.33333333 L36,1.33333333 L36,14.6666667 Z"></path>
                    <polygon points="0 21.3333333 0 37.3333333 16 37.3333333 16 21.3333333"></polygon>
                    <path d="M21.3333333,21.3333333 L21.3333333,37.3333333 L37.3333333,37.3333333 L37.3333333,21.3333333 L21.3333333,21.3333333 Z M36,36 L22.6666667,36 L22.6666667,22.6666667 L36,22.6666667 L36,36 Z"></path>
                </g>
            </g>
        </g>
    </g>
</svg>