<?xml version="1.0" encoding="UTF-8" standalone="no"?>
<svg width="32px" height="32px" viewBox="0 0 32 32" version="1.1" xmlns="http://www.w3.org/2000/svg" xmlns:xlink="http://www.w3.org/1999/xlink">
    <!-- Generator: Sketch 49.3 (51167) - http://www.bohemiancoding.com/sketch -->
    <title>Via</title>
    <desc>Created with Sketch.</desc>
    <defs></defs>
    <g stroke="none" stroke-width="1" fill="none" fill-rule="evenodd">
        <path d="M31,1 L30,1 C29.447,1 29,1.447 29,2 L29,15 L26.809,15 C26.929,15.649 27,16.316 27,17 C27,17.338 26.979,17.67 26.949,18 L30,18 L32,18 L32,16 L32,2 C32,1.447 31.553,1 31,1 Z" fill="#008DE9" fill-rule="nonzero"></path>
        <path d="M5.191,15 L2,15 L0,15 L0,17 L0,31 C0,31.553 0.448,32 1,32 L2,32 C2.553,32 3,31.553 3,31 L3,18 L5.051,18 C5.021,17.67 5,17.338 5,17 C5,16.316 5.071,15.649 5.191,15 Z" fill="#BF3C40" fill-rule="nonzero"></path>
        <g transform="translate(4.000000, 6.000000)" fill-rule="nonzero">
            <path d="M22.9964762,11.0910645 C22.9964762,17.1608645 18.0695762,22.0910645 11.9964762,22.0910645 C5.92337621,22.0910645 0.996476212,17.1608645 0.996476212,11.0910645 C0.996476212,5.02126445 5.92337621,0.0910644531 11.9964762,0.0910644531 C18.0695762,0.0910644531 22.9964762,5.02126445 22.9964762,11.0910645 Z" fill="#14B44E"></path>
            <path d="M12,1 C17.521,1 22,5.482 22,11 C22,16.518 17.521,21 12,21 C6.479,21 2,16.518 2,11 C2,5.482 6.479,1 12,1 Z M12,0 C5.935,0 1,4.935 1,11 C1,17.065 5.935,22 12,22 C18.065,22 23,17.065 23,11 C23,4.935 18.065,0 12,0 Z" fill="#000000" opacity="0.1"></path>
        </g>
        <g transform="translate(13.000000, 14.000000)" fill-rule="nonzero">
            <path d="M5,3 C5,4.104 4.104,5 3,5 C1.896,5 1,4.104 1,3 C1,1.897 1.896,1 3,1 C4.104,1 5,1.897 5,3 Z" fill="#F3F3F3"></path>
            <path d="M3,1 C4.104,1 5,1.897 5,3 C5,4.104 4.104,5 3,5 C1.896,5 1,4.104 1,3 C1,1.897 1.896,1 3,1 Z M3,0 C1.346,0 0,1.346 0,3 C0,4.654 1.346,6 3,6 C4.654,6 6,4.654 6,3 C6,1.346 4.654,0 3,0 Z" fill="#4D8844"></path>
        </g>
    </g>
</svg>