<?xml version="1.0" encoding="UTF-8" standalone="no"?>
<svg width="32px" height="32px" viewBox="0 0 32 32" version="1.1" xmlns="http://www.w3.org/2000/svg" xmlns:xlink="http://www.w3.org/1999/xlink">
    <!-- Generator: Sketch 49.3 (51167) - http://www.bohemiancoding.com/sketch -->
    <title>Show</title>
    <desc>Created with Sketch.</desc>
    <defs></defs>
    <g stroke="none" stroke-width="1" fill="none" fill-rule="evenodd">
        <path d="M1.00065144,16.1893662 C0.98348659,15.4349468 1.30623035,14.5546224 1.8858021,13.5088951 C2.09692805,13.1279583 2.33971834,12.731875 2.60822748,12.3251235 C2.93803718,11.8255107 3.28983918,11.334661 3.64160833,10.8719069 C3.85334002,10.5933727 4.01938743,10.3843938 4.14567648,10.232392 C10.3372878,3.36260459 21.2507792,3.15040291 27.6568763,10.2310372 C28.9369223,11.645867 30.6708959,14.4748784 30.7372736,16.1290372 C30.7766867,17.1112279 30.386568,18.2155048 29.708542,19.4193413 C29.2808244,20.1787548 28.7554956,20.9315093 28.4043712,21.3567385 C21.5376254,29.6727114 10.5076146,29.6723243 3.81847702,21.8304445 C3.72951866,21.7146978 3.57904705,21.5119045 3.38729329,21.2415641 C3.06885665,20.7926222 2.75041754,20.3159859 2.45189802,19.830227 C2.20218319,19.4238843 1.97711646,19.0281755 1.78252262,18.6477546 C1.29744204,17.6994473 1.0165308,16.8872862 1.00065144,16.1893662 Z" fill="#F3F3F3"></path>
        <path d="M2.13802366,16.134745 C2.14616685,16.4925903 2.35860418,17.1066805 2.74434091,17.8606512 C2.92473062,18.2132454 3.13762807,18.5874966 3.37621975,18.9756752 C3.66737023,19.4493648 3.98080529,19.9184335 4.29424295,20.3602547 C4.48157194,20.6243133 4.62586203,20.8187436 4.67244303,20.8815195 C10.9175663,28.1998581 21.1244715,28.2002162 27.5961447,20.3639909 C27.8948919,20.0022528 28.3834912,19.3022445 28.7752188,18.6068462 C29.3242116,17.6322696 29.6287458,16.7703919 29.6058018,16.1987121 C29.560703,15.0750173 27.9159303,12.3919822 26.863585,11.2290212 C20.8907849,4.62839915 10.7207421,4.82611256 4.98028781,11.192721 C4.89205407,11.2999807 4.73190905,11.5014978 4.52414416,11.7747685 C4.17668477,12.2317777 3.82926024,12.7164395 3.50654686,13.2052217 C3.24910017,13.5951509 3.01858751,13.9711426 2.82203573,14.3257244 C2.37050057,15.1402994 2.13030071,15.7953666 2.13802366,16.134745 Z M1.00065144,16.1893662 C0.98348659,15.4349468 1.30623035,14.5546224 1.8858021,13.5088951 C2.09692805,13.1279583 2.33971834,12.731875 2.60822748,12.3251235 C2.93803718,11.8255107 3.28983918,11.334661 3.64160833,10.8719069 C3.85334002,10.5933727 4.01938743,10.3843938 4.14567648,10.232392 C10.3372878,3.36260459 21.2507792,3.15040291 27.6568763,10.2310372 C28.9369223,11.645867 30.6708959,14.4748784 30.7372736,16.1290372 C30.7766867,17.1112279 30.386568,18.2155048 29.708542,19.4193413 C29.2808244,20.1787548 28.7554956,20.9315093 28.4043712,21.3567385 C21.5376254,29.6727114 10.5076146,29.6723243 3.81847702,21.8304445 C3.72951866,21.7146978 3.57904705,21.5119045 3.38729329,21.2415641 C3.06885665,20.7926222 2.75041754,20.3159859 2.45189802,19.830227 C2.20218319,19.4238843 1.97711646,19.0281755 1.78252262,18.6477546 C1.29744204,17.6994473 1.0165308,16.8872862 1.00065144,16.1893662 Z" fill="#333333" fill-rule="nonzero"></path>
        <path d="M15.872423,9.82695833 C12.2825721,9.82695833 9.37242299,12.7371075 9.37242299,16.3269583 C9.37242299,19.9168092 12.2825721,22.8269583 15.872423,22.8269583 C19.4622739,22.8269583 22.372423,19.9168092 22.372423,16.3269583 C22.372423,12.7371075 19.4622739,9.82695833 15.872423,9.82695833 Z M15.9164283,8.8709636 C20.0585639,8.8709636 23.4164283,12.228828 23.4164283,16.3709636 C23.4164283,20.5130992 20.0585639,23.8709636 15.9164283,23.8709636 C11.7742926,23.8709636 8.41642826,20.5130992 8.41642826,16.3709636 C8.41642826,12.228828 11.7742926,8.8709636 15.9164283,8.8709636 Z" fill="#666666" fill-rule="nonzero"></path>
        <circle fill="#666666" cx="15.872423" cy="16.3269583" r="4"></circle>
    </g>
</svg>