<?xml version="1.0" encoding="UTF-8" standalone="no"?>
<svg width="32px" height="32px" viewBox="0 0 32 32" version="1.1" xmlns="http://www.w3.org/2000/svg" xmlns:xlink="http://www.w3.org/1999/xlink">
    <!-- Generator: Sketch 49.3 (51167) - http://www.bohemiancoding.com/sketch -->
    <title>Warning</title>
    <desc>Created with Sketch.</desc>
    <defs></defs>
    <g stroke="none" stroke-width="1" fill="none" fill-rule="evenodd">
        <path d="M30.6908,27.58508 C27.72064,22.10358 20.71582,9.1759 17.53156,3.29962 C16.2436,1.42273 15.27186,1.2937 14.32453,3.22589 C11.2168,8.97986 4.3501,21.69403 1.29822,27.34491 C0.61005,28.74219 1.13263,30.18591 2.66223,30.16547 C8.86175,30.16071 23.45038,30.1698 29.27307,30.16547 C30.80865,30.18738 31.42627,28.76263 30.6908,27.58508 Z" fill="#FCBE02" fill-rule="nonzero"></path>
        <g opacity="0.1" transform="translate(1.000000, 1.000000)" fill="#000000" fill-rule="nonzero">
            <g>
                <path d="M14.77509,1.84728 C14.87445,1.89706 15.17154,2.0941 15.67801,2.82336 L28.81159,27.06145 L28.82629,27.08858 L28.84263,27.11476 C29.01247,27.38669 29.04756,27.68261 28.93421,27.88703 C28.80683,28.11677 28.52465,28.16545 28.27429,28.16545 C28.27366,28.16545 28.27299,28.16545 28.27236,28.16545 L23.76202,28.16667 L15.42493,28.16537 L6.74893,28.16403 L1.63023,28.16566 C1.23337,28.16566 1.13012,27.99972 1.09619,27.94519 C0.9748,27.75009 0.92792,27.32961 1.17809,26.82006 L3.30469,22.88249 L14.22236,2.66614 C14.50074,2.09836 14.69919,1.90559 14.77509,1.84728 Z M14.75873,0.83333 C14.25238,0.83324 13.78562,1.28539 13.32448,2.22591 C10.21678,7.97984 3.35012,20.69403 0.29821,26.34486 C-0.38513,27.73235 0.12542,29.16566 1.63023,29.16566 C1.64087,29.16566 1.65151,29.16559 1.66224,29.16544 C3.01688,29.1644 4.77219,29.16402 6.74893,29.16402 C11.97348,29.16402 18.74627,29.16667 23.76202,29.16667 C25.53359,29.16667 27.0854,29.16634 28.27311,29.16545 C28.28473,29.16562 28.29649,29.1657 28.30801,29.1657 C29.81812,29.1657 30.42072,27.75375 29.69081,26.58504 C26.72068,21.10357 19.71583,8.17592 16.53158,2.29961 C15.87052,1.3363 15.29263,0.83342 14.75873,0.83333 Z"></path>
            </g>
        </g>
        <path d="M15.49182,20.73572 L16.50317,20.73572 C16.78241,20.73572 17.00879,20.42798 17.00879,20.04846 L18.02014,10.10663 C18.02014,9.72705 16.95099,8.73187 16.67163,8.73187 L15.32324,8.73187 C15.044,8.73187 13.97497,9.72705 13.97497,10.10663 L14.98608,20.04846 C14.98608,20.42798 15.21259,20.73572 15.49182,20.73572 Z M16.00415,23.07477 C14.8866,23.07477 13.98059,24.01831 13.98059,25.18225 C13.98059,26.34607 14.8866,27.28961 16.00415,27.28961 C17.12164,27.28961 18.02771,26.34607 18.02771,25.18225 C18.02771,24.01831 17.12164,23.07477 16.00415,23.07477 Z" fill="#000000" fill-rule="nonzero"></path>
    </g>
</svg>