<?xml version="1.0" encoding="UTF-8" standalone="no"?>
<svg width="32px" height="32px" viewBox="0 0 32 32" version="1.1" xmlns="http://www.w3.org/2000/svg" xmlns:xlink="http://www.w3.org/1999/xlink">
    <!-- Generator: Sketch 49.3 (51167) - http://www.bohemiancoding.com/sketch -->
    <title>WholeWord</title>
    <desc>Created with Sketch.</desc>
    <defs></defs>
    <g stroke="none" stroke-width="1" fill="none" fill-rule="evenodd">
        <path d="M7.24072266,16.8608398 L7.24072266,21.453125 L3,21.453125 L3,17.8276367 C3,15.8647363 3.23437266,14.4438521 3.703125,13.5649414 C4.31836245,12.3930605 5.2924738,11.5068389 6.62548828,10.90625 L7.59228516,12.4443359 C6.78661707,12.7812517 6.19336128,13.2829557 5.8125,13.9494629 C5.43163872,14.6159701 5.2192385,15.5864194 5.17529297,16.8608398 L7.24072266,16.8608398 Z M13.890625,16.8608398 L13.890625,21.453125 L9.64990234,21.453125 L9.64990234,17.8276367 C9.64990234,15.8647363 9.884275,14.4438521 10.3530273,13.5649414 C10.9682648,12.3930605 11.9423761,11.5068389 13.2753906,10.90625 L14.2421875,12.4443359 C13.4365194,12.7812517 12.8432636,13.2829557 12.4624023,13.9494629 C12.0815411,14.6159701 11.8691408,15.5864194 11.8251953,16.8608398 L13.890625,16.8608398 Z M17.9116211,15.7182617 L17.9116211,11.1259766 L22.1523438,11.1259766 L22.1523438,14.7514648 C22.1523438,16.7143653 21.9252952,18.1279254 21.4711914,18.9921875 C20.8413054,20.1787169 19.8598699,21.0722626 18.5268555,21.6728516 L17.5600586,20.112793 C18.3510782,19.7905257 18.9406719,19.2814976 19.3288574,18.5856934 C19.717043,17.8898891 19.9331052,16.9340881 19.9770508,15.7182617 L17.9116211,15.7182617 Z M24.7231445,15.7182617 L24.7231445,11.1259766 L28.9638672,11.1259766 L28.9638672,14.7514648 C28.9638672,16.7143653 28.7368187,18.1279254 28.2827148,18.9921875 C27.6528289,20.1787169 26.6713934,21.0722626 25.3383789,21.6728516 L24.371582,20.112793 C25.1626016,19.7905257 25.7521953,19.2814976 26.1403809,18.5856934 C26.5285664,17.8898891 26.7446287,16.9340881 26.7885742,15.7182617 L24.7231445,15.7182617 Z" fill="#3C3C3C"></path>
    </g>
</svg>