<?xml version="1.0" encoding="UTF-8" standalone="no"?>
<svg width="32px" height="32px" viewBox="0 0 32 32" version="1.1" xmlns="http://www.w3.org/2000/svg" xmlns:xlink="http://www.w3.org/1999/xlink">
    <!-- Generator: Sketch 49.3 (51167) - http://www.bohemiancoding.com/sketch -->
    <title>WillConnect</title>
    <desc>Created with Sketch.</desc>
    <defs></defs>
    <g stroke="none" stroke-width="1" fill="none" fill-rule="evenodd">
        <path d="M29,16.0004062 C29,23.1794319 23.17925,29 16,29 C8.82075,29 3,23.1794319 3,16.0004062 C3,8.82056811 8.82075,3 16,3 C23.17925,3 29,8.82056811 29,16.0004062 Z M27.7,16.0003656 C27.7,9.5385113 22.461325,4.3 16,4.3 C9.538675,4.3 4.3,9.5385113 4.3,16.0003656 C4.3,22.4614887 9.538675,27.7 16,27.7 C22.461325,27.7 27.7,22.4614887 27.7,16.0003656 Z" fill="#666666"></path>
        <path d="M14.4079608,16.0118964 L11.7346235,13.3385591 C11.3427122,12.9466479 11.3432469,12.3119976 11.7346235,11.920621 L11.9201531,11.7350914 C12.3120643,11.3431801 12.9467146,11.3426455 13.3386259,11.7345567 L16.0119632,14.407894 L18.6853005,11.7345567 C19.0451317,11.3747255 19.6289886,11.3747255 19.9888198,11.7345567 L20.2887682,12.0345052 C20.6491341,12.394871 20.6491341,12.9787279 20.2893029,13.3385591 L17.6159656,16.0118964 L20.2893029,18.6852337 C20.6812141,19.077145 20.4812485,19.5123643 20.0898719,19.9037409 L19.9043423,20.0892705 C19.5124311,20.4811817 19.0772118,20.6811474 18.6853005,20.2892361 L16.0119632,17.6158988 L13.3386259,20.2892361 C12.9787947,20.6490673 12.3949378,20.6490673 12.0351066,20.2892361 L11.7351581,19.9892877 C11.3747923,19.6289218 11.3747923,19.0450649 11.7346235,18.6852337 L14.4079608,16.0118964 Z" fill="#008DE9" transform="translate(16.000000, 16.000000) rotate(45.000000) translate(-16.000000, -16.000000) "></path>
    </g>
</svg>