<?xml version="1.0" encoding="UTF-8" standalone="no"?>
<svg width="32px" height="32px" viewBox="0 0 32 32" version="1.1" xmlns="http://www.w3.org/2000/svg" xmlns:xlink="http://www.w3.org/1999/xlink">
    <!-- Generator: Sketch 49.3 (51167) - http://www.bohemiancoding.com/sketch -->
    <title>WindowBoard</title>
    <desc>Created with Sketch.</desc>
    <defs></defs>
    <g stroke="none" stroke-width="1" fill="none" fill-rule="evenodd">
        <g transform="translate(0.000000, 16.000000)">
            <rect fill="#1B8D43" x="0" y="0" width="32" height="16"></rect>
            <g transform="translate(2.200000, 2.000000)" fill="#FFFFFF">
                <path d="M22.4666916,10.000292 C22.7141047,9.99744143 22.7329222,9.98299648 22.7840946,9.9148758 C22.8266451,9.85823249 24.454485,6.23039207 24.454485,6.01822152 C24.454485,5.78789575 24.4078724,5.64524113 24.2247959,5.2677907 L22.9605777,2.38830668 C22.797715,2.05486065 22.7863044,2.02275245 22.4664896,2.01939803 L22.4666916,10.000292 Z M20.4664896,2 L19.928668,2 C19.2816237,2 18.7964762,1.71140924 18.7964762,1 C18.7964762,0.287694633 19.2813652,0.0751857176 19.928668,0.0751857176 L22.3117697,0.0751857176 C23.6223427,0.0751857176 24.3949478,0.519764396 24.9509052,1.65348671 L26.2600525,4.26750379 C26.5700582,4.88589912 26.7201071,5.42699582 26.7201071,6.03184339 C26.7201071,6.70749204 26.5937141,7.163331 26.2452578,7.88273038 L24.9795925,10.409802 C24.3978516,11.57451 23.6779143,12.0751857 22.4418247,12.0751857 L20.0426209,12.0751857 C19.3301697,12.0751857 18.7964762,11.7300927 18.7964762,11 C18.7964762,10.2416704 19.33172,10.0006229 20.0859725,10.0006229 L20.4664896,10.0006229 L20.4664896,2 Z" fill-rule="nonzero"></path>
                <path d="M15.0904154,5.94074255 L14.5577855,5.94074255 L17.3609376,9.91523563 C17.4003046,9.96807268 17.4003046,9.96807268 17.4500878,10.0367466 C17.6790616,10.3566271 17.8000719,10.6104346 17.8000719,10.9125433 C17.8000719,11.5427302 17.2803644,12 16.6420785,12 C16.2197125,12 15.9149374,11.7890213 15.659371,11.4183137 L11.7987207,6.36679514 L11.7987207,10.869201 C11.7987207,11.5730294 11.532983,12 10.7964762,12 C10.0590447,12 9.80007191,11.5734266 9.80007191,10.869201 L9.80007191,0 L15.0904154,0 C16.5475053,0 17.8000719,1.05238145 17.8000719,2.49670155 L17.8000719,3.48738333 C17.8000719,4.98286522 16.5984948,5.94074255 15.0904154,5.94074255 Z M14.8000719,2 L11.8000719,2 L11.8000719,4 L14.9652243,4 C15.4967504,4 15.8000719,3.56915096 15.8000719,3.01180819 C15.8000719,2.45446543 15.6739844,2 14.8000719,2 Z"></path>
                <path d="M8.71858233,8.26866128 C8.71858233,10.6073776 7.49952336,12 5.231199,12 L0.796476212,12 L0.796476212,0 L5.231199,0 C7.32006871,0 8.71858233,1.3236004 8.71858233,3.40069868 C8.71858233,4.57008439 8.53204564,5.30377351 7.93665241,5.99332445 C8.4953964,6.62053973 8.71858233,7.34726402 8.71858233,8.26866128 Z M2.79647621,9.73592521 L4.79647621,9.73592521 C5.75351617,9.73592521 6.44137145,9.55516314 6.44137145,8.4339813 C6.44137145,7.31279946 5.65687235,7.1320374 4.79647621,7.1320374 L2.79647621,7.1320374 L2.79647621,9.73592521 Z M2.79647621,2.25 L2.79647621,4.8679626 L4.79647621,4.8679626 C5.75351617,4.8679626 6.45450754,4.68118322 6.45450754,3.56000137 C6.45450754,2.43881953 5.65698049,2.25 4.79647621,2.25 L2.79647621,2.25 Z"></path>
            </g>
        </g>
        <g>
            <rect fill="#BBBBBB" x="0" y="0" width="32" height="16"></rect>
            <g transform="translate(2.600000, 2.000000)" fill="#FFFFFF" fill-rule="nonzero">
                <path d="M2.55536721,2.26055079 C2.55363588,2.26129956 2.55238838,2.26167853 2.55172009,2.26170782 C2.55392148,2.26161134 2.55612844,2.26152456 2.55835542,2.26144743 L2.55536721,2.26055079 Z M2.83807187,1.99890225 C3.07369015,3.01552517 8.39583329,8.60201341 8.39583329,9.96351701 C8.39583329,11.2227301 7.37873304,12 6.09796783,12 L2.93891466,12 C2.23987675,12 1.70308794,11.8432912 1.22661401,11.4468856 C0.729972602,11.0431642 0.399485382,10.615424 0.399485382,10 C0.399485382,9.28827048 0.853649466,8.74243349 1.57395347,8.74243349 C2.2131984,8.74243349 2.66209495,9.26062279 2.66209495,9.88812604 C2.66209495,9.9972814 2.60878275,10 2.88136359,10 L5.8240742,10 L0.959512889,3.48276241 C0.554904832,2.96231221 0.399485382,2.60861979 0.399485382,2.0502452 C0.399485382,1.33656508 0.742529832,0.717340776 1.34969914,0.325016198 C1.52155939,0.214190432 1.69235628,0.136087642 1.87154882,0.0849665239 C2.12587288,0.012411435 2.30948722,0 2.76501035,0 L5.81021249,0 C6.49439542,0 7.02962305,0.167726024 7.50535103,0.577776965 C7.98795001,1.00388442 8.31961513,1.38394865 8.31961513,1.98671551 C8.31961513,2.7033129 7.89097516,3.23374798 7.16016036,3.23374798 C6.50748119,3.23374798 6.05575445,2.78321156 6.05575445,2.1456065 C6.05575445,1.97330965 6.09345918,1.99890225 5.78143696,1.99890225 L2.83807187,1.99890225 Z M6.17598033,9.73904927 C6.17989298,9.73886698 6.18370685,9.73864871 6.18746432,9.73839368 C6.18618691,9.73848038 6.18476735,9.73867363 6.1832206,9.73897904 L6.17598033,9.73904927 Z"></path>
                <path d="M11.1515439,10.4044773 L9.83268523,7.73673751 C9.53985205,7.15405925 9.40073231,6.63826624 9.40073231,6.0431688 C9.40073231,5.36844959 9.51738457,4.91996129 9.84565128,4.26485966 L11.166363,1.60843329 C11.7246821,0.47604754 12.4875053,4.54636329e-14 13.7484568,4.54636329e-14 L16.1896464,4.54636329e-14 C16.8088964,4.54636329e-14 17.3964762,0.274963023 17.3964762,1 C17.3964762,1.70349162 16.8063533,1.99909979 16.1896464,1.99909979 L13.7922506,1.99909979 C13.3269065,1.99909979 13.1828518,1.97162009 12.9818931,2.37353738 L11.7345467,5.13180594 C11.5239142,5.56862094 11.474065,5.73014435 11.474065,6.0431688 C11.474065,6.21302711 11.6166523,6.61686093 11.7332315,6.85172935 L12.9536207,9.59775688 C13.1557764,10.0117366 13.3216146,9.99866866 13.8485568,9.99866866 L16.1896464,9.99866866 C16.8086549,9.99866866 17.3964762,10.2931211 17.3964762,11 C17.3964762,11.7068789 16.8063533,12.0000013 16.1885996,12 L13.6771355,11.993647 C12.4629286,12.0000013 11.6912804,11.5000848 11.1515439,10.4044773 Z"></path>
                <path d="M20.3964762,7.13331541 L20.3964762,10.8680697 C20.3964762,11.5738166 20.1340158,12 19.3964762,12 C18.6589096,12 18.3964762,11.573677 18.3964762,10.8680697 L18.3964762,1.13193034 C18.3964762,0.427195919 18.7970433,9.06949343e-14 19.3964762,4.54636329e-14 C19.9959091,1.66533454e-16 20.4001463,0.427055431 20.4001463,1.13193034 L20.4001463,4.86806966 L24.3964762,4.86806966 L24.3964762,1.13193034 C24.3964762,0.427055431 24.6592454,4.54636329e-14 25.3964762,4.54636329e-14 C26.1337326,4.54636329e-14 26.3964762,0.427195919 26.3964762,1.13193034 L26.3964762,10.8680697 C26.3964762,11.573677 26.1340428,12 25.3964762,12 C24.6589367,12 24.3964762,11.5738166 24.3964762,10.8680697 L24.3964762,7.14466009 L20.3964762,7.13331541 Z"></path>
            </g>
        </g>
        <rect stroke="#666666" x="0.5" y="0.5" width="31" height="31"></rect>
    </g>
</svg>