<?xml version="1.0" encoding="UTF-8" standalone="no"?>
<svg width="32px" height="32px" viewBox="0 0 32 32" version="1.1" xmlns="http://www.w3.org/2000/svg" xmlns:xlink="http://www.w3.org/1999/xlink">
    <!-- Generator: Sketch 50.2 (55047) - http://www.bohemiancoding.com/sketch -->
    <title>WindowSymbol</title>
    <desc>Created with Sketch.</desc>
    <defs></defs>
    <g stroke="none" stroke-width="1" fill="none" fill-rule="evenodd">
        <path d="M10,2.921 L10,29.079 C16.773,28.565 22.13,22.902 22.13,16 C22.13,9.098 16.773,3.435 10,2.921 Z" fill="#F3F3F3" fill-rule="nonzero"></path>
        <path d="M22.949,15 C22.433,7.747 16.382,2 9,2 L9,2.87 L9,8 L2,8 L2,10 L9,10 L9,22 L2,22 L2,24 L9,24 L9,29.13 L9,30 C16.382,30 22.433,24.253 22.949,17 L30,17 L30,15 L22.949,15 Z M10,29.079 L10,2.921 C16.773,3.435 22.13,9.098 22.13,16 C22.13,22.902 16.773,28.565 10,29.079 Z" fill="#333333" fill-rule="nonzero"></path>
    </g>
</svg>