<?xml version="1.0" encoding="UTF-8" standalone="no"?>
<svg width="32px" height="32px" viewBox="0 0 32 32" version="1.1" xmlns="http://www.w3.org/2000/svg" xmlns:xlink="http://www.w3.org/1999/xlink">
    <!-- Generator: Sketch 49.3 (51167) - http://www.bohemiancoding.com/sketch -->
    <title>WireCapRound</title>
    <desc>Created with Sketch.</desc>
    <defs></defs>
    <g stroke="none" stroke-width="1" fill="none" fill-rule="evenodd">
        <g transform="translate(0.000000, 6.000000)" fill-rule="nonzero">
            <path d="M9.149,1 C8.889,1.048 1,2.385 1,10 C1,17.63 9.142,18.987 9.224,19 L32,19 L32,1 L9.149,1 Z" fill="#F3F3F3"></path>
            <path d="M32,19.977 L9.125,19.977 C8.959,19.956 0.024,18.433 0.024,10 C0.024,1.565 8.96,0.044 9.05,0.029 L32,0.023 L32,0.976 L9.125,0.976 C8.865,1.024 0.976,2.384 0.976,9.999 C0.976,17.629 9.118,19.016 9.2,19.028 L32,19.022 L32,19.977 Z" fill="#000000"></path>
        </g>
        <g transform="translate(8.000000, 12.000000)" fill-rule="nonzero">
            <rect fill="#CCCCCC" x="1" y="1" width="6" height="6"></rect>
            <path d="M8,3 L8,0 L0,0 L0,8 L8,8 L8,5 L24,5 L24,3 L8,3 Z M7,7 L1,7 L1,1 L7,1 L7,3 L7,5 L7,7 Z" fill="#666666"></path>
        </g>
    </g>
</svg>