<?xml version="1.0" encoding="UTF-8" standalone="no"?>
<svg width="32px" height="32px" viewBox="0 0 32 32" version="1.1" xmlns="http://www.w3.org/2000/svg" xmlns:xlink="http://www.w3.org/1999/xlink">
    <!-- Generator: Sketch 49.3 (51167) - http://www.bohemiancoding.com/sketch -->
    <title>WireBend7</title>
    <desc>Created with Sketch.</desc>
    <defs></defs>
    <g stroke="none" stroke-width="1" fill="none" fill-rule="evenodd">
        <path d="M9.625,2.97999954 L29.875,2.97999954 L29.875,0.979999542 L9.625,0.979999542 C5.20898,0.979999542 2.125,3.57130954 2.125,7.28126954 C2.125,9.75733954 3.38574,13.0112495 9.3916,14.4521695 C10.39111,14.6923995 11.69678,14.9853695 13.10644,15.3017795 C16.31689,16.0219895 19.95605,16.8393795 21.82226,17.4331295 C25.83496,18.7094895 27.625,20.4204295 27.625,22.9799995 C27.625,26.6704295 24.66211,27.9799995 22.125,27.9799995 L3,27.9799995 L3,29.9799995 L22.125,29.9799995 C26.61133,29.9799995 29.625,27.1665195 29.625,22.9799995 C29.625,17.8169095 24.20801,16.0932795 22.42773,15.5268795 C20.47949,14.9067595 16.79492,14.0800995 13.54492,13.3501195 C12.14551,13.0361595 10.8501,12.7456295 9.8584,12.5078295 C6.0542,11.5947495 4.125,9.83644954 4.125,7.28126954 C4.125,4.31007954 6.88721,2.97999954 9.625,2.97999954 Z" fill="#666666" fill-rule="nonzero"></path>
    </g>
</svg>