<?xml version="1.0" encoding="UTF-8" standalone="no"?>
<svg width="32px" height="32px" viewBox="0 0 32 32" version="1.1" xmlns="http://www.w3.org/2000/svg" xmlns:xlink="http://www.w3.org/1999/xlink">
    <!-- Generator: Sketch 49.3 (51167) - http://www.bohemiancoding.com/sketch -->
    <title>WireCapFlat</title>
    <desc>Created with Sketch.</desc>
    <defs></defs>
    <g stroke="none" stroke-width="1" fill="none" fill-rule="evenodd">
        <polygon fill="#F3F3F3" fill-rule="nonzero" points="0 6 0 26 32 26 32 25 32 7 32 6"></polygon>
        <polygon fill="#333333" fill-rule="nonzero" points="32 7 32 6 0 6 0 26 32 26 32 25 1 25 1 7"></polygon>
        <g transform="translate(6.000000, 12.000000)" fill-rule="nonzero">
            <rect fill="#CCCCCC" x="1" y="1" width="6" height="6"></rect>
            <path d="M8,3 L8,0 L0,0 L0,8 L8,8 L8,5 L26,5 L26,3 L8,3 Z M7,7 L1,7 L1,1 L7,1 L7,3 L7,5 L7,7 Z" fill="#666666"></path>
        </g>
    </g>
</svg>