<?xml version="1.0" encoding="UTF-8" standalone="no"?>
<svg width="32px" height="32px" viewBox="0 0 32 32" version="1.1" xmlns="http://www.w3.org/2000/svg" xmlns:xlink="http://www.w3.org/1999/xlink">
    <!-- Generator: Sketch 50.2 (55047) - http://www.bohemiancoding.com/sketch -->
    <title>ZoomFlip</title>
    <desc>Created with Sketch.</desc>
    <defs></defs>
    <g stroke="none" stroke-width="1" fill="none" fill-rule="evenodd">
        <path d="M12.322,23.281 C10.014,21.573 8.626,18.994 8.335,16.254 L12.955,16.254 L6.477,7 L0,16.254 L4.682,16.254 C4.985,20.134 6.899,23.808 10.151,26.214 C12.519,27.967 15.264,28.82 18,28.861 L18,25.207 C16.02,25.164 14.036,24.549 12.322,23.281 Z" fill="#585858" fill-rule="nonzero"></path>
        <path d="M19.678,9.58 C21.986,11.288 23.374,13.867 23.665,16.607 L19.045,16.607 L25.523,25.861 L32,16.607 L27.318,16.607 C27.015,12.727 25.101,9.053 21.849,6.647 C19.481,4.894 16.736,4.041 14,4 L14,7.654 C15.98,7.697 17.964,8.312 19.678,9.58 Z" fill="#585858" fill-rule="nonzero"></path>
    </g>
</svg>